<?xml version="1.0" standalone="no"?>
<!DOCTYPE svg PUBLIC "-//W3C//DTD SVG 20010904//EN"
 "http://www.w3.org/TR/2001/REC-SVG-20010904/DTD/svg10.dtd">
<svg version="1.0" xmlns="http://www.w3.org/2000/svg"
 width="72.000000pt" height="71.000000pt" viewBox="0 0 72.000000 71.000000"
 preserveAspectRatio="xMidYMid meet">
<metadata>
Created by potrace 1.15, written by Peter Selinger 2001-2017
</metadata>
<g transform="translate(0.000000,71.000000) scale(0.100000,-0.100000)"
fill="#000000" stroke="none">
<path d="M639 573 c-1 -5 -1 -11 0 -16 1 -4 -38 -48 -86 -98 l-87 -90 -11 46
c-7 25 -22 57 -35 70 -27 29 -24 30 65 40 64 6 140 24 133 30 -2 3 -20 0 -39
-4 -27 -7 -116 -15 -248 -21 -2 0 14 -13 35 -28 50 -36 63 -53 74 -92 7 -24 5
-40 -6 -61 -8 -16 -17 -29 -20 -29 -12 0 -72 48 -145 115 -94 88 -161 114
-205 79 -18 -14 -18 -15 4 -4 26 13 75 5 112 -18 14 -9 64 -53 112 -99 48 -46
95 -83 104 -83 12 0 15 -7 11 -27 l-5 -28 15 23 c17 24 48 30 56 10 3 -8 6 -6
6 4 1 9 -7 21 -16 26 -14 9 -7 21 53 85 38 41 70 74 72 72 1 -1 -14 -36 -33
-78 -19 -42 -35 -79 -35 -84 1 -9 116 228 117 241 1 5 7 13 15 17 10 7 10 9 1
9 -7 0 -14 -3 -14 -7z"/>
</g>
</svg>
