<?xml version="1.0" encoding="utf-8"?>
<!-- Generator: Adobe Illustrator 21.1.0, SVG Export Plug-In . SVG Version: 6.00 Build 0)  -->
<svg version="1.1" id="Layer_1" xmlns="http://www.w3.org/2000/svg" xmlns:xlink="http://www.w3.org/1999/xlink" x="0px" y="0px"
	 viewBox="0 0 168.3 101.5" style="enable-background:new 0 0 168.3 101.5;" xml:space="preserve">
<style type="text/css">
	.st0{fill:none;stroke:#FFFFFF;stroke-width:2;stroke-miterlimit:10;}
	.st1{fill:#FFFFFF;}
</style>
<g id="XMLID_26_">
	<g id="XMLID_7_">
		<path id="XMLID_11_" class="st0" d="M26.9,87.1C26,78.1,28.2,69,32,60.8s9.1-16.7,14.4-24.1c-5.5,5.7-13.7,7.8-21.4,9.6
			c-6.7,1.6-13.4,3.2-20.1,4.8c5,0.9,11.1,2.6,14.1,6.8c0.6,0.9,1.1,1.9,1.1,3c0,2.8-3.2,4.8-3.6,7.6c2.2-2.6,7.3-3.5,8.7-0.5
			c0.5,1.1,0.6,2.2,0.7,3.4c0.4,4.4,0.8,8.7,1.2,13.1"/>
		<path id="XMLID_8_" class="st0" d="M17.5,68.1c4.3-6.8,9.6-13,15.7-18.2c2.2-1.9,4.5-3.6,6.5-5.6c2-2,3.8-4.3,5.2-6.7"/>
	</g>
	<g id="XMLID_14_">
		<path id="XMLID_18_" class="st0" d="M95.3,94.6c-0.9-8.9,1.3-17.9,5-26.1s9-16.6,14.2-23.9c-5.5,5.6-13.5,7.7-21.2,9.5
			c-6.6,1.6-13.2,3.2-19.9,4.8c5,0.9,11,2.6,13.9,6.7c0.6,0.9,1.1,1.9,1.1,3c0,2.8-3.1,4.7-3.6,7.5c2.1-2.6,7.2-3.5,8.6-0.5
			c0.5,1,0.6,2.2,0.7,3.4c0.4,4.3,0.8,8.6,1.3,13"/>
		<path id="XMLID_15_" class="st0" d="M86,75.7c4.2-6.8,9.5-12.9,15.5-18c2.2-1.8,4.4-3.6,6.5-5.6c2-2,3.7-4.2,5.2-6.6"/>
	</g>
	<g id="XMLID_16_">
		<path id="XMLID_36_" class="st0" d="M148.3,50.6c-0.9-8.9,1.3-17.9,5-26.1c3.7-8.1,9-16.6,14.2-23.9c-5.5,5.6-13.5,7.7-21.2,9.5
			c-6.6,1.6-13.2,3.2-19.9,4.8c5,0.9,11,2.6,13.9,6.7c0.6,0.9,1.1,1.9,1.1,3c0,2.8-3.1,4.7-3.6,7.5c2.1-2.6,7.2-3.5,8.6-0.5
			c0.5,1,0.6,2.2,0.7,3.4c0.4,4.3,0.8,8.6,1.3,13"/>
		<path id="XMLID_17_" class="st0" d="M139,31.7c4.2-6.8,9.5-12.9,15.5-18c2.2-1.8,4.4-3.6,6.5-5.6c2-2,3.7-4.2,5.2-6.6"/>
	</g>
	<g id="XMLID_5_">
		<path class="st1" d="M138.9,55.5c0,5.8-0.9,11.7-2.9,17.2c-1.9,5.6-5,10.9-9.1,15.3c-4.3,4.3-9.4,7.6-14.9,10
			c-5.6,2.3-11.6,3.5-17.6,3.5c-6,0-12-1.2-17.6-3.5c-5.6-2.3-10.7-5.7-14.9-10c-4.3-4.3-7.7-9.4-10-14.9
			c-2.3-5.6-3.5-11.6-3.5-17.6c0-6,1.2-12,3.5-17.6c2.3-5.6,5.7-10.7,10-14.9c4.3-4.3,9.4-7.7,14.9-10c5.6-2.3,11.6-3.5,17.6-3.5
			c6,0,12,1.2,17.6,3.5c5.6,2.3,10.7,5.7,14.9,10c4.1,4.4,7.2,9.7,9.1,15.3C137.9,43.9,138.8,49.7,138.9,55.5z M138.9,55.5
			c0-5.8-1.4-11.6-3.9-16.8c-2.5-5.2-6.1-9.8-10.2-13.6c-4-4-8.7-7.2-14-9.3c-5.2-2.2-10.8-3.3-16.5-3.3c-5.6,0-11.3,1.1-16.5,3.3
			c-5.2,2.2-10,5.3-14,9.3c-4,4-7.2,8.8-9.3,14c-2.2,5.2-3.3,10.8-3.3,16.5c0,5.6,1.1,11.3,3.3,16.5c2.2,5.2,5.3,10,9.3,14
			c4,4,8.8,7.2,14,9.3c5.2,2.2,10.8,3.3,16.5,3.3c5.6,0,11.3-1.1,16.5-3.3c5.2-2.1,10-5.4,13.9-9.3c4.1-3.8,7.6-8.4,10.2-13.6
			C137.5,67.2,138.8,61.3,138.9,55.5z"/>
	</g>
</g>
</svg>
