<?xml version="1.0" encoding="utf-8"?>
<!-- Generator: Adobe Illustrator 21.1.0, SVG Export Plug-In . SVG Version: 6.00 Build 0)  -->
<svg version="1.1" id="Layer_1" xmlns="http://www.w3.org/2000/svg" xmlns:xlink="http://www.w3.org/1999/xlink" x="0px" y="0px"
	 viewBox="0 0 76 76.1" style="enable-background:new 0 0 76 76.1;" xml:space="preserve">
<g>
	<path d="M37.6,76l19-3.3L76,76.1l-7.8-48.3l-0.1-0.3l-14.3-3.3c1.1-2.4,1.8-4.6,1.8-6.5C55.7,7.9,47.7,0,38,0
		c-9.7,0-17.7,7.9-17.7,17.7c0,2,0.7,4.3,1.8,6.7L8,27.5L0,76.1l19.4-3.4L37.6,76z M21.9,54.6l0.6,0.4c0.2,0.1,0.5,0.1,0.7-0.2
		c0.1-0.2,0.1-0.5-0.2-0.7l-1-0.6l2.3-21.3c0.2,0.1,0.4,0.2,0.7,0.4c0.2,0.1,0.5,0.1,0.7-0.2c0.1-0.2,0.1-0.5-0.2-0.7
		c-0.4-0.3-0.8-0.4-1-0.6l0.3-2.3c1.1,1.8,2.3,3.5,3.6,5.2c0,0,0,0,0,0c-0.2,0.2-0.1,0.5,0.1,0.7c0.4,0.3,0.7,0.5,1.1,0.8
		c3.7,4.7,7.2,8.4,8,9.2l-0.2,15.8c-0.5-0.1-1-0.2-1.4-0.4c-0.3-0.1-0.5,0.1-0.6,0.4c-0.1,0.3,0.1,0.5,0.4,0.6
		c0.5,0.1,1.1,0.3,1.7,0.4l-0.2,13.2L20,71.8L21.9,54.6z M40.6,42.6c0.4-0.1,0.9-0.1,1.4-0.3c0.3-0.1,0.4-0.4,0.3-0.6
		c-0.1-0.2-0.3-0.4-0.6-0.3c2.9-3.3,7.1-8.3,10.1-13.3l0.3,3.3c-0.3,0.4-0.5,0.7-0.8,1c-0.2,0.2-0.1,0.5,0.1,0.7
		c0.1,0.1,0.2,0.1,0.3,0.1c0.2,0,0.3-0.1,0.4-0.2c0-0.1,0.1-0.1,0.1-0.2L55,60.8l0,0c-0.9,0.5-1.7,0.8-2.4,1
		c-0.3,0.1-0.4,0.3-0.4,0.6c0.1,0.2,0.3,0.4,0.5,0.4c0,0,0.1,0,0.1,0c0.7-0.2,1.5-0.5,2.3-0.9l1,10l-17.9,3.1l0.2-13.2
		c0.1,0,0.3-0.1,0.4-0.1c0.3-0.1,0.4-0.3,0.4-0.6c-0.1-0.3-0.3-0.4-0.6-0.4c0,0-0.1,0-0.1,0l0.2-15.8C38.8,44.5,39.6,43.7,40.6,42.6
		z M67.3,28.4l7.5,46.5L57,71.8l-3.8-39.2l0.2,0.2c0.2,0.2,0.5,0.1,0.7-0.1c0.2-0.2,0.1-0.5-0.1-0.7l-1-0.8l-0.4-4.7
		c0.3-0.5,0.5-1,0.8-1.4L67.3,28.4z M38,1c9.2,0,16.7,7.5,16.7,16.7c0,8.4-14.2,23.7-16.7,26.3c-2.5-2.6-16.7-17.8-16.7-26.3
		C21.3,8.5,28.8,1,38,1z M8.9,28.4l13.8-3.1c0.4,0.7,0.8,1.5,1.2,2.2l-0.4,3.7c-0.2,0.1-0.6,0.3-1.1,0.6c-0.2,0.1-0.3,0.4-0.2,0.7
		c0.1,0.2,0.3,0.3,0.4,0.3c0.1,0,0.2,0,0.2-0.1c0.2-0.1,0.3-0.2,0.5-0.3L21,53.5l-1,0.8c-0.2,0.2-0.3,0.5-0.1,0.7
		c0.1,0.1,0.2,0.2,0.4,0.2c0.1,0,0.2,0,0.3-0.1l0.3-0.2L19,71.8L1.2,74.9L8.9,28.4z"/>
	<path d="M47.5,16.1c0-5.3-4.3-9.5-9.5-9.5s-9.5,4.3-9.5,9.5c0,5.3,4.3,9.5,9.5,9.5S47.5,21.3,47.5,16.1z M29.5,16.1
		c0-4.7,3.8-8.5,8.5-8.5s8.5,3.8,8.5,8.5s-3.8,8.5-8.5,8.5S29.5,20.8,29.5,16.1z"/>
	<path d="M18.8,34.7c0.1,0,0.1,0,0.2,0c0.4-0.2,0.8-0.4,1.4-0.7c0.2-0.1,0.3-0.4,0.2-0.7c-0.1-0.2-0.4-0.3-0.7-0.2
		c-0.5,0.3-1,0.5-1.3,0.7c-0.3,0.1-0.4,0.4-0.2,0.7C18.5,34.6,18.6,34.7,18.8,34.7z"/>
	<path d="M9.9,61.8c-0.5,0.3-0.9,0.6-1.2,0.9c-0.2,0.2-0.3,0.5-0.1,0.7c0.1,0.1,0.3,0.2,0.4,0.2c0.1,0,0.2,0,0.3-0.1
		c0.4-0.3,0.8-0.5,1.2-0.9c0.2-0.2,0.3-0.5,0.1-0.7C10.4,61.7,10.1,61.6,9.9,61.8z"/>
	<path d="M18,55.8l-2,1.5c-0.2,0.2-0.3,0.5-0.1,0.7c0.1,0.1,0.2,0.2,0.4,0.2c0.1,0,0.2,0,0.3-0.1l2-1.5c0.2-0.2,0.3-0.5,0.1-0.7
		C18.5,55.7,18.2,55.7,18,55.8z"/>
	<path d="M13.9,58.8c-0.7,0.5-1.4,1-2,1.5c-0.2,0.2-0.3,0.5-0.1,0.7c0.1,0.1,0.2,0.2,0.4,0.2c0.1,0,0.2,0,0.3-0.1
		c0.6-0.5,1.3-1,2-1.5c0.2-0.2,0.3-0.5,0.1-0.7C14.5,58.7,14.2,58.7,13.9,58.8z"/>
	<path d="M30.2,59.2c1,0.5,1.9,0.9,2.7,1.2c0.1,0,0.1,0,0.2,0c0.2,0,0.4-0.1,0.5-0.3c0.1-0.3,0-0.5-0.3-0.6
		c-0.8-0.3-1.6-0.7-2.6-1.2c-0.2-0.1-0.5,0-0.7,0.2C29.8,58.7,29.9,59,30.2,59.2z"/>
	<path d="M64.4,53.5c-0.2-0.1-0.5-0.1-0.7,0.2c-0.4,0.7-1,1.4-1.7,2.1c-0.2,0.2-0.2,0.5,0,0.7c0.1,0.1,0.2,0.1,0.4,0.1
		c0.1,0,0.3,0,0.4-0.1c0.8-0.8,1.4-1.5,1.9-2.3C64.7,53.9,64.7,53.6,64.4,53.5z"/>
	<path d="M46.6,61c-0.1,0.3,0.1,0.5,0.3,0.6c0.4,0.1,0.8,0.3,1.2,0.4c0.5,0.2,1,0.4,1.6,0.5c0,0,0.1,0,0.1,0c0.2,0,0.4-0.1,0.5-0.4
		c0.1-0.3-0.1-0.5-0.3-0.6c-0.5-0.1-1-0.3-1.5-0.5c-0.4-0.1-0.8-0.3-1.2-0.4C47,60.6,46.7,60.7,46.6,61z"/>
	<path d="M41.4,61.1C41.4,61.1,41.4,61.1,41.4,61.1C42,61,42.5,61,43.1,61c0.4,0,0.8,0,1.1,0.1c0.3,0,0.5-0.2,0.5-0.4
		c0-0.3-0.2-0.5-0.5-0.5c-0.4,0-0.8-0.1-1.3-0.1c-0.6,0-1.1,0-1.7,0.1c-0.3,0-0.5,0.3-0.4,0.6C40.9,60.9,41.1,61.1,41.4,61.1z"/>
	<path d="M25,56.4c0.9,0.5,1.8,1,2.5,1.4c0.1,0,0.2,0.1,0.2,0.1c0.2,0,0.3-0.1,0.4-0.3c0.1-0.2,0-0.5-0.2-0.7
		c-0.8-0.4-1.7-0.9-2.5-1.4c-0.2-0.1-0.5,0-0.7,0.2C24.7,56,24.8,56.3,25,56.4z"/>
	<path d="M64.3,45.7c0.1,0.2,0.3,0.3,0.5,0.3c0.1,0,0.1,0,0.2,0c0.3-0.1,0.4-0.4,0.3-0.6c-0.3-0.9-0.7-1.8-1.1-2.7
		c-0.1-0.3-0.4-0.4-0.7-0.2c-0.2,0.1-0.4,0.4-0.2,0.7C63.7,44,64,44.9,64.3,45.7z"/>
	<path d="M61.9,40.6c0.1,0.1,0.3,0.2,0.4,0.2c0.1,0,0.2,0,0.3-0.1c0.2-0.2,0.3-0.5,0.1-0.7c-0.5-0.7-1.1-1.4-1.9-2.2
		c-0.2-0.2-0.5-0.2-0.7,0s-0.2,0.5,0,0.7C60.8,39.3,61.4,40,61.9,40.6z"/>
	<path d="M57.9,36.5c0.1,0.1,0.2,0.1,0.3,0.1c0.1,0,0.3-0.1,0.4-0.2c0.2-0.2,0.2-0.5,0-0.7c-0.7-0.6-1.4-1.3-2.2-1.9
		c-0.2-0.2-0.5-0.1-0.7,0.1c-0.2,0.2-0.1,0.5,0.1,0.7C56.5,35.3,57.3,35.9,57.9,36.5z"/>
	<path d="M64.9,48.4c0,0.3,0.1,0.7,0.1,1c0,0.6-0.1,1.2-0.2,1.7c-0.1,0.3,0.1,0.5,0.4,0.6c0,0,0.1,0,0.1,0c0.2,0,0.4-0.2,0.5-0.4
		c0.1-0.6,0.2-1.3,0.2-1.9c0-0.4,0-0.7-0.1-1.1c0-0.3-0.3-0.5-0.6-0.4C65.1,47.9,64.9,48.1,64.9,48.4z"/>
	<path d="M57.3,59.9c0.1,0.2,0.3,0.2,0.4,0.2c0.1,0,0.2,0,0.3-0.1c0.9-0.6,1.7-1.1,2.4-1.6c0.2-0.2,0.3-0.5,0.1-0.7
		c-0.2-0.2-0.5-0.3-0.7-0.1c-0.7,0.5-1.5,1-2.4,1.6C57.3,59.3,57.2,59.6,57.3,59.9z"/>
	<path d="M44.3,41.1c0.1,0,0.2,0,0.3-0.1c0.7-0.5,1.4-1,2.2-1.8c0.2-0.2,0.2-0.5,0-0.7c-0.2-0.2-0.5-0.2-0.7,0
		c-0.7,0.7-1.4,1.2-2.1,1.6c-0.2,0.2-0.3,0.5-0.1,0.7C43.9,41.1,44.1,41.1,44.3,41.1z"/>
	<path d="M48.3,37.5c0.1,0,0.3-0.1,0.4-0.2c0.6-0.6,1.1-1.3,1.8-2.1c0.2-0.2,0.1-0.5-0.1-0.7c-0.2-0.2-0.5-0.1-0.7,0.1
		c-0.6,0.8-1.2,1.5-1.7,2.1c-0.2,0.2-0.2,0.5,0,0.7C48.1,37.4,48.2,37.5,48.3,37.5z"/>
	<path d="M17.4,36c0,0,0.1,0,0.1,0c0.2,0,0.4-0.2,0.5-0.4c0.1-0.3-0.1-0.5-0.4-0.6l-1-0.2l0.5-0.7c0.1-0.2,0.1-0.5-0.2-0.7
		c-0.2-0.1-0.5-0.1-0.7,0.2l-0.6,1l-0.7-0.2c-0.3-0.1-0.5,0.1-0.6,0.4c-0.1,0.3,0.1,0.5,0.4,0.6l0.4,0.1l-0.4,0.7
		c-0.1,0.2-0.1,0.5,0.2,0.7c0.1,0.1,0.2,0.1,0.3,0.1c0.2,0,0.3-0.1,0.4-0.2l0.6-0.9L17.4,36z"/>
	<path d="M8.8,61.2v-2.2c0,0,0,0,0.1-0.1l4.3-4.1c0.2-0.2,0.2-0.4,0.1-0.6s-0.3-0.3-0.5-0.3l-4.5,0.7c-0.2,0-0.4,0.2-0.4,0.5v6.1
		c0,0.3,0.2,0.5,0.5,0.5S8.8,61.4,8.8,61.2z M8.8,55.5l2.5-0.4l-2.5,2.4V55.5z"/>
</g>
</svg>
