<?xml version="1.0" encoding="utf-8"?>
<!-- Generator: Adobe Illustrator 21.1.0, SVG Export Plug-In . SVG Version: 6.00 Build 0)  -->
<svg version="1.1" id="Layer_1" xmlns="http://www.w3.org/2000/svg" xmlns:xlink="http://www.w3.org/1999/xlink" x="0px" y="0px"
	 viewBox="0 0 68.8 89.8" style="enable-background:new 0 0 68.8 89.8;" xml:space="preserve">
<path d="M65,4.8v-2H40.6L7,0L6.8,2.8H3v45.8L0,84.7L3,85v2.8h34l24.8,2.1l0.2-2.1h3V51.1l3.8-46L65,4.8z M8.9,2.2l7.5,0.6H8.8
	L8.9,2.2z M2.2,82.9L3,72.7V83L2.2,82.9z M63,6.7V51v24.2v10.6h-0.9h-2h-23H12.9H5v-0.7v-2V48.6V24.5V4.8h1.6h2h31.8H63V6.7z
	 M65,6.8L66.7,7l-1.7,20V6.8z"/>
<path d="M59,32c0,0.6-0.4,1-1,1H23c-0.6,0-1-0.4-1-1l0,0c0-0.6,0.4-1,1-1h35C58.6,31,59,31.4,59,32L59,32z"/>
<path d="M49,21c0,0.6-0.4,1-1,1H20c-0.6,0-1-0.4-1-1l0,0c0-0.6,0.4-1,1-1h28C48.6,20,49,20.4,49,21L49,21z"/>
<path d="M13,36C13,36,13,36,13,36c-0.4,0-0.7-0.2-0.8-0.4l-2-3c-0.3-0.5-0.2-1.1,0.3-1.4c0.5-0.3,1.1-0.2,1.4,0.3l1.3,1.9l4.1-5
	c0.4-0.4,1-0.5,1.4-0.1c0.4,0.4,0.5,1,0.1,1.4l-5,6C13.6,35.9,13.3,36,13,36z"/>
<path d="M59,43c0,0.6-0.4,1-1,1H23c-0.6,0-1-0.4-1-1l0,0c0-0.6,0.4-1,1-1h35C58.6,42,59,42.4,59,43L59,43z"/>
<path d="M52.5,14c0,0.6-0.4,1-1,1h-35c-0.6,0-1-0.4-1-1l0,0c0-0.6,0.4-1,1-1h35C52.1,13,52.5,13.4,52.5,14L52.5,14z"/>
<path d="M13,47C13,47,13,47,13,47c-0.4,0-0.7-0.2-0.8-0.4l-2-3c-0.3-0.5-0.2-1.1,0.3-1.4c0.5-0.3,1.1-0.2,1.4,0.3l1.3,1.9l4.1-5
	c0.4-0.4,1-0.5,1.4-0.1s0.5,1,0.1,1.4l-5,6C13.6,46.9,13.3,47,13,47z"/>
<path d="M59,54c0,0.6-0.4,1-1,1H23c-0.6,0-1-0.4-1-1l0,0c0-0.6,0.4-1,1-1h35C58.6,53,59,53.4,59,54L59,54z"/>
<path d="M59,65c0,0.6-0.4,1-1,1H23c-0.6,0-1-0.4-1-1l0,0c0-0.6,0.4-1,1-1h35C58.6,64,59,64.4,59,65L59,65z"/>
<path d="M13,69C13,69,13,69,13,69c-0.4,0-0.7-0.2-0.8-0.4l-2-3c-0.3-0.5-0.2-1.1,0.3-1.4c0.5-0.3,1.1-0.2,1.4,0.3l1.3,1.9l4.1-5
	c0.4-0.4,1-0.5,1.4-0.1s0.5,1,0.1,1.4l-5,6C13.6,68.9,13.3,69,13,69z"/>
<path d="M59,76c0,0.6-0.4,1-1,1H23c-0.6,0-1-0.4-1-1l0,0c0-0.6,0.4-1,1-1h35C58.6,75,59,75.4,59,76L59,76z"/>
<path d="M13,80C13,80,13,80,13,80c-0.4,0-0.7-0.2-0.8-0.4l-2-3c-0.3-0.5-0.2-1.1,0.3-1.4s1.1-0.2,1.4,0.3l1.3,1.9l4.1-5
	c0.4-0.4,1-0.5,1.4-0.1c0.4,0.4,0.5,1,0.1,1.4l-5,6C13.6,79.9,13.3,80,13,80z"/>
<path d="M15.6,54.5l2.1-1.7c0.4-0.4,0.5-1,0.1-1.4c-0.4-0.4-1-0.5-1.4-0.1l-2.4,2l-2.4-2c-0.4-0.4-1.1-0.3-1.4,0.1
	c-0.4,0.4-0.3,1.1,0.1,1.4l2.1,1.7l-2.1,1.7c-0.4,0.4-0.5,1-0.1,1.4c0.2,0.2,0.5,0.4,0.8,0.4c0.2,0,0.5-0.1,0.6-0.2l2.4-2l2.4,2
	c0.2,0.2,0.4,0.2,0.6,0.2c0.3,0,0.6-0.1,0.8-0.4c0.4-0.4,0.3-1.1-0.1-1.4L15.6,54.5z"/>
</svg>
