<?xml version="1.0" encoding="utf-8"?>
<!-- Generator: Adobe Illustrator 19.0.0, SVG Export Plug-In . SVG Version: 6.00 Build 0)  -->
<svg version="1.1" id="Layer_1" xmlns="http://www.w3.org/2000/svg" xmlns:xlink="http://www.w3.org/1999/xlink" x="0px" y="0px"
	 viewBox="0 0 251.4 206.9" style="enable-background:new 0 0 251.4 206.9;" xml:space="preserve">
<style type="text/css">
	.st0{fill:#7F152E;}
	.st1{fill:#ED1C24;}
</style>
<g id="XMLID_1_">
	<path id="XMLID_3_" class="st0" d="M28.4,64.9c0,2.6,0.1,4.7,0.3,6.4c0.2,1.7,0.5,3,0.9,4.1c0.3,1.3,0.7,2.2,1.2,2.9H14.3
		c0.4-0.7,0.8-1.6,1.2-2.9c0.3-1,0.6-2.4,0.8-4.1c0.3-1.7,0.4-3.8,0.4-6.4v-0.1V42.9L5.6,10.7c-1.5-3.6-2.8-6.3-3.9-8
		C1.1,1.6,0.5,0.8,0,0h16.5c-0.6,0.6-0.9,1.5-1,2.6c-0.1,1.2,0,2.2,0.3,3.1L26,34.9L37.5,4.9c0.1-0.6,0.3-1.2,0.3-1.8
		c0.1-0.6,0.1-1.2,0.1-1.6c0-0.5,0-1-0.1-1.4h6.3c-0.4,0.4-0.8,1-1.2,1.5c-0.4,0.5-0.7,1.1-1.1,1.7c-0.4,0.6-0.7,1.3-0.9,1.9
		L28.4,38.5v26.3V64.9z"/>
	<path id="XMLID_5_" class="st1" d="M91,17.4c-0.4,0.7-0.7,1.4-1,2.1c-0.3,0.6-0.5,1.3-0.7,2.1c-0.2,0.8-0.3,1.7-0.3,2.6
		c0,2.2,0,4.2-0.1,6c0,1.8-0.1,3.8-0.1,6.1c0,2.3,0,4.6,0,7.1v19.1c0,2.4-0.4,4.6-1.1,6.6c-0.7,2.1-1.8,3.9-3.1,5.4
		c-1.3,1.5-2.9,2.8-4.9,3.6c-1.9,0.9-4.1,1.3-6.4,1.3h-1.1c-6.8,0-12.1-1.4-15.9-4.4c-3.8-2.9-5.7-7.2-5.7-12.9V30.9
		c0-2.6-0.1-4.7-0.4-6.4c-0.3-1.7-0.5-3-0.8-4.1c-0.4-1.2-0.8-2.2-1.2-3h16.6c-0.5,0.7-0.9,1.7-1.2,3c-0.4,1-0.7,2.4-0.9,4.1
		c-0.2,1.7-0.3,3.8-0.3,6.4v30.9c0,2.1,0.2,4,0.5,5.7c0.3,1.8,0.9,3.3,1.7,4.5c0.8,1.3,1.8,2.2,3.1,3c1.3,0.7,2.8,1.1,4.7,1.1h1.1
		c1.8,0,3.5-0.3,5-1c1.5-0.7,2.7-1.7,3.8-2.9c1.1-1.2,1.9-2.7,2.4-4.3c0.6-1.6,0.8-3.4,0.8-5.3V24.4c0-1-0.1-2-0.3-2.8
		c-0.2-0.8-0.4-1.6-0.6-2.1c-0.3-0.7-0.6-1.4-0.9-2H91z M59.4,6.9c-1.5,0.1-3,0.3-4.5,0.7c-1.4,0.4-2.7,0.9-3.7,1.5
		c0.4-1.7,1.2-3.1,2.4-4.2c1.1-1.1,2.4-2.1,3.8-2.8c1.4-0.7,2.7-1.2,4-1.5C62.7,0.2,63.8,0,64.7,0c1.6-0.1,3.1,0,4.4,0.3
		c1.3,0.3,2.6,0.6,3.8,1c1.3,0.4,2.6,0.8,3.9,1c1.4,0.3,2.9,0.4,4.7,0.3C83,2.7,84.3,2.4,85.4,2c1.1-0.4,2.2-1,3.2-1.5
		c-0.5,1.8-1.3,3.3-2.5,4.5c-1.1,1.2-2.4,2.1-3.7,2.8c-1.3,0.7-2.6,1.1-3.9,1.4c-1.3,0.3-2.3,0.4-3.1,0.4c-1.6,0.1-3,0-4.2-0.3
		c-1.2-0.3-2.4-0.6-3.5-1c-1.2-0.4-2.4-0.8-3.7-1C62.7,6.9,61.2,6.8,59.4,6.9z"/>
	<path id="XMLID_8_" class="st0" d="M144.1,64.8c0,2.6,0.1,4.7,0.3,6.4c0.2,1.7,0.5,3.1,0.9,4.1c0.3,1.3,0.7,2.2,1.2,2.9H130
		c0.5-0.5,0.9-1.3,1.3-2.5c0.3-1.1,0.6-2.4,0.8-3.7c0.2-1.3,0.3-2.6,0.3-4c0-1.3,0.1-2.4,0.1-3.3V15.3l-12.7,55.5h-3.4l-13.6-55.4
		v56.1c0,1,0.1,1.8,0.3,2.6c0.2,0.8,0.4,1.5,0.7,2.1c0.3,0.7,0.6,1.4,1,2h-7.5c0.4-0.6,0.7-1.2,1-2c0.2-0.6,0.4-1.3,0.7-2.1
		c0.2-0.8,0.3-1.7,0.3-2.8V12.3C99.2,9.9,99,8,98.8,6.4c-0.2-1.5-0.5-2.8-0.8-3.7c-0.3-1.1-0.7-2-1.1-2.6h13.9l11.2,45.6L132.4,0
		h14.1c-0.5,0.7-0.9,1.6-1.2,2.9c-0.4,1-0.7,2.4-0.9,4.1c-0.2,1.7-0.3,3.9-0.3,6.4v0.1V64.8z"/>
	<path id="XMLID_10_" class="st1" d="M199.3,64.8c0,2.6,0.1,4.7,0.3,6.4c0.2,1.7,0.5,3.1,0.9,4.1c0.3,1.3,0.7,2.2,1.2,2.9h-16.5
		c0.5-0.5,0.9-1.3,1.3-2.5c0.3-1.1,0.6-2.4,0.8-3.7c0.2-1.3,0.3-2.6,0.3-4c0-1.3,0.1-2.4,0.1-3.3V15.3L175,70.9h-3.4L158,15.4v56.1
		c0,1,0.1,1.8,0.3,2.6c0.2,0.8,0.4,1.5,0.7,2.1c0.3,0.7,0.6,1.4,1,2h-7.5c0.4-0.6,0.7-1.2,1-2c0.2-0.6,0.4-1.3,0.7-2.1
		c0.2-0.8,0.3-1.7,0.3-2.8V12.3c-0.1-2.3-0.2-4.3-0.4-5.8c-0.2-1.5-0.5-2.8-0.8-3.7c-0.3-1.1-0.7-2-1.1-2.6H166l11.2,45.6L187.6,0
		h14.1c-0.5,0.7-0.9,1.6-1.2,2.9c-0.4,1-0.7,2.4-0.9,4.1c-0.2,1.7-0.3,3.9-0.3,6.4v0.1V64.8z"/>
	<path id="XMLID_12_" class="st0" d="M235.8,64.9c0,2.6,0.1,4.7,0.3,6.4c0.2,1.7,0.5,3,0.9,4.1c0.3,1.3,0.7,2.2,1.2,2.9h-16.5
		c0.4-0.7,0.8-1.6,1.2-2.9c0.3-1,0.6-2.4,0.8-4.1c0.3-1.7,0.4-3.8,0.4-6.4v-0.1V42.9L213,10.7c-1.5-3.6-2.8-6.3-3.9-8
		c-0.7-1-1.2-1.9-1.8-2.6h16.5c-0.6,0.6-0.9,1.5-1,2.6c-0.1,1.2,0,2.2,0.3,3.1l10.2,29.2l11.5-30.1c0.1-0.6,0.3-1.2,0.3-1.8
		c0.1-0.6,0.1-1.2,0.1-1.6c0-0.5,0-1-0.1-1.4h6.3c-0.4,0.4-0.8,1-1.2,1.5c-0.4,0.5-0.7,1.1-1.1,1.7c-0.4,0.6-0.7,1.3-0.9,1.9
		l-12.4,33.3v26.3V64.9z"/>
	<path id="XMLID_14_" class="st0" d="M92.4,127.8l-1,10.9h-2.5c-0.4-1.4-0.7-2.6-1-3.6c-0.3-1-0.8-1.9-1.7-2.5
		c-0.9-0.7-1.9-1.2-3.1-1.5c-1.2-0.3-3-0.4-5.5-0.4v34.7h7.7v3.4h-7.7v23.9c0,2.5,0.1,4.6,0.3,6.4c0.1,0.9,0.3,1.7,0.4,2.3
		c0.1,0.7,0.3,1.3,0.4,1.9c0.4,1.4,0.8,2.4,1.2,2.9H63.6c0.3-0.4,0.5-0.9,0.7-1.4c0.2-0.5,0.3-1,0.5-1.5c0.1-0.6,0.3-1.2,0.4-1.9
		c0.1-0.7,0.3-1.4,0.4-2.3c0.2-1.8,0.3-3.9,0.3-6.4v-23.9h-7.6v-3.4H66v-34.7c-2.5,0-4.3,0.1-5.5,0.4c-1.2,0.3-2.2,0.8-3.1,1.5
		c-0.7,0.6-1.2,1.4-1.5,2.5c-0.1,0.5-0.3,1.1-0.6,1.7c-0.2,0.6-0.4,1.2-0.6,2h-2.5l-1-10.9H92.4z"/>
	<path id="XMLID_16_" class="st1" d="M135.3,193.6c1,3.3,1.9,5.8,2.8,7.5c0.9,1.7,2.2,3.1,3.9,4.1c-1,0.7-2.1,1.1-3.2,1.3
		c-1.1,0.2-2.1,0.3-2.9,0.3c-2.6-0.1-4.9-0.9-6.9-2.4c-1.9-1.4-3.3-3.7-4-6.8l-6.7-32.8c-2.2-0.1-4.1-0.8-5.6-2.1v29.6
		c0,2.6,0.1,4.7,0.3,6.4c0.2,1.7,0.5,3.1,0.9,4.1c0.3,1.2,0.7,2.2,1.2,2.9H98.4c0.4-0.7,0.8-1.6,1.2-2.9c0.3-1,0.6-2.4,0.8-4.1
		c0.3-1.7,0.4-3.9,0.4-6.4v-51.3c0-2.6-0.1-4.7-0.4-6.4c-0.3-1.7-0.5-3.1-0.8-4.1c-0.4-1.2-0.8-2.2-1.2-2.9h19.5c2.9,0,5.6,0.3,8,1
		c2.4,0.7,4.4,1.7,6.2,3.1c1.7,1.4,3.1,3.3,4,5.6c1,2.3,1.4,5.1,1.4,8.4c0,5.2-1.3,9.5-3.9,12.8s-6.2,5.4-10.9,6.2
		c1.7,0.7,3.4,2.1,5.1,4c1.7,1.9,3,4.9,3.9,8.8L135.3,193.6z M113.7,159.8c0.2,0.6,0.8,1.2,1.7,1.7c0.9,0.5,2,0.8,3.1,0.8
		c1.5,0,2.7-0.4,3.6-1.3c1-0.9,1.7-2.1,2.3-3.5c0.6-1.5,0.9-3.2,1.1-5.2c0.2-2,0.3-4.1,0.3-6.3c0-2.9-0.3-5.3-0.9-7.2
		c-0.6-1.9-1.5-3.5-2.5-4.7c-1-1.2-2.2-2.1-3.5-2.6c-1.3-0.6-2.6-0.8-3.8-0.8h-2.6v19.6c0.5-0.5,1.2-0.9,2-1.2
		c0.8-0.3,1.6-0.4,2.4-0.3c0.8,0.1,1.5,0.3,2.2,0.7c0.7,0.4,1.2,1,1.5,1.9c-1.2-0.2-2.3-0.1-3.4,0.3c-1.1,0.4-1.9,1.1-2.6,1.9
		c-0.7,0.8-1.1,1.8-1.3,2.9C113.2,157.5,113.3,158.6,113.7,159.8z"/>
	<path id="XMLID_19_" class="st1" d="M159.3,192.5c0,2.5,0.1,4.6,0.3,6.4c0.1,0.9,0.3,1.7,0.4,2.3c0.1,0.7,0.3,1.3,0.4,1.9
		c0.4,1.4,0.8,2.4,1.2,2.9h-16.5c0.5-0.7,0.9-1.7,1.2-2.9c0.1-0.6,0.3-1.2,0.4-1.9c0.1-0.7,0.3-1.4,0.4-2.3c0.2-1.8,0.3-3.9,0.3-6.4
		v-0.1v-25.9c0-2.5-0.1-4.6-0.3-6.4c-0.1-0.9-0.3-1.7-0.4-2.3c-0.1-0.7-0.3-1.3-0.4-1.9c-0.3-1.2-0.7-2.1-1.2-2.9h16.5
		c-0.4,0.5-0.8,1.5-1.2,2.9c-0.1,0.6-0.3,1.2-0.4,1.9c-0.1,0.7-0.3,1.4-0.4,2.3c-0.2,1.8-0.3,3.9-0.3,6.4v25.9V192.5z M153.5,149.3
		l-6.7-11.2l6.7-11.3l6.6,11.3L153.5,149.3z"/>
	<path id="XMLID_22_" class="st0" d="M186.9,127.7c2.9,0,5.6,0.3,8,1c2.4,0.7,4.4,1.7,6.2,3.1c1.7,1.4,3.1,3.3,4,5.6
		c1,2.3,1.4,5.1,1.4,8.3c0,5.9-1.6,10.7-4.9,14.1c-3.3,3.5-7.9,5.2-13.8,5.2c-1.2,0-2.4-0.2-3.5-0.6c-1.1-0.4-2-0.9-2.8-1.6v29.6
		c0,2.6,0.1,4.7,0.3,6.4c0.2,1.7,0.5,3.1,0.9,4.1c0.3,1.2,0.7,2.2,1.2,2.9h-16.5c0.4-0.7,0.8-1.6,1.2-2.9c0.3-1,0.6-2.4,0.8-4.1
		c0.3-1.7,0.4-3.9,0.4-6.4v-51.3c0-2.6-0.1-4.7-0.4-6.4c-0.3-1.7-0.5-3.1-0.8-4.1c-0.4-1.2-0.8-2.2-1.2-2.9H186.9z M187.6,162.3
		c1.5,0,2.7-0.4,3.6-1.3c1-0.9,1.7-2.1,2.2-3.5c0.5-1.5,0.9-3.2,1-5.2c0.2-2,0.3-4.1,0.3-6.3c0-2.8-0.3-5.2-0.9-7.2
		c-0.6-2-1.5-3.6-2.5-4.8c-1-1.2-2.2-2.1-3.5-2.6c-1.3-0.6-2.6-0.8-3.8-0.8h-2.6v19.6c0.5-0.5,1.2-0.9,2-1.2
		c0.8-0.3,1.6-0.4,2.4-0.3c0.8,0.1,1.6,0.3,2.3,0.8c0.7,0.4,1.2,1.1,1.5,1.9c-1.2-0.2-2.3-0.1-3.4,0.3c-1.1,0.4-1.9,1.1-2.6,1.9
		s-1.1,1.8-1.3,2.9c-0.2,1.1-0.1,2.2,0.3,3.4c0.2,0.6,0.8,1.2,1.7,1.7C185.3,162,186.4,162.3,187.6,162.3z"/>
</g>
</svg>
