<?xml version="1.0" encoding="utf-8"?>
<!-- Generator: Adobe Illustrator 19.0.0, SVG Export Plug-In . SVG Version: 6.00 Build 0)  -->
<svg version="1.1" id="Layer_1" xmlns="http://www.w3.org/2000/svg" xmlns:xlink="http://www.w3.org/1999/xlink" x="0px" y="0px"
	 viewBox="0 0 1050.1 147" style="enable-background:new 0 0 1050.1 147;" xml:space="preserve">
<style type="text/css">
	.st0{fill:#001415;}
	.st1{fill:none;stroke:#001415;stroke-width:6;stroke-miterlimit:10;}
	.st2{fill:#FACB03;}
</style>
<g id="XMLID_1_">
	<g id="XMLID_3_">
		<path id="XMLID_4_" class="st0" d="M0,28.8h46.3v7.7l-4.2,0.7c-1.5,0.3-2.5,1-2.9,2c-0.4,1.1-0.1,2.4,0.8,3.9L48.8,59l8.4-15.4
			c1-1.6,1.4-3,1.1-4.2c-0.3-1.2-1-1.9-2.3-2.2l-4.2-0.7v-7.7h27v7.7l-4.6,0.7c-0.9,0.2-1.7,0.7-2.3,1.7c-0.6,1-1.3,2.1-2,3.3
			L54.8,69.5v25.5c0,3.2,0.3,5.7,1,7.5c0.6,1.9,1.8,3,3.5,3.3l4.3,0.7v7.7H17.1v-7.7l4.3-0.7c1.7-0.4,2.9-1.5,3.5-3.3
			c0.6-1.9,1-4.4,1-7.5V75.4L10.6,46.2c-1.3-2.6-2.4-4.8-3.4-6.4c-1-1.6-2.2-2.5-3.7-2.7L0,36.5V28.8z"/>
		<path id="XMLID_6_" class="st0" d="M92.4,28.8h46.3v7.7l-4.3,0.7c-1.4,0.3-2.4,1.4-3.2,3.3c-0.8,1.9-1.2,4.4-1.2,7.6V77
			c0,5.3,0.1,9.9,0.4,13.6c0.3,3.7,0.9,6.7,1.8,9.1c0.9,2.4,2.2,4.1,3.9,5.2c1.7,1.1,3.9,1.6,6.6,1.6c1.7,0,3.3-0.3,4.8-1
			c1.5-0.6,2.8-1.8,3.9-3.4c1.1-1.6,1.9-3.8,2.5-6.6c0.6-2.8,0.9-6.3,0.9-10.5v-37c0-2.6-0.3-5-0.9-7.2c-0.6-2.2-1.8-3.4-3.7-3.7
			l-4.2-0.7v-7.7h26.2v7.7l-4.3,0.7c-1.8,0.3-3,1.5-3.6,3.7c-0.6,2.2-0.9,4.6-0.9,7.2v34.6c0,6.4-0.8,11.7-2.4,15.9
			c-1.6,4.2-3.8,7.5-6.5,9.9c-2.7,2.4-5.7,4.2-9.1,5.2c-3.4,1-6.9,1.5-10.4,1.5c-10.8,0-19.1-2.8-25-8.5c-5.9-5.7-8.8-14.5-8.8-26.4
			V48.1c0-3.2-0.4-5.7-1.2-7.6c-0.8-1.9-1.8-3-3.2-3.3l-4.3-0.7V28.8z"/>
		<path id="XMLID_17_" class="st0" d="M203.1,95.1c0,3.2,0.3,5.7,1,7.5c0.6,1.8,1.8,2.9,3.5,3.4l3,0.7v7.7h-24.9v-7.7l4.3-0.7
			c1.6-0.4,2.8-1.5,3.4-3.3c0.6-1.9,1-4.4,1-7.5v-47c0-3.2-0.4-5.7-1.2-7.6c-0.8-1.9-1.8-3-3.2-3.3l-4.3-0.7v-7.7h44l8.4,41.7
			l8-41.7h43.3v7.7l-4.3,0.7c-1.4,0.3-2.4,1.4-3.2,3.3c-0.8,1.9-1.2,4.4-1.2,7.6v47c0,3.2,0.3,5.7,1,7.5c0.6,1.9,1.8,3,3.5,3.3
			l4.3,0.7v7.7h-45.1v-7.7l3-0.7c1.7-0.5,2.9-1.6,3.5-3.4c0.6-1.8,1-4.3,1-7.5v-47h-0.3l-12.9,66.3h-22.4l-13-66.3h-0.3V95.1z"/>
		<path id="XMLID_20_" class="st0" d="M320.7,95.1c0,3.2,0.3,5.7,1,7.5c0.6,1.8,1.8,2.9,3.5,3.4l3,0.7v7.7h-24.9v-7.7l4.3-0.7
			c1.6-0.4,2.8-1.5,3.4-3.3c0.6-1.9,1-4.4,1-7.5v-47c0-3.2-0.4-5.7-1.2-7.6c-0.8-1.9-1.8-3-3.2-3.3l-4.3-0.7v-7.7h44l8.4,41.7
			l8-41.7h43.3v7.7l-4.3,0.7c-1.4,0.3-2.4,1.4-3.2,3.3c-0.8,1.9-1.2,4.4-1.2,7.6v47c0,3.2,0.3,5.7,1,7.5c0.6,1.9,1.8,3,3.5,3.3
			l4.3,0.7v7.7h-45.1v-7.7l3-0.7c1.7-0.5,2.9-1.6,3.5-3.4c0.6-1.8,1-4.3,1-7.5v-47h-0.3l-12.9,66.3H334l-13-66.3h-0.3V95.1z"/>
		<path id="XMLID_22_" class="st0" d="M420.8,28.8h46.3v7.7l-4.2,0.7c-1.5,0.3-2.5,1-2.9,2c-0.4,1.1-0.1,2.4,0.8,3.9l8.7,15.8
			l8.4-15.4c1-1.6,1.4-3,1.1-4.2c-0.3-1.2-1-1.9-2.3-2.2l-4.2-0.7v-7.7h27v7.7l-4.6,0.7c-0.9,0.2-1.7,0.7-2.3,1.7
			c-0.6,1-1.3,2.1-2,3.3l-15.1,27.3v25.5c0,3.2,0.3,5.7,1,7.5c0.6,1.9,1.8,3,3.5,3.3l4.3,0.7v7.7h-46.5v-7.7l4.3-0.7
			c1.7-0.4,2.9-1.5,3.5-3.3c0.6-1.9,1-4.4,1-7.5V75.4l-15.4-29.2c-1.3-2.6-2.4-4.8-3.4-6.4c-1-1.6-2.2-2.5-3.7-2.7l-3.5-0.5V28.8z"
			/>
	</g>
	<g id="XMLID_2_">
		<path id="XMLID_24_" class="st0" d="M683.9,27.2h85.6v34.1h-14.8v-7.6c0-2-0.1-4-0.4-6c-0.3-2-0.7-3.8-1.4-5.4
			c-0.6-1.6-1.4-2.9-2.4-3.9c-1-1-2.2-1.5-3.7-1.5c-1.3,0-2.3,0.5-3.1,1.4c-0.8,0.9-1.4,2-1.8,3.3c-0.4,1.3-0.7,2.7-0.7,4.3
			c-0.1,1.5-0.1,2.9-0.1,4.2v43.5c0,4.4,0.6,7.5,1.8,9.1c1.2,1.6,3.6,2.4,7,2.4v7.7h-46.5v-7.7c3.4,0,5.8-0.8,7-2.4
			c1.2-1.6,1.8-4.6,1.8-9.2V50c0-1.3,0-2.7-0.1-4.2c-0.1-1.5-0.3-3-0.7-4.3c-0.4-1.3-1-2.4-1.8-3.3c-0.8-0.9-1.8-1.4-3.1-1.4
			c-1.5,0-2.7,0.5-3.7,1.5c-1,1-1.8,2.3-2.4,3.9c-0.6,1.6-1.1,3.4-1.4,5.4c-0.3,2-0.4,4-0.4,6v7.6h-14.8V27.2z"/>
		<path id="XMLID_26_" class="st0" d="M820.8,75.6v17.9c0,3.2,0.5,5.8,1.4,7.7c0.9,2,2.6,3.1,5,3.4l3.1,0.4v7.7h-47.1v-7.7l4.3-0.7
			c1.6-0.4,2.8-1.5,3.4-3.3c0.6-1.9,1-4.4,1-7.5v-47c0-3.2-0.4-5.7-1.2-7.6c-0.8-1.9-1.8-3-3.2-3.3l-4.3-0.7v-7.7h60.1
			c8.8,0,15.7,2,20.7,6c5,4,7.5,9.6,7.5,16.6c0,2.7-0.5,5.1-1.4,7.1c-0.9,2-2,3.7-3.4,5.2c-1.4,1.5-2.8,2.7-4.4,3.7
			c-1.6,1-3,1.9-4.3,2.6c2.3,1.3,4.2,2.5,5.8,3.6c1.6,1.1,3,2.3,4,3.6c1,1.3,1.8,2.7,2.4,4.4c0.5,1.7,0.9,3.7,1.1,6
			c0.3,3.9,0.4,6.9,0.4,8.9s0.5,3.1,1.6,3.1c0.5,0,1-0.3,1.5-0.8c0.5-0.5,0.9-1.2,1.2-2c0.4-0.8,0.7-1.7,0.9-2.6
			c0.2-1,0.3-1.8,0.3-2.5h7.9c0,4.7-0.7,8.6-2.2,11.7c-1.5,3.1-3.3,5.5-5.4,7.3c-2.2,1.8-4.5,3-7,3.7c-2.5,0.7-4.7,1.1-6.7,1.1
			c-2.4,0-4.8-0.2-7.1-0.6c-2.3-0.4-4.4-1.4-6.3-2.9c-1.9-1.5-3.5-3.7-4.9-6.6c-1.4-2.9-2.3-6.8-2.7-11.7c-0.2-2-0.6-4-1.2-5.9
			c-0.6-1.9-1.5-3.7-2.5-5.2c-1-1.5-2.2-2.8-3.5-3.8c-1.3-1-2.7-1.5-4.3-1.5H820.8z M825.4,39c-1.5,0-2.6,0.5-3.4,1.6
			c-0.8,1.1-1.2,3.3-1.2,6.5v15.5h11.7c3.5,0,5.9-1.2,7.2-3.5c1.3-2.3,1.9-5.3,1.9-9c0-2.2-0.3-4-1-5.4c-0.7-1.4-1.5-2.5-2.6-3.4
			c-1-0.9-2.2-1.5-3.5-1.8c-1.3-0.4-2.4-0.5-3.5-0.5H825.4z"/>
		<path id="XMLID_29_" class="st0" d="M907.5,46.5c0-3.2-0.4-5.7-1.2-7.6c-0.8-1.9-1.8-3-3.2-3.3l-4.3-0.7v-7.7h46.3V35l-4.3,0.7
			c-1.4,0.3-2.4,1.4-3.2,3.3c-0.8,1.9-1.2,4.4-1.2,7.6v47c0,3.2,0.3,5.7,1,7.5c0.6,1.9,1.8,3,3.5,3.3l4.3,0.7v7.7h-46.5v-7.7
			l4.3-0.7c1.6-0.4,2.8-1.5,3.4-3.3c0.6-1.9,1-4.4,1-7.5V46.5z"/>
		<path id="XMLID_31_" class="st0" d="M996.5,75.5v18.1c0,3.2,0.3,5.7,1,7.5c0.6,1.9,1.8,3,3.5,3.3l4.3,0.7v7.7h-46.5v-7.7l4.3-0.7
			c1.6-0.4,2.8-1.5,3.4-3.3c0.6-1.9,1-4.4,1-7.5v-47c0-3.2-0.4-5.7-1.2-7.6c-0.8-1.9-1.8-3-3.2-3.3l-4.3-0.7v-7.7h65.5
			c8.3,0,14.7,2,19.2,5.9s6.7,10.4,6.6,19.4c0,4-0.7,7.4-2.1,10.3c-1.4,2.9-3.3,5.3-5.8,7.1c-2.4,1.9-5.3,3.2-8.6,4.1
			c-3.3,0.9-6.9,1.4-10.8,1.4H996.5z M996.5,62.4h14.3c2.3,0,4.4-1.1,6.3-3.2c1.9-2.1,2.9-4.8,2.9-8.1c0-4.3-1-7.3-2.9-9.2
			c-1.9-1.9-4.1-2.9-6.3-2.9h-7.7c-2,0-3.6,0.6-4.8,1.7c-1.2,1.1-1.8,3.3-1.8,6.5V62.4z"/>
	</g>
	<g id="XMLID_8_">
		<path id="XMLID_137_" class="st0" d="M650.3,123.7c2-3.5,5.4-8.6,11-16.5c-0.5-0.4-0.9-0.7-1.4-1.1c-4.8,6-9.5,11.9-14.3,17.9
			c-0.4-0.3-0.7-0.6-1.1-0.8c4.7-6.1,9.3-12.1,14-18.2c-0.5-0.4-0.9-0.7-1.4-1.1c-4.8,6-9.5,11.9-14.3,17.9
			c-0.5-0.4-0.9-0.7-1.4-1.1c4.8-6,9.5-11.9,14.3-17.9c-0.5-0.4-0.9-0.7-1.4-1.1c-4.8,6-9.5,11.9-14.3,17.9
			c-0.5-0.4-0.9-0.7-1.4-1.1c4.5-6.1,9.1-12.1,13.6-18.2c-0.1-0.1-0.5-0.9-1.1-0.8c-0.2,0-0.3,0.1-0.6,0.4c-0.3,0.3-0.7,0.8-1.1,1.4
			c-5.5,6.7-9.6,11.4-13.1,14.9c-0.3,0.3-3.2,3.1-4.5,7.3c-0.8,2.6-0.5,4.1,0,5.2c0.2,0.4,0.5,0.8,0.7,1c1,0.2,2.1,0.7,2.9,1.4
			c0.5,0.4,1,0.9,1.3,1.5c0.4,0.3,0.9,0.6,1.6,0.7c1.1,0.2,1.9-0.2,2.8-0.7c3.2-1.7,5-3.5,5-3.5C648.7,126.5,650.1,124,650.3,123.7z
			"/>
		<g id="XMLID_123_">
			<g id="XMLID_136_">
				<path id="XMLID_65_" class="st0" d="M564.2,32.1c0,0-0.8,0.7-2.3,2c-0.8,0.6-1.6,1.5-2.5,2.5c-0.5,0.5-1,1.1-1.5,1.7
					c-0.5,0.6-1.1,1.2-1.6,1.9c-2.2,2.8-4.6,6.5-6.6,10.9c-0.5,1.1-0.9,2.3-1.4,3.5c-0.4,1.2-0.8,2.5-1.2,3.8
					c-0.3,1.3-0.8,2.6-1.2,4c-0.4,1.4-0.7,2.8-0.9,4.2c-0.6,2.9-0.7,6-0.7,9.1c0.1,1.6,0.1,3.2,0.4,4.8l0.2,1.2l0.1,0.6l0,0.2
					c-0.1-0.3,0,0,0-0.1l0,0.1l0.1,0.3c0.2,0.9,0.4,1.7,0.6,2.6l0.3,1.3l0.2,0.7l0.2,0.6c0.3,0.8,0.5,1.6,0.8,2.4
					c0.4,1.6,1.3,3.2,2,4.8c0.2,0.4,0.3,0.8,0.6,1.2l0.7,1.2c0.5,0.8,0.9,1.6,1.4,2.3c0.5,0.8,1,1.5,1.6,2.2c0.5,0.7,1,1.5,1.6,2.2
					c4.7,5.7,10.8,10.5,17.9,13.7c7.1,3.1,15,4.6,22.9,4.2c0.5,0,1,0,1.5-0.1l1.5-0.2l1.5-0.2l0.7-0.1l0.4,0l0.1,0
					c-0.3,0.1,0,0-0.1,0l0.2,0l3.1-0.7l1.5-0.3c0.5-0.1,0.9-0.3,1.4-0.4c1.8-0.6,3.6-1.1,5.4-2c0.9-0.4,1.8-0.8,2.7-1.2l2.5-1.4
					l1.3-0.7c0.4-0.3,0.8-0.5,1.2-0.8c0.8-0.6,1.6-1.1,2.4-1.7c0.8-0.5,1.5-1.2,2.2-1.8c0.7-0.6,1.5-1.2,2.1-1.9
					c0.7-0.7,1.3-1.4,2-2c0.3-0.3,0.7-0.7,1-1l0.9-1.1c0.6-0.7,1.2-1.5,1.7-2.2c0.6-0.7,1-1.5,1.5-2.3c4-6.2,6.5-13.1,7.3-19.8
					c0.1-0.8,0.1-1.7,0.2-2.5c0-0.8,0.2-1.6,0.1-2.5c0-0.8,0-1.6,0-2.4c0-0.8,0-1.6-0.1-2.4c-0.1-0.8-0.2-1.6-0.3-2.3
					c0-0.4-0.1-0.8-0.1-1.2l-0.1-0.6l0-0.1c0-0.1,0,0.1,0,0l0-0.2l-0.1-0.3c-0.2-0.8-0.3-1.6-0.5-2.4c-0.2-0.7-0.4-1.4-0.6-2.1
					c-0.2-0.7-0.4-1.4-0.6-2.1c-0.2-0.7-0.4-1.4-0.7-2c-0.3-0.6-0.6-1.3-0.8-1.9c-0.3-0.6-0.5-1.3-0.8-1.9c-1-2.5-2.1-4.9-3.4-6.9
					c-2.5-4.2-5.2-7.6-7.8-10.1c-2.5-2.5-4.8-4.3-6.4-5.5c-1.6-1.1-2.5-1.7-2.5-1.7s1,0.4,2.8,1.2c1.8,0.9,4.4,2.1,7.5,4.3
					c3.1,2.1,6.6,5.1,10,9.2c1.7,2,3.4,4.4,4.9,7c0.4,0.7,0.8,1.3,1.1,2c0.3,0.7,0.6,1.5,0.8,2.2c0.3,0.7,0.5,1.5,0.8,2.3
					c0.3,0.8,0.5,1.5,0.7,2.4c0.2,0.8,0.5,1.7,0.7,2.5c0.2,0.8,0.3,1.6,0.5,2.4l0.1,0.3l0,0.2c0,0,0,0.2,0,0.2l0,0.1l0.1,0.6
					c0.1,0.4,0.1,0.9,0.2,1.3c0.1,0.9,0.2,1.8,0.3,2.6c0.1,0.9,0.1,1.8,0.1,2.7c0,0.9,0,1.8,0,2.8c0.1,0.9-0.1,1.9-0.2,2.8
					c-0.1,0.9-0.2,1.9-0.2,2.8c-0.9,7.6-3.7,15.3-8.2,22.3c-0.6,0.9-1.1,1.8-1.7,2.6c-0.6,0.8-1.3,1.6-2,2.5l-1,1.2
					c-0.4,0.4-0.7,0.8-1.1,1.2c-0.7,0.8-1.5,1.5-2.2,2.3c-0.7,0.8-1.6,1.4-2.4,2.1c-0.8,0.7-1.6,1.4-2.5,2.1
					c-0.9,0.6-1.8,1.2-2.7,1.9c-0.4,0.3-0.9,0.6-1.3,0.9l-1.4,0.8c-0.9,0.5-1.9,1.1-2.8,1.6c-1,0.5-2,0.9-3,1.4
					c-1,0.4-2,0.9-3.1,1.3l-3.2,1.1c-0.5,0.2-1.1,0.4-1.6,0.5l-1.5,0.3l-3.1,0.7l-0.2,0l-0.2,0l-0.1,0l-0.4,0l-0.8,0.1l-1.6,0.2
					l-1.6,0.2c-0.5,0.1-1.1,0.1-1.6,0.1c-8.8,0.5-17.7-1.2-25.7-4.7c-7.9-3.6-14.8-9-20.1-15.4c-0.7-0.8-1.2-1.7-1.8-2.5
					c-0.6-0.8-1.2-1.6-1.8-2.5c-0.5-0.9-1-1.8-1.5-2.6l-0.8-1.3c-0.2-0.4-0.4-0.9-0.6-1.4c-0.8-1.8-1.7-3.6-2.3-5.5
					c-0.3-1-0.6-1.9-0.9-2.8l-0.2-0.7l-0.2-0.7l-0.3-1.3c-0.2-0.9-0.4-1.7-0.6-2.6l-0.1-0.3l-0.1-0.3l0-0.2l-0.1-0.7
					c-0.1-0.5-0.1-0.9-0.2-1.4c-0.3-1.8-0.3-3.6-0.5-5.4c0-3.6,0.1-7.1,0.7-10.3c0.2-1.6,0.7-3.2,1-4.8c0.1-0.8,0.4-1.5,0.6-2.3
					c0.2-0.7,0.5-1.5,0.8-2.2c0.7-1.4,1.3-2.7,2-3.9c0.7-1.2,1.4-2.4,2.2-3.5c3-4.5,6.1-7.8,9-10.3c2.8-2.5,5.3-4.1,7-5.1
					C563.3,32.6,564.2,32.1,564.2,32.1z"/>
			</g>
			<g id="XMLID_135_">
				<path id="XMLID_87_" class="st0" d="M545.8,44.9c0.2-0.2,0.2-0.3,0.3-0.4c-0.1,0-1.1-0.5-1.3-1.6c-0.1-0.5,0-0.9,0.1-1.1
					c0.9-1.2,1.9-2.4,2.9-3.6c3.6-4.4,7.3-7.8,9.9-10.1c2.8-2.3,0.6-0.6,7.9-5.9c0.7-0.5,2.1-1.5,4.2-2.5c1.6-0.8,2.8-1.2,4.2-1.7
					c3.2-1.1,4.8-1.6,6-1.2c0.6,0.2,0.8,0.7,1,1c-0.5,0.4-1.1,0.9-1.5,1.4c-13.7,9.6-24,19.2-31.1,28.8
					C547.6,46.9,546.8,45.9,545.8,44.9z"/>
				<path id="XMLID_86_" class="st1" d="M545.8,44.9c0.2-0.2,0.2-0.3,0.3-0.4c-0.1,0-1.1-0.5-1.3-1.6c-0.1-0.5,0-0.9,0.1-1.1
					c0.9-1.2,1.9-2.4,2.9-3.6c3.6-4.4,7.3-7.8,9.9-10.1c2.8-2.3,0.6-0.6,7.9-5.9c0.7-0.5,2.1-1.5,4.2-2.5c1.6-0.8,2.8-1.2,4.2-1.7
					c3.2-1.1,4.8-1.6,6-1.2c0.6,0.2,0.8,0.7,1,1c-0.5,0.4-1.1,0.9-1.5,1.4c-13.7,9.6-24,19.2-31.1,28.8
					C547.6,46.9,546.8,45.9,545.8,44.9z"/>
			</g>
			<g id="XMLID_134_">
				<path id="XMLID_62_" class="st0" d="M653.4,36.3c0,0-0.9-1.1-2.5-3.2c-0.4-0.5-0.9-1.1-1.4-1.7c-0.5-0.6-1.1-1.3-1.8-2
					c-0.6-0.7-1.4-1.4-2.2-2.2c-0.8-0.8-1.6-1.6-2.5-2.4c-0.9-0.8-1.9-1.6-2.9-2.5c-1.1-0.8-2.2-1.6-3.4-2.5c-2.4-1.7-5.1-3.4-8-4.9
					c-0.7-0.4-1.5-0.8-2.3-1.1c-0.8-0.4-1.6-0.7-2.4-1.1c-1.6-0.7-3.4-1.3-5.1-1.9c-0.9-0.3-1.8-0.5-2.7-0.9c-0.9-0.3-1.8-0.7-2.7-1
					c-0.9-0.3-1.9-0.6-2.8-0.8c-1-0.3-2-0.4-3-0.7c-4-0.9-8.2-1.2-12.6-1.4c-2.2,0.1-4.4,0-6.7,0.3c-0.6,0.1-1.1,0.1-1.7,0.2
					l-0.9,0.1l-0.1,0c-0.1,0,0,0,0,0l-0.2,0l-0.4,0.1c-0.6,0.1-1.2,0.2-1.8,0.3c-0.6,0.1-1.2,0.2-1.7,0.3c-9,1.8-18.4,5.8-26.5,11.9
					c-4.1,3.1-7.8,6.7-11.2,10.7c-3.3,4.1-6.3,8.5-8.6,13.3c-2.4,4.8-4.2,9.9-5.4,15.2c-1.2,5.3-1.7,10.8-1.6,16.2
					c0,1.4,0.1,2.7,0.2,4.1c0,0.7,0.1,1.4,0.2,2l0.1,1l0.1,0.5l0,0.1c0-0.1,0,0,0,0.1l0,0.3l0.3,2.1l0.2,1.1l0.2,1
					c0.3,1.3,0.5,2.6,0.9,3.9c1.4,5.2,3.3,10.3,5.9,15c5.1,9.5,12.4,17.4,20.7,23.3c8.4,5.8,17.8,9.5,27,11c4.6,0.7,9.2,1,13.6,0.8
					c1.1-0.1,2.2-0.1,3.3-0.2c0.5-0.1,1.1-0.1,1.6-0.2l0.8-0.1l0.1,0c0.1,0,0,0,0,0l0.2,0l0.4-0.1c1.1-0.2,2.2-0.4,3.3-0.5
					c1-0.2,2-0.5,3-0.7c1-0.2,1.9-0.5,2.9-0.8c1-0.3,1.9-0.5,2.8-0.9c0.9-0.4,1.8-0.7,2.7-1c0.9-0.4,1.8-0.7,2.6-1
					c3.5-1.3,6.7-2.8,9.6-4.5c5.8-3.3,10.5-7.1,14-10.5c3.5-3.4,5.9-6.5,7.6-8.6c1.5-2.2,2.4-3.3,2.4-3.3s-0.6,1.3-1.9,3.7
					c-1.3,2.3-3.3,5.8-6.4,9.8c-3.1,4-7.4,8.5-13.2,12.8c-2.9,2.2-6.1,4.2-9.7,6.1c-0.9,0.5-1.8,0.9-2.8,1.3c-1,0.4-2,0.7-3,1
					c-1,0.4-2,0.6-3.1,0.9c-1,0.3-2.1,0.6-3.2,0.9c-1.1,0.2-2.2,0.5-3.3,0.8c-1.1,0.2-2.2,0.4-3.3,0.5c-2.4,0.3-4.7,0.6-7.1,0.7
					c-4.8,0.2-9.8,0-14.8-0.8c-10.1-1.6-20.3-5.6-29.5-12c-9.1-6.4-17.1-15.1-22.6-25.4c-2.8-5.1-4.9-10.7-6.4-16.4
					c-0.4-1.4-0.7-2.9-1-4.4l-0.2-1.1l-0.2-1.1l-0.3-2.1l0-0.3l0-0.2l0-0.1l-0.1-0.6l-0.1-1.1c-0.1-0.7-0.2-1.5-0.2-2.2
					c-0.1-1.5-0.2-3-0.2-4.4c-0.1-5.9,0.5-11.9,1.8-17.6c1.3-5.8,3.3-11.3,5.8-16.6c2.6-5.2,5.8-10.1,9.4-14.5
					c3.7-4.4,7.8-8.3,12.2-11.7c4.4-3.4,9.2-6.1,14.1-8.3c0.6-0.3,1.2-0.5,1.8-0.8c0.6-0.2,1.2-0.5,1.9-0.7c1.2-0.5,2.5-0.9,3.7-1.3
					c2.5-0.8,5-1.4,7.6-1.9c0.6-0.2,1.3-0.2,1.8-0.3c0.6-0.1,1.2-0.2,1.8-0.3l0.4-0.1l0.2,0l0.2,0l0.1,0l0.9-0.1
					c0.6-0.1,1.2-0.1,1.9-0.2c2.5-0.3,4.9-0.3,7.3-0.3c4.8,0.1,9.4,0.5,13.8,1.5c2.2,0.4,4.3,1,6.3,1.6c1,0.2,2,0.6,3,1
					c1,0.3,1.9,0.7,2.9,1.1c1.8,0.9,3.6,1.8,5.2,2.8c0.8,0.5,1.6,1,2.4,1.5c0.8,0.5,1.6,1,2.3,1.5c5.9,4.1,10.4,8.4,13.7,12.3
					c0.8,0.9,1.5,1.9,2.2,2.8c0.7,0.9,1.3,1.7,1.9,2.6c0.5,0.8,1,1.6,1.5,2.3c0.5,0.7,0.9,1.3,1.2,1.9
					C652.7,35.1,653.4,36.3,653.4,36.3z"/>
			</g>
			<path id="XMLID_133_" class="st0" d="M593.1,114c-22.3,0-40.6-18.3-40.5-40.6c0-22.3,18.3-40.6,40.6-40.5
				c22.4,0.1,40.6,18.3,40.5,40.6C633.6,95.8,615.4,114.1,593.1,114z"/>
			<path id="XMLID_132_" class="st2" d="M578.8,71.8c0.1-1.2-0.1-2.1,0.2-2.9c0.3-1.1,0.7-2.3,1.8-2.8c1.8-0.9,2.9-2.4,3.8-4.1
				c0.6-1,1.3-1.7,2.6-1.5c1.1,0.1,2.1-0.4,3.1-0.9c1.1-0.5,2.1-0.7,3.3-0.3c0.6,0.3,1.2,0,1.8,0c0.4-0.1,0.7,0,0.8,0.5
				c0.1,0.5,0.3,1,0.4,1.5c0.1,1,0.7,1.4,1.5,1.6c1.7,0.4,3.3,0.7,4.9-0.2c0.2-0.1,0.5-0.1,0.7,0c0.8,0.4,1.7,0.6,2.6,0.8
				c3.4,0.6,5.3,2.9,6.2,6c0.6,2.1,1.6,3.9,3,5.6c0.2,0.3,0.5,0.6,0.7,0.9c0.6,1.3,1.5,1.9,3,1.3c0.4-0.2,0.7,0,0.5,0.5
				c-0.2,0.5-0.3,1-0.6,1.4c-1.1,1.4-2.1,2.8-3.3,4.1c-0.9,0.9-1.5,2.2-1.9,3.5c-0.2,0.7,0,1.5,0.2,2.3c0.4,1.5-0.2,2.6-1.2,3.5
				c-0.6,0.6-1.1,1.2-1.6,1.8c-0.8,0.9-1.2,1.8-0.9,2.9c0.1,0.4-0.1,0.7-0.5,1c-0.9,0.7-1.7,1.5-2.5,2.4c-1.2,1.4-3,1.9-4.8,2.2
				c-0.7,0.1-1.7,0.5-2.2,0.2c-0.5-0.3-0.1-1.4-0.2-2.1c-0.1-0.4-0.1-0.8-0.2-1.1c-0.6-1.4-1-3.1-2.1-4.3c-0.7-0.7-0.6-1.6-0.4-2.5
				c0.1-0.2,0.1-0.5,0.2-0.7c0.7-1.3,1-2.7,0.2-4.1c-0.1-0.2-0.1-0.4-0.1-0.6c0-1.1-0.4-1.9-1.4-2.5c-0.3-0.2-0.6-0.5-0.6-0.9
				c0.1-1.2-0.4-2.3-0.3-3.5c0-0.6-0.3-0.7-0.8-0.6c-0.4,0.1-0.9,0.3-1.3,0.4c-0.8,0.3-1.3,0-1.4-0.8c-0.1-0.8-0.6-0.8-1.1-0.6
				c-1.5,0.7-3,1.2-4.5,1.6c-0.7,0.2-1.3,0.1-1.9-0.4c-1.5-1.2-3.1-2.3-4.1-3.9C579.3,75,578.3,73.5,578.8,71.8z"/>
			<path id="XMLID_131_" class="st2" d="M629.9,75.3c-0.4-1.1-0.7-2.3-1.3-3.4c-1.3-2.3-3.2-3.8-5.8-4.4c-0.7-0.2-1.2-0.6-1.7-0.9
				c-0.6-0.5-1.2-1-2.1-1.1c0.4,0.8,0.8,1.6,1.2,2.3c0.3,0.6,1.1,0.7,1.7,0.7c0.5,0,0.8,0.1,1,0.6c0.1,0.3,0.3,0.5,0.5,0.8
				c0.7,1.1,0.7,1.1-0.3,1.8c-1.2,0.8-2.3,1.7-3.6,2.4c-0.5,0.2-0.9,0.5-1.4,0.6c-1.2,0.2-1.7-0.1-1.9-1.3c-0.1-0.5-0.2-0.9-0.5-1.2
				c-1.8-2.7-3.7-5.5-5.6-8.3c1.3,0.1,1-0.8,0.8-1.5c-0.1-0.6,0-1.2,0-1.9c-0.5,0.3-1,0.6-1.5,0.9c-0.3,0.2-0.6,0.2-0.8-0.1
				c-0.7-0.9-1.4-1.7-1.9-2.7c-0.3-0.7-0.1-1.1,0.5-1.5c1.3-0.9,2.8-0.9,4.3-0.7c0.4,0,0.8,0.1,1.2,0.1c0.3,0,0.7,0.2,0.8-0.2
				c0.1-0.4,0.1-0.8-0.3-1.1c-0.7-0.5-1.5-0.9-2.4-1c0.1-0.5,0.7-0.7,0.9-1.2c-1.3-0.4-4,0.5-4.9,1.5c-0.3,0.4-0.3,0.8-0.2,1.2
				c0.1,0.6-0.2,0.9-0.7,1.1c-0.8,0.3-1.5,0.4-2.4,0.3c-0.5,0-1.1,0-1,0.8c-1-0.9-0.8-2.4-2.1-3c-1-0.5-2-1.1-3.1-1.8
				c-0.2,2.1,2,2.4,2.5,3.9c-0.3,0.2-0.7,0.1-1,0.2c-0.5,0.1-0.8,0-0.7-0.6c0-0.2,0.1-0.4-0.1-0.5c-0.8-0.1-1.2-0.8-1.7-1.3
				c-1-1-2.2-0.6-3.2-0.1c-1.5,0.7-2.9,1.6-3.7,3.2c-0.7,1.4-2,1.5-3.3,1.2c-1.9-0.4-1.9-0.4-1.9-2.3c0-0.7,0.1-1.3,0.2-2
				c0-0.4,0.3-0.4,0.5-0.4c0.7-0.2,1.5-0.3,2.2-0.4c0.6-0.1,1-0.4,1.3-0.8c0.3-0.4,0.7-0.8,0.2-1.4c-0.4-0.6,0-1.2,0.6-1.4
				c1.9-0.6,3.5-1.6,4.9-3c1-1,1.5-0.9,2.6,0c0.2,0.2,0.4,0.3,0.6,0.4c1.3,1,1.6,1,2.9,0c0.6-0.5,0.7-1.3,0.5-2
				c-0.2-0.5-0.4-1-0.7-1.5c-0.5,0.5-0.9,1.2-1.3,1.7c-0.2,0.3-0.2,0.8-0.7,0.6c-0.6-0.2-1.4,0-1.7-0.7c-0.1-0.1-0.1-0.3-0.2-0.4
				c-0.5-1.4-0.6-1.5-2.1-1.2c-0.7,0.1-0.8-0.1-0.6-0.6c0.4-1,1-1.6,2-1.9c1.3-0.4,2.5-0.9,3.8-1.3c0.7-0.2,1.4-0.3,2.2-0.1
				c1.8,0.4,3.6,0.1,5.3,0c1.1,0,2.1,0.1,2.5,1.4c0.3,0.9,1.8,1.2,2.5,0.7c0.5-0.3,0.9-0.3,1.3,0c9.8,6.7,15.4,15.9,16.6,27.8
				C630.2,71.9,630.2,73.6,629.9,75.3z"/>
			<path id="XMLID_130_" class="st2" d="M557.3,81.8c1.7,1.6,4.1,2.1,5.7,4c0.5,0.6,1,1.2,1.3,2c0.6,1.9,2.1,2.7,3.8,3.2
				c1.1,0.3,1.9,1.1,2.8,1.7c0.5,0.3,0.5,1,0.3,1.6c-0.3,0.8-0.5,1.6-0.8,2.5c-0.3,0.8-0.4,1.6,0,2.3c0.3,0.5,0,0.8-0.4,1
				c-1.1,0.7-2,0.6-2.9-0.4c-4.8-4.8-8.1-10.4-9.8-17C557.2,82.5,557.1,82.2,557.3,81.8z"/>
			<path id="XMLID_129_" class="st2" d="M557,65.8c0.8-4.4,2.6-8.4,5-12.1c0.3-0.6,0.8-1.1,1.1-1.6c0.2,0,0.3,0,0.2,0.2
				c-0.1,0.6,0.1,1,0.3,1.5c0.7,1.5,0.7,2.4-0.8,3.3c-0.8,0.5-1.7,1-2.3,1.8c-0.2,0.2-0.4,0.5-0.5,0.8c0.4,0,0.7-0.5,1.3-0.3
				c-1.4,2.3-2.7,4.6-4.1,6.9C556.7,66.2,557,66,557,65.8z"/>
			<path id="XMLID_128_" class="st2" d="M579.6,39.1c-0.2,0.6-0.5,0.9-0.8,1c-2.1,0.9-3.3,2.7-4.7,4.2c-1,1.1-1.9,2.3-3.3,2.9
				c-0.4,0.2-0.8,0.2-1.2,0c-0.3-0.2-0.6-0.3-1-0.2c-0.2,0-0.4,0.1-0.6-0.1c-0.1-0.2,0-0.5,0.2-0.6c0.3-0.3,0.6-0.5,0.9-0.8
				C572.1,42.8,575.6,40.7,579.6,39.1z"/>
			<path id="XMLID_127_" class="st2" d="M618.8,89.2c0.3,1.1,0,2-0.1,2.9c-0.4,2-1.1,3.8-2.8,5c-0.7,0.5-0.9,0.4-1.1-0.4
				c-0.1-0.4,0-0.9,0.2-1.3c0.4-0.9,0.8-1.8,0.9-2.8c0-0.4,0.4-0.7,0.7-0.9c1-0.4,1.5-1.2,1.9-2.1C618.6,89.5,618.7,89.4,618.8,89.2
				z"/>
			<path id="XMLID_126_" class="st2" d="M586.1,47.9c0-0.6,0-1.2,0-1.9c0-0.3,0.1-0.5,0.4-0.7c0.6-0.4,1.1-0.5,1.5,0.3
				c0.4,0.8,1.2,1.5,1.8,2.2c0.3,0.3,0.2,0.5-0.1,0.7c-1,0.8-2.2,0.7-3.3,1c-0.3,0.1-0.3-0.2-0.3-0.3c0-0.3,0-0.6,0-0.9
				C586,48.1,586,48,586.1,47.9z"/>
			<path id="XMLID_125_" class="st2" d="M586.1,47.9c0,0.1,0,0.3,0,0.4c-0.6,0.2-0.8,0.9-1.4,1.2c-0.2-0.3-0.6-0.5-0.4-1
				c0.2-0.9,0.4-1,1.3-0.7C585.8,47.9,586,47.9,586.1,47.9z"/>
			<path id="XMLID_124_" class="st2" d="M563.3,52.3c-0.1-0.1-0.1-0.2-0.2-0.2c0.1-0.2,0.2-0.5,0.4-0.3
				C563.7,51.9,563.4,52.1,563.3,52.3z"/>
		</g>
	</g>
</g>
</svg>
