<?xml version="1.0" encoding="utf-8"?>
<!-- Generator: Adobe Illustrator 21.1.0, SVG Export Plug-In . SVG Version: 6.00 Build 0)  -->
<svg version="1.1" id="Layer_1" xmlns="http://www.w3.org/2000/svg" xmlns:xlink="http://www.w3.org/1999/xlink" x="0px" y="0px"
	 viewBox="0 0 600.2 115.6" style="enable-background:new 0 0 600.2 115.6;" xml:space="preserve">
<style type="text/css">
	.st0{fill:#001415;}
	.st1{fill:none;stroke:#001415;stroke-width:4.7206;stroke-miterlimit:10;}
	.st2{fill:#FACB03;}
</style>
<g>
	<g id="XMLID_2_">
		<path id="XMLID_10_" class="st0" d="M415.7,97.3c1.6-2.7,4.2-6.8,8.6-13c-0.4-0.3-0.7-0.6-1.1-0.9c-3.8,4.7-7.5,9.4-11.3,14.1
			c-0.3-0.2-0.6-0.4-0.8-0.7c3.7-4.8,7.3-9.5,11-14.3c-0.4-0.3-0.7-0.6-1.1-0.9c-3.8,4.7-7.5,9.4-11.3,14.1
			c-0.4-0.3-0.7-0.6-1.1-0.9c3.8-4.7,7.5-9.4,11.3-14.1c-0.4-0.3-0.7-0.6-1.1-0.9c-3.8,4.7-7.5,9.4-11.3,14.1
			c-0.4-0.3-0.7-0.6-1.1-0.9c3.6-4.8,7.2-9.5,10.7-14.3c0-0.1-0.4-0.7-0.8-0.7c-0.2,0-0.3,0.1-0.5,0.3c-0.2,0.2-0.5,0.6-0.9,1.1
			c-4.3,5.3-7.6,9-10.3,11.7c-0.2,0.2-2.5,2.5-3.5,5.8c-0.6,2-0.4,3.2,0,4.1c0.2,0.3,0.4,0.6,0.6,0.8c0.8,0.2,1.6,0.5,2.3,1.1
			c0.4,0.3,0.8,0.7,1.1,1.2c0.3,0.2,0.7,0.5,1.2,0.5c0.8,0.1,1.5-0.2,2.2-0.5c2.5-1.3,3.9-2.8,3.9-2.8
			C414.4,99.5,415.6,97.5,415.7,97.3z"/>
		<g id="XMLID_1_">
			<g id="XMLID_12_">
				<path class="st0" d="M348,25.2c-6.7,5.7-11.6,13.1-13.6,21.2c-2.7,7.8-2.8,16.5,0,24.3c1.4,3.9,3.2,7.6,5.8,10.8
					c2.6,3.2,5.6,6.1,9.1,8.4c3.4,2.3,7.3,4,11.2,5.1c4,1,8.1,1.6,12.3,1.3c4.1-0.3,8.2-1.1,12.1-2.6c3.8-1.5,7.4-3.7,10.6-6.3
					c6.4-5.2,10.9-12.7,12.8-20.7c1-4,1.1-8.2,0.6-12.3c-0.4-4.1-1.6-8.1-3.3-11.8c-2.9-7.8-8.5-14.7-15.9-19.5
					c8.2,3.2,15.5,9.4,20.1,17.5c0.6,1,1,2.1,1.4,3.2c0.4,1.1,0.8,2.2,1.1,3.3c0.7,2.2,1.1,4.5,1.3,6.8c0.5,4.6,0.3,9.3-0.7,13.8
					c-2.1,9-7.1,17.4-14.3,23.3c-3.6,3-7.6,5.4-11.9,7.1c-4.3,1.6-8.9,2.6-13.5,2.9c-4.6,0.3-9.3-0.3-13.8-1.5
					c-4.5-1.2-8.8-3.1-12.6-5.7c-3.9-2.6-7.3-5.7-10.2-9.4c-2.9-3.6-5.1-7.8-6.6-12.2c-3.1-8.8-3-18.6,0-27.4
					C333.6,36.3,340.2,29.3,348,25.2z"/>
			</g>
			<g id="XMLID_15_">
				<path class="st0" d="M333.5,35.3c0.1-0.2,0.2-0.2,0.2-0.3c-0.1,0-0.8-0.4-1-1.3c-0.1-0.4,0-0.7,0.1-0.8c0.7-0.9,1.5-1.9,2.3-2.8
					c2.9-3.5,5.7-6.2,7.8-8c2.2-1.8,0.4-0.4,6.2-4.7c0.6-0.4,1.7-1.2,3.3-2c1.2-0.6,2.2-0.9,3.3-1.3c2.5-0.9,3.8-1.3,4.7-0.9
					c0.5,0.2,0.7,0.5,0.7,0.8c-0.4,0.3-0.8,0.7-1.2,1.1c-10.8,7.5-18.9,15.1-24.4,22.6C334.9,36.9,334.2,36.1,333.5,35.3z"/>
				<path class="st1" d="M333.5,35.3c0.1-0.2,0.2-0.2,0.2-0.3c-0.1,0-0.8-0.4-1-1.3c-0.1-0.4,0-0.7,0.1-0.8c0.7-0.9,1.5-1.9,2.3-2.8
					c2.9-3.5,5.7-6.2,7.8-8c2.2-1.8,0.4-0.4,6.2-4.7c0.6-0.4,1.7-1.2,3.3-2c1.2-0.6,2.2-0.9,3.3-1.3c2.5-0.9,3.8-1.3,4.7-0.9
					c0.5,0.2,0.7,0.5,0.7,0.8c-0.4,0.3-0.8,0.7-1.2,1.1c-10.8,7.5-18.9,15.1-24.4,22.6C334.9,36.9,334.2,36.1,333.5,35.3z"/>
			</g>
			<g id="XMLID_13_">
				<path class="st0" d="M418.1,28.6c-7.1-9.6-16.9-16.9-27.8-20.3c-10.6-4.1-22.6-4.7-33.5-1.2l-2,0.6c-0.7,0.2-1.3,0.5-2,0.8
					l-2,0.8l-1,0.4c-0.3,0.2-0.6,0.3-0.9,0.5l-3.8,2l-3.6,2.4c-4.6,3.4-8.7,7.5-12,12.1c-0.8,1.2-1.6,2.3-2.4,3.6l-2.1,3.8
					c-1.2,2.6-2.4,5.2-3.1,8c-0.2,0.7-0.4,1.4-0.6,2l-0.5,2.1c-0.3,1.4-0.7,2.8-0.8,4.2c-0.1,1.4-0.4,2.8-0.5,4.3l-0.1,4.3
					c0.2,5.7,1.2,11.4,3,16.8c1.9,5.4,4.7,10.4,8.2,15l1.3,1.7l0.7,0.8c0.2,0.3,0.5,0.5,0.7,0.8c1,1,2,2.1,3,3.1l3.3,2.8
					c1.1,0.9,2.3,1.7,3.5,2.5c4.8,3.1,10,5.5,15.5,7l4.2,0.9c1.4,0.2,2.8,0.3,4.2,0.5l1.1,0.1l1.1,0l2.1,0l2.1,0l2.1-0.2
					c5.7-0.3,11.3-1.8,16.5-4c10.8-3.8,20.4-11.5,27-21.4c-5,10.9-14,20.2-25.2,25.7c-1.4,0.7-2.9,1.2-4.4,1.7
					c-0.7,0.3-1.5,0.4-2.2,0.7c-0.7,0.2-1.5,0.4-2.3,0.6c-3,0.8-6.1,1.2-9.2,1.4l-2.3,0.2c-0.8,0-1.6,0-2.3,0l-2.3,0l-1.2,0
					l-1.2-0.1c-1.5-0.2-3.1-0.4-4.6-0.6l-4.6-1c-6-1.6-11.7-4.2-16.9-7.7c-1.3-0.9-2.6-1.7-3.8-2.7l-3.5-3c-1.1-1.1-2.2-2.2-3.3-3.3
					c-0.3-0.3-0.5-0.6-0.8-0.8l-0.7-0.9l-1.5-1.8c-3.8-4.9-6.8-10.4-8.9-16.3c-2-5.9-3.1-12.1-3.2-18.3l0.1-4.7
					c0.1-1.5,0.3-3.1,0.5-4.6c0.1-1.6,0.5-3.1,0.8-4.6l0.5-2.3c0.2-0.7,0.5-1.5,0.7-2.2c0.8-3,2.1-5.8,3.4-8.7l2.2-4.1
					c0.8-1.3,1.7-2.6,2.6-3.9c3.6-5,8.1-9.5,13.1-13.2l3.9-2.6c1.4-0.8,2.7-1.5,4.1-2.2c0.3-0.2,0.7-0.4,1-0.5l1.1-0.4L351,4
					c0.7-0.3,1.4-0.6,2.2-0.9l2.2-0.7c11.9-3.8,25-3.1,36.6,1.3C403.4,8.9,412.7,17.9,418.1,28.6z"/>
			</g>
			<path id="XMLID_94_" class="st0" d="M370.7,89.7c-17.6,0-31.9-14.4-31.9-31.9c0-17.6,14.4-31.9,31.9-31.9
				c17.6,0.1,31.9,14.4,31.9,31.9C402.6,75.4,388.2,89.7,370.7,89.7z"/>
			<path id="XMLID_93_" class="st2" d="M359.4,56.5c0-1-0.1-1.6,0.2-2.3c0.3-0.9,0.5-1.8,1.4-2.2c1.4-0.7,2.2-1.9,3-3.2
				c0.4-0.8,1-1.3,2.1-1.2c0.8,0.1,1.7-0.3,2.5-0.7c0.8-0.4,1.7-0.6,2.6-0.2c0.5,0.2,0.9,0,1.4,0c0.3,0,0.5,0,0.6,0.4
				c0.1,0.4,0.3,0.8,0.3,1.2c0.1,0.8,0.5,1.1,1.2,1.3c1.3,0.3,2.6,0.6,3.9-0.2c0.2-0.1,0.4-0.1,0.5,0c0.7,0.3,1.4,0.5,2.1,0.6
				c2.7,0.5,4.2,2.2,4.9,4.7c0.4,1.7,1.3,3.1,2.3,4.4c0.2,0.2,0.4,0.5,0.5,0.7c0.5,1.1,1.2,1.5,2.4,1c0.3-0.1,0.5,0,0.4,0.4
				c-0.1,0.4-0.2,0.8-0.5,1.1c-0.8,1.1-1.6,2.2-2.6,3.2c-0.7,0.7-1.2,1.7-1.5,2.7c-0.2,0.5,0,1.2,0.1,1.8c0.3,1.1-0.1,2-0.9,2.8
				c-0.4,0.4-0.8,0.9-1.3,1.4c-0.6,0.7-0.9,1.4-0.7,2.3c0.1,0.4-0.1,0.6-0.4,0.8c-0.7,0.5-1.3,1.2-1.9,1.9c-0.9,1.1-2.3,1.5-3.7,1.7
				c-0.6,0.1-1.3,0.4-1.7,0.1c-0.4-0.3-0.1-1.1-0.2-1.7c0-0.3-0.1-0.6-0.2-0.9c-0.5-1.1-0.8-2.4-1.7-3.4c-0.5-0.6-0.5-1.3-0.3-2
				c0-0.2,0.1-0.4,0.2-0.5c0.5-1,0.8-2.1,0.2-3.2c-0.1-0.1-0.1-0.3-0.1-0.5c0-0.9-0.3-1.5-1.1-2c-0.3-0.2-0.5-0.4-0.5-0.7
				c0.1-0.9-0.3-1.8-0.2-2.7c0-0.5-0.2-0.6-0.6-0.5c-0.3,0.1-0.7,0.2-1,0.3c-0.6,0.2-1,0-1.1-0.6c-0.1-0.7-0.4-0.7-0.9-0.4
				c-1.1,0.5-2.3,1-3.6,1.3c-0.6,0.1-1,0.1-1.5-0.3c-1.2-0.9-2.4-1.8-3.2-3.1C359.8,59,359,57.8,359.4,56.5z"/>
			<path id="XMLID_92_" class="st2" d="M399.6,59.2c-0.3-0.9-0.6-1.8-1-2.7c-1-1.8-2.5-3-4.6-3.5c-0.5-0.1-0.9-0.4-1.3-0.7
				c-0.5-0.4-0.9-0.8-1.6-0.8c0.3,0.7,0.7,1.2,1,1.8c0.2,0.5,0.8,0.6,1.4,0.5c0.4,0,0.6,0.1,0.8,0.4c0.1,0.2,0.2,0.4,0.4,0.6
				c0.6,0.9,0.6,0.9-0.3,1.5c-0.9,0.6-1.8,1.4-2.8,1.9c-0.4,0.2-0.7,0.4-1.1,0.4c-0.9,0.2-1.3-0.1-1.5-1c-0.1-0.4-0.2-0.7-0.4-1
				c-1.5-2.2-2.9-4.3-4.4-6.5c1,0.1,0.8-0.6,0.7-1.2c-0.1-0.5,0-0.9,0-1.5c-0.4,0.3-0.8,0.5-1.2,0.7c-0.3,0.2-0.5,0.2-0.7-0.1
				c-0.5-0.7-1.1-1.3-1.5-2.1c-0.2-0.5-0.1-0.9,0.4-1.2c1.1-0.7,2.2-0.7,3.4-0.6c0.3,0,0.7,0.1,1,0.1c0.2,0,0.5,0.2,0.6-0.2
				c0.1-0.3,0.1-0.7-0.2-0.9c-0.6-0.4-1.2-0.7-1.9-0.8c0.1-0.4,0.5-0.6,0.7-0.9c-1-0.3-3.2,0.4-3.8,1.2c-0.2,0.3-0.2,0.6-0.2,0.9
				c0.1,0.5-0.1,0.7-0.6,0.9c-0.6,0.3-1.2,0.3-1.9,0.3c-0.4,0-0.8,0-0.8,0.7c-0.8-0.7-0.7-1.9-1.6-2.3c-0.8-0.4-1.6-0.9-2.5-1.4
				c-0.2,1.6,1.6,1.9,1.9,3.1c-0.2,0.2-0.5,0.1-0.8,0.1c-0.4,0.1-0.6,0-0.5-0.5c0-0.1,0-0.3-0.1-0.4c-0.6-0.1-1-0.6-1.4-1
				c-0.8-0.8-1.7-0.5-2.5-0.1c-1.2,0.5-2.3,1.3-2.9,2.5c-0.6,1.1-1.6,1.2-2.6,0.9c-1.5-0.3-1.5-0.3-1.5-1.8c0-0.5,0.1-1,0.1-1.5
				c0-0.3,0.2-0.3,0.4-0.3c0.6-0.1,1.1-0.2,1.7-0.3c0.4-0.1,0.8-0.3,1-0.6c0.3-0.3,0.6-0.6,0.2-1.1c-0.3-0.5,0-0.9,0.5-1.1
				c1.5-0.5,2.7-1.3,3.8-2.4c0.7-0.8,1.2-0.7,2,0c0.1,0.1,0.3,0.2,0.4,0.4c1,0.8,1.3,0.8,2.3,0c0.5-0.4,0.6-1,0.4-1.6
				c-0.1-0.4-0.3-0.8-0.5-1.2c-0.4,0.4-0.7,0.9-1,1.4c-0.1,0.2-0.1,0.6-0.6,0.5c-0.5-0.1-1.1,0-1.4-0.5c-0.1-0.1-0.1-0.2-0.1-0.3
				c-0.4-1.1-0.5-1.1-1.6-0.9c-0.6,0.1-0.6,0-0.4-0.5c0.3-0.8,0.8-1.3,1.6-1.5c1-0.3,2-0.7,3-1c0.6-0.2,1.1-0.2,1.7-0.1
				c1.4,0.3,2.8,0,4.2,0c0.9,0,1.6,0.1,2,1.1c0.2,0.7,1.4,1,2,0.6c0.4-0.3,0.7-0.2,1.1,0c7.7,5.3,12.1,12.5,13.1,21.8
				C399.8,56.6,399.8,57.9,399.6,59.2z"/>
			<path id="XMLID_91_" class="st2" d="M342.5,64.3c1.4,1.3,3.3,1.7,4.4,3.1c0.4,0.5,0.8,1,1,1.6c0.5,1.5,1.6,2.1,3,2.5
				c0.9,0.2,1.5,0.9,2.2,1.3c0.4,0.2,0.4,0.8,0.2,1.3c-0.2,0.6-0.4,1.3-0.6,1.9c-0.2,0.6-0.3,1.2,0,1.8c0.2,0.4,0,0.6-0.3,0.8
				c-0.9,0.5-1.6,0.4-2.3-0.3c-3.8-3.8-6.3-8.2-7.7-13.4C342.5,64.9,342.4,64.7,342.5,64.3z"/>
			<path id="XMLID_90_" class="st2" d="M342.3,51.7c0.7-3.4,2-6.6,3.9-9.6c0.3-0.4,0.6-0.8,0.9-1.3c0.1,0,0.2,0,0.2,0.2
				c-0.1,0.4,0,0.8,0.2,1.2c0.5,1.2,0.6,1.9-0.7,2.6c-0.7,0.4-1.3,0.8-1.8,1.4c-0.2,0.2-0.3,0.4-0.4,0.7c0.3,0,0.6-0.4,1-0.2
				c-1.1,1.8-2.1,3.6-3.2,5.4C342.1,52.1,342.3,51.9,342.3,51.7z"/>
			<path id="XMLID_89_" class="st2" d="M360.1,30.7c-0.2,0.4-0.4,0.7-0.6,0.8c-1.6,0.7-2.6,2.1-3.7,3.3c-0.8,0.8-1.5,1.8-2.6,2.3
				c-0.3,0.1-0.6,0.1-0.9,0c-0.2-0.1-0.5-0.2-0.8-0.2c-0.1,0-0.4,0.1-0.4-0.1c-0.1-0.2,0-0.4,0.1-0.5c0.2-0.2,0.4-0.4,0.7-0.6
				C354.2,33.7,356.9,32,360.1,30.7z"/>
			<path id="XMLID_88_" class="st2" d="M390.9,70.2c0.2,0.8,0,1.6-0.1,2.3c-0.3,1.6-0.8,3-2.2,3.9c-0.5,0.4-0.7,0.3-0.9-0.3
				c-0.1-0.4,0-0.7,0.1-1c0.3-0.7,0.6-1.4,0.7-2.2c0-0.3,0.3-0.6,0.6-0.7c0.8-0.3,1.2-0.9,1.5-1.6C390.7,70.4,390.8,70.3,390.9,70.2
				z"/>
			<path id="XMLID_87_" class="st2" d="M365.2,37.7c0-0.5,0-1,0-1.5c0-0.3,0.1-0.4,0.3-0.6c0.5-0.3,0.8-0.4,1.1,0.2
				c0.3,0.7,0.9,1.2,1.4,1.7c0.2,0.3,0.2,0.4-0.1,0.6c-0.8,0.6-1.7,0.5-2.6,0.8c-0.2,0.1-0.2-0.1-0.2-0.3c0-0.2,0-0.5,0-0.7
				C365.1,37.9,365.1,37.8,365.2,37.7z"/>
			<path id="XMLID_86_" class="st2" d="M365.2,37.7c0,0.1,0,0.2,0,0.3c-0.5,0.2-0.6,0.7-1.1,1c-0.2-0.2-0.4-0.4-0.3-0.8
				c0.2-0.7,0.3-0.8,1-0.6C364.9,37.6,365.1,37.6,365.2,37.7z"/>
			<path id="XMLID_77_" class="st2" d="M347.2,41.1c-0.1-0.1-0.1-0.1-0.2-0.2c0.1-0.1,0.1-0.4,0.3-0.2
				C347.5,40.8,347.4,41,347.2,41.1z"/>
		</g>
	</g>
	<g>
		<path class="st0" d="M49.6,30.2c0,1.1-0.4,2.3-1,3.2L30.3,59.5v25.9c0,3-2.5,5.5-5.6,5.5c-3,0-5.5-2.5-5.5-5.5V59.5L1,33.5
			c-0.7-0.8-1-1.8-1-2.9c0-2.8,2.1-5.8,5.5-5.8c1.8,0,3.5,0.8,4.5,2.4l14.7,21.1l14.8-21.1c1-1.5,2.7-2.4,4.5-2.4c1,0,2.2,0.4,3.1,1
			C48.7,26.8,49.6,28.5,49.6,30.2z"/>
		<path class="st0" d="M59.9,78c-2.6-5.8-2.7-11.3-2.7-12V30.2c0-3,2.5-5.5,5.5-5.5s5.5,2.5,5.5,5.5V66c0,1.4,1.1,13.8,12.5,13.8
			c10.8,0,12.4-11.6,12.4-13.8V30.2c0-3,2.5-5.5,5.5-5.5s5.5,2.5,5.5,5.5V66c0,0.7,0,6.2-2.6,12C97.3,86.3,90,90.9,80.5,90.9
			S63.7,86.3,59.9,78z"/>
		<path class="st0" d="M161,85.4V46.8l-14.8,19.8c-1,1.4-2.7,2.3-4.4,2.3c-1.7,0-3.4-0.8-4.4-2.3l-14.8-19.8v38.6
			c0,3-2.5,5.5-5.6,5.5c-3,0-5.5-2.5-5.5-5.5V30.2c0-2.9,2.4-5.5,5.6-5.5c1.7,0,3.3,0.8,4.3,2.2l20.4,27.2l20.4-27.2
			c1-1.4,2.6-2.2,4.3-2.2c3.2,0,5.6,2.5,5.6,5.5v55.1c0,3-2.5,5.5-5.6,5.5C163.4,90.9,161,88.4,161,85.4z"/>
		<path class="st0" d="M229.1,85.4V46.8l-14.8,19.8c-1,1.4-2.7,2.3-4.4,2.3c-1.7,0-3.4-0.8-4.4-2.3l-14.8-19.8v38.6
			c0,3-2.5,5.5-5.6,5.5c-3,0-5.5-2.5-5.5-5.5V30.2c0-2.9,2.4-5.5,5.6-5.5c1.7,0,3.3,0.8,4.3,2.2l20.4,27.2l20.4-27.2
			c1-1.4,2.6-2.2,4.3-2.2c3.2,0,5.6,2.5,5.6,5.5v55.1c0,3-2.5,5.5-5.6,5.5C231.6,90.9,229.1,88.4,229.1,85.4z"/>
		<path class="st0" d="M297.3,30.2c0,1.1-0.4,2.3-1,3.2L278,59.5v25.9c0,3-2.5,5.5-5.6,5.5c-3,0-5.5-2.5-5.5-5.5V59.5l-18.2-26.1
			c-0.7-0.8-1-1.8-1-2.9c0-2.8,2.1-5.8,5.5-5.8c1.8,0,3.5,0.8,4.5,2.4l14.7,21.1l14.8-21.1c1-1.5,2.7-2.4,4.5-2.4c1,0,2.2,0.4,3.1,1
			C296.4,26.8,297.3,28.5,297.3,30.2z"/>
	</g>
	<g>
		<path class="st0" d="M475.7,24.8c3,0,5.6,2.5,5.6,5.5c0,3.1-2.5,5.6-5.6,5.6h-11v49.6c0,3-2.5,5.5-5.6,5.5c-3,0-5.5-2.5-5.5-5.5
			V35.8h-11c-3,0-5.5-2.5-5.5-5.6c0-3,2.5-5.5,5.5-5.5H475.7z"/>
		<path class="st0" d="M530.6,82.5c0.6,0.9,0.8,1.9,0.8,2.9c0,1.8-0.9,3.6-2.6,4.6c-0.8,0.6-1.9,0.8-2.8,0.8c-1.9,0-3.7-0.9-4.7-2.5
			l-12.2-19.4h-9.3v16.5c0,3-2.5,5.5-5.6,5.5s-5.5-2.5-5.5-5.5V30.2c0-3,2.5-5.5,5.5-5.5h15c0.6,0,5.6,0.1,10.8,2.6
			c7.4,3.7,11.4,10.5,11.4,19.4c0,0.6-0.1,5.7-2.6,10.8c-2,3.9-4.8,6.8-8.3,8.7L530.6,82.5z M499.8,57.8h9.4c4.7,0,7.7-1.6,9.5-5
			c1.5-2.8,1.6-5.9,1.6-6c0-4.7-1.7-7.7-5.3-9.5c-2.8-1.4-5.9-1.4-5.9-1.4h-9.4V57.8z"/>
		<path class="st0" d="M539,85.4V30.2c0-3,2.5-5.5,5.5-5.5s5.5,2.5,5.5,5.5v55.1c0,3-2.5,5.5-5.5,5.5S539,88.4,539,85.4z"/>
		<path class="st0" d="M557.5,85.4V30.2c0-3,2.5-5.5,5.5-5.5h15c0.6,0,5.6,0.1,10.8,2.6c7.4,3.7,11.4,10.5,11.4,19.4
			c0,0.6-0.1,5.7-2.6,10.8c-3.7,7.3-10.7,11.3-19.5,11.3h-9.4v16.5c0,3-2.5,5.5-5.6,5.5C560,90.9,557.5,88.4,557.5,85.4z
			 M568.6,57.8h9.4c4.7,0,7.7-1.6,9.5-5c1.5-2.8,1.6-5.9,1.6-6c0-4.7-1.7-7.7-5.3-9.5c-2.8-1.4-5.9-1.4-5.9-1.4h-9.4V57.8z"/>
	</g>
</g>
</svg>
