<?xml version="1.0" encoding="utf-8"?>
<!-- Generator: Adobe Illustrator 19.0.0, SVG Export Plug-In . SVG Version: 6.00 Build 0)  -->
<svg version="1.1" id="Layer_1" xmlns="http://www.w3.org/2000/svg" xmlns:xlink="http://www.w3.org/1999/xlink" x="0px" y="0px"
	 viewBox="0 0 621.9 147" style="enable-background:new 0 0 621.9 147;" xml:space="preserve">
<style type="text/css">
	.st0{fill:#FFFFFF;}
	.st1{fill:none;stroke:#FFFFFF;stroke-width:6;stroke-miterlimit:10;}
	.st2{fill:#001415;}
	.st3{fill:#FACB03;}
</style>
<g id="XMLID_4_">
	<g id="XMLID_1_">
		<g id="XMLID_2_">
			<g id="XMLID_12_">
				<path id="XMLID_19_" class="st0" d="M331.9,32.1c0,0-0.8,0.7-2.3,2c-0.8,0.6-1.6,1.5-2.5,2.5c-0.5,0.5-1,1.1-1.5,1.7
					c-0.5,0.6-1.1,1.2-1.6,1.9c-2.2,2.8-4.6,6.5-6.6,10.9c-0.5,1.1-0.9,2.3-1.4,3.5c-0.4,1.2-0.8,2.5-1.2,3.8
					c-0.3,1.3-0.8,2.6-1.2,4c-0.4,1.4-0.7,2.8-0.9,4.2c-0.6,2.9-0.7,6-0.7,9.1c0.1,1.6,0.1,3.2,0.4,4.8l0.2,1.2l0.1,0.6l0,0.2
					c-0.1-0.3,0,0,0-0.1l0,0.1l0.1,0.3c0.2,0.9,0.4,1.7,0.6,2.6l0.3,1.3l0.2,0.7l0.2,0.6c0.3,0.8,0.5,1.6,0.8,2.4
					c0.4,1.6,1.3,3.2,2,4.8c0.2,0.4,0.3,0.8,0.6,1.2l0.7,1.2c0.5,0.8,0.9,1.6,1.4,2.3c0.5,0.8,1,1.5,1.6,2.2c0.5,0.7,1,1.5,1.6,2.2
					c4.7,5.7,10.8,10.5,17.9,13.7c7.1,3.1,15,4.6,22.9,4.2c0.5,0,1,0,1.5-0.1l1.5-0.2l1.5-0.2l0.7-0.1l0.4,0l0.1,0
					c-0.3,0.1,0,0-0.1,0l0.2,0l3.1-0.7l1.5-0.3c0.5-0.1,0.9-0.3,1.4-0.4c1.8-0.6,3.6-1.1,5.4-2c0.9-0.4,1.8-0.8,2.7-1.2l2.5-1.4
					l1.3-0.7c0.4-0.3,0.8-0.5,1.2-0.8c0.8-0.6,1.6-1.1,2.4-1.7c0.8-0.5,1.5-1.2,2.2-1.8c0.7-0.6,1.5-1.2,2.1-1.9
					c0.7-0.7,1.3-1.4,2-2c0.3-0.3,0.7-0.7,1-1l0.9-1.1c0.6-0.7,1.2-1.5,1.7-2.2c0.6-0.7,1-1.5,1.5-2.3c4-6.2,6.5-13.1,7.3-19.8
					c0.1-0.8,0.1-1.7,0.2-2.5c0-0.8,0.2-1.6,0.1-2.5c0-0.8,0-1.6,0-2.4c0-0.8,0-1.6-0.1-2.4c-0.1-0.8-0.2-1.6-0.3-2.3
					c0-0.4-0.1-0.8-0.1-1.2l-0.1-0.6l0-0.1c0-0.1,0,0.1,0,0l0-0.2l-0.1-0.3c-0.2-0.8-0.3-1.6-0.5-2.4c-0.2-0.7-0.4-1.4-0.6-2.1
					c-0.2-0.7-0.4-1.4-0.6-2.1c-0.2-0.7-0.4-1.4-0.7-2c-0.3-0.6-0.6-1.3-0.8-1.9c-0.3-0.6-0.5-1.3-0.8-1.9c-1-2.5-2.1-4.9-3.4-6.9
					c-2.5-4.2-5.2-7.6-7.8-10.1c-2.5-2.5-4.8-4.3-6.4-5.5c-1.6-1.1-2.5-1.7-2.5-1.7s1,0.4,2.8,1.2c1.8,0.9,4.4,2.1,7.5,4.3
					c3.1,2.1,6.6,5.1,10,9.2c1.7,2,3.4,4.4,4.9,7c0.4,0.7,0.8,1.3,1.1,2c0.3,0.7,0.6,1.5,0.8,2.2c0.3,0.7,0.5,1.5,0.8,2.3
					c0.3,0.8,0.5,1.5,0.7,2.4c0.2,0.8,0.5,1.7,0.7,2.5c0.2,0.8,0.3,1.6,0.5,2.4l0.1,0.3l0,0.2c0,0,0,0.2,0,0.2l0,0.1L415,66
					c0.1,0.4,0.1,0.9,0.2,1.3c0.1,0.9,0.2,1.8,0.3,2.6c0.1,0.9,0.1,1.8,0.1,2.7c0,0.9,0,1.8,0,2.8c0.1,0.9-0.1,1.9-0.2,2.8
					c-0.1,0.9-0.2,1.9-0.2,2.8c-0.9,7.6-3.7,15.3-8.2,22.3c-0.6,0.9-1.1,1.8-1.7,2.6c-0.6,0.8-1.3,1.6-2,2.5l-1,1.2
					c-0.4,0.4-0.7,0.8-1.1,1.2c-0.7,0.8-1.5,1.5-2.2,2.3c-0.7,0.8-1.6,1.4-2.4,2.1c-0.8,0.7-1.6,1.4-2.5,2.1
					c-0.9,0.6-1.8,1.2-2.7,1.9c-0.4,0.3-0.9,0.6-1.3,0.9l-1.4,0.8c-0.9,0.5-1.9,1.1-2.8,1.6c-1,0.5-2,0.9-3,1.4
					c-1,0.4-2,0.9-3.1,1.3l-3.2,1.1c-0.5,0.2-1.1,0.4-1.6,0.5l-1.5,0.3l-3.1,0.7l-0.2,0l-0.2,0l-0.1,0l-0.4,0l-0.8,0.1l-1.6,0.2
					l-1.6,0.2c-0.5,0.1-1.1,0.1-1.6,0.1c-8.8,0.5-17.7-1.2-25.7-4.7c-7.9-3.6-14.8-9-20.1-15.4c-0.7-0.8-1.2-1.7-1.8-2.5
					c-0.6-0.8-1.2-1.6-1.8-2.5c-0.5-0.9-1-1.8-1.5-2.6l-0.8-1.3c-0.2-0.4-0.4-0.9-0.6-1.4c-0.8-1.8-1.7-3.6-2.3-5.5
					c-0.3-1-0.6-1.9-0.9-2.8l-0.2-0.7l-0.2-0.7l-0.3-1.3c-0.2-0.9-0.4-1.7-0.6-2.6l-0.1-0.3l-0.1-0.3l0-0.2l-0.1-0.7
					c-0.1-0.5-0.1-0.9-0.2-1.4c-0.3-1.8-0.3-3.6-0.5-5.4c0-3.6,0.1-7.1,0.7-10.3c0.2-1.6,0.7-3.2,1-4.8c0.1-0.8,0.4-1.5,0.6-2.3
					c0.2-0.7,0.5-1.5,0.8-2.2c0.7-1.4,1.3-2.7,2-3.9c0.7-1.2,1.4-2.4,2.2-3.5c3-4.5,6.1-7.8,9-10.3c2.8-2.5,5.3-4.1,7-5.1
					C331,32.6,331.9,32.1,331.9,32.1z"/>
			</g>
			<g id="XMLID_15_">
				<path id="XMLID_42_" class="st1" d="M313.6,44.9c0.2-0.2,0.2-0.3,0.3-0.4c-0.1,0-1.1-0.5-1.3-1.6c-0.1-0.5,0-0.9,0.1-1.1
					c0.9-1.2,1.9-2.4,2.9-3.6c3.6-4.4,7.3-7.8,9.9-10.1c2.8-2.3,0.6-0.6,7.9-5.9c0.7-0.5,2.1-1.5,4.2-2.5c1.6-0.8,2.8-1.2,4.2-1.7
					c3.2-1.1,4.8-1.6,6-1.2c0.6,0.2,0.8,0.7,1,1c-0.5,0.4-1.1,0.9-1.5,1.4c-13.7,9.6-24,19.2-31.1,28.8
					C315.3,46.9,314.5,45.9,313.6,44.9z"/>
			</g>
		</g>
		<g id="XMLID_13_">
			<path id="XMLID_21_" class="st0" d="M421.1,36.3c0,0-0.9-1.1-2.5-3.2c-0.4-0.5-0.9-1.1-1.4-1.7c-0.5-0.6-1.1-1.3-1.8-2
				c-0.6-0.7-1.4-1.4-2.2-2.2c-0.8-0.8-1.6-1.6-2.5-2.4c-0.9-0.8-1.9-1.6-2.9-2.5c-1.1-0.8-2.2-1.6-3.4-2.5c-2.4-1.7-5.1-3.4-8-4.9
				c-0.7-0.4-1.5-0.8-2.3-1.1c-0.8-0.4-1.6-0.7-2.4-1.1c-1.6-0.7-3.4-1.3-5.1-1.9c-0.9-0.3-1.8-0.5-2.7-0.9c-0.9-0.3-1.8-0.7-2.7-1
				c-0.9-0.3-1.9-0.6-2.8-0.8c-1-0.3-2-0.4-3-0.7c-4-0.9-8.2-1.2-12.6-1.4c-2.2,0.1-4.4,0-6.7,0.3c-0.6,0.1-1.1,0.1-1.7,0.2
				l-0.9,0.1l-0.1,0c-0.1,0,0,0,0,0l-0.2,0l-0.4,0.1c-0.6,0.1-1.2,0.2-1.8,0.3c-0.6,0.1-1.2,0.2-1.7,0.3c-9,1.8-18.4,5.8-26.5,11.9
				c-4.1,3.1-7.8,6.7-11.2,10.7c-3.3,4.1-6.3,8.5-8.6,13.3c-2.4,4.8-4.2,9.9-5.4,15.2c-1.2,5.3-1.7,10.8-1.6,16.2
				c0,1.4,0.1,2.7,0.2,4.1c0,0.7,0.1,1.4,0.2,2l0.1,1l0.1,0.5l0,0.1c0-0.1,0,0,0,0.1l0,0.3l0.3,2.1l0.2,1.1l0.2,1
				c0.3,1.3,0.5,2.6,0.9,3.9c1.4,5.2,3.3,10.3,5.9,15c5.1,9.5,12.4,17.4,20.7,23.3c8.4,5.8,17.8,9.5,27,11c4.6,0.7,9.2,1,13.6,0.8
				c1.1-0.1,2.2-0.1,3.3-0.2c0.5-0.1,1.1-0.1,1.6-0.2l0.8-0.1l0.1,0c0.1,0,0,0,0,0l0.2,0l0.4-0.1c1.1-0.2,2.2-0.4,3.3-0.5
				c1-0.2,2-0.5,3-0.7c1-0.2,1.9-0.5,2.9-0.8c1-0.3,1.9-0.5,2.8-0.9c0.9-0.4,1.8-0.7,2.7-1c0.9-0.4,1.8-0.7,2.6-1
				c3.5-1.3,6.7-2.8,9.6-4.5c5.8-3.3,10.5-7.1,14-10.5c3.5-3.4,5.9-6.5,7.6-8.6c1.5-2.2,2.4-3.3,2.4-3.3s-0.6,1.3-1.9,3.7
				c-1.3,2.3-3.3,5.8-6.4,9.8c-3.1,4-7.4,8.5-13.2,12.8c-2.9,2.2-6.1,4.2-9.7,6.1c-0.9,0.5-1.8,0.9-2.8,1.3c-1,0.4-2,0.7-3,1
				c-1,0.4-2,0.6-3.1,0.9c-1,0.3-2.1,0.6-3.2,0.9c-1.1,0.2-2.2,0.5-3.3,0.8c-1.1,0.2-2.2,0.4-3.3,0.5c-2.4,0.3-4.7,0.6-7.1,0.7
				c-4.8,0.2-9.8,0-14.8-0.8c-10.1-1.6-20.3-5.6-29.5-12c-9.1-6.4-17.1-15.1-22.6-25.4c-2.8-5.1-4.9-10.7-6.4-16.4
				c-0.4-1.4-0.7-2.9-1-4.4l-0.2-1.1l-0.2-1.1l-0.3-2.1l0-0.3l0-0.2l0-0.1l-0.1-0.6l-0.1-1.1c-0.1-0.7-0.2-1.5-0.2-2.2
				c-0.1-1.5-0.2-3-0.2-4.4c-0.1-5.9,0.5-11.9,1.8-17.6c1.3-5.8,3.3-11.3,5.8-16.6c2.6-5.2,5.8-10.1,9.4-14.5
				c3.7-4.4,7.8-8.3,12.2-11.7c4.4-3.4,9.2-6.1,14.1-8.3c0.6-0.3,1.2-0.5,1.8-0.8c0.6-0.2,1.2-0.5,1.9-0.7c1.2-0.5,2.5-0.9,3.7-1.3
				c2.5-0.8,5-1.4,7.6-1.9c0.6-0.2,1.3-0.2,1.8-0.3c0.6-0.1,1.2-0.2,1.8-0.3l0.4-0.1l0.2,0l0.2,0l0.1,0l0.9-0.1
				c0.6-0.1,1.2-0.1,1.9-0.2c2.5-0.3,4.9-0.3,7.3-0.3c4.8,0.1,9.4,0.5,13.8,1.5c2.2,0.4,4.3,1,6.3,1.6c1,0.2,2,0.6,3,1
				c1,0.3,1.9,0.7,2.9,1.1c1.8,0.9,3.6,1.8,5.2,2.8c0.8,0.5,1.6,1,2.4,1.5c0.8,0.5,1.6,1,2.3,1.5c5.9,4.1,10.4,8.4,13.7,12.3
				c0.8,0.9,1.5,1.9,2.2,2.8c0.7,0.9,1.3,1.7,1.9,2.6c0.5,0.8,1,1.6,1.5,2.3c0.5,0.7,0.9,1.3,1.2,1.9
				C420.4,35.1,421.1,36.3,421.1,36.3z"/>
		</g>
		<g id="XMLID_10_">
			<path id="XMLID_48_" class="st0" d="M418,123.7c2-3.5,5.4-8.6,11-16.5c-0.5-0.4-0.9-0.7-1.4-1.1c-4.8,6-9.5,11.9-14.3,17.9
				c-0.4-0.3-0.7-0.6-1.1-0.8c4.7-6.1,9.3-12.1,14-18.2c-0.5-0.4-0.9-0.7-1.4-1.1c-4.8,6-9.5,11.9-14.3,17.9
				c-0.5-0.4-0.9-0.7-1.4-1.1c4.8-6,9.5-11.9,14.3-17.9c-0.5-0.4-0.9-0.7-1.4-1.1c-4.8,6-9.5,11.9-14.3,17.9
				c-0.5-0.4-0.9-0.7-1.4-1.1c4.5-6.1,9.1-12.1,13.6-18.2c-0.1-0.1-0.5-0.9-1.1-0.8c-0.2,0-0.3,0.1-0.6,0.4
				c-0.3,0.3-0.7,0.8-1.1,1.4c-5.5,6.7-9.6,11.4-13.1,14.9c-0.3,0.3-3.2,3.1-4.5,7.3c-0.8,2.6-0.5,4.1,0,5.2c0.2,0.4,0.5,0.8,0.7,1
				c1,0.2,2.1,0.7,2.9,1.4c0.5,0.4,1,0.9,1.3,1.5c0.4,0.3,0.9,0.6,1.6,0.7c1.1,0.2,1.9-0.2,2.8-0.7c3.2-1.7,5-3.5,5-3.5
				C416.4,126.5,417.8,124,418,123.7z"/>
			<path id="XMLID_45_" class="st0" d="M418,123.7c1.6-2.9,3.5-5.6,5.2-8.4c1.8-2.8,3.6-5.5,5.5-8.3l0.1,0.5l-1.4-1.1l0.5-0.1
				l-3.5,4.5c-1.2,1.5-2.4,3-3.6,4.5l-7.2,9l-0.3,0.4l-0.4-0.3l-1.1-0.8l-0.4-0.3l0.3-0.4l14-18.2l0.1,0.7l-1.4-1.1l0.7-0.1
				l-14.3,17.9l-0.3,0.4l-0.4-0.3l-1.4-1.1l-0.4-0.3l0.3-0.4l14.3-17.9l0.1,0.7l-1.4-1.1l0.7-0.1L408,119.8l-0.3,0.4l-0.4-0.3
				l-1.4-1.1l-0.4-0.3l0.3-0.4l13.6-18.2l0,0.5c-0.1-0.2-0.3-0.5-0.5-0.5c0,0-0.1,0-0.1,0c0,0,0,0,0,0c0,0-0.1,0-0.2,0.1
				c-0.4,0.4-0.8,0.9-1.1,1.5l0,0l0,0c-3.7,4.5-7.4,9-11.5,13.3l-1.5,1.6c-0.5,0.5-1,1-1.4,1.6c-0.9,1.1-1.6,2.3-2.2,3.6
				c-0.3,0.6-0.6,1.3-0.8,2c-0.2,0.7-0.4,1.3-0.5,2c-0.2,1.4,0.1,2.8,1,3.7l-0.2-0.1c1.8,0.4,3.5,1.6,4.4,3.1l-0.1-0.1
				c0.3,0.2,0.6,0.4,0.9,0.5c0.3,0.1,0.7,0.2,1,0.2c0.7,0,1.4-0.2,2-0.5c1.3-0.6,2.5-1.4,3.7-2.3c0.6-0.4,1.2-0.9,1.7-1.4
				c0.5-0.5,1-1.1,1.5-1.6C416.4,126.1,417.2,125,418,123.7z M418,123.7c-0.7,1.3-1.6,2.5-2.5,3.6c-0.5,0.6-0.9,1.1-1.4,1.6
				c-0.5,0.5-1.1,1-1.6,1.5c-1.1,0.9-2.4,1.7-3.7,2.4c-0.6,0.3-1.4,0.6-2.2,0.6c-0.8,0-1.6-0.3-2.2-0.7l0,0l0,0
				c-1-1.4-2.5-2.4-4.1-2.7l-0.1,0l-0.1-0.1c-0.6-0.5-1-1.3-1.2-2c-0.2-0.8-0.3-1.6-0.2-2.3c0.1-0.8,0.2-1.5,0.5-2.2
				c0.2-0.7,0.5-1.4,0.8-2.1c0.6-1.4,1.4-2.6,2.4-3.8c0.5-0.6,1-1.2,1.5-1.7l1.5-1.6c4-4.2,7.8-8.7,11.5-13.2l0,0.1
				c0.4-0.6,0.8-1.1,1.3-1.6c0.1-0.1,0.3-0.3,0.6-0.4c0.1,0,0.3,0,0.5,0c0.1,0,0.3,0.1,0.4,0.2c0.4,0.3,0.6,0.6,0.8,0.9l0.2,0.3
				l-0.2,0.3l-13.6,18.2l-0.1-0.7l1.4,1.1l-0.7,0.1l14.3-17.9l0.3-0.4l0.4,0.3l1.4,1.1l0.4,0.3l-0.3,0.4L409.4,121l-0.1-0.7l1.4,1.1
				l-0.7,0.1l14.3-17.9l0.3-0.4l0.4,0.3l1.4,1.1l0.4,0.3l-0.3,0.4l-14,18.2l-0.1-0.7l1.1,0.8l-0.7,0.1l7.1-9c1.2-1.5,2.4-3,3.6-4.5
				l3.7-4.4l0.2-0.3l0.3,0.2l1.4,1.1l0.2,0.2l-0.2,0.2c-2,2.6-3.9,5.3-5.8,8C421.5,118.1,419.7,120.9,418,123.7z"/>
		</g>
		<path id="XMLID_94_" class="st2" d="M360.8,114c-22.3,0-40.6-18.3-40.5-40.6c0-22.3,18.3-40.6,40.6-40.5
			c22.4,0.1,40.6,18.3,40.5,40.6C401.3,95.8,383.1,114.1,360.8,114z"/>
		<path id="XMLID_93_" class="st3" d="M346.5,71.8c0.1-1.2-0.1-2.1,0.2-2.9c0.3-1.1,0.7-2.3,1.8-2.8c1.8-0.9,2.9-2.4,3.8-4.1
			c0.6-1,1.3-1.7,2.6-1.5c1.1,0.1,2.1-0.4,3.1-0.9c1.1-0.5,2.1-0.7,3.3-0.3c0.6,0.3,1.2,0,1.8,0c0.4-0.1,0.7,0,0.8,0.5
			c0.1,0.5,0.3,1,0.4,1.5c0.1,1,0.7,1.4,1.5,1.6c1.7,0.4,3.3,0.7,4.9-0.2c0.2-0.1,0.5-0.1,0.7,0c0.8,0.4,1.7,0.6,2.6,0.8
			c3.4,0.6,5.3,2.9,6.2,6c0.6,2.1,1.6,3.9,3,5.6c0.2,0.3,0.5,0.6,0.7,0.9c0.6,1.3,1.5,1.9,3,1.3c0.4-0.2,0.7,0,0.5,0.5
			c-0.2,0.5-0.3,1-0.6,1.4c-1.1,1.4-2.1,2.8-3.3,4.1c-0.9,0.9-1.5,2.2-1.9,3.5c-0.2,0.7,0,1.5,0.2,2.3c0.4,1.5-0.2,2.6-1.2,3.5
			c-0.6,0.6-1.1,1.2-1.6,1.8c-0.8,0.9-1.2,1.8-0.9,2.9c0.1,0.4-0.1,0.7-0.5,1c-0.9,0.7-1.7,1.5-2.5,2.4c-1.2,1.4-3,1.9-4.8,2.2
			c-0.7,0.1-1.7,0.5-2.2,0.2c-0.5-0.3-0.1-1.4-0.2-2.1c-0.1-0.4-0.1-0.8-0.2-1.1c-0.6-1.4-1-3.1-2.1-4.3c-0.7-0.7-0.6-1.6-0.4-2.5
			c0.1-0.2,0.1-0.5,0.2-0.7c0.7-1.3,1-2.7,0.2-4.1c-0.1-0.2-0.1-0.4-0.1-0.6c0-1.1-0.4-1.9-1.4-2.5c-0.3-0.2-0.6-0.5-0.6-0.9
			c0.1-1.2-0.4-2.3-0.3-3.5c0-0.6-0.3-0.7-0.8-0.6c-0.4,0.1-0.9,0.3-1.3,0.4c-0.8,0.3-1.3,0-1.4-0.8c-0.1-0.8-0.6-0.8-1.1-0.6
			c-1.5,0.7-3,1.2-4.5,1.6c-0.7,0.2-1.3,0.1-1.9-0.4c-1.5-1.2-3.1-2.3-4.1-3.9C347,75,346,73.5,346.5,71.8z"/>
		<path id="XMLID_92_" class="st3" d="M397.6,75.3c-0.4-1.1-0.7-2.3-1.3-3.4c-1.3-2.3-3.2-3.8-5.8-4.4c-0.7-0.2-1.2-0.6-1.7-0.9
			c-0.6-0.5-1.2-1-2.1-1.1c0.4,0.8,0.8,1.6,1.2,2.3c0.3,0.6,1.1,0.7,1.7,0.7c0.5,0,0.8,0.1,1,0.6c0.1,0.3,0.3,0.5,0.5,0.8
			c0.7,1.1,0.7,1.1-0.3,1.8c-1.2,0.8-2.3,1.7-3.6,2.4c-0.5,0.2-0.9,0.5-1.4,0.6c-1.2,0.2-1.7-0.1-1.9-1.3c-0.1-0.5-0.2-0.9-0.5-1.2
			c-1.8-2.7-3.7-5.5-5.6-8.3c1.3,0.1,1-0.8,0.8-1.5c-0.1-0.6,0-1.2,0-1.9c-0.5,0.3-1,0.6-1.5,0.9c-0.3,0.2-0.6,0.2-0.8-0.1
			c-0.7-0.9-1.4-1.7-1.9-2.7c-0.3-0.7-0.1-1.1,0.5-1.5c1.3-0.9,2.8-0.9,4.3-0.7c0.4,0,0.8,0.1,1.2,0.1c0.3,0,0.7,0.2,0.8-0.2
			c0.1-0.4,0.1-0.8-0.3-1.1c-0.7-0.5-1.5-0.9-2.4-1c0.1-0.5,0.7-0.7,0.9-1.2c-1.3-0.4-4,0.5-4.9,1.5c-0.3,0.4-0.3,0.8-0.2,1.2
			c0.1,0.6-0.2,0.9-0.7,1.1c-0.8,0.3-1.5,0.4-2.4,0.3c-0.5,0-1.1,0-1,0.8c-1-0.9-0.8-2.4-2.1-3c-1-0.5-2-1.1-3.1-1.8
			c-0.2,2.1,2,2.4,2.5,3.9c-0.3,0.2-0.7,0.1-1,0.2c-0.5,0.1-0.8,0-0.7-0.6c0-0.2,0.1-0.4-0.1-0.5c-0.8-0.1-1.2-0.8-1.7-1.3
			c-1-1-2.2-0.6-3.2-0.1c-1.5,0.7-2.9,1.6-3.7,3.2c-0.7,1.4-2,1.5-3.3,1.2c-1.9-0.4-1.9-0.4-1.9-2.3c0-0.7,0.1-1.3,0.2-2
			c0-0.4,0.3-0.4,0.5-0.4c0.7-0.2,1.5-0.3,2.2-0.4c0.6-0.1,1-0.4,1.3-0.8c0.3-0.4,0.7-0.8,0.2-1.4c-0.4-0.6,0-1.2,0.6-1.4
			c1.9-0.6,3.5-1.6,4.9-3c1-1,1.5-0.9,2.6,0c0.2,0.2,0.4,0.3,0.6,0.4c1.3,1,1.6,1,2.9,0c0.6-0.5,0.7-1.3,0.5-2
			c-0.2-0.5-0.4-1-0.7-1.5c-0.5,0.5-0.9,1.2-1.3,1.7c-0.2,0.3-0.2,0.8-0.7,0.6c-0.6-0.2-1.4,0-1.7-0.7c-0.1-0.1-0.1-0.3-0.2-0.4
			c-0.5-1.4-0.6-1.5-2.1-1.2c-0.7,0.1-0.8-0.1-0.6-0.6c0.4-1,1-1.6,2-1.9c1.3-0.4,2.5-0.9,3.8-1.3c0.7-0.2,1.4-0.3,2.2-0.1
			c1.8,0.4,3.6,0.1,5.3,0c1.1,0,2.1,0.1,2.5,1.4c0.3,0.9,1.8,1.2,2.5,0.7c0.5-0.3,0.9-0.3,1.3,0c9.8,6.7,15.4,15.9,16.6,27.8
			C397.9,71.9,397.9,73.6,397.6,75.3z"/>
		<path id="XMLID_91_" class="st3" d="M325,81.8c1.7,1.6,4.1,2.1,5.7,4c0.5,0.6,1,1.2,1.3,2c0.6,1.9,2.1,2.7,3.8,3.2
			c1.1,0.3,1.9,1.1,2.8,1.7c0.5,0.3,0.5,1,0.3,1.6c-0.3,0.8-0.5,1.6-0.8,2.5c-0.3,0.8-0.4,1.6,0,2.3c0.3,0.5,0,0.8-0.4,1
			c-1.1,0.7-2,0.6-2.9-0.4c-4.8-4.8-8.1-10.4-9.8-17C324.9,82.5,324.8,82.2,325,81.8z"/>
		<path id="XMLID_90_" class="st3" d="M324.7,65.8c0.8-4.4,2.6-8.4,5-12.1c0.3-0.6,0.8-1.1,1.1-1.6c0.2,0,0.3,0,0.2,0.2
			c-0.1,0.6,0.1,1,0.3,1.5c0.7,1.5,0.7,2.4-0.8,3.3c-0.8,0.5-1.7,1-2.3,1.8c-0.2,0.2-0.4,0.5-0.5,0.8c0.4,0,0.7-0.5,1.3-0.3
			c-1.4,2.3-2.7,4.6-4.1,6.9C324.4,66.2,324.7,66,324.7,65.8z"/>
		<path id="XMLID_89_" class="st3" d="M347.3,39.1c-0.2,0.6-0.5,0.9-0.8,1c-2.1,0.9-3.3,2.7-4.7,4.2c-1,1.1-1.9,2.3-3.3,2.9
			c-0.4,0.2-0.8,0.2-1.2,0c-0.3-0.2-0.6-0.3-1-0.2c-0.2,0-0.4,0.1-0.6-0.1c-0.1-0.2,0-0.5,0.2-0.6c0.3-0.3,0.6-0.5,0.9-0.8
			C339.8,42.8,343.3,40.7,347.3,39.1z"/>
		<path id="XMLID_88_" class="st3" d="M386.5,89.2c0.3,1.1,0,2-0.1,2.9c-0.4,2-1.1,3.8-2.8,5c-0.7,0.5-0.9,0.4-1.1-0.4
			c-0.1-0.4,0-0.9,0.2-1.3c0.4-0.9,0.8-1.8,0.9-2.8c0-0.4,0.4-0.7,0.7-0.9c1-0.4,1.5-1.2,1.9-2.1C386.3,89.5,386.4,89.4,386.5,89.2z
			"/>
		<path id="XMLID_87_" class="st3" d="M353.8,47.9c0-0.6,0-1.2,0-1.9c0-0.3,0.1-0.5,0.4-0.7c0.6-0.4,1.1-0.5,1.5,0.3
			c0.4,0.8,1.2,1.5,1.8,2.2c0.3,0.3,0.2,0.5-0.1,0.7c-1,0.8-2.2,0.7-3.3,1c-0.3,0.1-0.3-0.2-0.3-0.3c0-0.3,0-0.6,0-0.9
			C353.7,48.1,353.7,48,353.8,47.9z"/>
		<path id="XMLID_86_" class="st3" d="M353.8,47.9c0,0.1,0,0.3,0,0.4c-0.6,0.2-0.8,0.9-1.4,1.2c-0.2-0.3-0.6-0.5-0.4-1
			c0.2-0.9,0.4-1,1.3-0.7C353.5,47.9,353.7,47.9,353.8,47.9z"/>
		<path id="XMLID_77_" class="st3" d="M331,52.3c-0.1-0.1-0.1-0.2-0.2-0.2c0.1-0.2,0.2-0.5,0.4-0.3C331.4,51.9,331.1,52.1,331,52.3z
			"/>
	</g>
	<g id="XMLID_3_">
		<path id="XMLID_5_" class="st0" d="M31,100.9c0,2.8,0.1,5.1,0.4,7c0.2,1.8,0.6,3.3,1,4.4c0.3,1.4,0.8,2.4,1.3,3.1h-18
			c0.5-0.7,0.9-1.8,1.3-3.1c0.3-1.1,0.6-2.6,0.9-4.4c0.3-1.8,0.4-4.2,0.4-7v-0.1V76.9l-12.1-35c-1.6-3.9-3-6.8-4.2-8.8
			C1.2,32,0.6,31,0,30.2h18c-0.6,0.6-1,1.6-1.1,2.9c-0.1,1.3,0,2.4,0.3,3.4l11.2,31.8l12.5-32.8c0.2-0.6,0.3-1.3,0.4-2
			c0.1-0.7,0.1-1.3,0.1-1.7c0-0.6,0-1.1-0.1-1.6H48c-0.5,0.5-0.9,1-1.3,1.7c-0.4,0.6-0.8,1.2-1.2,1.9c-0.4,0.7-0.7,1.4-1,2.1
			L31,72.1v28.7V100.9z"/>
		<path id="XMLID_7_" class="st0" d="M99.1,49.2c-0.4,0.7-0.8,1.5-1.1,2.3c-0.3,0.6-0.6,1.4-0.8,2.3c-0.2,0.9-0.3,1.9-0.3,2.8
			c0,2.4,0,4.6-0.1,6.5c0,2-0.1,4.2-0.1,6.7c0,2.5,0,5,0,7.7v20.8c0,2.6-0.4,5-1.2,7.2c-0.8,2.2-1.9,4.2-3.4,5.9
			c-1.4,1.7-3.2,3-5.3,4c-2.1,1-4.4,1.4-7,1.4h-1.2c-7.4,0-13.2-1.6-17.3-4.7c-4.2-3.2-6.3-7.9-6.3-14.1V63.8c0-2.8-0.1-5.1-0.4-7
			c-0.3-1.8-0.6-3.3-0.9-4.4c-0.4-1.4-0.8-2.4-1.3-3.2h18c-0.6,0.8-1,1.9-1.3,3.2c-0.4,1.1-0.7,2.6-1,4.4c-0.2,1.8-0.4,4.2-0.4,7
			v33.6c0,2.2,0.2,4.3,0.5,6.2c0.4,1.9,1,3.6,1.8,4.9c0.8,1.4,2,2.4,3.4,3.2c1.4,0.8,3.1,1.2,5.1,1.2h1.2c2,0,3.8-0.4,5.4-1.1
			c1.6-0.8,3-1.8,4.1-3.2c1.2-1.4,2-2.9,2.6-4.7c0.6-1.8,0.9-3.7,0.9-5.8V56.8c0-1.1-0.1-2.1-0.3-3.1c-0.2-0.9-0.5-1.7-0.7-2.3
			c-0.3-0.8-0.6-1.5-1-2.2H99.1z M64.7,37.7c-1.7,0.1-3.3,0.3-4.9,0.8c-1.6,0.4-2.9,1-4,1.6c0.5-1.8,1.3-3.4,2.6-4.6
			c1.2-1.2,2.6-2.2,4.1-3c1.5-0.8,2.9-1.3,4.4-1.7c1.4-0.4,2.6-0.5,3.6-0.5c1.8-0.1,3.3,0,4.8,0.4c1.4,0.3,2.8,0.7,4.2,1.1
			c1.4,0.4,2.8,0.8,4.3,1.1c1.5,0.3,3.2,0.4,5.1,0.4c1.6-0.1,3-0.4,4.2-0.8s2.4-1,3.5-1.7c-0.6,2-1.5,3.6-2.7,4.9
			c-1.2,1.3-2.6,2.3-4,3c-1.4,0.7-2.8,1.2-4.2,1.6c-1.4,0.3-2.5,0.5-3.4,0.5c-1.8,0.1-3.3,0-4.6-0.4c-1.3-0.3-2.6-0.7-3.9-1.1
			c-1.3-0.4-2.6-0.8-4-1.1C68.3,37.7,66.6,37.6,64.7,37.7z"/>
		<path id="XMLID_23_" class="st0" d="M157,100.8c0,2.8,0.1,5.1,0.4,7c0.2,1.9,0.6,3.4,1,4.5c0.3,1.4,0.8,2.4,1.3,3.1h-18
			c0.6-0.6,1-1.5,1.4-2.7c0.4-1.2,0.6-2.6,0.8-4c0.2-1.4,0.3-2.9,0.4-4.3c0-1.4,0.1-2.6,0.1-3.6V46.9l-13.8,60.5h-3.7L112,47v61.1
			c0,1,0.1,2,0.3,2.9c0.2,0.9,0.5,1.6,0.8,2.3c0.3,0.8,0.7,1.5,1.1,2.2H106c0.4-0.6,0.8-1.4,1.1-2.2c0.2-0.6,0.5-1.4,0.7-2.3
			c0.2-0.9,0.4-1.9,0.4-3V43.6c-0.1-2.6-0.2-4.7-0.5-6.4c-0.2-1.7-0.5-3-0.8-4.1c-0.3-1.2-0.7-2.2-1.2-2.9h15.1L133,79.9l11.3-49.7
			h15.4c-0.6,0.7-1,1.8-1.3,3.1c-0.4,1.1-0.7,2.6-1,4.5c-0.2,1.9-0.4,4.2-0.4,7V45V100.8z"/>
		<path id="XMLID_27_" class="st0" d="M217.1,100.8c0,2.8,0.1,5.1,0.4,7c0.2,1.9,0.6,3.4,1,4.5c0.3,1.4,0.8,2.4,1.3,3.1h-18
			c0.6-0.6,1-1.5,1.4-2.7c0.4-1.2,0.6-2.6,0.8-4c0.2-1.4,0.3-2.9,0.4-4.3c0-1.4,0.1-2.6,0.1-3.6V46.9l-13.8,60.5h-3.7L172.1,47v61.1
			c0,1,0.1,2,0.3,2.9c0.2,0.9,0.5,1.6,0.8,2.3c0.3,0.8,0.7,1.5,1.1,2.2h-8.2c0.4-0.6,0.8-1.4,1.1-2.2c0.2-0.6,0.5-1.4,0.7-2.3
			c0.2-0.9,0.4-1.9,0.4-3V43.6c-0.1-2.6-0.2-4.7-0.5-6.4c-0.2-1.7-0.5-3-0.8-4.1c-0.3-1.2-0.7-2.2-1.2-2.9h15.1l12.2,49.7l11.3-49.7
			h15.4c-0.6,0.7-1,1.8-1.3,3.1c-0.4,1.1-0.7,2.6-1,4.5c-0.2,1.9-0.4,4.2-0.4,7V45V100.8z"/>
		<path id="XMLID_29_" class="st0" d="M256.8,100.9c0,2.8,0.1,5.1,0.4,7c0.2,1.8,0.6,3.3,1,4.4c0.3,1.4,0.8,2.4,1.3,3.1h-18
			c0.5-0.7,0.9-1.8,1.3-3.1c0.3-1.1,0.6-2.6,0.9-4.4c0.3-1.8,0.4-4.2,0.4-7v-0.1V76.9l-12.1-35c-1.6-3.9-3-6.8-4.2-8.8
			c-0.7-1.1-1.4-2.1-1.9-2.9h18c-0.6,0.6-1,1.6-1.1,2.9c-0.1,1.3,0,2.4,0.3,3.4l11.2,31.8l12.5-32.8c0.2-0.6,0.3-1.3,0.4-2
			c0.1-0.7,0.1-1.3,0.1-1.7c0-0.6,0-1.1-0.1-1.6h6.8c-0.5,0.5-0.9,1-1.3,1.7c-0.4,0.6-0.8,1.2-1.2,1.9c-0.4,0.7-0.7,1.4-1,2.1
			l-13.6,36.2v28.7V100.9z"/>
	</g>
	<path id="XMLID_31_" class="st0" d="M497.7,30.9l-1.1,11.9h-2.8c-0.4-1.5-0.8-2.8-1.1-4c-0.3-1.1-0.9-2-1.8-2.8
		c-1-0.8-2.1-1.4-3.4-1.7c-1.3-0.3-3.3-0.5-6-0.5v37.8h8.4v3.7h-8.4v26c0,2.7,0.1,5,0.4,7c0.2,1,0.3,1.8,0.5,2.5
		c0.2,0.7,0.3,1.4,0.5,2c0.4,1.5,0.8,2.6,1.3,3.1h-18c0.3-0.5,0.6-1,0.8-1.5c0.2-0.5,0.4-1.1,0.5-1.6c0.2-0.6,0.3-1.3,0.5-2
		c0.2-0.7,0.3-1.6,0.5-2.5c0.2-1.9,0.4-4.2,0.4-7v-26h-8.3v-3.7h8.3V33.9c-2.7,0-4.7,0.2-6,0.5c-1.3,0.3-2.4,0.9-3.4,1.7
		c-0.8,0.6-1.4,1.6-1.7,2.8c-0.2,0.6-0.4,1.2-0.6,1.8c-0.2,0.6-0.4,1.4-0.6,2.2h-2.8l-1.1-11.9H497.7z"/>
	<path id="XMLID_33_" class="st0" d="M544.3,102.1c1,3.6,2,6.3,3,8.2c1,1.9,2.4,3.4,4.2,4.5c-1.1,0.7-2.3,1.2-3.5,1.4
		c-1.2,0.2-2.3,0.4-3.2,0.4c-2.9-0.2-5.4-1-7.5-2.6c-2.1-1.6-3.6-4-4.4-7.4l-7.3-35.8c-2.4-0.2-4.4-0.9-6.1-2.3v32.3
		c0,2.8,0.1,5.1,0.4,7c0.2,1.9,0.6,3.4,1,4.5c0.3,1.4,0.8,2.4,1.3,3.1h-18c0.5-0.7,0.9-1.8,1.3-3.1c0.3-1.1,0.6-2.6,0.9-4.5
		c0.3-1.9,0.4-4.2,0.4-7V45c0-2.8-0.1-5.1-0.4-7c-0.3-1.9-0.6-3.4-0.9-4.5c-0.4-1.4-0.8-2.4-1.3-3.1h21.2c3.2,0,6.1,0.4,8.7,1.1
		c2.6,0.7,4.8,1.9,6.7,3.4c1.9,1.6,3.3,3.6,4.4,6.1c1,2.5,1.6,5.5,1.6,9.1c0,5.7-1.4,10.3-4.2,13.9c-2.8,3.6-6.8,5.8-11.9,6.7
		c1.8,0.8,3.7,2.3,5.5,4.4c1.8,2.1,3.2,5.3,4.2,9.5L544.3,102.1z M520.8,65.3c0.2,0.6,0.9,1.3,1.9,1.9c1,0.6,2.1,0.9,3.4,0.9
		c1.6,0,2.9-0.5,4-1.4c1-1,1.9-2.2,2.5-3.8c0.6-1.6,1-3.5,1.2-5.7c0.2-2.2,0.3-4.5,0.3-6.9c0-3.1-0.3-5.7-1-7.9
		c-0.7-2.1-1.6-3.8-2.7-5.2c-1.1-1.3-2.4-2.3-3.8-2.9c-1.4-0.6-2.8-0.9-4.1-0.9h-2.9v21.4c0.6-0.6,1.3-1,2.2-1.3
		c0.9-0.3,1.8-0.4,2.6-0.4c0.9,0.1,1.7,0.3,2.4,0.8c0.7,0.4,1.3,1.1,1.7,2.1c-1.3-0.2-2.5-0.1-3.7,0.4c-1.2,0.5-2.1,1.2-2.8,2.1
		c-0.7,0.9-1.2,2-1.4,3.2C520.2,62.8,520.3,64,520.8,65.3z"/>
	<path id="XMLID_36_" class="st0" d="M570.5,102c0,2.7,0.1,5,0.4,7c0.2,1,0.3,1.8,0.5,2.5c0.2,0.7,0.3,1.4,0.5,2
		c0.4,1.5,0.8,2.6,1.3,3.1h-18c0.6-0.8,1-1.8,1.3-3.1c0.2-0.6,0.3-1.3,0.5-2c0.2-0.7,0.3-1.6,0.5-2.5c0.2-1.9,0.4-4.2,0.4-7v-0.1
		V73.7c0-2.7-0.1-5-0.4-7c-0.2-1-0.3-1.8-0.5-2.5c-0.2-0.7-0.3-1.4-0.5-2c-0.3-1.3-0.8-2.3-1.3-3.1h18c-0.5,0.6-0.9,1.6-1.3,3.1
		c-0.2,0.6-0.3,1.3-0.5,2c-0.2,0.7-0.3,1.6-0.5,2.5c-0.2,1.9-0.4,4.2-0.4,7v28.2V102z M564.1,55l-7.3-12.2l7.3-12.4l7.2,12.4
		L564.1,55z"/>
	<path id="XMLID_39_" class="st0" d="M600.5,30.9c3.2,0,6.1,0.4,8.7,1.1c2.6,0.7,4.8,1.9,6.7,3.4c1.9,1.6,3.3,3.6,4.4,6.1
		c1,2.5,1.6,5.5,1.6,9.1c0,6.5-1.8,11.6-5.3,15.4c-3.6,3.8-8.6,5.6-15.1,5.6c-1.4,0-2.6-0.2-3.8-0.7c-1.2-0.4-2.2-1-3.1-1.7v32.3
		c0,2.8,0.1,5.1,0.4,7c0.2,1.9,0.6,3.4,1,4.5c0.3,1.4,0.8,2.4,1.3,3.1h-18c0.5-0.7,0.9-1.8,1.3-3.1c0.3-1.1,0.6-2.6,0.9-4.5
		c0.3-1.9,0.4-4.2,0.4-7V45.5c0-2.8-0.1-5.1-0.4-7c-0.3-1.9-0.6-3.4-0.9-4.5c-0.4-1.4-0.8-2.4-1.3-3.1H600.5z M601.3,68.6
		c1.6,0,2.9-0.5,4-1.4c1-1,1.8-2.2,2.4-3.8c0.6-1.6,0.9-3.5,1.1-5.7c0.2-2.2,0.3-4.5,0.3-6.9c0-3-0.3-5.6-1-7.8
		c-0.7-2.2-1.6-3.9-2.7-5.2c-1.1-1.3-2.4-2.3-3.8-2.9c-1.4-0.6-2.8-0.9-4.1-0.9h-2.9v21.4c0.6-0.6,1.3-1,2.2-1.3
		c0.9-0.3,1.8-0.4,2.6-0.4c0.9,0.1,1.7,0.4,2.5,0.8c0.8,0.5,1.3,1.2,1.6,2c-1.3-0.2-2.5-0.1-3.7,0.4c-1.2,0.5-2.1,1.2-2.8,2.1
		c-0.7,0.9-1.2,2-1.4,3.2s-0.1,2.4,0.4,3.7c0.2,0.6,0.9,1.3,1.9,1.9C598.8,68.3,600,68.6,601.3,68.6z"/>
</g>
</svg>
