<?xml version="1.0" encoding="utf-8"?>
<!-- Generator: Adobe Illustrator 19.0.0, SVG Export Plug-In . SVG Version: 6.00 Build 0)  -->
<svg version="1.1" id="Layer_1" xmlns="http://www.w3.org/2000/svg" xmlns:xlink="http://www.w3.org/1999/xlink" x="0px" y="0px"
	 viewBox="0 0 292 164.6" style="enable-background:new 0 0 292 164.6;" xml:space="preserve">
<style type="text/css">
	.st0{fill:#7F152E;}
	.st1{fill:#ED1C24;}
</style>
<g id="XMLID_210_">
	<path id="XMLID_3_" class="st0" d="M12.8,8.1c-2.1,0.2-3.5,1.9-4.2,5.2C7.9,16.2,8,18.8,8.8,21c0,0.1,0,0.1,0.1,0.2
		c1.3-0.2,3.2-0.5,5.7-0.9c3.6-0.5,6.2-0.9,7.7-1.3L21,16.7c-2-3.5-3.4-5.8-4.1-6.8c-3.4-5.1-7-7.6-10.8-7.4C4,2.6,2.7,4.3,2,7.6
		C1.9,8.2,1.5,8.5,0.9,8.3C0.6,8.3,0.4,8.2,0.3,8C0.1,7.8,0,7.6,0,7.2c0-0.4,0.1-0.6,0.4-0.8c0.9-3.7,2.8-5.6,5.7-5.7
		c4.4-0.2,8.6,2.6,12.4,8.2c0.5,0.7,1.9,3,4.1,6.9c0.7,1.2,1.2,2.1,1.7,2.8c0.3,0,0.5,0.2,0.5,0.5c0,0.1,0,0.2-0.1,0.4
		c0.5,0.8,1.1,1.5,1.6,2c0.5,0.7,1.1,1,1.6,1.1c0.9,0.1,1.7-0.4,2.6-1.5v-0.1c0-0.3,0.2-0.5,0.5-0.5c0.3-0.4,0.6-0.9,0.8-1.4
		c0.5-1,1.1-2.4,1.9-4.3c1.1-2.6,1.8-4.2,2.1-4.8L36.8,8c-0.1-0.1-0.1-0.2-0.1-0.3c0-0.4,0.2-0.5,0.5-0.5c1.3-2.5,2.8-4.3,4.4-5.5
		c2.8-2.1,6.1-2.2,9.8-0.4c3.2,1.6,4.5,4.5,3.7,8.7c-0.4,1.8-1.1,3.9-2.1,6.3c0.2,0.1,0.2,0.3,0.2,0.5c-0.1,0.4-0.3,0.5-0.6,0.5
		h-0.1c-0.7,1.4-1.5,3-2.6,4.7c-1.3,2.2-3,4.9-5.1,8c0.1,0.3,0,0.5-0.3,0.6l-0.4,0.2l-1.9,2.9c-2.7,3.9-4.2,6.5-4.5,7.6
		c-0.6,2.1-0.6,5,0,8.7c0.8,5.3,1.3,8.4,1.4,9.3c0.1,2.9-0.2,5.3-1.1,7.5c-1.2,2.9-3.1,4.6-5.7,5.2c-2.6,0.5-4.9,0.2-7-1
		c-2.1-1.3-3.6-3.2-4.5-5.6c-0.9-2.4-1.3-5.7-1.3-10.1c0.1-4.6-0.1-7.8-0.5-9.7c-0.6-2.6-3-6.4-7.2-11.5c-0.7-0.9-1.8-2.2-3.3-3.9
		L5,25.9c-1-1.2-1.9-2.3-2.5-3.3c-0.4-0.5-0.3-1,0.2-1.3c0.4-0.2,0.7-0.2,1.1,0c1-0.8,1.7-1.5,1.9-2.3c0.1-0.5,0.1-1-0.2-1.5
		c-0.2-0.4-0.5-0.8-1.1-1.5c-0.3-0.4-0.5-0.6-0.6-0.7c-0.2-0.4-0.4-0.7-0.4-1.1c0-0.5,0.2-1.2,0.5-2.1c0.4-0.9,0.6-1.5,0.6-1.6
		c0.1-0.3,0.1-0.5,0-0.7C4.3,9.6,3.6,9.3,2.6,9.2C2,9,1.8,8.7,1.9,8.1C2,7.5,2.4,7.2,3,7.3C4.4,7.6,5.4,8,5.9,8.6
		C6.4,9.2,6.6,10,6.4,11c-0.1,0.2-0.3,0.9-0.7,1.8c-0.2,0.6-0.4,1.1-0.4,1.4l0.1,0.1c0.1,0.1,0.2,0.3,0.5,0.5
		c0.7,0.8,1.1,1.4,1.4,1.9c0.1,0.2,0.2,0.5,0.3,0.7c-0.1-1.5,0.1-3,0.4-4.4c0.8-3.6,2.4-5.5,4.9-5.7c0.2,0,0.4,0.1,0.4,0.4
		C13.1,7.9,13,8.1,12.8,8.1z M8.9,27.2c1,0,2.3-0.3,4-0.8l1.5-0.5c0.1-0.9,0-1.5-0.3-2c-0.2-0.3-0.6-0.5-1.1-0.6
		c-0.3-0.1-0.9-0.1-1.8-0.2c-1.1-0.1-1.9-0.4-2.4-0.7c-1.3,0.2-2.6,0.5-3.6,0.7H5l3.6,4.4C8.7,27.3,8.8,27.2,8.9,27.2z M8.2,21.3
		C8.1,21.3,8.1,21.2,8.2,21.3c-0.3-0.7-0.5-1.5-0.6-2.4c0,0.2,0,0.5-0.1,0.7c-0.2,0.7-0.7,1.4-1.4,2.1C6.8,21.6,7.5,21.5,8.2,21.3z
		 M14.3,27.1l-1.1,0.3c-1.6,0.5-2.9,0.9-3.8,0.9l4,4.7l0.8,1.1c1.2-0.2,2.6-0.4,4-0.5c-0.2-0.2-0.8-0.6-1.6-1.2
		c-0.9-0.6-1.5-1.2-1.8-1.7C14.2,29.9,14.1,28.7,14.3,27.1z M15.2,25.6c0.7-0.2,1.4-0.4,1.9-0.5c4.7-0.7,7.8-1.2,9.2-1.4
		c-0.5-0.3-0.9-0.7-1.4-1.1C24.4,22,23.7,21.1,23,20c-1.8,0.4-4.6,0.8-8.2,1.4c-2.3,0.4-3.9,0.6-4.6,0.7c0.3,0.1,0.7,0.1,1.2,0.2
		c0.9,0.1,1.5,0.1,1.8,0.2c0.7,0.2,1.2,0.5,1.5,1C15.1,24,15.3,24.7,15.2,25.6z M13.6,10.6l2,1.3c0,0.1,0.5,0.7,1.5,1.8
		c0.2,0.3,0.1,0.6-0.1,0.8c-0.3,0.2-0.5,0.2-0.8,0c-0.2-0.3-0.4-0.6-0.5-0.8c-0.2-0.2-0.3-0.4-0.4-0.5L15,13
		c-0.1-0.1-0.1-0.2-0.2-0.3c-0.1-0.1-0.1-0.1-0.2-0.1c-0.1,0-0.2-0.1-0.3-0.2c-0.1-0.1-0.3-0.2-0.5-0.4c-0.3-0.2-0.5-0.3-0.8-0.5
		c-0.3-0.2-0.4-0.4-0.2-0.7C13,10.5,13.3,10.4,13.6,10.6z M13.5,16.5l0.7-1.5c0.1-0.3,0.3-0.4,0.7-0.2c0.3,0.2,0.4,0.4,0.2,0.8
		l-0.7,1.5c-0.1,0.3-0.4,0.4-0.7,0.2C13.4,17.2,13.3,16.9,13.5,16.5z M19.2,33.5l4.6-0.3l4.6-0.3c6-0.4,10.6-1.5,14-3.2
		c0.2-0.1,0.4-0.1,0.5,0l4.4-6.6h-0.2c-3.1,0-6.6,0.2-10.5,0.5c-3.9,0.4-6.9,0.7-8.8,1c-2,0.3-5.5,0.8-10.4,1.6
		c-0.6,0.1-1.3,0.2-2.2,0.5L15,27c-0.2,1.5-0.1,2.6,0.3,3.3c0.3,0.4,0.9,0.9,1.7,1.5c1,0.7,1.7,1.2,2,1.5L19.2,33.5z M19.5,35.6
		h-4.1c1,1.3,1.9,2.5,2.6,3.6c0.8,0.2,1.8,0.3,2.9,0.3v-0.1c-0.4-0.5-0.7-1.5-1.1-2.9C19.6,36.1,19.6,35.8,19.5,35.6z M21.8,40.4
		c-1.2,0.1-2.2,0-3-0.1c1.1,1.9,1.8,3.6,2.2,5c0.3,1.4,0.5,3,0.5,4.9c0.3-0.1,0.6-0.1,1-0.2c0.2-0.9,0.4-1.4,0.4-1.5
		c0.7-2.6,0.8-4.8,0.1-6.5c-0.1-0.4-0.4-0.8-0.9-1.3L21.8,40.4z M21.8,39.3c2.3-0.1,4.9-0.5,7.7-1.2c4.1-1,7.5-2.2,10.2-3.6l1.1-1.7
		l0.3-0.3c-5,2-12,3-20.9,3.1c0.1,0.2,0.2,0.4,0.3,0.6c0.4,1.3,0.7,2.2,0.9,2.7L21.8,39.3z M21,34.5c4.8-0.1,8.8-0.4,12-0.9
		c-1.4,0.2-3,0.3-4.7,0.5c-0.9,0.1-2.2,0.1-3.9,0.2C22.8,34.3,21.6,34.4,21,34.5z M22.1,51.2c-0.2,0-0.4,0-0.5,0.1
		c0,0.4,0,1.8-0.1,4.1v0.1l0.2-0.2v-0.3C21.6,54,21.8,52.8,22.1,51.2z M25.4,65.3l0.6,0.8l0.5,0.9c0.4,0.7,0.9,1.2,1.3,1.5
		c0.2,0.1,0.7,0.2,1.3,0.4c0.6,0.1,1.3,0.2,2.1,0.4c1.4,0.1,2.4,0.2,3.1,0.1c0.9-0.7,1.6-1.8,2.1-3.1c0.8-1.8,1.1-4.1,1-6.7
		c-0.1-1.3-0.4-3.8-1.1-7.6l-2.8,0.5c-0.6,0.2-1.4,0.5-2.4,0.8c-2.1,0.7-3.4,1.1-3.8,1.3c-1.9,0.7-3.5,1.4-4.7,2.3
		c0.2,0.8,0.5,1.8,0.9,3c0.8,2.6,1.3,4.2,1.5,4.8c0.1,0.2,0,0.4-0.3,0.5c-0.2,0.1-0.4,0-0.5-0.3c-0.1-0.5-0.6-2.1-1.5-4.7
		c-0.4-1.1-0.6-2-0.8-2.7c-0.1,0.1-0.3,0.2-0.5,0.4c0.1,2.9,0.4,5.3,1.1,7.2c0.8,2,2,3.5,3.8,4.5c1.7,1,3.6,1.3,5.7,0.9
		c0.4-0.1,0.7-0.2,1-0.3c-0.6,0-1.2-0.1-1.9-0.2c-0.8-0.1-1.5-0.2-2.2-0.3c-0.7-0.2-1.2-0.4-1.5-0.5c-0.5-0.3-1-0.8-1.5-1.5
		c-0.1-0.1-0.2-0.5-0.5-1c-0.2-0.3-0.4-0.6-0.6-0.8c-0.2-0.2-0.1-0.4,0.1-0.5C25.1,65,25.3,65,25.4,65.3z M35.2,51l1-0.2l-0.1-0.4
		C36,50.1,36,49.8,36,49.5c-0.1,0.1-0.2,0.1-0.3,0.1c-1.9,0-4.3,0.2-7.3,0.7c-3,0.5-4.8,0.8-5.5,0.8c-0.4,1.5-0.6,2.8-0.5,3.8
		c2.6-1.5,6.2-2.7,10.8-3.6c0.4-0.2,0.9-0.3,1.3-0.5C34.8,50.8,35,50.8,35.2,51z M23.2,50c0.5-0.1,2.2-0.3,5-0.7
		c3-0.5,5.5-0.7,7.5-0.7h0.1c-0.4-3-0.3-5.5,0.3-7.7c0.2-0.9,1.1-2.4,2.5-4.6c-2.6,1.2-5.5,2.1-8.7,2.9c-2.6,0.6-4.9,1-7.1,1.2
		c0.5,0.5,0.8,1,1,1.5c0.7,1.8,0.6,4-0.1,6.8L23.2,50z M25.3,28.5c0.4,0,0.5,0.2,0.5,0.5s-0.2,0.5-0.5,0.5s-0.5-0.2-0.5-0.5
		S25,28.5,25.3,28.5z M26.1,59c0.2-0.2,1.2-0.8,2.8-1.9c0.3-0.2,0.5-0.1,0.7,0.2c0.2,0.3,0.1,0.5-0.2,0.7l-2.6,1.9
		c-0.3,0.2-0.6,0.1-0.8-0.1C25.8,59.5,25.8,59.2,26.1,59z M29.2,44.1c0.4,0,0.5,0.2,0.5,0.5c0,0.4-0.2,0.5-0.5,0.5
		c-0.4,0-0.5-0.2-0.5-0.5C28.7,44.3,28.9,44.1,29.2,44.1z M32.1,61l0.4,0.9c0.1,0.3,0,0.5-0.3,0.7c-0.3,0.2-0.6,0-0.8-0.3L31,61.4
		c-0.1-0.3,0-0.5,0.3-0.7C31.6,60.5,31.9,60.6,32.1,61z M32.6,21.3c-0.5,0.8-1,1.4-1.5,1.9c6-0.7,11.3-1.1,15.9-1.1
		c0.3,0,0.5,0.2,0.5,0.5l0.8-1.4l1.5-2.6c-4.6,0-8.6,0.3-11.8,1c-0.5,0.1-1.6,0.5-3.3,1.1C33.9,21,33.2,21.2,32.6,21.3z M33.8,55.5
		c0.4,0,0.5,0.2,0.5,0.5c0,0.4-0.2,0.5-0.5,0.5c-0.4,0-0.5-0.2-0.5-0.5C33.2,55.7,33.4,55.5,33.8,55.5z M34,19.8
		c-0.1-0.4,0-0.6,0.4-0.7c1.7-0.6,4.8-1.3,9.3-2c2.1-0.4,3.9-0.6,5.5-0.7c0.8-0.1,1.5-0.1,2-0.2c1.2-2.4,2-4.6,2.3-6.4
		c0.2-1,0.2-2,0.2-2.8c-1.8,0-4.4,0.2-7.9,0.6c-3,0.4-5.3,0.6-6.9,0.6c-0.4,0.7-0.8,1.5-1.2,2.4l-2,4.8c-0.9,1.9-1.5,3.4-2,4.4
		L33.4,20L34,19.8z M35.3,29c0.6-1.7,1.2-3.1,1.8-4.3c0.1-0.3,0.3-0.4,0.7-0.2c0.3,0.2,0.4,0.4,0.2,0.8c-0.5,1-1,2.4-1.6,4.1
		c-0.1,0.4-0.4,0.5-0.7,0.4C35.3,29.6,35.1,29.4,35.3,29z M39.4,7.1c1.2-0.1,3.3-0.2,6.2-0.5c3.4-0.4,6-0.6,7.7-0.6
		C52.9,4.6,52,3.6,50.7,3c-3.2-1.6-5.8-1.5-8,0.2C41.6,4,40.4,5.3,39.4,7.1z M45.2,9.5c-0.1,1.2,0,2.4,0.3,3.6
		c0.1,0.4-0.1,0.6-0.5,0.6c-0.4,0.1-0.6-0.1-0.6-0.5c-0.2-1.3-0.3-2.6-0.3-3.8c0-0.4,0.2-0.5,0.5-0.5C45,9,45.2,9.2,45.2,9.5z
		 M47.8,17.5h2.6l0.1-0.2c-0.4,0-0.9,0-1.4,0.1C48.8,17.4,48.3,17.5,47.8,17.5z M49.7,9.2c0.4,0,0.5,0.2,0.5,0.5s-0.2,0.5-0.5,0.5
		c-0.4,0-0.5-0.2-0.5-0.5S49.4,9.2,49.7,9.2z"/>
	<path id="XMLID_32_" class="st1" d="M107.2,57.4c-0.2,1-0.5,1.9-0.8,2.8c-2.4,7-7.4,11.2-14.9,12.6c-6.7,1.3-11.6,1.1-14.8-0.5
		c-0.4-0.2-0.6-0.6-0.4-0.9c0.1-0.2,0.3-0.4,0.5-0.4l0.1-0.1c0.6-0.7,0.9-1.3,0.9-1.8c0-0.3,0-0.6-0.2-0.8c0-0.1-0.4-0.5-1-1.1
		c-0.6-0.6-1-1.1-1.2-1.7c-0.1-0.1-0.2-0.7-0.4-1.7c0-0.3-0.2-0.6-0.5-0.8c-0.2-0.1-0.8-0.2-1.7-0.3c-0.5,0-0.9-0.1-1.2-0.1
		c-0.5-0.1-0.8-0.3-1.1-0.5c-0.4-0.4-0.7-0.9-0.9-1.3c-0.1-0.3-0.2-0.5-0.3-0.5h-0.1l0.1,0.1c0,0.1,0,0.3-0.2,0.3
		c-0.2,0.1-0.3,0-0.4-0.2l-0.1-0.2c-0.3,0-0.7,0-1.3,0.1c-0.3,0-0.6-0.1-0.7-0.4l-0.1,0.1c-0.4,0.3-0.7,0.2-1-0.1
		c-1.3-1.8-2.2-3.6-2.6-5.4c-0.3-1.7-0.6-4.2-0.7-7.6c-0.2-3.4-0.2-6.8-0.1-10.4c0.1-4.1,0.5-7.5,1-10.2c0.6-3.4,1.5-5.6,2.6-6.8
		c0.7-0.7,1.6-1.3,2.8-1.7c1.2-0.4,2.3-0.6,3.4-0.6c2.6,0,4.8,1.4,6.5,4.3c1.3,2.2,2.3,5.3,3,9.4c0.2,1.3,0.4,2.8,0.6,4.2
		c0.1,1.5,0.2,3,0.3,4.5l0.2,3.8c0,1,0.1,2.2,0.1,3.6c0,1.4,0,2.2,0,2.6c0,0.7,0,1.4,0.1,2.1c0.1,0,0.3,0.1,0.4,0.1
		c0.2,0.1,0.3,0.3,0.3,0.6c0,0.2-0.2,0.3-0.4,0.3c0.2,1.2,0.6,2.1,1.1,2.8c0.5,0.7,1.1,1.1,1.8,1.2c0.9,0.2,1.9,0,3.2-0.5
		c0.6-0.3,1.1-0.7,1.5-1.2c-0.1-0.1-0.2-0.2-0.2-0.4c0-0.3,0.1-0.4,0.4-0.4H91c0.1-0.2,0.4-0.9,0.9-1.9c1.5-3.6,2-8.2,1.7-14
		c0-0.5-0.1-1.7-0.2-3.5C93.1,33.2,93,31.8,93,31c0-0.8-0.1-2,0-3.4c0-1.4,0.1-2.7,0.3-3.9c0.2-1.4,0.8-2.6,1.7-3.5
		c1-0.9,2.1-1.6,3.5-1.9c1.2-0.3,2.5-0.4,3.9-0.1c1.4,0.3,2.6,0.8,3.6,1.7c1,0.8,1.8,2.2,2.3,4.1c0.4,1.5,0.7,3.4,0.9,5.6
		c0.1,2.4,0.1,5.9-0.1,10.4c-0.3,6-0.5,9.9-0.7,11.7c0,0.1,0.1,0.2,0.1,0.3c0,0.1-0.1,0.2-0.1,0.2c-0.2,1.6-0.4,3-0.7,4.4
		c0.1,0.1,0.1,0.3,0.1,0.4C107.5,57.3,107.4,57.3,107.2,57.4z M66.6,38.2c-1.2,0-2.3,0-3.2,0.1v0.2L66.6,38.2z M67.8,39l-2.2,0.2
		l-2.2,0.2c0,1.8,0,3.6,0.1,5.3c0.8-0.4,1.5-0.7,2.3-1c0.1-0.3,0.4-0.8,0.8-1.5c0.6-1,1-1.8,1.1-2.4C67.7,39.6,67.8,39.3,67.8,39z
		 M75.3,21.7c-1.4-0.7-2.7-0.9-4-0.6c-1.2,0.4-2.1,1.4-2.7,2.8c-0.3,0.7-0.2,1.6,0.4,2.6l0.1,0.2c0.7,0,1.5,0,2.3-0.1
		c2-0.2,4.2-0.5,6.6-0.9c0.3,0,0.5,0.1,0.5,0.4c0,0.3-0.1,0.5-0.4,0.5c-2.4,0.4-4.6,0.7-6.7,0.9c-0.7,0-1.4,0.1-1.9,0.1
		c0.2,0.6,0.2,1.1,0.1,1.6c-0.1,0.5-0.5,1.4-1.1,2.7c-0.4,1.1-0.7,2-0.8,2.7c0,0.6,0,1.4,0.2,2.6v0.2h1.4c0.3,0,0.4,0.1,0.4,0.4V38
		c4.2-0.3,7.8,0,10.8,0.7c-0.2-2.7-0.5-5.2-0.9-7.3c-0.6-3.9-1.6-6.9-2.8-8.9c-1.3-2.4-3.1-3.6-5.2-3.6C71,18.8,70,19,69,19.3
		c-1,0.3-1.8,0.8-2.3,1.3c-0.9,0.9-1.6,2.9-2.2,6c-0.5,2.7-0.9,6.1-1,10v0.9c1-0.1,2.3-0.1,4-0.1v-0.1c-0.2-1.2-0.3-2.1-0.2-2.7
		c0.1-0.8,0.4-1.8,0.9-3c0.6-1.3,0.9-2.2,1-2.7c0.1-0.4,0-0.9-0.2-1.4c-1.8,0-3.2-0.1-4-0.4c-0.3-0.1-0.4-0.3-0.3-0.6
		c0.1-0.3,0.3-0.3,0.5-0.3c0.7,0.3,1.8,0.4,3.3,0.4c-0.6-1.1-0.7-2.1-0.4-3c0.6-1.7,1.7-2.7,3.1-3.2c1.4-0.4,2.9-0.2,4.4,0.6
		c0.1,0,0.2,0.2,0.1,0.3C75.7,21.7,75.5,21.8,75.3,21.7z M64,51.9c0,0,0-0.1,0.1-0.1c0,0,0.1-0.1,0.1-0.1c0.2-0.1,0.4-0.2,0.7-0.3
		c-0.2-2.1,0-4.2,0.6-6.4l-1.9,0.9C63.6,48.2,63.8,50.2,64,51.9z M67.3,57.7l-0.7-1.1c-0.2,0-0.3,0-0.4-0.1c-0.6-1.3-1-2.7-1.2-4.2
		c-0.1,0-0.3,0.1-0.4,0.1h-0.1h-0.2L64,52.1c0.1,0.9,0.2,1.7,0.4,2.3c0.2,1.2,0.7,2.5,1.5,3.7L67.3,57.7z M77.5,51.2
		c1.5,0.1,2.7,0.2,3.7,0.4c-0.1-0.6-0.1-1.2-0.1-1.9c0-0.4,0-1.1-0.1-2.1v-3c0-1.1-0.1-2.1-0.1-3.1c-5,0-10,1-14.8,3.1
		c0,0.1,0,0.3-0.1,0.4c-0.6,2.1-0.8,4.1-0.6,6.2c0.3-0.1,0.6-0.2,0.9-0.2c0.9-0.1,2-0.2,3.4-0.3c2.7-0.1,4.7-0.1,5.8,0.1
		C76,50.7,76.7,50.9,77.5,51.2z M77.3,52.1c-2-0.1-4.2-0.1-6.7-0.1c-0.5,0-1.3,0-2.2,0.1c-1,0.1-1.6,0.1-1.8,0.1
		c-0.2,0-0.6,0-1.1,0.1c0.1,1.1,0.4,2.1,0.8,3.2c0,0,0.1,0,0.1,0.1c0.8,1,1.3,1.6,1.5,2c5.9-1.2,10.7-1.9,14.4-1.9
		c-0.4-0.9-0.7-1.9-0.9-3.2c-0.4,0-0.9-0.1-1.4-0.1c-0.1,0.2-0.2,0.3-0.4,0.3C78.9,52.5,78.2,52.4,77.3,52.1z M67.8,58.5l-1.4,0.3
		l0.3,0.4c0,0,0,0.1,0.1,0.1c0.1-0.2,0.3-0.3,0.5-0.3c0.3,0,0.6-0.1,0.8-0.1C67.9,58.8,67.9,58.6,67.8,58.5z M66.6,43.4
		c4.7-1.9,9.4-2.8,14.3-2.8c0-0.3-0.1-0.7-0.1-1c-3.2-0.9-7.4-1.1-12.5-0.6c0,0.3,0,0.7-0.1,1c-0.1,0.6-0.5,1.5-1.2,2.6L66.6,43.4z
		 M81.6,71.4c2.2,0,3.4-0.2,3.7-0.7c0,0,0.1-0.2,0.2-0.4c0.1-0.2,0.3-0.4,0.4-0.5c0.4-0.4,1-0.8,1.9-1.2c0.6-0.2,1.4-0.2,2.6,0
		c1.2,0.2,2,0.3,2.4,0.2c1-0.1,1.8-0.9,2.6-2.2c0.1-0.1,0.2-0.3,0.4-0.5l0.4-0.5c0-0.1,0.1-0.3,0.3-0.6l0.4-0.5
		c0.1-0.1,0.3-0.3,0.5-0.4c0.2-0.1,0.3-0.3,0.5-0.4c0.5-0.3,1.4-0.6,2.7-0.9c1.1-0.2,1.9-0.5,2.4-1c1.2-1,1.8-2.4,2.1-4.3
		c0-0.2,0-0.4,0.1-0.6c-4.5-1.3-8.8-1.9-13-1.8c-0.7,1.2-1.6,2-2.7,2.4c-1.5,0.7-2.8,0.9-4,0.6c-1-0.2-1.9-0.8-2.6-1.7
		c-3.8,0-8.7,0.7-14.5,1.9l0.3,0.6h0.6c0.5,0,0.9,0.1,1.2,0.4c0.1,0.1,0.3,0.4,0.5,0.9c0.1,0.3,0.4,0.6,0.6,0.9c0,0,0.2,0.1,0.4,0.1
		c0.2,0,0.5,0.1,1,0.1c1.2,0.1,1.9,0.3,2.3,0.6c0.7,0.4,1.1,1,1.2,1.7c0.1,0.8,0.2,1.2,0.2,1.3c0.2,0.4,0.5,0.8,0.9,1.2
		c0.7,0.7,1.1,1.1,1.2,1.2c0.4,0.6,0.6,1.2,0.5,1.9c-0.1,0.6-0.4,1.3-1,2.2c2.9,1.1,7.2,1,13-0.1c6.8-1.3,11.3-5,13.6-11.1
		c-0.3,0.8-0.8,1.4-1.4,2c-0.6,0.5-1.5,0.9-2.7,1.2c-1.3,0.3-2.2,0.5-2.6,0.7l-0.6,0.4c-0.1,0.1-0.3,0.3-0.4,0.5l-0.4,0.5
		c0,0.1-0.2,0.3-0.4,0.7c-0.2,0.4-0.3,0.6-0.4,0.6c-0.9,1.4-1.8,2.3-3,2.4c-0.5,0.1-1.4,0-2.7-0.2c-1.1-0.2-1.8-0.2-2.4,0
		c-0.7,0.3-1.2,0.6-1.6,0.9l-0.3,0.4c-0.1,0.2-0.2,0.4-0.3,0.4c-0.4,0.7-1.8,1-4.2,1c-0.2,0-0.3-0.1-0.3-0.3
		C81.3,71.5,81.4,71.4,81.6,71.4z M73.9,31.5c0,0.5,0.2,1.3,0.7,2.4c0.1,0.2,0.1,0.4-0.2,0.5c-0.3,0.1-0.4,0-0.5-0.3
		C73.3,33,73,32.1,73,31.5c0-0.3,0.1-0.4,0.4-0.4S73.9,31.3,73.9,31.5z M74.8,47.3c0.5-0.4,1.2-0.9,2-1.4c0.2-0.1,0.4-0.1,0.6,0.1
		c0.1,0.2,0.1,0.4-0.1,0.6c-0.7,0.5-1.3,0.9-1.9,1.4c-0.2,0.1-0.4,0.1-0.6-0.1C74.5,47.7,74.6,47.5,74.8,47.3z M85.9,62.3
		c-0.1,1.5-0.5,3-1.3,4.2c-0.1,0.2-0.3,0.3-0.6,0.1c-0.2-0.1-0.3-0.3-0.1-0.6c0.7-1.2,1.1-2.5,1.2-3.8c0-0.3,0.1-0.4,0.4-0.4
		S85.9,62,85.9,62.3z M105.4,52c-2-0.5-3.7-0.8-5-1c-2.7-0.4-4.9-0.4-6.6,0c-0.2,0.7-0.4,1.3-0.7,1.9l-0.5,1.3
		c4-0.1,8.2,0.5,12.6,1.7V55c0-1.2,0.1-2,0.1-2.5C105.4,52.3,105.4,52.1,105.4,52z M104.1,40.1c-0.6,0-1.2,0-1.9,0
		c-0.6,0-1.4,0-2.6,0.1c-1.2,0-2,0.1-2.4,0.1c-0.5,0-1.1,0-2-0.1h-0.1c0.1,3.6-0.1,6.6-0.7,9.1c1.6-0.2,3.7-0.1,6.2,0.3
		c3.1,0.5,4.9,0.7,5.3,0.8c0.1-0.4,0.3-1,0.6-1.8c0.3-1,0.6-1.7,0.7-2.2c0-0.8,0.1-2.5,0.2-5.3C105.6,40.5,104.5,40.2,104.1,40.1z
		 M97.3,35.9c0,0-0.1-0.1-0.1-0.2c0-0.3,0.1-0.4,0.4-0.4c3.3,0,6.5-0.3,9.8-0.9c-0.3-5.6-0.5-8.4-0.5-8.6c0-0.1,0-0.2,0.1-0.2
		c-0.1-0.4-0.2-0.7-0.3-1.1c-0.4-1.6-1-2.7-1.7-3.3c-1.8-1.5-3.9-1.9-6.3-1.3c-1.1,0.3-2,0.8-2.8,1.5c-0.7,0.7-1.2,1.6-1.3,2.6
		c-0.3,2.5-0.3,6.7,0.1,12.5L97.3,35.9z M95.6,60c0.3,1,0.4,1.8,0.4,2.4c0,0.3-0.1,0.4-0.4,0.4s-0.4-0.1-0.4-0.4
		c0-0.5-0.1-1.2-0.4-2.2c0-0.3,0.1-0.5,0.3-0.5C95.4,59.7,95.5,59.7,95.6,60z M95.3,39.3c0.7,0.1,2.1,0.1,4.2,0.1
		c0-0.1-0.1-0.2-0.1-0.2c0-0.3,0.1-0.4,0.4-0.4c1.2,0,2.7,0.2,4.4,0.6c0.6,0,1.2,0.1,1.7,0.2c0.6,0.1,1.2,0.3,1.7,0.6
		c0-1,0.1-1.6,0.1-1.9c0-0.5,0-1.1-0.1-1.7c-2.5-0.6-6.8-0.4-12.7,0.8c0,0.4,0.1,0.7,0.1,1.1c0,0.3,0.1,0.7,0.1,1
		C95.1,39.3,95.2,39.3,95.3,39.3z M100.1,45.7c0.3,0,0.4,0.1,0.4,0.4c0,0.3-0.1,0.4-0.4,0.4c-0.3,0-0.4-0.1-0.4-0.4
		C99.7,45.8,99.8,45.7,100.1,45.7z M101.5,26.3c0.3,0,0.4,0.1,0.4,0.4s-0.1,0.4-0.4,0.4S101,27,101,26.7S101.2,26.3,101.5,26.3z
		 M105.7,57c0,0.2-0.1,0.4-0.1,0.6c0,0.3-0.1,0.6-0.1,0.9c0.1-0.5,0.2-1,0.4-1.4L105.7,57z M105.8,56.2l0.3,0.1
		c0.2-1.2,0.5-2.5,0.6-4l-0.7-0.2c0,0.1-0.1,0.3-0.1,0.4c0,0.5-0.1,1.3-0.1,2.5V56.2z M106.1,51.2L106.1,51.2l0.6,0.2l0.1-0.1
		C106.6,51.3,106.4,51.3,106.1,51.2z M106.4,50.3c0.1,0,0.3,0.1,0.5,0.1c0-0.6,0.1-1.2,0.1-1.9l-0.1,0.2
		C106.7,49.5,106.5,50,106.4,50.3z M106.6,35.4c0.3,0,0.6,0.1,0.9,0.2l-0.1-0.4L106.6,35.4z"/>
	<path id="XMLID_59_" class="st0" d="M119,32c0.8,0,1.5-0.2,1.9-0.6c0.3-0.3,0.5-0.8,0.5-1.5l-0.1-0.1v-0.1
		c-0.1-0.1-0.2-0.2-0.3-0.4c-0.1-0.2-0.1-0.4,0-0.6c0.1-0.2,0.2-0.4,0.4-0.4c0.4-0.1,0.8-0.1,1.4,0c0.1,0,0.3,0.1,0.5,0.2
		c0.2,0,0.3,0.1,0.4,0.1c0.2,0,0.4,0.1,0.5,0c0.1,0,0.2-0.1,0.3-0.3c0.2-0.5,0.1-1.2-0.3-2.1l-0.4-0.6l-0.2-0.4
		c-0.1-0.2-0.2-0.4-0.3-0.5c-0.1-0.3-0.1-0.5-0.1-0.7c0-0.2,0.2-0.4,0.4-0.5c0.1-0.1,0.2-0.2,0.3-0.3c0.1-0.1,0.4-0.2,0.8-0.4
		c0.9-0.4,1.4-0.7,1.7-0.9c0.4-0.3,0.7-0.5,0.7-0.7c0-0.2-0.4-0.6-1.2-0.9c-0.4-0.2-0.5-0.6-0.3-1c0.1-0.1,0.2-0.2,0.4-0.3
		c-0.1-0.1-0.1-0.3-0.1-0.4c0-0.5,0.2-0.7,0.7-0.7c1.5,0,2.9,0.3,4.1,0.8c1.2,0.6,2.3,1.3,3.3,2.3c0.9,1,1.7,2,2.3,3
		c0.6,1,1.2,2.1,1.9,3.5l1.5,3.3c0.5,1.2,1,2.1,1.4,2.7c0.9,1.4,1.7,2.1,2.6,1.9c1-0.1,1.9-1.3,2.7-3.6c0.2-0.7,0.6-1.8,1.2-3.5
		c0.5-1.7,1-3,1.3-3.8c1.2-3,2.7-5,4.4-5.8c2.3-1.2,5.1-0.8,8.6,1.3c1.7,1.1,2.9,2.7,3.6,4.8c0.6,2.2,0.9,5.1,0.9,8.8
		c0,5,0,7.9,0,8.6c0.1,1.4,0.8,4.4,1.9,8.8c1,3.8,1.4,6.8,1.4,9c0,2.9-0.1,4.8-0.3,5.8c-0.4,2.4-1.4,4.1-3,5.2
		c-2.9,2-5.9,2.4-8.9,1.3c-0.7-0.2-1.2-0.4-1.6-0.5c-0.4-0.2-0.8-0.4-1.3-0.8c-0.5-0.4-0.9-0.8-1.2-1.4c-0.3-0.4-0.5-1-0.6-1.8
		c-0.1-0.7-0.1-1.5-0.1-2.5c0-0.7,0-1.7,0.1-3.1c0-1.4,0.1-2.4,0.1-3c0-2.4,0-4.1-0.3-5.2c-0.1-0.6-0.3-1-0.6-1.2
		c-0.2-0.2-0.4-0.3-0.7-0.2c-0.4,0-0.8,0.5-1.2,1.3c-0.2,0.5-0.5,1.6-0.9,3.3c-0.3,1.1-0.6,1.9-0.8,2.6c-0.2,0.7-0.7,1.4-1.3,2.2
		c-0.6,0.8-1.3,1.3-2.1,1.5c-2.4,0.9-4.7-0.3-6.7-3.6c-0.3-0.4-0.7-1.1-1.2-1.9c-0.5-0.9-0.8-1.4-0.9-1.7c-0.7-1.2-1.4-2.1-1.9-2.4
		c-0.1-0.1-0.3-0.2-0.6-0.3h-0.2c0,0.1-0.1,0.2-0.1,0.4c0,0.4,0,0.9,0.1,1.7c0,0.5,0.1,1.4,0.3,2.5c0.1,1.1,0.2,1.9,0.3,2.3
		c0.3,2.2,0.4,4,0.3,5.4c-0.1,2-0.5,3.6-1.3,4.6c-0.9,1.2-2.1,2-3.6,2.6c-1.5,0.6-3.1,0.8-4.7,0.7c-1.7-0.1-3.2-0.6-4.5-1.4
		c-1.3-0.8-2.2-2-2.6-3.6c-0.6-2.2-0.5-5.8,0.4-10.7c0.1-0.9,0.5-2.6,0.9-5.2c0.5-2.6,0.8-4.5,0.9-5.5c0-0.6,0.1-1.2,0.1-1.8
		c0-0.6,0-1.2,0-1.6c0-0.5,0-1.1-0.1-1.8c-0.1-0.8-0.1-1.3-0.1-1.7c0-0.3-0.1-1-0.2-1.9c-0.1-0.9-0.2-1.5-0.3-1.7
		c0-0.2-0.1-0.8-0.3-1.9c-0.2-1.1-0.3-1.6-0.3-1.7c-0.3-0.1-0.5-0.4-0.5-0.7C118.2,32.2,118.5,32,119,32z M127.4,71.8
		c-0.3-0.1-0.6-0.2-0.8-0.3c0,0-0.1-0.1-0.1-0.1c0,0.1,0.2,0.3,0.4,0.6c0.1,0.1,0.1,0.2,0.1,0.3c2.3-0.3,3.9-1.2,5-2.7
		c0.6-0.8,0.9-2.1,1-3.8c0.1-1.2,0-2.9-0.3-5.2l-0.3-2.4c-0.1-1.2-0.2-2-0.3-2.4c-0.1-0.8-0.1-1.4-0.1-1.9c0-0.7,0.2-1.2,0.4-1.4
		c0.2-0.3,0.6-0.4,1-0.4c0.2,0,0.5,0.1,0.8,0.2c0.4,0.1,0.7,0.2,0.9,0.4c0.7,0.5,1.4,1.4,2.3,2.8c0.1,0.3,0.5,0.9,0.9,1.7l1.2,1.9
		c0.8,1.3,1.6,2.2,2.4,2.7c0.8,0.5,1.7,0.6,2.7,0.3c0.8-0.3,1.4-0.9,1.9-1.8c0.5-0.9,0.9-2.1,1.3-3.6c0.5-1.8,0.8-3,1.1-3.5
		c0.5-1.2,1.2-2,2.2-2.2c0.8-0.1,1.5,0.1,2,0.6c0,0,0.1,0,0.1,0.1c0-0.3,0-0.5-0.1-0.7c0-0.1,0-0.7-0.1-1.8c0-0.7-0.1-1.2-0.2-1.5
		c-0.4-0.6-1.1-1.1-2.1-1.3c-0.4-0.1-0.6-0.1-0.6-0.1c-0.8,0-1.4,0.5-1.7,1.4c-0.2,0.6-0.5,1.7-0.6,3.5c-0.2,1.9-0.4,3.2-0.6,4
		c-0.5,1.4-1.2,2.4-2.3,3c-0.9,0.4-1.6,0.2-2.3-0.4c-0.5-0.5-0.9-1.3-1.3-2.4c-0.1-0.3-0.5-1.3-0.9-2.8c-0.1-0.4-0.3-0.8-0.4-1
		c-0.1-0.3-0.2-0.5-0.3-0.5c-0.2-0.2-0.7-0.3-1.4-0.3c-1,0-1.6-0.1-2-0.4c-0.2-0.1-0.5-0.3-0.6-0.6c-0.2-0.3-0.3-0.5-0.4-0.6
		c-0.1-0.2-0.2-0.4-0.3-0.8c-0.1-0.3-0.2-0.5-0.2-0.6c-0.1-0.4-0.3-0.7-0.6-0.9c-0.3-0.2-0.7-0.2-1.3-0.1c-2,0.3-3.3,2.1-4,5.4
		c-0.6,2.8-0.6,5.4,0,7.7c0.1,0.4,0.4,1.2,0.9,2.3c0.5,1.1,0.8,1.9,0.9,2.6c0,0.4-0.1,0.9-0.4,1.4c-0.2,0.3-0.5,0.7-0.9,1.2
		c-0.9,1-1.6,1.5-2.2,1.5c-0.3,0-1.1-0.2-2.3-0.7c-0.1-0.1-0.5-0.1-0.9-0.1c-0.6,0.1-1.1,0.1-1.3,0.1c-1.2-0.3-2.2-1.5-2.7-3.5
		c-0.3-1.1-0.5-2.4-0.6-3.7c-0.4,3.4-0.4,5.9,0.1,7.6c0.3,1.2,1,2.1,2,2.8c1.1,0.7,2.3,1.1,3.7,1.2h1.2c-0.2-0.3-0.4-0.6-0.4-0.8
		c-0.1-0.2-0.1-0.4,0-0.5c0-0.2,0.2-0.3,0.4-0.4c0.2-0.1,0.5-0.1,0.9,0c0.3,0.1,0.7,0.2,1,0.4c0.2,0.1,0.3,0.3,0.1,0.6
		C127.8,71.9,127.6,71.9,127.4,71.8z M119.6,60.1c0,1.5,0.2,3,0.6,4.3c0.5,1.8,1.2,2.8,2.3,3.1c0.1,0,0.5,0,1.1-0.1
		c0.6,0,1,0,1.3,0.1c1.1,0.5,1.8,0.8,2,0.7c0.4,0,1-0.5,1.8-1.4c0.3-0.4,0.6-0.7,0.8-1c0.3-0.4,0.4-0.8,0.4-1.2
		c0-0.6-0.3-1.3-0.8-2.3c-0.5-1.2-0.9-2-1-2.4c-0.6-2.4-0.6-5,0.1-7.9c0.7-3.6,2.2-5.5,4.4-5.9c0.8-0.1,1.3-0.1,1.7,0.2
		c0.3,0.2,0.6,0.6,0.8,1.2c0,0.1,0.1,0.3,0.3,0.6c0.1,0.3,0.2,0.5,0.3,0.7s0.1,0.3,0.3,0.5c0.1,0.2,0.3,0.4,0.5,0.5
		c0.3,0.2,0.9,0.3,1.7,0.3c0.9,0,1.5,0.2,1.9,0.4c0.1,0.1,0.3,0.4,0.4,0.7c0.1,0.2,0.2,0.6,0.4,1.1c0.5,1.5,0.8,2.4,0.9,2.7
		c0.4,1.1,0.8,1.8,1.2,2.2c0.5,0.5,1,0.6,1.6,0.2c1-0.4,1.6-1.3,2-2.6c0.2-0.8,0.5-2,0.6-3.8c0.2-1.8,0.4-3,0.6-3.6
		c0.4-1.2,1.2-1.8,2.3-1.8c0.1,0,0.4,0,0.8,0.1c1.2,0.3,1.9,0.8,2.4,1.6c0.2,0.4,0.4,1,0.4,1.8c0,1.1,0.1,1.6,0.1,1.7
		c0,0.4,0.1,1.2,0.3,2.3c0,0.1,0.1,0.3,0.1,0.4c0.2,0.8,0.3,1.8,0.4,3c0.4,2.6,1.2,4.7,2.2,6.2c0.4,0.6,1.1,0.9,1.9,0.9
		c1.1,0,1.8,0.2,2.2,0.6c1,1,1.7,1.5,2.2,1.6c0.7,0.2,1.5-0.2,2.3-1.1c1.7-1.9,2-5.4,0.9-10.3l-0.9-3.7c-0.5-1.9-0.8-3.4-1-4.5
		c-0.2-1.2-0.3-2.2-0.2-3.1c0.1-1.2,0.4-2.8,0.8-5l0.1-0.3c0-0.5,0-1.3,0.1-2.2c0-1,0.1-1.6,0.1-2c0-3.3-0.2-5.9-0.7-7.8
		c-0.3-0.5-0.7-1-1.2-1.5c0-0.1-0.2-0.2-0.4-0.4l-0.4-0.4c-0.3-0.3-0.6-0.5-0.9-0.6c-0.3-0.1-0.7,0-1.2,0.1
		c-0.6,0.2-1.1,0.3-1.4,0.2c-0.3,0-0.7-0.2-1.3-0.4l-0.9-0.3c-0.8-0.2-1.5-0.2-2,0.1c-1.3,0.6-2.3,2-3.1,4c-0.1,0.2-0.2,0.6-0.4,1.2
		l-0.4,1.3c0.9,0,2.1,0.2,3.7,0.6c0.2,0.1,0.3,0.3,0.3,0.5c-0.1,0.3-0.3,0.4-0.5,0.3c-1.7-0.5-3-0.7-3.8-0.6c-0.3,0.7-0.6,1.2-1,1.7
		c-0.5,0.7-1.2,1.4-2.1,2.1c-0.9,1.9-1.9,2.9-3.2,3.2c-0.2,0-0.4,0.1-0.6,0.1c-0.1,0.1-0.3,0.3-0.4,0.5c-0.1,0.1-0.2,0.2-0.4,0
		c-0.2-0.1-0.2-0.3,0-0.5l0.2-0.2c-1-0.2-2-1.1-2.9-2.6c-0.4-0.7-0.9-1.6-1.4-2.9l-1.5-3.3c-1.2-2.6-2.6-4.7-4.1-6.2
		c-1.5-1.5-3.4-2.4-5.7-2.5c1,0.6,1.4,1.3,1.4,2c0,0.7-0.5,1.3-1.4,1.9c-0.4,0.2-1,0.6-1.9,1c-0.3,0.1-0.5,0.2-0.5,0.3v0.1l0.3,0.4
		c0.1,0.3,0.3,0.5,0.4,0.7c0.7,1.2,0.8,2.4,0.4,3.3c-0.3,0.6-0.7,1-1.2,1.2c-0.3,0.1-0.8,0.1-1.3-0.1c-0.1,0-0.2-0.1-0.4-0.1
		c0.1,1.1-0.3,2-1.2,2.6c-0.4,0.3-1,0.6-1.6,0.7c0,0.1,0.1,0.6,0.2,1.5c0.1,0.9,0.2,1.4,0.3,1.6c0,0.2,0.1,0.7,0.2,1.5
		c0.1,0.8,0.2,1.4,0.2,1.7c0,0.3,0.1,0.8,0.1,1.5c0.1,0.7,0.1,1.3,0.1,1.7c0,0.4,0,0.9,0,1.5c0,0.6,0,1.2,0,1.7c0,0.5-0.1,1-0.1,1.5
		c-0.1,1.1-0.5,3-0.9,5.6c-0.5,2.6-0.8,4.4-0.9,5.2c-0.1,0.5-0.2,1.1-0.2,1.6c0,0,0.1-0.1,0.1-0.1C119.5,59.8,119.6,59.9,119.6,60.1
		z M121.8,60.9c0.5-0.3,1-0.6,1.6-0.8c0.2-0.1,0.4-0.1,0.5,0.2c0.1,0.3,0,0.4-0.3,0.5c-0.5,0.2-1,0.5-1.4,0.8
		c-0.2,0.1-0.4,0.1-0.6-0.1C121.5,61.3,121.5,61.1,121.8,60.9z M125.8,43.2c0.1,0.7,0.1,2.7,0.1,5.9c0,0.3-0.1,0.4-0.4,0.4
		c-0.3,0-0.4-0.1-0.4-0.4c0-3.2,0-5.1-0.1-5.8c0-0.3,0.1-0.5,0.4-0.5C125.6,42.8,125.8,42.9,125.8,43.2z M127.6,38.1l0.6,0.1h0.2
		h0.1h0.6c0.3,0,0.4,0.1,0.4,0.4c0,0.3-0.1,0.4-0.4,0.4h-0.6h-0.3c0,0-0.1,0-0.3-0.1l-0.5-0.1c-0.3,0-0.4-0.2-0.4-0.5
		C127.1,38.2,127.3,38.1,127.6,38.1z M130.8,29.4c0,0.2,0,0.4,0.1,0.6v0.2c0,0.1,0.1,0.2,0.1,0.3c0,0.1,0.1,0.3,0.2,0.5
		c0.1,0.2,0,0.4-0.3,0.5c-0.3,0.1-0.5,0-0.6-0.3c0-0.1-0.1-0.2-0.1-0.4l-0.1-0.3c0-0.1-0.1-0.2-0.1-0.2c0,0-0.1-0.3-0.1-0.9
		c0-0.3,0.1-0.5,0.4-0.5C130.6,29,130.7,29.1,130.8,29.4z M134.4,28.3c0.3,0.7,0.6,2,1,3.7c0,0.3-0.1,0.5-0.4,0.5
		c-0.3,0-0.5-0.1-0.5-0.4c-0.4-1.7-0.7-2.9-1-3.6c-0.1-0.2,0-0.4,0.3-0.5C134,27.9,134.2,28,134.4,28.3z M137.7,35.1
		c-0.9,0.9-1.5,1.7-2,2.5c-0.1,0.2-0.3,0.3-0.6,0.1c-0.2-0.1-0.3-0.3-0.1-0.6c0.5-0.9,1.2-1.8,2.2-2.7c0.2-0.2,0.4-0.2,0.6,0
		C137.9,34.8,137.9,35,137.7,35.1z M136.1,40.9c0.5,0,2,0.2,4.4,0.7c0.3,0,0.4,0.2,0.4,0.5c0,0.3-0.2,0.4-0.5,0.4
		c-2.4-0.5-3.8-0.7-4.2-0.7c-0.3,0-0.4-0.1-0.4-0.4C135.7,41.1,135.8,40.9,136.1,40.9z M137.2,51.2c0.3,0,0.4,0.1,0.4,0.4
		c0,0.3-0.1,0.4-0.4,0.4s-0.4-0.1-0.4-0.4C136.7,51.3,136.9,51.2,137.2,51.2z M142.9,48.1c0.3,0,0.4,0.1,0.4,0.4s-0.1,0.4-0.4,0.4
		s-0.4-0.1-0.4-0.4S142.6,48.1,142.9,48.1z M147.8,39.9c0,2.5,0,4.1,0.1,4.8c0,0.3-0.1,0.4-0.4,0.4c-0.3,0-0.4-0.1-0.4-0.4
		c0-0.6-0.1-2.2-0.1-4.8c0-0.3,0.1-0.4,0.4-0.4S147.8,39.6,147.8,39.9z M149.6,30.1L149.6,30.1c-0.4,0-0.5-0.1-0.6-0.4
		c0-0.3,0.1-0.5,0.4-0.5c0.2,0,0.4-0.1,0.6-0.1c0.1-0.3,0.3-0.8,0.5-1.4c0.2-0.6,0.4-1.1,0.5-1.3c0.8-2.2,1.9-3.7,3.3-4.4
		c0.7-0.3,1.5-0.4,2.4-0.1c0.1,0,0.4,0.2,0.9,0.3c0.5,0.2,0.9,0.3,1.2,0.3c0.2,0,0.6,0,1.2-0.2c0.6-0.2,1.1-0.2,1.4-0.1
		c0.3,0.1,0.7,0.3,1.2,0.7c0.1,0.1,0.2,0.3,0.4,0.5c0.2,0.2,0.3,0.3,0.4,0.4l0.2,0.3c-0.5-1.2-1.3-2.2-2.4-2.8
		c-3-1.8-5.4-2.3-7.3-1.4c-1.4,0.7-2.6,2.4-3.7,5.1c-0.3,0.9-0.8,2.1-1.3,3.7c-0.5,1.7-0.9,2.9-1.2,3.6l-0.1,0.1
		c0.4-0.4,0.7-0.8,1.1-1.2C149.1,31,149.3,30.6,149.6,30.1z M154.1,34.7c0.3,0,0.4,0.1,0.4,0.4s-0.1,0.4-0.4,0.4s-0.4-0.1-0.4-0.4
		S153.8,34.7,154.1,34.7z M157.9,70.9c0.1,0,0.6-0.5,1.4-1.3c0.6-0.6,1.2-1,1.8-1.2c0.3-0.1,0.5,0,0.6,0.3c0.1,0.3,0,0.5-0.3,0.6
		c-0.5,0.1-1,0.5-1.5,1l-0.4,0.4c-0.3,0.3-0.5,0.5-0.6,0.6c2.3,0.6,4.5,0.1,6.7-1.4c1.2-0.9,2.1-2.3,2.4-4.3
		c0.1-0.9,0.2-2.8,0.2-5.5c0-2.1-0.5-4.9-1.4-8.6c-1.1-4.4-1.7-7.4-1.9-9c0-0.5-0.1-1.1-0.1-1.7c-0.1,0.9-0.2,1.7-0.3,2.4
		c0,0.9,0,1.9,0.2,3c0.2,1.1,0.5,2.6,1,4.5s0.8,3.1,0.9,3.7c1.2,5.2,0.8,8.8-1.1,10.9c-1,1.1-1.9,1.5-2.9,1.2
		c-0.6-0.1-1.5-0.7-2.5-1.7c-0.3-0.3-0.9-0.4-1.8-0.4c-1,0-1.7-0.5-2.2-1.2c-0.8-1.1-1.4-2.3-1.8-3.8c0,0.6,0,1.6-0.1,3
		c0,1.4-0.1,2.4-0.1,3.1c0,1,0,1.7,0.1,2.3c0,0.6,0.1,1.1,0.3,1.3C155.1,69.7,156.2,70.4,157.9,70.9C157.9,71,157.9,71,157.9,70.9z
		 M156,26.3h1c0.3,0,0.4,0.1,0.4,0.4s-0.1,0.4-0.4,0.4h-1c-0.3,0-0.4-0.1-0.4-0.4S155.7,26.3,156,26.3z M157.6,41.1
		c0.7,0,1.5-0.1,2.3-0.4c0.3-0.1,0.5,0,0.6,0.3c0.1,0.3,0,0.5-0.3,0.6l-0.4,0.1c0,0.1-0.1,0.2-0.1,0.2c0,0.1-0.2,0.2-0.4,0.4
		c-0.1,0.1-0.3,0.2-0.4,0.3c-0.1,0-0.2,0-0.4,0h-0.6h-0.1c0,0-0.1,0.1-0.3,0.1c-0.3,0-0.4-0.1-0.4-0.4c0-0.1,0-0.3,0.1-0.4
		c-0.1,0-0.1-0.1-0.1-0.3C157.1,41.2,157.3,41.1,157.6,41.1z M159.3,52.1c0.2,0,0.4,0.1,0.5,0.1h0.2h0.1h0.2h0.4
		c0.3,0,0.4,0.1,0.4,0.4s-0.1,0.4-0.4,0.4h-0.5h-0.3c0,0-0.3,0-0.8-0.1c-0.3,0-0.4-0.2-0.4-0.5C158.8,52.1,159,52,159.3,52.1z
		 M160,30.3c0,2.3,0,3.7,0.1,4.3c0,0.3-0.1,0.5-0.4,0.5c-0.3,0-0.5-0.1-0.5-0.4c-0.1-0.7-0.1-2.2-0.1-4.5c0-0.3,0.1-0.4,0.4-0.4
		C159.9,29.8,160,30,160,30.3z M160.8,47.1c0,0.3,0,0.6,0,0.6c0.1,0,0.4,0.2,0.9,0.4c0.3,0.1,0.4,0.3,0.3,0.6
		c-0.1,0.3-0.3,0.3-0.5,0.3c-0.6-0.3-1-0.5-1.2-0.6c-0.3-0.3-0.4-0.7-0.3-1.4c0-0.3,0.2-0.4,0.5-0.4
		C160.7,46.6,160.8,46.8,160.8,47.1z M161.5,54.1c0.3,0,0.4,0.1,0.4,0.4s-0.1,0.4-0.4,0.4s-0.4-0.1-0.4-0.4S161.2,54.1,161.5,54.1z
		 M161.4,61.4l0.7-0.4c0.2-0.1,0.4-0.1,0.6,0.1c0.1,0.2,0.1,0.4-0.1,0.6l-0.7,0.4c-0.2,0.1-0.4,0.1-0.6-0.1
		C161.1,61.7,161.1,61.5,161.4,61.4z"/>
	<path id="XMLID_83_" class="st1" d="M179.5,32c0.8,0,1.5-0.2,1.9-0.6c0.3-0.3,0.5-0.8,0.5-1.5l-0.1-0.1v-0.1
		c-0.1-0.1-0.2-0.2-0.3-0.4c-0.1-0.2-0.1-0.4,0-0.6c0.1-0.2,0.2-0.4,0.4-0.4c0.4-0.1,0.8-0.1,1.4,0c0.1,0,0.3,0.1,0.5,0.2
		c0.2,0,0.3,0.1,0.4,0.1c0.2,0,0.4,0.1,0.5,0c0.1,0,0.2-0.1,0.3-0.3c0.2-0.5,0.1-1.2-0.3-2.1l-0.4-0.6l-0.2-0.4
		c-0.1-0.2-0.2-0.4-0.3-0.5c-0.1-0.3-0.1-0.5-0.1-0.7c0-0.2,0.2-0.4,0.4-0.5c0.1-0.1,0.2-0.2,0.3-0.3c0.1-0.1,0.4-0.2,0.8-0.4
		c0.9-0.4,1.4-0.7,1.7-0.9c0.4-0.3,0.7-0.5,0.7-0.7c0-0.2-0.4-0.6-1.2-0.9c-0.4-0.2-0.5-0.6-0.3-1c0.1-0.1,0.2-0.2,0.4-0.3
		c-0.1-0.1-0.1-0.3-0.1-0.4c0-0.5,0.2-0.7,0.7-0.7c1.5,0,2.9,0.3,4.1,0.8c1.2,0.6,2.3,1.3,3.3,2.3c0.9,1,1.7,2,2.3,3
		c0.6,1,1.2,2.1,1.9,3.5l1.5,3.3c0.5,1.2,1,2.1,1.4,2.7c0.9,1.4,1.7,2.1,2.6,1.9c1-0.1,1.9-1.3,2.7-3.6c0.2-0.7,0.6-1.8,1.2-3.5
		c0.5-1.7,1-3,1.3-3.8c1.2-3,2.7-5,4.4-5.8c2.3-1.2,5.1-0.8,8.6,1.3c1.7,1.1,2.9,2.7,3.6,4.8c0.6,2.2,0.9,5.1,0.9,8.8
		c0,5,0,7.9,0,8.6c0.1,1.4,0.8,4.4,1.9,8.8c1,3.8,1.4,6.8,1.4,9c0,2.9-0.1,4.8-0.3,5.8c-0.4,2.4-1.4,4.1-3,5.2
		c-2.9,2-5.9,2.4-8.9,1.3c-0.7-0.2-1.2-0.4-1.6-0.5c-0.4-0.2-0.8-0.4-1.3-0.8c-0.5-0.4-0.9-0.8-1.2-1.4c-0.3-0.4-0.5-1-0.6-1.8
		c-0.1-0.7-0.1-1.5-0.1-2.5c0-0.7,0-1.7,0.1-3.1c0-1.4,0.1-2.4,0.1-3c0-2.4,0-4.1-0.3-5.2c-0.1-0.6-0.3-1-0.6-1.2
		c-0.2-0.2-0.4-0.3-0.7-0.2c-0.4,0-0.8,0.5-1.2,1.3c-0.2,0.5-0.5,1.6-0.9,3.3c-0.3,1.1-0.6,1.9-0.8,2.6c-0.2,0.7-0.7,1.4-1.3,2.2
		c-0.6,0.8-1.3,1.3-2.1,1.5c-2.4,0.9-4.7-0.3-6.7-3.6c-0.3-0.4-0.7-1.1-1.2-1.9c-0.5-0.9-0.8-1.4-0.9-1.7c-0.7-1.2-1.4-2.1-1.9-2.4
		c-0.1-0.1-0.3-0.2-0.6-0.3h-0.2c0,0.1-0.1,0.2-0.1,0.4c0,0.4,0,0.9,0.1,1.7c0,0.5,0.1,1.4,0.3,2.5c0.1,1.1,0.2,1.9,0.3,2.3
		c0.3,2.2,0.4,4,0.3,5.4c-0.1,2-0.5,3.6-1.3,4.6c-0.9,1.2-2.1,2-3.6,2.6c-1.5,0.6-3.1,0.8-4.7,0.7c-1.7-0.1-3.2-0.6-4.5-1.4
		c-1.3-0.8-2.2-2-2.6-3.6c-0.6-2.2-0.5-5.8,0.4-10.7c0.1-0.9,0.5-2.6,0.9-5.2c0.5-2.6,0.8-4.5,0.9-5.5c0-0.6,0.1-1.2,0.1-1.8
		c0-0.6,0-1.2,0-1.6c0-0.5,0-1.1-0.1-1.8c-0.1-0.8-0.1-1.3-0.1-1.7c0-0.3-0.1-1-0.2-1.9c-0.1-0.9-0.2-1.5-0.3-1.7
		c0-0.2-0.1-0.8-0.3-1.9c-0.2-1.1-0.3-1.6-0.3-1.7c-0.3-0.1-0.5-0.4-0.5-0.7C178.8,32.2,179,32,179.5,32z M187.9,71.8
		c-0.3-0.1-0.6-0.2-0.8-0.3c0,0-0.1-0.1-0.1-0.1c0,0.1,0.2,0.3,0.4,0.6c0.1,0.1,0.1,0.2,0.1,0.3c2.3-0.3,3.9-1.2,5-2.7
		c0.6-0.8,0.9-2.1,1-3.8c0.1-1.2,0-2.9-0.3-5.2l-0.3-2.4c-0.1-1.2-0.2-2-0.3-2.4c-0.1-0.8-0.1-1.4-0.1-1.9c0-0.7,0.2-1.2,0.4-1.4
		c0.2-0.3,0.6-0.4,1-0.4c0.2,0,0.5,0.1,0.8,0.2c0.4,0.1,0.7,0.2,0.9,0.4c0.7,0.5,1.4,1.4,2.3,2.8c0.1,0.3,0.5,0.9,0.9,1.7l1.2,1.9
		c0.8,1.3,1.6,2.2,2.4,2.7c0.8,0.5,1.7,0.6,2.7,0.3c0.8-0.3,1.4-0.9,1.9-1.8c0.5-0.9,0.9-2.1,1.3-3.6c0.5-1.8,0.8-3,1.1-3.5
		c0.5-1.2,1.2-2,2.2-2.2c0.8-0.1,1.5,0.1,2,0.6c0,0,0.1,0,0.1,0.1c0-0.3,0-0.5-0.1-0.7c0-0.1,0-0.7-0.1-1.8c0-0.7-0.1-1.2-0.2-1.5
		c-0.4-0.6-1.1-1.1-2.1-1.3c-0.4-0.1-0.6-0.1-0.6-0.1c-0.8,0-1.4,0.5-1.7,1.4c-0.2,0.6-0.5,1.7-0.6,3.5c-0.2,1.9-0.4,3.2-0.6,4
		c-0.5,1.4-1.2,2.4-2.3,3c-0.9,0.4-1.6,0.2-2.3-0.4c-0.5-0.5-0.9-1.3-1.3-2.4c-0.1-0.3-0.5-1.3-0.9-2.8c-0.1-0.4-0.3-0.8-0.4-1
		c-0.1-0.3-0.2-0.5-0.3-0.5c-0.2-0.2-0.7-0.3-1.4-0.3c-1,0-1.6-0.1-2-0.4c-0.2-0.1-0.5-0.3-0.6-0.6c-0.2-0.3-0.3-0.5-0.4-0.6
		c-0.1-0.2-0.2-0.4-0.3-0.8c-0.1-0.3-0.2-0.5-0.2-0.6c-0.1-0.4-0.3-0.7-0.6-0.9c-0.3-0.2-0.7-0.2-1.3-0.1c-2,0.3-3.3,2.1-4,5.4
		c-0.6,2.8-0.6,5.4,0,7.7c0.1,0.4,0.4,1.2,0.9,2.3c0.5,1.1,0.8,1.9,0.9,2.6c0,0.4-0.1,0.9-0.4,1.4c-0.2,0.3-0.5,0.7-0.9,1.2
		c-0.9,1-1.6,1.5-2.2,1.5c-0.3,0-1.1-0.2-2.3-0.7c-0.1-0.1-0.5-0.1-0.9-0.1c-0.6,0.1-1.1,0.1-1.3,0.1c-1.2-0.3-2.2-1.5-2.7-3.5
		c-0.3-1.1-0.5-2.4-0.6-3.7c-0.4,3.4-0.4,5.9,0.1,7.6c0.3,1.2,1,2.1,2,2.8c1.1,0.7,2.3,1.1,3.7,1.2h1.2c-0.2-0.3-0.4-0.6-0.4-0.8
		c-0.1-0.2-0.1-0.4,0-0.5c0-0.2,0.2-0.3,0.4-0.4c0.2-0.1,0.5-0.1,0.9,0c0.3,0.1,0.7,0.2,1,0.4c0.2,0.1,0.3,0.3,0.1,0.6
		C188.4,71.9,188.2,71.9,187.9,71.8z M180.2,60.1c0,1.5,0.2,3,0.6,4.3c0.5,1.8,1.2,2.8,2.3,3.1c0.1,0,0.5,0,1.1-0.1
		c0.6,0,1,0,1.3,0.1c1.1,0.5,1.8,0.8,2,0.7c0.4,0,1-0.5,1.8-1.4c0.3-0.4,0.6-0.7,0.8-1c0.3-0.4,0.4-0.8,0.4-1.2
		c0-0.6-0.3-1.3-0.8-2.3c-0.5-1.2-0.9-2-1-2.4c-0.6-2.4-0.6-5,0.1-7.9c0.7-3.6,2.2-5.5,4.4-5.9c0.8-0.1,1.3-0.1,1.7,0.2
		c0.3,0.2,0.6,0.6,0.8,1.2c0,0.1,0.1,0.3,0.3,0.6c0.1,0.3,0.2,0.5,0.3,0.7s0.1,0.3,0.3,0.5c0.1,0.2,0.3,0.4,0.5,0.5
		c0.3,0.2,0.9,0.3,1.7,0.3c0.9,0,1.5,0.2,1.9,0.4c0.1,0.1,0.3,0.4,0.4,0.7c0.1,0.2,0.2,0.6,0.4,1.1c0.5,1.5,0.8,2.4,0.9,2.7
		c0.4,1.1,0.8,1.8,1.2,2.2c0.5,0.5,1,0.6,1.6,0.2c1-0.4,1.6-1.3,2-2.6c0.2-0.8,0.5-2,0.6-3.8c0.2-1.8,0.4-3,0.6-3.6
		c0.4-1.2,1.2-1.8,2.3-1.8c0.1,0,0.4,0,0.8,0.1c1.2,0.3,1.9,0.8,2.4,1.6c0.2,0.4,0.4,1,0.4,1.8c0,1.1,0.1,1.6,0.1,1.7
		c0,0.4,0.1,1.2,0.3,2.3c0,0.1,0.1,0.3,0.1,0.4c0.2,0.8,0.3,1.8,0.4,3c0.4,2.6,1.2,4.7,2.2,6.2c0.4,0.6,1.1,0.9,1.9,0.9
		c1.1,0,1.8,0.2,2.2,0.6c1,1,1.7,1.5,2.2,1.6c0.7,0.2,1.5-0.2,2.3-1.1c1.7-1.9,2-5.4,0.9-10.3l-0.9-3.7c-0.5-1.9-0.8-3.4-1-4.5
		c-0.2-1.2-0.3-2.2-0.2-3.1c0.1-1.2,0.4-2.8,0.8-5l0.1-0.3c0-0.5,0-1.3,0.1-2.2c0-1,0.1-1.6,0.1-2c0-3.3-0.2-5.9-0.7-7.8
		c-0.3-0.5-0.7-1-1.2-1.5c0-0.1-0.2-0.2-0.4-0.4l-0.4-0.4c-0.3-0.3-0.6-0.5-0.9-0.6c-0.3-0.1-0.7,0-1.2,0.1
		c-0.6,0.2-1.1,0.3-1.4,0.2c-0.3,0-0.7-0.2-1.3-0.4l-0.9-0.3c-0.8-0.2-1.5-0.2-2,0.1c-1.3,0.6-2.3,2-3.1,4c-0.1,0.2-0.2,0.6-0.4,1.2
		l-0.4,1.3c0.9,0,2.1,0.2,3.7,0.6c0.2,0.1,0.3,0.3,0.3,0.5c-0.1,0.3-0.3,0.4-0.5,0.3c-1.7-0.5-3-0.7-3.8-0.6c-0.3,0.7-0.6,1.2-1,1.7
		c-0.5,0.7-1.2,1.4-2.1,2.1c-0.9,1.9-1.9,2.9-3.2,3.2c-0.2,0-0.4,0.1-0.6,0.1c-0.1,0.1-0.3,0.3-0.4,0.5c-0.1,0.1-0.2,0.2-0.4,0
		c-0.2-0.1-0.2-0.3,0-0.5l0.2-0.2c-1-0.2-2-1.1-2.9-2.6c-0.4-0.7-0.9-1.6-1.4-2.9l-1.5-3.3c-1.2-2.6-2.6-4.7-4.1-6.2
		c-1.5-1.5-3.4-2.4-5.7-2.5c1,0.6,1.4,1.3,1.4,2c0,0.7-0.5,1.3-1.4,1.9c-0.4,0.2-1,0.6-1.9,1c-0.3,0.1-0.5,0.2-0.5,0.3v0.1l0.3,0.4
		c0.1,0.3,0.3,0.5,0.4,0.7c0.7,1.2,0.8,2.4,0.4,3.3c-0.3,0.6-0.7,1-1.2,1.2c-0.3,0.1-0.8,0.1-1.3-0.1c-0.1,0-0.2-0.1-0.4-0.1
		c0.1,1.1-0.3,2-1.2,2.6c-0.4,0.3-1,0.6-1.6,0.7c0,0.1,0.1,0.6,0.2,1.5c0.1,0.9,0.2,1.4,0.3,1.6c0,0.2,0.1,0.7,0.2,1.5
		c0.1,0.8,0.2,1.4,0.2,1.7c0,0.3,0.1,0.8,0.1,1.5c0.1,0.7,0.1,1.3,0.1,1.7c0,0.4,0,0.9,0,1.5c0,0.6,0,1.2,0,1.7c0,0.5-0.1,1-0.1,1.5
		c-0.1,1.1-0.5,3-0.9,5.6c-0.5,2.6-0.8,4.4-0.9,5.2c-0.1,0.5-0.2,1.1-0.2,1.6c0,0,0.1-0.1,0.1-0.1C180.1,59.8,180.2,59.9,180.2,60.1
		z M182.3,60.9c0.5-0.3,1-0.6,1.6-0.8c0.2-0.1,0.4-0.1,0.5,0.2c0.1,0.3,0,0.4-0.3,0.5c-0.5,0.2-1,0.5-1.4,0.8
		c-0.2,0.1-0.4,0.1-0.6-0.1C182,61.3,182.1,61.1,182.3,60.9z M186.4,43.2c0.1,0.7,0.1,2.7,0.1,5.9c0,0.3-0.1,0.4-0.4,0.4
		s-0.4-0.1-0.4-0.4c0-3.2,0-5.1-0.1-5.8c0-0.3,0.1-0.5,0.4-0.5C186.1,42.8,186.3,42.9,186.4,43.2z M188.2,38.1l0.6,0.1h0.2h0.1h0.6
		c0.3,0,0.4,0.1,0.4,0.4c0,0.3-0.1,0.4-0.4,0.4h-0.6h-0.3c0,0-0.1,0-0.3-0.1L188,39c-0.3,0-0.4-0.2-0.4-0.5S187.9,38.1,188.2,38.1z
		 M191.3,29.4c0,0.2,0,0.4,0.1,0.6v0.2c0,0.1,0.1,0.2,0.1,0.3c0,0.1,0.1,0.3,0.2,0.5c0.1,0.2,0,0.4-0.3,0.5c-0.3,0.1-0.5,0-0.6-0.3
		c0-0.1-0.1-0.2-0.1-0.4l-0.1-0.3c0-0.1-0.1-0.2-0.1-0.2c0,0-0.1-0.3-0.1-0.9c0-0.3,0.1-0.5,0.4-0.5C191.1,29,191.3,29.1,191.3,29.4
		z M194.9,28.3c0.3,0.7,0.6,2,1,3.7c0,0.3-0.1,0.5-0.4,0.5c-0.3,0-0.5-0.1-0.5-0.4c-0.4-1.7-0.7-2.9-1-3.6c-0.1-0.2,0-0.4,0.3-0.5
		C194.6,27.9,194.8,28,194.9,28.3z M198.2,35.1c-0.9,0.9-1.5,1.7-2,2.5c-0.1,0.2-0.3,0.3-0.6,0.1c-0.2-0.1-0.3-0.3-0.1-0.6
		c0.5-0.9,1.2-1.8,2.2-2.7c0.2-0.2,0.4-0.2,0.6,0C198.4,34.8,198.4,35,198.2,35.1z M196.6,40.9c0.5,0,2,0.2,4.4,0.7
		c0.3,0,0.4,0.2,0.4,0.5c0,0.3-0.2,0.4-0.5,0.4c-2.4-0.5-3.8-0.7-4.2-0.7c-0.3,0-0.4-0.1-0.4-0.4C196.2,41.1,196.4,40.9,196.6,40.9z
		 M197.7,51.2c0.3,0,0.4,0.1,0.4,0.4c0,0.3-0.1,0.4-0.4,0.4s-0.4-0.1-0.4-0.4C197.3,51.3,197.4,51.2,197.7,51.2z M203.5,48.1
		c0.3,0,0.4,0.1,0.4,0.4s-0.1,0.4-0.4,0.4s-0.4-0.1-0.4-0.4S203.2,48.1,203.5,48.1z M208.3,39.9c0,2.5,0,4.1,0.1,4.8
		c0,0.3-0.1,0.4-0.4,0.4c-0.3,0-0.4-0.1-0.4-0.4c0-0.6-0.1-2.2-0.1-4.8c0-0.3,0.1-0.4,0.4-0.4S208.3,39.6,208.3,39.9z M210.1,30.1
		L210.1,30.1c-0.4,0-0.5-0.1-0.6-0.4c0-0.3,0.1-0.5,0.4-0.5c0.2,0,0.4-0.1,0.6-0.1c0.1-0.3,0.3-0.8,0.5-1.4c0.2-0.6,0.4-1.1,0.5-1.3
		c0.8-2.2,1.9-3.7,3.3-4.4c0.7-0.3,1.5-0.4,2.4-0.1c0.1,0,0.4,0.2,0.9,0.3c0.5,0.2,0.9,0.3,1.2,0.3c0.2,0,0.6,0,1.2-0.2
		c0.6-0.2,1.1-0.2,1.4-0.1c0.3,0.1,0.7,0.3,1.2,0.7c0.1,0.1,0.2,0.3,0.4,0.5c0.2,0.2,0.3,0.3,0.4,0.4l0.2,0.3
		c-0.5-1.2-1.3-2.2-2.4-2.8c-3-1.8-5.4-2.3-7.3-1.4c-1.4,0.7-2.6,2.4-3.7,5.1c-0.3,0.9-0.8,2.1-1.3,3.7c-0.5,1.7-0.9,2.9-1.2,3.6
		l-0.1,0.1c0.4-0.4,0.7-0.8,1.1-1.2C209.6,31,209.9,30.6,210.1,30.1z M214.6,34.7c0.3,0,0.4,0.1,0.4,0.4s-0.1,0.4-0.4,0.4
		s-0.4-0.1-0.4-0.4S214.4,34.7,214.6,34.7z M218.5,70.9c0.1,0,0.6-0.5,1.4-1.3c0.6-0.6,1.2-1,1.8-1.2c0.3-0.1,0.5,0,0.6,0.3
		c0.1,0.3,0,0.5-0.3,0.6c-0.5,0.1-1,0.5-1.5,1l-0.4,0.4c-0.3,0.3-0.5,0.5-0.6,0.6c2.3,0.6,4.5,0.1,6.7-1.4c1.2-0.9,2.1-2.3,2.4-4.3
		c0.1-0.9,0.2-2.8,0.2-5.5c0-2.1-0.5-4.9-1.4-8.6c-1.1-4.4-1.7-7.4-1.9-9c0-0.5-0.1-1.1-0.1-1.7c-0.1,0.9-0.2,1.7-0.3,2.4
		c0,0.9,0,1.9,0.2,3c0.2,1.1,0.5,2.6,1,4.5s0.8,3.1,0.9,3.7c1.2,5.2,0.8,8.8-1.1,10.9c-1,1.1-1.9,1.5-2.9,1.2
		c-0.6-0.1-1.5-0.7-2.5-1.7c-0.3-0.3-0.9-0.4-1.8-0.4c-1,0-1.7-0.5-2.2-1.2c-0.8-1.1-1.4-2.3-1.8-3.8c0,0.6,0,1.6-0.1,3
		c0,1.4-0.1,2.4-0.1,3.1c0,1,0,1.7,0.1,2.3c0,0.6,0.1,1.1,0.3,1.3C215.7,69.7,216.8,70.4,218.5,70.9C218.4,71,218.5,71,218.5,70.9z
		 M216.5,26.3h1c0.3,0,0.4,0.1,0.4,0.4s-0.1,0.4-0.4,0.4h-1c-0.3,0-0.4-0.1-0.4-0.4S216.2,26.3,216.5,26.3z M218.1,41.1
		c0.7,0,1.5-0.1,2.3-0.4c0.3-0.1,0.5,0,0.6,0.3c0.1,0.3,0,0.5-0.3,0.6l-0.4,0.1c0,0.1-0.1,0.2-0.1,0.2c0,0.1-0.2,0.2-0.4,0.4
		c-0.1,0.1-0.3,0.2-0.4,0.3c-0.1,0-0.2,0-0.4,0h-0.6h-0.1c0,0-0.1,0.1-0.3,0.1c-0.3,0-0.4-0.1-0.4-0.4c0-0.1,0-0.3,0.1-0.4
		c-0.1,0-0.1-0.1-0.1-0.3C217.7,41.2,217.8,41.1,218.1,41.1z M219.8,52.1c0.2,0,0.4,0.1,0.5,0.1h0.2h0.1h0.2h0.4
		c0.3,0,0.4,0.1,0.4,0.4s-0.1,0.4-0.4,0.4h-0.5h-0.3c0,0-0.3,0-0.8-0.1c-0.3,0-0.4-0.2-0.4-0.5C219.4,52.1,219.5,52,219.8,52.1z
		 M220.6,30.3c0,2.3,0,3.7,0.1,4.3c0,0.3-0.1,0.5-0.4,0.5c-0.3,0-0.5-0.1-0.5-0.4c-0.1-0.7-0.1-2.2-0.1-4.5c0-0.3,0.1-0.4,0.4-0.4
		C220.4,29.8,220.6,30,220.6,30.3z M221.3,47.1c0,0.3,0,0.6,0,0.6c0.1,0,0.4,0.2,0.9,0.4c0.3,0.1,0.4,0.3,0.3,0.6
		c-0.1,0.3-0.3,0.3-0.5,0.3c-0.6-0.3-1-0.5-1.2-0.6c-0.3-0.3-0.4-0.7-0.3-1.4c0-0.3,0.2-0.4,0.5-0.4
		C221.3,46.6,221.4,46.8,221.3,47.1z M222.1,54.1c0.3,0,0.4,0.1,0.4,0.4s-0.1,0.4-0.4,0.4s-0.4-0.1-0.4-0.4S221.8,54.1,222.1,54.1z
		 M221.9,61.4l0.7-0.4c0.2-0.1,0.4-0.1,0.6,0.1c0.1,0.2,0.1,0.4-0.1,0.6l-0.7,0.4c-0.2,0.1-0.4,0.1-0.6-0.1
		C221.6,61.7,221.7,61.5,221.9,61.4z"/>
	<path id="XMLID_107_" class="st0" d="M249.4,8.1c-2.1,0.2-3.5,1.9-4.2,5.2c-0.7,2.9-0.6,5.5,0.3,7.7c0,0.1,0,0.1,0.1,0.2
		c1.3-0.2,3.2-0.5,5.7-0.9c3.6-0.5,6.2-0.9,7.7-1.3l-1.4-2.3c-2-3.5-3.4-5.8-4.1-6.8c-3.4-5.1-7-7.6-10.8-7.4
		c-2.1,0.1-3.4,1.8-4.1,5.1c-0.1,0.6-0.5,0.9-1.1,0.7c-0.3-0.1-0.5-0.2-0.6-0.4c-0.2-0.2-0.3-0.4-0.3-0.7c0-0.4,0.1-0.6,0.4-0.8
		c0.9-3.7,2.8-5.6,5.7-5.7c4.4-0.2,8.6,2.6,12.4,8.2c0.5,0.7,1.9,3,4.1,6.9c0.7,1.2,1.2,2.1,1.7,2.8c0.3,0,0.5,0.2,0.5,0.5
		c0,0.1,0,0.2-0.1,0.4c0.5,0.8,1.1,1.5,1.6,2c0.5,0.7,1.1,1,1.6,1.1c0.9,0.1,1.7-0.4,2.6-1.5v-0.1c0-0.3,0.2-0.5,0.5-0.5
		c0.3-0.4,0.6-0.9,0.8-1.4c0.5-1,1.1-2.4,1.9-4.3c1.1-2.6,1.8-4.2,2.1-4.8l0.9-1.9c-0.1-0.1-0.1-0.2-0.1-0.3c0-0.4,0.2-0.5,0.5-0.5
		c1.3-2.5,2.8-4.3,4.4-5.5c2.8-2.1,6.1-2.2,9.8-0.4c3.2,1.6,4.5,4.5,3.7,8.7c-0.4,1.8-1.1,3.9-2.1,6.3c0.2,0.1,0.2,0.3,0.2,0.5
		c-0.1,0.4-0.3,0.5-0.6,0.5h-0.1c-0.7,1.4-1.5,3-2.6,4.7c-1.3,2.2-3,4.9-5.1,8c0.1,0.3,0,0.5-0.3,0.6l-0.4,0.2l-1.9,2.9
		c-2.7,3.9-4.2,6.5-4.5,7.6c-0.6,2.1-0.6,5,0,8.7c0.9,5.3,1.3,8.4,1.4,9.3c0.1,2.9-0.2,5.3-1.1,7.5c-1.2,2.9-3.1,4.6-5.7,5.2
		c-2.6,0.5-4.9,0.2-7-1c-2.1-1.3-3.6-3.2-4.5-5.6c-0.9-2.4-1.3-5.7-1.3-10.1c0.1-4.6-0.1-7.8-0.5-9.7c-0.6-2.6-3-6.4-7.2-11.5
		c-0.7-0.9-1.8-2.2-3.3-3.9l-3.6-4.4c-1-1.2-1.9-2.3-2.5-3.3c-0.4-0.5-0.3-1,0.2-1.3c0.4-0.2,0.7-0.2,1.1,0c1-0.8,1.7-1.5,1.9-2.3
		c0.1-0.5,0.1-1-0.2-1.5c-0.2-0.4-0.5-0.8-1.1-1.5c-0.3-0.4-0.5-0.6-0.6-0.7c-0.2-0.4-0.4-0.7-0.4-1.1c0-0.5,0.2-1.2,0.5-2.1
		c0.4-0.9,0.6-1.5,0.6-1.6c0.1-0.3,0.1-0.5,0-0.7c-0.3-0.2-0.9-0.5-1.9-0.6c-0.6-0.1-0.9-0.5-0.7-1.1c0.1-0.6,0.5-0.9,1.1-0.7
		c1.4,0.2,2.4,0.7,2.9,1.3c0.5,0.6,0.6,1.4,0.5,2.4c-0.1,0.2-0.3,0.9-0.7,1.8c-0.2,0.6-0.4,1.1-0.4,1.4l0.1,0.1
		c0.1,0.1,0.2,0.3,0.5,0.5c0.7,0.8,1.1,1.4,1.4,1.9c0.1,0.2,0.2,0.5,0.3,0.7c-0.1-1.5,0.1-3,0.4-4.4c0.8-3.6,2.4-5.5,4.9-5.7
		c0.2,0,0.4,0.1,0.4,0.4C249.7,7.9,249.6,8.1,249.4,8.1z M245.5,27.2c1,0,2.3-0.3,4-0.8l1.5-0.5c0.1-0.9,0-1.5-0.3-2
		c-0.2-0.3-0.6-0.5-1.1-0.6c-0.3-0.1-0.9-0.1-1.8-0.2c-1.1-0.1-1.9-0.4-2.4-0.7c-1.3,0.2-2.6,0.5-3.6,0.7h-0.3l3.6,4.4
		C245.3,27.3,245.4,27.2,245.5,27.2z M244.8,21.3C244.7,21.3,244.7,21.2,244.8,21.3c-0.3-0.7-0.5-1.5-0.6-2.4c0,0.2,0,0.5-0.1,0.7
		c-0.2,0.7-0.7,1.4-1.4,2.1C243.4,21.6,244.1,21.5,244.8,21.3z M250.9,27.1l-1.1,0.3c-1.6,0.5-2.9,0.9-3.8,0.9l4,4.7l0.8,1.1
		c1.2-0.2,2.6-0.4,4-0.5c-0.2-0.2-0.8-0.6-1.6-1.2c-0.9-0.6-1.5-1.2-1.8-1.7C250.8,29.9,250.7,28.7,250.9,27.1z M251.8,25.6
		c0.7-0.2,1.4-0.4,1.9-0.5c4.7-0.7,7.8-1.2,9.2-1.4c-0.5-0.3-0.9-0.7-1.4-1.1c-0.6-0.7-1.2-1.6-1.9-2.7c-1.8,0.4-4.6,0.8-8.2,1.4
		c-2.3,0.4-3.9,0.6-4.6,0.7c0.3,0.1,0.7,0.1,1.2,0.2c0.9,0.1,1.5,0.1,1.8,0.2c0.7,0.2,1.2,0.5,1.5,1C251.7,24,251.9,24.7,251.8,25.6
		z M250.2,10.6l2,1.3c0,0.1,0.5,0.7,1.5,1.8c0.2,0.3,0.1,0.6-0.1,0.8c-0.3,0.2-0.5,0.2-0.8,0c-0.2-0.3-0.4-0.6-0.5-0.8
		c-0.2-0.2-0.3-0.4-0.4-0.5l-0.2-0.2c-0.1-0.1-0.1-0.2-0.2-0.3c-0.1-0.1-0.1-0.1-0.2-0.1c-0.1,0-0.2-0.1-0.3-0.2
		c-0.1-0.1-0.3-0.2-0.5-0.4c-0.3-0.2-0.5-0.3-0.8-0.5c-0.3-0.2-0.4-0.4-0.2-0.7C249.6,10.5,249.9,10.4,250.2,10.6z M250.1,16.5
		l0.7-1.5c0.1-0.3,0.3-0.4,0.7-0.2c0.3,0.2,0.4,0.4,0.2,0.8l-0.7,1.5c-0.1,0.3-0.3,0.4-0.7,0.2C250,17.2,249.9,16.9,250.1,16.5z
		 M255.8,33.5l4.6-0.3l4.6-0.3c6-0.4,10.6-1.5,14-3.2c0.2-0.1,0.4-0.1,0.5,0l4.4-6.6h-0.2c-3.1,0-6.6,0.2-10.5,0.5
		c-3.9,0.4-6.9,0.7-8.8,1c-2,0.3-5.5,0.8-10.4,1.6c-0.6,0.1-1.3,0.2-2.2,0.5l-0.1,0.2c-0.2,1.5-0.1,2.6,0.3,3.3
		c0.3,0.4,0.9,0.9,1.7,1.5c1,0.7,1.7,1.2,2,1.5L255.8,33.5z M256.1,35.6H252c1,1.3,1.9,2.5,2.6,3.6c0.9,0.2,1.8,0.3,2.9,0.3v-0.1
		c-0.4-0.5-0.7-1.5-1.1-2.9C256.3,36.1,256.2,35.8,256.1,35.6z M258.4,40.4c-1.2,0.1-2.2,0-3-0.1c1.1,1.9,1.8,3.6,2.2,5
		c0.3,1.4,0.5,3,0.5,4.9c0.3-0.1,0.6-0.1,1-0.2c0.2-0.9,0.4-1.4,0.4-1.5c0.7-2.6,0.8-4.8,0.1-6.5c-0.1-0.4-0.4-0.8-0.9-1.3
		L258.4,40.4z M258.4,39.3c2.3-0.1,4.9-0.5,7.7-1.2c4.1-1,7.5-2.2,10.2-3.6l1.1-1.7l0.3-0.3c-5,2-12,3-20.9,3.1
		c0.1,0.2,0.2,0.4,0.3,0.6c0.4,1.3,0.7,2.2,0.9,2.7L258.4,39.3z M257.7,34.5c4.8-0.1,8.8-0.4,12-0.9c-1.4,0.2-3,0.3-4.7,0.5
		c-0.9,0.1-2.2,0.1-3.9,0.2C259.4,34.3,258.3,34.4,257.7,34.5z M258.7,51.2c-0.2,0-0.4,0-0.5,0.1c0,0.4,0,1.8-0.1,4.1v0.1l0.2-0.2
		v-0.3C258.2,54,258.4,52.8,258.7,51.2z M262,65.3l0.6,0.8l0.5,0.9c0.4,0.7,0.8,1.2,1.3,1.5c0.2,0.1,0.7,0.2,1.3,0.4
		c0.6,0.1,1.3,0.2,2.1,0.4c1.4,0.1,2.4,0.2,3.1,0.1c0.9-0.7,1.6-1.8,2.1-3.1c0.8-1.8,1.1-4.1,1-6.7c-0.1-1.3-0.4-3.8-1.1-7.6
		l-2.8,0.5c-0.6,0.2-1.4,0.5-2.4,0.8c-2.1,0.7-3.4,1.1-3.8,1.3c-1.9,0.7-3.5,1.4-4.7,2.3c0.2,0.8,0.5,1.8,0.9,3
		c0.8,2.6,1.3,4.2,1.5,4.8c0.1,0.2,0,0.4-0.3,0.5c-0.2,0.1-0.4,0-0.5-0.3c-0.1-0.5-0.6-2.1-1.5-4.7c-0.4-1.1-0.6-2-0.8-2.7
		c-0.1,0.1-0.3,0.2-0.5,0.4c0.1,2.9,0.4,5.3,1.1,7.2c0.8,2,2,3.5,3.8,4.5s3.6,1.3,5.7,0.9c0.4-0.1,0.7-0.2,1-0.3
		c-0.6,0-1.2-0.1-1.9-0.2c-0.8-0.1-1.5-0.2-2.2-0.3c-0.7-0.2-1.2-0.4-1.5-0.5c-0.5-0.3-1-0.8-1.5-1.5c-0.1-0.1-0.2-0.5-0.5-1
		c-0.2-0.3-0.4-0.6-0.6-0.8c-0.2-0.2-0.1-0.4,0.1-0.5C261.7,65,261.9,65,262,65.3z M271.8,51l1-0.2l-0.1-0.4
		c-0.1-0.3-0.1-0.6-0.1-0.9c-0.1,0.1-0.2,0.1-0.3,0.1c-1.9,0-4.3,0.2-7.3,0.7c-3,0.5-4.8,0.8-5.5,0.8c-0.4,1.5-0.6,2.8-0.5,3.8
		c2.6-1.5,6.2-2.7,10.8-3.6c0.4-0.2,0.8-0.3,1.3-0.5C271.4,50.8,271.6,50.8,271.8,51z M259.8,50c0.5-0.1,2.2-0.3,5-0.7
		c3-0.5,5.5-0.7,7.5-0.7h0.1c-0.4-3-0.3-5.5,0.3-7.7c0.2-0.9,1.1-2.4,2.5-4.6c-2.6,1.2-5.5,2.1-8.7,2.9c-2.6,0.6-4.9,1-7.1,1.2
		c0.5,0.5,0.8,1,1,1.5c0.7,1.8,0.6,4-0.1,6.8L259.8,50z M261.9,28.5c0.4,0,0.5,0.2,0.5,0.5s-0.2,0.5-0.5,0.5s-0.5-0.2-0.5-0.5
		S261.6,28.5,261.9,28.5z M262.7,59c0.2-0.2,1.2-0.8,2.8-1.9c0.3-0.2,0.5-0.1,0.7,0.2c0.2,0.3,0.1,0.5-0.2,0.7l-2.6,1.9
		c-0.3,0.2-0.6,0.1-0.8-0.1C262.4,59.5,262.4,59.2,262.7,59z M265.8,44.1c0.4,0,0.5,0.2,0.5,0.5c0,0.4-0.2,0.5-0.5,0.5
		s-0.5-0.2-0.5-0.5C265.3,44.3,265.5,44.1,265.8,44.1z M268.7,61l0.4,0.9c0.1,0.3,0,0.5-0.3,0.7c-0.3,0.2-0.6,0-0.8-0.3l-0.4-0.9
		c-0.1-0.3,0-0.5,0.3-0.7C268.2,60.5,268.5,60.6,268.7,61z M269.2,21.3c-0.5,0.8-1,1.4-1.5,1.9c6-0.7,11.3-1.1,15.9-1.1
		c0.3,0,0.5,0.2,0.5,0.5l0.8-1.4l1.5-2.6c-4.6,0-8.6,0.3-11.8,1c-0.5,0.1-1.6,0.5-3.3,1.1C270.6,21,269.8,21.2,269.2,21.3z
		 M270.4,55.5c0.4,0,0.5,0.2,0.5,0.5c0,0.4-0.2,0.5-0.5,0.5s-0.5-0.2-0.5-0.5C269.9,55.7,270,55.5,270.4,55.5z M270.6,19.8
		c-0.1-0.4,0-0.6,0.4-0.7c1.7-0.6,4.8-1.3,9.3-2c2.1-0.4,3.9-0.6,5.5-0.7c0.8-0.1,1.5-0.1,2-0.2c1.2-2.4,2-4.6,2.3-6.4
		c0.2-1,0.2-2,0.2-2.8c-1.8,0-4.4,0.2-7.9,0.6c-3,0.4-5.3,0.6-6.9,0.6c-0.4,0.7-0.8,1.5-1.2,2.4l-2,4.8c-0.9,1.9-1.5,3.4-2,4.4
		L270,20L270.6,19.8z M271.9,29c0.6-1.7,1.2-3.1,1.8-4.3c0.1-0.3,0.3-0.4,0.7-0.2c0.3,0.2,0.4,0.4,0.2,0.8c-0.5,1-1,2.4-1.6,4.1
		c-0.1,0.4-0.4,0.5-0.7,0.4C271.9,29.6,271.7,29.4,271.9,29z M276,7.1c1.2-0.1,3.3-0.2,6.2-0.5c3.4-0.4,6-0.6,7.7-0.6
		c-0.4-1.3-1.3-2.2-2.6-2.9c-3.2-1.6-5.8-1.5-8,0.2C278.2,4,277.1,5.3,276,7.1z M281.8,9.5c-0.1,1.2,0,2.4,0.3,3.6
		c0.1,0.4-0.1,0.6-0.5,0.6c-0.4,0.1-0.6-0.1-0.6-0.5c-0.2-1.3-0.3-2.6-0.3-3.8c0-0.4,0.2-0.5,0.5-0.5S281.8,9.2,281.8,9.5z
		 M284.4,17.5h2.6l0.1-0.2c-0.4,0-0.9,0-1.4,0.1C285.4,17.4,284.9,17.5,284.4,17.5z M286.3,9.2c0.4,0,0.5,0.2,0.5,0.5
		s-0.2,0.5-0.5,0.5c-0.4,0-0.5-0.2-0.5-0.5S286,9.2,286.3,9.2z"/>
	<path id="XMLID_136_" class="st0" d="M67.3,159.2c-2-2.8-3.4-6.4-4.3-10.8c-0.8-4.3-1.2-8.4-1.1-12.1c0.1-3.7,0.5-7.6,1.1-11.4
		l0.5-2.7c0.3-1.5,0.5-2.5,0.5-3.1c0.1-0.6,0.1-1.5,0.1-2.5c0-1.1-0.1-2-0.3-2.9c-0.2-1-1.1-1.6-2.7-1.9c-0.6-0.1-2.6-0.1-6.2-0.2
		c-1.5-0.1-2.7-0.2-3.8-0.3c-1.1-0.1-2.2-0.4-3.5-0.9c-1.2-0.5-2.3-1.1-3.3-2.1c-0.9-0.9-1.7-2.1-2.2-3.6c-0.9-2.4-0.3-5.3,1.7-8.7
		c0.6-1.1,1.2-2.1,2-2.9l-0.2-0.2c-0.3-0.6-0.2-1.1,0.4-1.5c0.3-0.1,0.7-0.4,1.1-0.7l1.2-0.8c1-0.8,2-1.3,3-1.6
		c3.3-0.8,8-1.5,13.9-2.1c5.9-0.6,11.6-0.7,17-0.3c6.9,0.5,12.2,1.7,16,3.6c4.8,2.6,7,6.2,6.7,11c-0.3,3.7-1.5,6.4-3.7,8
		c-1.6,1.2-4,1.9-7.1,2.1c-0.3,0-1.4,0-3,0.1c-1.7,0.1-2.9,0.1-3.6,0.2c-1.9,0.3-3,1.1-3.4,2.3c-0.6,1.9-0.8,5.5-0.4,10.9
		c0.1,1.5,0.3,4.1,0.6,7.6c0.3,3.6,0.5,6.3,0.7,8.3c0.3,6.5,0.2,11.5-0.4,15.1c-1,5-3.1,8-6.2,9.1c-1.7,0.6-3.5,0.6-5.2-0.1
		c-1.7-0.7-3.2-1.7-4.5-3.1l-0.1-0.2c0,0.1,0,0.1-0.1,0.2c-0.3,0.1-0.5,0-0.6-0.2C67.5,160.2,67.3,159.6,67.3,159.2z M61.9,109.6
		c0.5-0.6,1.7-1.8,3.7-3.7c0.3-0.3,0.6-0.3,0.8,0c0.3,0.3,0.3,0.6,0,0.8c-1.9,1.9-3,3-3.3,3.4c1.5,0.6,2.5,1.6,2.8,3
		c0.2,0.9,0.3,2,0.3,3.2c0,1.2-0.1,2.2-0.2,2.9c-0.1,0.7-0.3,1.8-0.6,3.3c-0.3,1.5-0.4,2.4-0.4,2.7c-0.9,5.7-1.2,11.1-0.9,16.2
		l0.1-0.1c0.3-0.1,0.5,0,0.5,0.3c0.1,0.4,0.2,1,0.3,1.7c0.1,0.7,0.2,1.2,0.3,1.5c-0.6-4.3-0.6-10.3-0.1-17.9c0-0.6,0.8-4.1,2.3-10.6
		c0.6-2.6,0.9-4.7,1.1-6.1c0.1-0.9,0.2-1.7,0.2-2.3c0-0.6-0.1-1-0.2-1.2c-0.3-0.6-0.8-1.1-1.7-1.5c-1.6-0.6-2.4-1-2.5-1
		c-0.3-0.1-0.7-0.5-1.2-1.1c-0.4-0.4-0.8-0.7-1-0.7c-0.7-0.2-1.6,0.1-2.7,0.8c-0.1,0.1-0.7,0.6-1.6,1.2c-0.6,0.6-1.2,1-1.7,1.2
		c-1.5,0.8-2.8,1-4.1,0.5c-1.6-0.6-3.2-2.3-4.8-5c-0.3,0-0.4-0.1-0.4-0.4c0-1,0.1-1.8,0.4-2.4c0.2-0.5,0.5-0.9,0.9-1.1
		c0.1-0.1,0.3-0.2,0.5-0.3c0.2-0.1,0.3-0.2,0.4-0.3c0.1-0.1,0.2-0.2,0.3-0.3c0.1-0.1,0.2-0.3,0.3-0.5c0.1-0.2,0.2-0.4,0.3-0.6
		c0.1-0.5,0-1.4-0.4-2.8c-1.5,0.7-2.9,2.2-4.2,4.4c-1.7,2.8-2.2,5.1-1.6,6.9c0.8,2.2,2.1,3.7,4,4.4c1.8,0.7,4.1,1.1,7,1.2
		c3.9,0.1,6.1,0.2,6.7,0.3h0.3V109.6z M66.8,145.6c0.1,0.5,0.6,1.2,1.5,2.3c0.8,1,1.4,1.8,1.6,2.4c0.2,0.6,0.1,1.4-0.2,2.3
		c-0.1,0.3-0.2,0.7-0.4,1.1l-0.5,1.1c-0.3,0.7-0.5,1.3-0.5,1.8c0.6,1,1.3,2,2.1,2.8c2.4,2.7,4.8,3.6,7.4,2.8c2.4-0.8,4-3.4,4.8-7.6
		c0.6-3.4,0.8-8.3,0.4-14.6c-0.1-1.9-0.4-4.7-0.7-8.3c-0.3-3.6-0.5-6.1-0.6-7.5c-0.3-5.8-0.1-9.7,0.6-11.8c0.6-2,2.3-3.2,5-3.6
		c0.6-0.1,1.2-0.2,2-0.3c0.8,0,1.7-0.1,2.7-0.1c1,0,1.7-0.1,2.2-0.1c2.6-0.2,4.6-0.8,5.9-1.7c1.7-1.2,2.7-3.4,2.9-6.6
		c0.3-3.8-1.6-6.8-5.6-8.9c-3.5-1.9-8.6-3-15.1-3.4c-5.3-0.3-10.9-0.2-16.7,0.3c-5.8,0.6-10.4,1.2-13.6,2.1h-0.2
		c0,0.1-0.1,0.2-0.2,0.3c0.1,0.1,0.2,0.3,0.2,0.5c0.1,0.6-0.2,1-0.9,1.1h-0.2c0.6,1.6,0.7,2.7,0.5,3.3c-0.1,0.3-0.3,0.5-0.4,0.8
		c-0.1,0.2-0.2,0.5-0.4,0.6c-0.2,0.2-0.3,0.3-0.4,0.4l-0.5,0.3c-0.2,0.1-0.3,0.2-0.4,0.2c-0.3,0.2-0.6,0.5-0.7,0.8
		c-0.2,0.4-0.3,1-0.3,1.8c0.1,0,0.1,0,0.1,0.1c1.6,2.6,3.1,4.2,4.6,4.8c1,0.4,2.1,0.3,3.3-0.4c0.4-0.3,0.9-0.7,1.6-1.1
		c0.9-0.8,1.4-1.2,1.6-1.2c1.3-1,2.5-1.3,3.4-1c0.4,0.1,0.9,0.5,1.4,1c0.5,0.6,0.9,0.9,1.1,1l2.4,0.9c1,0.4,1.8,1,2.2,1.8
		c0.1,0.4,0.2,1,0.2,1.7c0,0.6-0.1,1.4-0.2,2.4c-0.2,1.6-0.6,3.6-1.1,6.1c-1.5,6.5-2.3,10-2.3,10.5c-0.5,8-0.5,14.1,0.1,18.4
		C66.4,145.4,66.6,145.4,66.8,145.6z M63.2,93.8l2.6,1.8c1,0.7,1.9,1.2,2.6,1.7c0.3,0.2,0.4,0.5,0.2,0.8c-0.2,0.3-0.5,0.4-0.8,0.2
		c-0.8-0.4-1.7-1-2.7-1.7l-2.5-1.8c-0.3-0.2-0.4-0.5-0.2-0.8C62.6,93.7,62.9,93.6,63.2,93.8z M65.6,146.5c0.1,0.2,0.2,0.4,0.3,0.6
		c0.1,0.3,0,0.5-0.3,0.6c-0.2,0.1-0.4,0.1-0.6-0.2c-0.2-0.6-0.4-1.1-0.5-1.7c0.6,3.8,1.5,7.1,2.9,9.8l0.4-1c0-0.1,0.2-0.5,0.5-1.1
		c0.1-0.5,0.3-0.8,0.4-1c0.2-0.8,0.2-1.4,0.1-1.9c-0.1-0.5-0.6-1.2-1.4-2.1c-0.8-0.9-1.2-1.6-1.5-2c-0.1,0.1-0.2,0.1-0.3,0.1H65.6z
		 M68.7,135.1c1-0.5,2.7-1.5,5.2-2.9c0.3-0.2,0.6-0.1,0.8,0.2c0.2,0.3,0.1,0.6-0.2,0.8c-2.5,1.5-4.2,2.4-5.2,2.9
		c-0.4,0.2-0.7,0.1-0.9-0.3C68.3,135.5,68.4,135.3,68.7,135.1z M70.7,141.8c0.4,0,0.6,0.2,0.6,0.6c0,0.4-0.2,0.6-0.6,0.6
		c-0.4,0-0.6-0.2-0.6-0.6C70.1,142,70.3,141.8,70.7,141.8z M72.8,94.2c0.4,0,0.6,0.2,0.6,0.6c0,0.4-0.2,0.6-0.6,0.6
		c-0.4,0-0.6-0.2-0.6-0.6C72.2,94.5,72.4,94.2,72.8,94.2z M73.9,118.7l0.5,0.8c0.1,0.3,0.2,0.5,0.2,0.5c0.1,0.1,0.2,0.5,0.4,1.2
		c0.1,0.4-0.1,0.7-0.5,0.8c-0.4,0.1-0.6,0-0.8-0.4l-0.3-1.1c0-0.1-0.1-0.2-0.2-0.4l-0.4-0.8c-0.2-0.3-0.1-0.6,0.2-0.8
		C73.4,118.3,73.7,118.3,73.9,118.7z M75,144.4c0.1-1.1,0.1-2.5,0.1-4.3c0-0.4,0.2-0.6,0.6-0.6c0.4,0,0.6,0.2,0.6,0.6
		c0,1.7,0,3.2-0.1,4.3c0,0.4-0.2,0.6-0.6,0.6C75.2,145,75,144.8,75,144.4z M75.3,111.3l1.4-1.2c0.3-0.3,0.6-0.3,0.8,0
		c0.3,0.3,0.3,0.6,0,0.8l-1.4,1.2c-0.3,0.3-0.6,0.3-0.8,0C75,111.9,75,111.6,75.3,111.3z M78.2,153.6c0.1,0.3,0.4,1.4,0.9,3.2
		c0.4,1.2,0.7,2.3,0.8,3.2c0.1,0.4-0.1,0.7-0.5,0.7c-0.4,0.1-0.7-0.1-0.7-0.5c-0.1-0.8-0.4-1.9-0.8-3.1c-0.6-1.8-0.9-2.8-0.9-3.1
		c-0.1-0.4,0.1-0.7,0.5-0.8C77.8,153.2,78.1,153.3,78.2,153.6z M78.4,102.5v-0.7c0-0.3,0-0.5,0.1-0.6c0-0.1,0.1-0.3,0.3-0.5
		c0.3-0.2,0.5-0.4,0.5-0.6c0.3-0.3,0.6-0.3,0.9-0.1c0.3,0.2,0.4,0.5,0.2,0.9c-0.1,0.1-0.3,0.3-0.5,0.6l-0.1,0.1v0.1v0.8
		c0,0.4-0.2,0.6-0.6,0.6C78.6,103.1,78.4,102.9,78.4,102.5z M84.6,103c2.1,0.5,3.8,1.2,5,2.3c0.3,0.3,0.3,0.6,0,0.8
		c-0.3,0.3-0.6,0.3-0.8,0c-1-0.8-2.4-1.5-4.4-1.9c-0.4-0.1-0.6-0.3-0.5-0.7C84,103.1,84.2,102.9,84.6,103z M86.1,93.2
		c0.4,0,0.6,0.2,0.6,0.6c0,0.4-0.2,0.6-0.6,0.6c-0.4,0-0.6-0.2-0.6-0.6C85.5,93.4,85.7,93.2,86.1,93.2z M91.8,94.9
		c0.1,0.8,0.1,2.8,0.1,5.8c0,0.4-0.2,0.6-0.6,0.6c-0.4,0-0.6-0.2-0.6-0.6c0-3.1,0-4.9-0.1-5.6c-0.1-0.4,0.1-0.7,0.5-0.7
		C91.5,94.3,91.8,94.5,91.8,94.9z"/>
	<path id="XMLID_153_" class="st1" d="M110.8,109.7c1.9-2.8,4.5-4.9,8-6.3c3.5-1.3,7.2-1.9,11.2-1.7c4.1,0.2,7.9,1.3,11.4,3.2
		c3.5,1.9,5.9,4.4,7.4,7.6c0.7,1.6,1.2,3.2,1.4,4.9c0.2,1.7,0.1,3.3-0.2,5.1c-0.3,1.7-0.7,3.3-1.2,4.6c-0.4,1.3-1,2.9-1.8,4.7
		c-0.1,0.3-0.4,0.9-1,1.7c-0.4,0.6-0.7,1.1-0.7,1.4c-0.1,0.5,0.2,1.3,1.1,2.4c0.3,0.5,0.9,1.2,1.7,2.1c0.8,0.9,1.4,1.5,1.7,1.8
		c1.5,1.8,2.7,3.6,3.4,5.3c0.7,1.7,0.9,3.6,0.3,5.5c-0.3,1.1-1,2-1.9,2.8c-0.9,0.8-2,1.3-3.1,1.7c-1,0.3-2,0.5-3,0.4
		c-1-0.1-1.8-0.2-2.6-0.4s-1.5-0.6-2.3-1.1c-0.8-0.5-1.5-1.1-2.1-1.6c-0.6-0.5-1.2-1.2-1.9-2c-0.6-0.8-1.2-1.5-1.7-2.2
		c-0.5-0.7-1-1.4-1.5-2.3l-2.4-4c-0.9-1.6-1.6-2.7-2.1-3.3c-0.7-1-1.4-1.7-1.9-2.1c-0.6-0.4-1.1-0.5-1.6-0.3c-0.6,0.2-1,1.1-1.2,2.7
		c-0.1,0.7-0.1,1.6-0.1,2.8v1.6v1.8c0,2.9-0.2,5.2-0.6,6.8c-0.7,2.4-2.1,3.9-4.1,4.6c-2.6,1-4.9,0.6-6.9-1.1s-3.1-3.9-3.2-6.5
		c-0.6-16.1-0.4-29.4,0.4-40.1c0-0.5,0.3-0.7,0.8-0.6C110.6,109.6,110.7,109.6,110.8,109.7z M136.9,132.7c0.6,0.7,1.2,1.2,1.7,1.7
		l0.1,0.1c0-0.4,0.2-1,0.6-1.6c0.4-1,0.7-1.6,0.7-1.9c0-0.3-0.1-0.7-0.5-1.2c-0.2-0.3-0.3-0.6-0.3-0.8c0-0.3,0.1-0.7,0.4-1.2
		c0.2-0.3,0.5-0.7,0.8-1c0.3-0.3,0.6-0.6,0.8-0.7c0.2-0.2,0.6-0.4,1.1-0.8s0.8-0.6,0.9-0.6c1.5-1.1,2.4-2.3,2.6-3.6
		c0.1-1,0.1-2.2-0.1-3.7c-0.2-1.6-0.6-2.7-1.2-3.2c-0.1-0.1-0.5-0.3-1.1-0.5c-0.7-0.2-1.1-0.5-1.2-0.9c-0.1-0.2-0.1-0.6,0.1-1.2
		c0.1-0.5,0.1-0.8,0-1c-1.4-2.5-2.8-4.3-4.1-5.4c-0.1-0.1-0.2-0.2-0.1-0.3c-2.5-1.1-5.3-1.7-8.2-1.8c-3.9-0.2-7.6,0.3-10.9,1.7
		c-3.4,1.4-5.8,3.5-7.3,6.3c-0.1,0.2-0.3,0.4-0.6,0.4c-0.8,10.3-0.9,23.2-0.4,38.7c0.1,2.2,1,4,2.7,5.4c1.7,1.4,3.6,1.7,5.6,1
		c1.5-0.6,2.5-1.8,3.2-3.7c0.4-1.4,0.6-3.6,0.6-6.3v-1.8v-1.5c0-1.3,0-2.3,0.1-3c0.2-2.3,0.9-3.6,2.2-4c0.9-0.3,1.8-0.1,2.8,0.5
		c0.7,0.5,1.5,1.3,2.3,2.4c0.4,0.5,0.8,1.2,1.3,1.9c0.6-0.5,1.3-1.2,2.2-2.3c0.2-0.2,0.4-0.2,0.6,0c0.2,0.2,0.3,0.4,0.1,0.6
		c-1,1.1-1.8,1.9-2.4,2.4h-0.1l0.4,0.8l2.4,4c2,3.2,4.1,5.6,6.2,7.2c2.1,1.6,4.5,2,7.2,1.3c2.2-0.6,3.6-1.7,4-3.5
		c0.5-1.6,0.4-3.1-0.3-4.7c-0.6-1.5-1.7-3.1-3.1-4.8c-0.3-0.3-0.9-1-1.7-1.9c-0.8-0.9-1.4-1.6-1.8-2c-1.2-1.5-1.6-2.7-1.4-3.7
		c0.1-0.5,0.5-1.1,0.9-1.9c0.5-0.8,0.8-1.3,0.9-1.5c1-2.4,1.8-4.4,2.3-6.1c0.5-1.7,0.8-3.6,0.8-5.8c0-2.2-0.4-4.2-1.3-6.1
		c-1.5-3.3-4.3-5.8-8.2-7.7c1.2,1.2,2.4,2.9,3.5,5c0.2,0.3,0.2,0.8,0.1,1.4c-0.1,0.5-0.1,0.9-0.1,1s0.3,0.3,0.8,0.5
		c0.7,0.2,1.2,0.4,1.4,0.6c0.6,0.7,1.1,1.9,1.3,3.6c0.2,1.5,0.3,2.8,0.1,3.9c-0.2,1.4-1.2,2.7-2.9,3.9c-0.1,0.1-0.4,0.3-0.9,0.7
		s-0.9,0.6-1.1,0.8c-0.2,0.1-0.4,0.4-0.8,0.6c-0.3,0.3-0.6,0.6-0.8,0.9c-0.2,0.3-0.3,0.6-0.3,0.8c0,0.1,0.1,0.3,0.3,0.5
		c0.5,0.6,0.7,1.2,0.6,1.7c-0.1,0.4-0.4,1.1-0.8,2c-0.4,0.8-0.6,1.4-0.6,1.9c0,0.5,0.3,1,1,1.4c1.2,0.8,1.8,1.2,1.9,1.3
		c0.1,0.1,0.5,0.5,1.1,1.2s0.9,1.1,1,1.2c0.1,0.2,0.4,0.5,0.8,1c0.4,0.5,0.7,0.9,0.9,1.2c0.2,0.3,0.4,0.6,0.6,1.1
		c0.3,0.5,0.5,1,0.7,1.4c0.2,0.5,0.4,1,0.6,1.6c0.1,0.4,0.5,1,0.9,1.8c0.6,0.9,0.9,1.5,1.1,2c0.4,1.2,0.4,2.2-0.1,3
		c-0.4,0.7-1,1.1-1.9,1.4c-1.3,0.3-3,0.3-5.2-0.1c-0.2,0-0.3-0.2-0.2-0.4c0-0.2,0.2-0.3,0.4-0.2c2.1,0.4,3.7,0.5,4.9,0.1
		c0.8-0.2,1.3-0.6,1.6-1.1c0.3-0.6,0.3-1.5,0-2.5c-0.1-0.4-0.5-1-0.9-1.8c-0.6-0.8-0.9-1.5-1.1-2c-0.1-0.5-0.3-1-0.5-1.5
		c-0.2-0.5-0.4-0.9-0.7-1.4l-0.6-1.1c-0.1-0.3-0.4-0.7-0.9-1.2c-0.4-0.5-0.7-0.8-0.8-1c-0.1-0.1-0.4-0.5-1-1.2s-0.9-1-1.1-1.2
		c-0.1-0.1-0.7-0.5-1.7-1.3c-0.9-0.6-1.3-1.2-1.3-1.9v-0.2c0,0,0,0.1-0.1,0.1c-0.2,0.2-0.4,0.2-0.6,0c-0.5-0.5-1.1-1.1-1.7-1.7
		c-0.2-0.2-0.2-0.4,0-0.6C136.5,132.5,136.7,132.5,136.9,132.7z M114.8,142.3c0.7-0.2,2.1-0.8,4.2-1.9c0.2-0.1,0.4-0.1,0.6,0.1
		c0.1,0.2,0.1,0.4-0.1,0.6c-2.1,1.2-3.6,1.8-4.3,2.1c-0.3,0-0.5-0.1-0.5-0.3C114.5,142.6,114.5,142.4,114.8,142.3z M115.7,126.5
		c0.5,0.8,1.2,1.4,2,1.9c0.2,0.1,0.3,0.3,0.2,0.5c-0.1,0.3-0.3,0.3-0.6,0.2c-1-0.4-1.8-1.2-2.3-2.2c-0.1-0.2-0.1-0.4,0.1-0.6
		S115.6,126.3,115.7,126.5z M115.4,115.7c1.1,0,2.5-0.2,4.2-0.6c0.2,0,0.4,0.1,0.5,0.3c0.1,0.3,0,0.4-0.3,0.5
		c-1.7,0.4-3.2,0.6-4.4,0.6c-0.3,0-0.4-0.1-0.4-0.4S115.1,115.7,115.4,115.7z M119.5,151.1c0,0.2,0.1,0.4,0.1,0.6
		c0,0.1,0.1,0.2,0.1,0.2c0,0,0,0,0,0.1c0,0,0.1,0.1,0.1,0.2c0,0.1,0.1,0.3,0.2,0.4c0.1,0.2,0.1,0.4-0.1,0.6
		c-0.2,0.1-0.4,0.1-0.6-0.1c-0.3-0.6-0.5-0.9-0.5-0.9l-0.1-0.9c0-0.3,0.1-0.5,0.4-0.5C119.2,150.7,119.4,150.8,119.5,151.1z
		 M120.6,109.9l-0.4-0.6c-0.1-0.2-0.1-0.4,0.1-0.6s0.4-0.1,0.6,0.1l0.4,0.6c0.1,0.2,0.1,0.4-0.1,0.6S120.8,110.2,120.6,109.9z
		 M121.4,132.6l-0.2,0.8c-0.1,0.2-0.3,0.3-0.5,0.3c-0.3-0.1-0.4-0.3-0.3-0.5l0.2-0.8c0.1-0.2,0.3-0.3,0.5-0.3
		C121.3,132.2,121.5,132.3,121.4,132.6z M124.2,118.1c-0.3-0.3-0.4-0.6-0.1-0.9c0.8-1.1,1.8-1.8,3-2.1c1.2-0.3,2.3-0.4,3.3-0.1
		c1.1,0.3,2,0.8,2.9,1.5c0.9,0.8,1.6,1.7,2,2.7c0.4,1,0.5,2.2,0.2,3.5c-0.3,1.3-0.9,2.5-2.1,3.7c-1.6,1.4-3.2,2.1-5,1.9
		c-1.7-0.2-3.2-1-4.3-2.4c-1.2-1.5-1.6-3.1-1.3-4.8C123,120,123.5,119,124.2,118.1z M127.6,117.1c-1.9,1.2-3,2.5-3.3,4
		c-0.3,1.3,0,2.6,1,3.7c0.9,1.1,2,1.7,3.3,1.9c1.3,0.1,2.6-0.3,3.8-1.4c0.9-1,1.4-1.9,1.7-3c0.2-1,0.2-1.9-0.1-2.7
		c-0.3-0.8-0.9-1.5-1.6-2.1c-1.3-1.2-2.8-1.6-4.4-1.2C128,116.7,127.9,117,127.6,117.1z M127.2,130.5c0.3,0,0.4,0.1,0.4,0.4
		s-0.1,0.4-0.4,0.4c-0.3,0-0.4-0.1-0.4-0.4S126.9,130.5,127.2,130.5z M129.3,108.7c0.3,0,0.4,0.1,0.4,0.4c0,0.3-0.1,0.4-0.4,0.4
		s-0.4-0.1-0.4-0.4C128.9,108.8,129,108.7,129.3,108.7z M134.2,106.9c0.3,0,0.4,0.1,0.4,0.4c0,0.3-0.1,0.4-0.4,0.4s-0.4-0.1-0.4-0.4
		C133.8,107.1,133.9,106.9,134.2,106.9z M135.7,113.2l0.6-0.7c0.2-0.2,0.4-0.2,0.6,0c0.2,0.2,0.3,0.4,0.1,0.6l-0.6,0.7
		c-0.2,0.2-0.4,0.2-0.6,0C135.6,113.6,135.5,113.4,135.7,113.2z M139.8,145.7c0.3,0,0.4,0.1,0.4,0.4c0,0.3-0.1,0.4-0.4,0.4
		s-0.4-0.1-0.4-0.4C139.3,145.9,139.5,145.7,139.8,145.7z M141.2,120.2c0.5,0.3,0.7,0.4,0.7,0.5c0,0,0.2,0.2,0.6,0.6
		c0.1,0.2,0.1,0.4-0.1,0.6c-0.2,0.2-0.4,0.2-0.6,0l-0.3-0.4c-0.1,0-0.1-0.1-0.1-0.1c0,0,0-0.1-0.1-0.1l-0.4-0.3
		c-0.2-0.1-0.3-0.3-0.1-0.6C140.8,120.1,141,120,141.2,120.2z M145.5,127.2l0.9,0.1c0.3,0,0.4,0.2,0.4,0.5c0,0.3-0.2,0.4-0.5,0.4
		l-0.9-0.1c-0.3,0-0.4-0.2-0.4-0.5C145,127.2,145.2,127.1,145.5,127.2z"/>
	<path id="XMLID_171_" class="st1" d="M178.1,131.8c0.1,1.1,0.4,2.9,1,5.4c0.9,3.7,1.2,6.7,0.9,8.9c-0.4,3.9-1.3,6.8-2.5,8.7
		c-0.8,1.3-1.9,2.2-3.3,2.6c-1.4,0.5-2.8,0.6-4.3,0.3c-1.4-0.3-2.8-0.8-4.1-1.7c-1.3-0.8-2.3-1.8-3-3c-0.8-1.3-1.1-3.2-0.9-5.7
		c0-0.6,0.2-1.5,0.4-2.9c0.2-1.2,0.3-2,0.3-2.5c0-1,0.1-2.5,0.3-4.4c0.1-1.9,0.2-3.3,0.3-4.3c0-0.9,0-2.4-0.1-4.3
		c-0.1-1.2-0.3-2.7-0.7-4.8c-0.6-2.7-0.9-4.4-1-5.1c-0.7-4.2-0.4-7.6,0.9-10.2c0.7-1.3,1.6-2.5,2.9-3.6c1.3-1,2.7-1.7,4.1-2.1
		c1.6-0.4,3.1-0.3,4.5,0.2c1.4,0.5,2.6,1.6,3.5,3.2c0.7,1.3,1.2,2.5,1.4,3.4c0.1,0.8,0.2,1.8,0.2,2.8c0,1.1,0,2-0.1,2.8
		c-0.1,0.8-0.2,1.8-0.3,3c-0.1,1.2-0.2,2-0.3,2.6c-0.1,0.9,0,2.1,0.1,3.7c0.2,1.8,0.3,3.1,0.3,3.8
		C178.8,129.9,178.6,130.9,178.1,131.8z M163.2,118.6c1.5,0.8,3.9,0.9,7.1,0.4l2.2-0.4c1.1-0.2,2-0.4,2.7-0.5
		c0.8-0.1,1.5-0.2,2.1-0.3c0.2-1.9,0.4-3.4,0.4-4.4c-1.9-1-4.1-1.8-6.8-2.4c-2.6-0.6-5.1-0.9-7.3-0.9c-1,2.2-1.2,5-0.7,8.6
		C162.9,118.5,163.1,118.5,163.2,118.6z M163.8,123.6c1.3,0,3.4-0.4,6.2-0.9c3-0.6,5.3-0.9,6.8-0.9h0.1v-0.5c0-0.6,0.1-1.5,0.3-2.6
		c-0.6,0-1.3,0.1-2,0.3c-0.7,0.1-1.6,0.3-2.6,0.5c-1,0.2-1.7,0.4-2.3,0.5c-3.2,0.6-5.7,0.5-7.4-0.4
		C163.1,120.2,163.4,121.5,163.8,123.6z M177,139.9c0,0.2,0,0.4-0.1,0.5c-0.1,0.4-0.7,1.1-1.8,1.9c-0.8,0.6-1.1,1.2-1,1.7
		c0,0.2,0.3,1,0.9,2.2c0.4,1,0.5,1.9,0.3,2.7c-0.2,0.7-0.6,1.5-1.4,2.3c-0.7,0.8-1.5,1.4-2.4,1.9c-1,0.6-1.9,0.8-2.8,0.8
		c-1-0.1-1.8-0.6-2.4-1.5c-0.2-0.2-0.3-0.6-0.4-1.2c0-0.3-0.2-0.6-0.5-0.9c-0.1-0.1-0.5-0.3-1.1-0.6c-0.4-0.1-0.7-0.3-0.9-0.5
		c0,1.3,0.3,2.4,0.8,3.2c0.6,1,1.4,1.8,2.5,2.5c1.1,0.7,2.2,1.2,3.5,1.4c2.8,0.5,4.9-0.3,6.2-2.2c1.1-1.7,1.8-4.4,2.2-8.1
		c0.2-1.8,0-3.9-0.4-6.3C177.9,139.8,177.5,139.9,177,139.9z M176.4,140c-1.5,0.2-3.2,0.4-5.1,0.5c-3.2,0.2-5.5,0.1-7.1-0.1
		c0,0.6-0.1,1.2-0.1,1.7c0,0.4,0,0.9-0.1,1.5c0.1-0.5,0.2-0.9,0.2-1.2c0-0.2,0.1-0.3,0.3-0.3c0.2,0,0.3,0.1,0.3,0.3
		c0,0.4-0.3,1.5-0.9,3.2c-0.4,1.3-0.5,2.3-0.2,3c0.1,0.2,0.4,0.5,0.8,0.6c0.7,0.3,1.2,0.5,1.3,0.6c0.3,0.3,0.6,0.7,0.6,1.2
		c0.1,0.5,0.2,0.8,0.3,1c0.5,0.7,1.2,1.1,2,1.2c0.7,0,1.5-0.2,2.4-0.7c0.8-0.4,1.5-1,2.2-1.8c0.6-0.7,1.1-1.4,1.3-2.1
		c0.2-0.8,0.1-1.6-0.2-2.4c-0.6-1.3-0.9-2.1-0.9-2.3c-0.1-0.7,0.3-1.5,1.2-2.2c1-0.8,1.5-1.3,1.6-1.7
		C176.4,140.2,176.4,140.1,176.4,140z M176.9,123.3L176.9,123.3c0-0.3-0.1-0.5-0.1-0.7c-1.5,0-3.7,0.3-6.7,0.9
		c-2.7,0.6-4.8,0.9-6.2,0.9l0.5,2.6c0.6-0.2,1.8-0.7,3.7-1.5c1.8-0.8,3.3-1.3,4.5-1.6c0.4-0.1,1.2-0.2,2.5-0.4
		C175.9,123.5,176.5,123.4,176.9,123.3z M164,109.1c2.2,0,4.5,0.4,7,0.9c2.5,0.6,4.7,1.3,6.6,2.3c0-0.7-0.1-1.3-0.2-1.9
		c-0.1-0.8-0.6-1.8-1.2-3c-1.4-2.5-3.5-3.4-6.4-2.7c-1.2,0.3-2.2,0.8-3.3,1.6C165.5,107.2,164.7,108.1,164,109.1z M176.6,136.3
		c-1.1-0.4-2.9-0.9-5.5-1.4c-2.9-0.5-5-1.1-6.3-1.7l-0.4,6.3c1.5,0.3,3.8,0.3,6.9,0.1c2-0.1,3.7-0.3,5.3-0.5c0-0.7,0-1.5,0-2.5
		V136.3z M165,132.3c1.3,0.6,3.4,1.2,6.3,1.7c2.4,0.4,4.1,0.9,5.3,1.3c-0.1-1.5-0.2-2.4-0.2-2.7c-0.1-1.7,0.1-4.6,0.5-8.5
		c-0.3,0-0.8,0.1-1.4,0.2c-1.3,0.1-2.1,0.3-2.5,0.4c-1.1,0.2-2.5,0.7-4.3,1.5c-2,0.8-3.4,1.3-4,1.6c0,0.4,0.1,0.7,0.1,1.1
		c0.1,1,0.1,2.1,0.1,3.3C164.8,132.3,164.9,132.3,165,132.3z M167.3,146.2l0.6,0.5c0.2,0.2,0.2,0.4,0,0.6c-0.2,0.2-0.4,0.3-0.6,0.1
		l-0.6-0.5c-0.2-0.2-0.2-0.4,0-0.6S167,146.1,167.3,146.2z M169.4,113.9c0.3,0,0.4,0.1,0.4,0.4s-0.1,0.4-0.4,0.4s-0.4-0.1-0.4-0.4
		S169.1,113.9,169.4,113.9z M171.6,129.3c0,0.5,0.1,1.1,0.2,1.6c0,0.3-0.1,0.5-0.4,0.5c-0.3,0-0.5-0.1-0.5-0.4
		c-0.1-0.5-0.2-1.1-0.2-1.7c0-0.2,0.1-0.4,0.4-0.4C171.4,128.9,171.5,129,171.6,129.3z M174,107.1l0.1,0.9c0,0.3-0.1,0.4-0.4,0.4
		s-0.4-0.1-0.4-0.4l-0.1-0.9c0-0.3,0.1-0.4,0.4-0.4S174,106.9,174,107.1z M177.1,135.6l0.3,0.1l-0.5-2.4c0,0.3,0.1,0.7,0.1,1.2
		C177,135,177.1,135.4,177.1,135.6z M176.9,128.3c0.1-0.1,0.3-0.1,0.4-0.1c0-0.5-0.1-1.2-0.2-2.1C177.1,126.9,177,127.7,176.9,128.3
		z M177.1,139c0.3,0,0.6-0.1,0.9-0.2l-0.3-1.2l-0.2-0.9c0,0-0.1,0-0.2-0.1l-0.2-0.1C177.2,137.5,177.2,138.4,177.1,139z"/>
	<path id="XMLID_188_" class="st0" d="M213.9,139.1c0.2,2.1,0.3,3.8,0.4,5.1c0.2,3.4,0,6-0.7,8c-1,2.7-2.7,4.4-5.2,5.1
		c-2.8,0.7-5.7,0.4-8.6-1c-2.9-1.4-5.1-3.4-6.4-5.9c-0.6-1.3-1.1-3.4-1.4-6.2c-0.1-2.2-0.2-5.1-0.1-8.5c0-1.2,0-2.8,0.1-5
		c0.1-2.1,0.1-3.4,0.1-3.8c0.1-3.1,0.1-5.3,0-6.6c0-0.3-0.4-3.2-1.1-8.7c-0.7-5.5-1-9.7-0.7-12.6c0.3-3.4,1.4-6.3,3.1-8.8
		c1.9-2.7,4.3-4.1,7.2-4.5c3.8-1.6,7.2-2.7,10.2-3.4c3.1-0.6,6.4-0.7,9.9-0.1c3.5,0.6,6.9,1.7,10.1,3.4c3.4,1.8,6.2,4,8.5,6.6
		c2.3,2.7,3.7,5.7,4.2,8.9c0.6,4.2-0.2,9-2.5,14.3c-1.7,4-4.5,7.4-8.2,10.2c-3.7,2.9-7.6,4.7-11.9,5.5c-0.4,0.1-1,0.1-1.9,0.2
		c-1.1,0.1-1.8,0.1-2.1,0.1c-1.6,0.1-2.5,0.5-2.9,1c-0.1,0.2-0.2,0.6-0.3,1.3c-0.1,0.7,0,1.6,0.1,2.8v0.7c0.1-0.3,0.2-0.5,0.3-0.8
		c0.1-0.2,0.3-0.2,0.5-0.1c0.2,0.1,0.3,0.3,0.2,0.5C214.6,137.1,214.3,137.9,213.9,139.1z M195.8,144c0,1.6,0.3,2.6,0.8,3
		c0.4,0.3,1,0.4,1.8,0.1c0.4-0.1,1.2-0.5,2.4-1.1c0.5-0.3,0.9-0.4,1.2-0.5c0.4-0.1,0.7-0.2,1-0.1c0.5,0.2,1,0.6,1.6,1.1
		c0.9,0.8,1.4,1.3,1.5,1.4c0.6,0.5,1.1,0.7,1.6,0.8c0.6,0.1,1.2,0,1.8-0.4c0.5-0.3,1-1,1.5-2c0.4-0.8,0.8-2,1.3-3.4l0.2-0.7
		l-0.3-2.9c-0.1-1.3-0.2-2.2-0.2-2.7c-0.1-1.3-0.2-2.3-0.1-3.1c0.1-1,0.3-1.8,0.7-2.3c0.7-1,2.1-1.6,4.3-1.7c0.4,0,1.1,0,2.2-0.1
		c0.8-0.1,1.3-0.1,1.7-0.2c4-0.8,7.6-2.5,11.1-5.1c3.4-2.7,6-5.8,7.6-9.4c2.2-5,3-9.4,2.3-13.1c-0.5-2.9-1.7-5.6-3.8-8.1
		c-2.1-2.5-4.7-4.5-7.8-6.1c-3.1-1.6-6.3-2.7-9.5-3.3c-3.3-0.5-6.4-0.5-9.2,0.2c-2.7,0.6-5.6,1.5-8.7,2.8c-0.2,0.4-0.5,0.6-0.9,0.6
		h-0.5l-3.5,1.6c-0.2,0.1-0.4,0.2-0.7,0.1c-0.6,0.5-1.3,1.2-1.9,2c-1.6,2.2-2.5,4.8-2.7,7.9c-0.2,2-0.2,4.2,0,6.5
		c0.2,2.3,0.5,4.9,1,7.7c0.4,2.8,0.7,5,0.8,6.7c0.1,1.4,0.1,3.7,0,6.9c0,0.3,0,1.6-0.1,3.7c-0.1,2.1-0.1,3.8-0.1,5v0.6
		c0.3-0.1,0.4,0,0.5,0.3c0.1,0.3,0.3,1.3,0.7,3.2C195.6,141.5,195.8,142.9,195.8,144z M212.4,144.4c-0.3,0.8-0.5,1.6-0.8,2.2
		c-0.6,1.1-1.2,1.8-1.8,2.2c-0.8,0.5-1.7,0.7-2.4,0.6c-0.6-0.1-1.2-0.5-1.8-1c-0.1-0.1-0.6-0.5-1.5-1.4c-0.5-0.5-0.9-0.7-1.3-0.9
		c-0.1-0.1-0.3-0.1-0.6,0c-0.2,0.1-0.5,0.3-1,0.5c-1.3,0.6-2.1,1-2.5,1.2c-1.1,0.3-2,0.2-2.6-0.3c-0.7-0.6-1.1-1.8-1.1-3.6
		c0-0.7,0-1.4-0.1-2c-0.1-0.6-0.3-1.4-0.5-2.4c-0.3-1-0.4-1.6-0.4-1.8c-0.1,2.3,0,4.3,0.1,6c0.2,2.6,0.6,4.4,1.2,5.4
		c1.1,2.2,2.9,3.9,5.4,5.1c2.5,1.2,5,1.5,7.4,0.9c1.8-0.5,3.1-1.7,3.8-3.7C212.3,149.8,212.5,147.4,212.4,144.4z M196.4,106.2
		c0.4,0,0.6,0.2,0.6,0.6c0,0.4-0.2,0.6-0.6,0.6s-0.6-0.2-0.6-0.6C195.8,106.4,196,106.2,196.4,106.2z M198.5,91.9
		c0.6,0,1.4,0.2,2.1,0.5c0.1,0.1,0.3,0.2,0.5,0.3l0.4,0.1c0.4,0.1,0.7,0.2,1,0.3c0.3,0.1,0.4,0.4,0.3,0.7c-0.1,0.4-0.3,0.5-0.7,0.4
		c-0.3-0.1-0.6-0.3-1-0.4c-0.1,0-0.2,0-0.4-0.1c-0.2-0.1-0.4-0.2-0.4-0.2c-0.7-0.3-1.3-0.4-1.7-0.4c-0.4,0-0.6-0.2-0.6-0.6
		C197.9,92.1,198.1,91.9,198.5,91.9z M198.2,99.8v-1.2v-0.6c0-0.2,0.1-0.7,0.4-1.5c0.1-0.4,0.4-0.5,0.8-0.4c0.4,0.1,0.5,0.4,0.4,0.8
		l-0.4,1.1v0.5v1.3c0,0.4-0.2,0.6-0.6,0.6S198.2,100.2,198.2,99.8z M198.8,120.7c0.4,0,0.6,0.2,0.6,0.6c0,0.4-0.2,0.6-0.6,0.6
		s-0.6-0.2-0.6-0.6C198.2,120.9,198.4,120.7,198.8,120.7z M201.1,136.4c0.1,0.3,0.1,0.8,0.2,1.7c0.1,0.6,0.1,1.2,0.2,1.6
		c0.1,0.4-0.1,0.6-0.5,0.7c-0.4,0.1-0.6-0.1-0.7-0.5c-0.1-0.4-0.1-0.9-0.2-1.7c-0.1-0.7-0.1-1.2-0.2-1.6c-0.1-0.4,0.1-0.6,0.5-0.7
		C200.8,135.8,201.1,136,201.1,136.4z M202.4,126.3c0.5,0.3,1.3,0.7,2.6,1.3c1.2,0.6,2.1,1.1,2.7,1.5c0.3,0.2,0.4,0.5,0.2,0.8
		c-0.2,0.3-0.5,0.4-0.8,0.2c-0.6-0.4-1.5-0.8-2.6-1.4l-2.7-1.4c-0.3-0.2-0.4-0.5-0.2-0.8C201.8,126.1,202.1,126.1,202.4,126.3z
		 M203.4,99.4c0.1-1.2,0.3-2.2,0.7-2.8c0.5-0.7,1.2-1.1,2.2-1.1c0.3,0,0.7,0,1.3,0.1c0.6,0.1,1.1,0.1,1.5,0.1c0.4,0,0.9,0,1.4-0.1
		c0.5-0.1,1.1-0.4,1.6-0.7c0.3-0.3,0.7-0.7,1.1-1.5c0.1-0.3,0.3-0.6,0.5-1.2c0.2-0.5,0.4-0.9,0.5-1.2c0.5-0.9,0.9-1.6,1.4-2
		c0.6-0.6,1.3-0.7,2-0.5c1.2,0.5,2.2,1.6,2.8,3.4c0.7,2,1.3,3.2,1.8,3.7c0.3,0.3,0.7,0.5,1.3,0.7c0.3,0.1,0.9,0.2,1.9,0.4
		c0.8,0.2,1.5,0.4,1.8,0.6c0.6,0.3,1.1,0.6,1.3,1.2c0.1,0.3,0.2,0.8,0.1,1.4s-0.1,1,0,1.2c0.1,0.5,0.5,1.3,1.3,2.4
		c0.7,1,1,2.1,0.9,3.1c-0.1,0.7-0.5,1.4-1.1,1.9l-1.5,1.4c-1.2,1.6-2.1,2.8-2.8,3.6c-0.7,0.8-1.7,1.8-3,2.9c-1.3,1.1-2.6,1.9-4,2.3
		c-1.4,0.5-2.9,0.6-4.5,0.5c-0.8-0.1-1.9-0.5-3.1-1.2c-1.2-0.7-2.1-1.1-2.7-1.2c-0.3,0-0.7,0.1-1.2,0.2c-0.1,0-0.4,0-0.7,0.1
		c-0.3,0.1-0.6,0.2-0.8,0.2c-1.4,0.3-2.4,0-3-0.8c-0.5-0.6-0.7-1.4-0.5-2.3c0.1-0.6,0.5-1.5,1-2.4c0.7-1.4,1.1-2.2,1.2-2.4
		c0.3-0.8,0.5-1.4,0.4-1.8c-0.1-0.4-0.6-1.7-1.6-3.8c-0.7-1.6-0.8-3-0.3-4.3C202.9,99.4,203.1,99.4,203.4,99.4z M203.3,101.1
		c-0.1,0.8,0.1,1.6,0.5,2.4c1,2.3,1.6,3.6,1.7,4c0.1,0.6,0,1.5-0.5,2.4c-0.1,0.2-0.5,1-1.2,2.3c-0.5,1-0.8,1.7-0.9,2.2
		c-0.1,0.7,0,1.3,0.3,1.7c0.5,0.6,1.2,0.8,2.2,0.6c0.2-0.1,0.5-0.1,0.8-0.2c0.3-0.1,0.5-0.1,0.7-0.1c0.6-0.2,1-0.3,1.4-0.2
		c0.8,0.1,1.9,0.5,3.1,1.3c1.1,0.6,2,1,2.7,1.1c1.6,0.1,3,0,4.3-0.4c1.3-0.4,2.5-1.2,3.7-2.2c1.2-1.1,2.2-2,2.9-2.8
		c0.7-0.8,1.7-2,2.8-3.4c0-0.1,0.5-0.6,1.5-1.6c0.5-0.5,0.8-1,0.9-1.6c0.1-0.8-0.1-1.6-0.7-2.5c-0.8-1.2-1.3-2.1-1.5-2.6
		c-0.1-0.3-0.1-0.7,0-1.5c0.1-0.5,0-0.8-0.1-1.1c-0.1-0.3-0.3-0.5-0.8-0.7c-0.4-0.1-1-0.3-1.7-0.5l-1.9-0.5
		c-0.7-0.2-1.3-0.5-1.7-0.8c-0.6-0.5-1.2-1.8-1.9-4c-0.6-1.6-1.4-2.6-2.3-2.9c-0.5-0.2-0.9-0.1-1.4,0.3c-0.3,0.3-0.7,0.9-1.2,1.8
		c-0.1,0.2-0.3,0.6-0.5,1.1c-0.2,0.6-0.4,0.9-0.5,1.1c-0.5,0.9-0.9,1.5-1.4,1.7c-0.5,0.4-1.1,0.7-1.7,0.8c-0.6,0.2-1.2,0.2-1.7,0.2
		c-0.5,0-1-0.1-1.6-0.1c-0.6-0.1-1-0.1-1.2-0.1c-0.8,0-1.3,0.2-1.6,0.7c-0.5,0.7-0.7,2.1-0.7,4.1c0,0.3-0.1,0.4-0.4,0.4
		C203.4,101.5,203.3,101.4,203.3,101.1z M206.7,142.5l0.6,0.8c0.2,0.3,0.4,0.6,0.7,0.9c0.3,0.4,0.5,0.6,0.7,0.8
		c0.2,0.3,0.1,0.6-0.1,0.8c-0.3,0.2-0.6,0.2-0.8,0l-2-2.7c-0.2-0.3-0.1-0.6,0.2-0.8C206.2,142.1,206.5,142.2,206.7,142.5z
		 M209,110.7c-0.1,0.1-0.3,0.1-0.4,0.1c-0.6,0-1-0.3-1-1v-1.1v-1.4c0-0.3,0-0.8,0-1.4c0-0.6,0.1-1.1,0.2-1.5
		c0.1-0.4,0.2-0.8,0.4-1.3c0.2-0.5,0.4-0.9,0.6-1.3c0.7-1.2,1.9-2.1,3.6-2.5c1.7-0.5,3.4-0.6,5.2-0.4c1.9,0.2,3.5,0.7,5,1.6
		c1.5,0.9,2.3,2.1,2.7,3.5c0.5,2.4,0,4.4-1.4,6c-1.4,1.6-3.1,2.7-5.3,3.3c-2.1,0.5-4,0.5-5.9,0C211,113.1,209.7,112.1,209,110.7z
		 M208.5,123.7c0.4,0,0.6,0.2,0.6,0.6c0,0.4-0.2,0.6-0.6,0.6s-0.6-0.2-0.6-0.6C207.9,123.9,208.1,123.7,208.5,123.7z M210.3,86.9
		c-0.1,1.6,0,2.7,0.4,3.4c0.2,0.3,0.1,0.6-0.2,0.8c-0.3,0.2-0.6,0.1-0.8-0.2c-0.5-0.9-0.7-2.2-0.6-4c0-0.4,0.2-0.6,0.6-0.6
		S210.3,86.5,210.3,86.9z M210.8,105.3c0,0.2,0,0.6-0.1,1.1c-0.1,0.5-0.1,0.9-0.1,1.3c-0.1,0.8-0.1,1.5,0,1.9c0.4,1,1.3,1.7,2.8,2.1
		c1.5,0.5,3.1,0.4,4.9-0.1c1.8-0.5,3.2-1.3,4.3-2.5c1-1.2,1.4-2.7,1-4.5c-0.2-0.9-0.8-1.7-1.9-2.3c-1.1-0.6-2.4-1.1-4-1.3
		c-1.6-0.2-3.1-0.1-4.4,0.3c-1.3,0.4-2.2,0.9-2.7,1.7c-0.2,0.4-0.4,0.8-0.5,1.3C210.6,104.3,210.9,104.6,210.8,105.3z M219.5,121.4
		c0.8,0.3,1.8,0.9,3,1.8c0.3,0.3,0.3,0.5,0,0.8c-0.2,0.3-0.5,0.3-0.8,0.1c-1.1-0.9-2-1.5-2.6-1.8c-0.4-0.1-0.5-0.4-0.3-0.7
		C218.9,121.3,219.2,121.2,219.5,121.4z M231.6,92.5l0.5-1c0.1-0.3,0.4-0.4,0.7-0.2c0.4,0.2,0.4,0.4,0.2,0.8l-0.5,1
		c-0.1,0.3-0.4,0.4-0.7,0.2C231.5,93.1,231.4,92.8,231.6,92.5z M232.8,103.3c0.9-0.6,1.8-1.5,2.6-2.6c0.3-0.3,0.5-0.3,0.8,0
		c0.3,0.2,0.3,0.5,0.1,0.8c-0.9,1.2-1.8,2.1-2.8,2.8c-0.3,0.2-0.6,0.1-0.8-0.1C232.5,103.9,232.5,103.6,232.8,103.3z M235.3,115.2
		c-0.1,0.4-0.3,0.6-0.7,0.5c-0.4-0.1-0.6-0.3-0.5-0.7c0-0.2,0-0.5,0.1-1c0.1-0.5,0.1-0.8,0.1-1.1c0-0.3,0.1-0.6,0.2-1
		c0.1-0.4,0.2-0.7,0.4-1.1c0.2-0.3,0.5-0.4,0.8-0.2c0.3,0.2,0.4,0.5,0.2,0.8c-0.2,0.3-0.3,0.6-0.4,1c-0.1,0.3-0.1,0.8-0.2,1.5
		C235.3,114.5,235.3,114.9,235.3,115.2z"/>
</g>
<g id="XMLID_2_">
	<path id="XMLID_218_" class="st1" d="M-437.4,2.2c0,0,4.4,2.2,12.4,5.2c8,3,19.6,6.8,34,9.7c7.2,1.5,15,2.6,23.3,3.3
		c4.2,0.3,8.5,0.6,12.8,0.6c4.4,0,8.9,0,13.4-0.4c4.5-0.3,9.1-0.8,13.8-1.6c4.6-0.7,9.3-1.7,13.9-2.9c4.6-1.2,9.2-2.8,13.7-4.4
		c2.2-0.9,4.5-1.8,6.7-2.8c1.1-0.5,2.2-1,3.3-1.5l3.2-1.7c8.6-4.5,16.5-10.1,23.7-16.3c7.2-6.2,13.6-13.1,19.2-20.2
		c5.7-7.1,10.6-14.4,14.8-21.5c1.1-1.8,2-3.6,3-5.4c0.5-0.9,1-1.8,1.5-2.6c0.5-0.9,0.9-1.8,1.4-2.6c0.9-1.7,1.8-3.4,2.6-5.2
		c0.8-1.7,1.6-3.4,2.4-5c0.8-1.6,1.5-3.3,2.2-4.9c0.7-1.6,1.4-3.2,2.1-4.7c1.2-3.1,2.4-6,3.5-8.8c1-2.8,2-5.4,2.9-7.8
		c0.8-2.4,1.6-4.7,2.3-6.7c1.4-4,2.3-7.3,3-9.5c0.7-2.2,1.1-3.4,1.1-3.4l0.4,0.1c0,0-0.3,1.2-0.8,3.4c-0.3,1.1-0.6,2.5-1,4.1
		c-0.4,1.6-0.8,3.5-1.4,5.6c-0.6,2.1-1.1,4.4-1.9,6.9c-0.8,2.5-1.6,5.1-2.5,8c-1,2.8-2,5.8-3.1,9c-1.2,3.1-2.4,6.5-3.9,9.9
		c-2.8,6.8-6.3,14-10.5,21.5c-1.1,1.8-2.1,3.7-3.2,5.6c-1.2,1.8-2.4,3.7-3.6,5.6c-1.2,1.9-2.6,3.7-3.9,5.6c-1.3,1.9-2.8,3.6-4.2,5.5
		c-5.8,7.2-12.5,14.3-20,20.5c-7.5,6.2-15.8,11.8-24.7,16.2l-3.3,1.6c-1.1,0.5-2.3,1-3.4,1.5c-2.2,1-4.6,1.9-6.9,2.8
		c-4.6,1.7-9.3,3.2-14,4.3c-4.7,1.2-9.5,2.1-14.2,2.8c-4.7,0.7-9.4,1.1-14,1.4c-9.2,0.5-18.2,0.2-26.6-0.7
		c-8.4-0.9-16.3-2.2-23.5-3.9c-14.4-3.2-26-7.3-33.9-10.4c-8-3.2-12.3-5.4-12.3-5.4L-437.4,2.2z"/>
</g>
<g id="XMLID_1_">
	<g id="XMLID_222_">
		<path id="XMLID_209_" class="st1" d="M-289.9-42.5c18.9-16.3,34.5-36,46.1-58.1c-0.9-0.1-1.8-0.2-2.7-0.4c1,3.2,0,6.3-0.2,9.5
			c-0.1,2.5,0.1,5,0.5,7.4c1,6,3.3,11.8,5.2,17.6c4.2,12.4,8.3,24.8,12.5,37.2c0.6,1.8,3.4,1.1,2.9-0.8c-2.1-8-8.3-15.4-16.7-17.2
			c-6.7-1.4-14.2,1-16.6,7.8c1,0,1.9,0,2.9,0c-1.5-6.4-6.7-11.5-13.2-12.9c-8.8-1.9-14.7,5.1-22.7,7.1c-1.9,0.5-1.1,3.4,0.8,2.9
			c6.2-1.5,11.2-6.9,17.6-7.3c6.9-0.5,13,4.5,14.6,11c0.4,1.5,2.4,1.3,2.9,0c2.3-6.4,10.7-7.1,16.2-4.6c5.8,2.6,9.8,7.9,11.4,14
			c1-0.3,1.9-0.5,2.9-0.8c-4.2-12.4-8.3-24.8-12.5-37.2c-1.8-5.5-4-11-5.1-16.7c-1.1-5.9,1.2-12.1-0.5-17.8
			c-0.4-1.2-2.1-1.5-2.7-0.4c-11.5,21.9-26.9,41.3-45.6,57.5C-293.5-43.4-291.3-41.3-289.9-42.5L-289.9-42.5z"/>
	</g>
</g>
</svg>
