<?xml version="1.0" encoding="utf-8"?>
<!-- Generator: Adobe Illustrator 19.0.0, SVG Export Plug-In . SVG Version: 6.00 Build 0)  -->
<svg version="1.1" id="Layer_1" xmlns="http://www.w3.org/2000/svg" xmlns:xlink="http://www.w3.org/1999/xlink" x="0px" y="0px"
	 viewBox="0 0 649.2 147" style="enable-background:new 0 0 649.2 147;" xml:space="preserve">
<style type="text/css">
	.st0{fill:#FFFFFF;}
	.st1{fill:none;stroke:#FFFFFF;stroke-width:6;stroke-miterlimit:10;}
	.st2{fill:#FACB03;}
	.st3{fill:#020202;}
	.st4{fill:#010102;}
	.st5{fill:#020102;}
	.st6{fill:#050203;}
</style>
<g id="XMLID_2_">
	<g id="XMLID_12_">
		<path id="XMLID_650_" class="st0" d="M352.6,32.1c0,0-0.8,0.7-2.3,2c-0.8,0.6-1.6,1.5-2.5,2.5c-0.5,0.5-1,1.1-1.5,1.7
			c-0.5,0.6-1.1,1.2-1.6,1.9c-2.2,2.8-4.6,6.5-6.6,10.9c-0.5,1.1-0.9,2.3-1.4,3.5c-0.4,1.2-0.8,2.5-1.2,3.8c-0.3,1.3-0.8,2.6-1.2,4
			c-0.4,1.4-0.7,2.8-0.9,4.2c-0.6,2.9-0.7,6-0.7,9.1c0.1,1.6,0.1,3.2,0.4,4.8l0.2,1.2l0.1,0.6l0,0.2c-0.1-0.3,0,0,0-0.1l0,0.1
			l0.1,0.3c0.2,0.9,0.4,1.7,0.6,2.6l0.3,1.3l0.2,0.7l0.2,0.6c0.3,0.8,0.5,1.6,0.8,2.4c0.4,1.6,1.3,3.2,2,4.8
			c0.2,0.4,0.3,0.8,0.6,1.2l0.7,1.2c0.5,0.8,0.9,1.6,1.4,2.3c0.5,0.8,1,1.5,1.6,2.2c0.5,0.7,1,1.5,1.6,2.2
			c4.7,5.7,10.8,10.5,17.9,13.7c7.1,3.1,15,4.6,22.9,4.2c0.5,0,1,0,1.5-0.1l1.5-0.2l1.5-0.2l0.7-0.1l0.4,0l0.1,0c-0.3,0.1,0,0-0.1,0
			l0.2,0l3.1-0.7l1.5-0.3c0.5-0.1,0.9-0.3,1.4-0.4c1.8-0.6,3.6-1.1,5.4-2c0.9-0.4,1.8-0.8,2.7-1.2l2.5-1.4l1.3-0.7
			c0.4-0.3,0.8-0.5,1.2-0.8c0.8-0.6,1.6-1.1,2.4-1.7c0.8-0.5,1.5-1.2,2.2-1.8c0.7-0.6,1.5-1.2,2.1-1.9c0.7-0.7,1.3-1.4,2-2
			c0.3-0.3,0.7-0.7,1-1l0.9-1.1c0.6-0.7,1.2-1.5,1.7-2.2c0.6-0.7,1-1.5,1.5-2.3c4-6.2,6.5-13.1,7.3-19.8c0.1-0.8,0.1-1.7,0.2-2.5
			c0-0.8,0.2-1.6,0.1-2.5c0-0.8,0-1.6,0-2.4c0-0.8,0-1.6-0.1-2.4c-0.1-0.8-0.2-1.6-0.3-2.3c0-0.4-0.1-0.8-0.1-1.2l-0.1-0.6l0-0.1
			c0-0.1,0,0.1,0,0l0-0.2l-0.1-0.3c-0.2-0.8-0.3-1.6-0.5-2.4c-0.2-0.7-0.4-1.4-0.6-2.1c-0.2-0.7-0.4-1.4-0.6-2.1
			c-0.2-0.7-0.4-1.4-0.7-2c-0.3-0.6-0.6-1.3-0.8-1.9c-0.3-0.6-0.5-1.3-0.8-1.9c-1-2.5-2.1-4.9-3.4-6.9c-2.5-4.2-5.2-7.6-7.8-10.1
			c-2.5-2.5-4.8-4.3-6.4-5.5c-1.6-1.1-2.5-1.7-2.5-1.7s1,0.4,2.8,1.2c1.8,0.9,4.4,2.1,7.5,4.3c3.1,2.1,6.6,5.1,10,9.2
			c1.7,2,3.4,4.4,4.9,7c0.4,0.7,0.8,1.3,1.1,2c0.3,0.7,0.6,1.5,0.8,2.2c0.3,0.7,0.5,1.5,0.8,2.3c0.3,0.8,0.5,1.5,0.7,2.4
			c0.2,0.8,0.5,1.7,0.7,2.5c0.2,0.8,0.3,1.6,0.5,2.4l0.1,0.3l0,0.2c0,0,0,0.2,0,0.2l0,0.1l0.1,0.6c0.1,0.4,0.1,0.9,0.2,1.3
			c0.1,0.9,0.2,1.8,0.3,2.6c0.1,0.9,0.1,1.8,0.1,2.7c0,0.9,0,1.8,0,2.8c0.1,0.9-0.1,1.9-0.2,2.8c-0.1,0.9-0.2,1.9-0.2,2.8
			c-0.9,7.6-3.7,15.3-8.2,22.3c-0.6,0.9-1.1,1.8-1.7,2.6c-0.6,0.8-1.3,1.6-2,2.5l-1,1.2c-0.4,0.4-0.7,0.8-1.1,1.2
			c-0.7,0.8-1.5,1.5-2.2,2.3c-0.7,0.8-1.6,1.4-2.4,2.1c-0.8,0.7-1.6,1.4-2.5,2.1c-0.9,0.6-1.8,1.2-2.7,1.9c-0.4,0.3-0.9,0.6-1.3,0.9
			l-1.4,0.8c-0.9,0.5-1.9,1.1-2.8,1.6c-1,0.5-2,0.9-3,1.4c-1,0.4-2,0.9-3.1,1.3l-3.2,1.1c-0.5,0.2-1.1,0.4-1.6,0.5l-1.5,0.3
			l-3.1,0.7l-0.2,0l-0.2,0l-0.1,0l-0.4,0l-0.8,0.1l-1.6,0.2l-1.6,0.2c-0.5,0.1-1.1,0.1-1.6,0.1c-8.8,0.5-17.7-1.2-25.7-4.7
			c-7.9-3.6-14.8-9-20.1-15.4c-0.7-0.8-1.2-1.7-1.8-2.5c-0.6-0.8-1.2-1.6-1.8-2.5c-0.5-0.9-1-1.8-1.5-2.6l-0.8-1.3
			c-0.2-0.4-0.4-0.9-0.6-1.4c-0.8-1.8-1.7-3.6-2.3-5.5c-0.3-1-0.6-1.9-0.9-2.8l-0.2-0.7l-0.2-0.7l-0.3-1.3c-0.2-0.9-0.4-1.7-0.6-2.6
			l-0.1-0.3l-0.1-0.3l0-0.2l-0.1-0.7c-0.1-0.5-0.1-0.9-0.2-1.4c-0.3-1.8-0.3-3.6-0.5-5.4c0-3.6,0.1-7.1,0.7-10.3
			c0.2-1.6,0.7-3.2,1-4.8c0.1-0.8,0.4-1.5,0.6-2.3c0.2-0.7,0.5-1.5,0.8-2.2c0.7-1.4,1.3-2.7,2-3.9c0.7-1.2,1.4-2.4,2.2-3.5
			c3-4.5,6.1-7.8,9-10.3c2.8-2.5,5.3-4.1,7-5.1C351.7,32.6,352.6,32.1,352.6,32.1z"/>
	</g>
	<g id="XMLID_15_">
		<path id="XMLID_649_" class="st1" d="M334.2,44.9c0.2-0.2,0.2-0.3,0.3-0.4c-0.1,0-1.1-0.5-1.3-1.6c-0.1-0.5,0-0.9,0.1-1.1
			c0.9-1.2,1.9-2.4,2.9-3.6c3.6-4.4,7.3-7.8,9.9-10.1c2.8-2.3,0.6-0.6,7.9-5.9c0.7-0.5,2.1-1.5,4.2-2.5c1.6-0.8,2.8-1.2,4.2-1.7
			c3.2-1.1,4.8-1.6,6-1.2c0.6,0.2,0.8,0.7,1,1c-0.5,0.4-1.1,0.9-1.5,1.4c-13.7,9.6-24,19.2-31.1,28.8
			C336,46.9,335.1,45.9,334.2,44.9z"/>
	</g>
</g>
<g id="XMLID_13_">
	<path id="XMLID_598_" class="st0" d="M441.7,36.3c0,0-0.9-1.1-2.5-3.2c-0.4-0.5-0.9-1.1-1.4-1.7c-0.5-0.6-1.1-1.3-1.8-2
		c-0.6-0.7-1.4-1.4-2.2-2.2c-0.8-0.8-1.6-1.6-2.5-2.4c-0.9-0.8-1.9-1.6-2.9-2.5c-1.1-0.8-2.2-1.6-3.4-2.5c-2.4-1.7-5.1-3.4-8-4.9
		c-0.7-0.4-1.5-0.8-2.3-1.1c-0.8-0.4-1.6-0.7-2.4-1.1c-1.6-0.7-3.4-1.3-5.1-1.9c-0.9-0.3-1.8-0.5-2.7-0.9c-0.9-0.3-1.8-0.7-2.7-1
		c-0.9-0.3-1.9-0.6-2.8-0.8c-1-0.3-2-0.4-3-0.7c-4-0.9-8.2-1.2-12.6-1.4c-2.2,0.1-4.4,0-6.7,0.3c-0.6,0.1-1.1,0.1-1.7,0.2l-0.9,0.1
		l-0.1,0c-0.1,0,0,0,0,0l-0.2,0l-0.4,0.1c-0.6,0.1-1.2,0.2-1.8,0.3c-0.6,0.1-1.2,0.2-1.7,0.3c-9,1.8-18.4,5.8-26.5,11.9
		c-4.1,3.1-7.8,6.7-11.2,10.7c-3.3,4.1-6.3,8.5-8.6,13.3c-2.4,4.8-4.2,9.9-5.4,15.2c-1.2,5.3-1.7,10.8-1.6,16.2
		c0,1.4,0.1,2.7,0.2,4.1c0,0.7,0.1,1.4,0.2,2l0.1,1l0.1,0.5l0,0.1c0-0.1,0,0,0,0.1l0,0.3l0.3,2.1l0.2,1.1l0.2,1
		c0.3,1.3,0.5,2.6,0.9,3.9c1.4,5.2,3.3,10.3,5.9,15c5.1,9.5,12.4,17.4,20.7,23.3c8.4,5.8,17.8,9.5,27,11c4.6,0.7,9.2,1,13.6,0.8
		c1.1-0.1,2.2-0.1,3.3-0.2c0.5-0.1,1.1-0.1,1.6-0.2l0.8-0.1l0.1,0c0.1,0,0,0,0,0l0.2,0l0.4-0.1c1.1-0.2,2.2-0.4,3.3-0.5
		c1-0.2,2-0.5,3-0.7c1-0.2,1.9-0.5,2.9-0.8c1-0.3,1.9-0.5,2.8-0.9c0.9-0.4,1.8-0.7,2.7-1c0.9-0.4,1.8-0.7,2.6-1
		c3.5-1.3,6.7-2.8,9.6-4.5c5.8-3.3,10.5-7.1,14-10.5c3.5-3.4,5.9-6.5,7.6-8.6c1.5-2.2,2.4-3.3,2.4-3.3s-0.6,1.3-1.9,3.7
		c-1.3,2.3-3.3,5.8-6.4,9.8c-3.1,4-7.4,8.5-13.2,12.8c-2.9,2.2-6.1,4.2-9.7,6.1c-0.9,0.5-1.8,0.9-2.8,1.3c-1,0.4-2,0.7-3,1
		c-1,0.4-2,0.6-3.1,0.9c-1,0.3-2.1,0.6-3.2,0.9c-1.1,0.2-2.2,0.5-3.3,0.8c-1.1,0.2-2.2,0.4-3.3,0.5c-2.4,0.3-4.7,0.6-7.1,0.7
		c-4.8,0.2-9.8,0-14.8-0.8c-10.1-1.6-20.3-5.6-29.5-12c-9.1-6.4-17.1-15.1-22.6-25.4c-2.8-5.1-4.9-10.7-6.4-16.4
		c-0.4-1.4-0.7-2.9-1-4.4l-0.2-1.1l-0.2-1.1l-0.3-2.1l0-0.3l0-0.2l0-0.1l-0.1-0.6l-0.1-1.1c-0.1-0.7-0.2-1.5-0.2-2.2
		c-0.1-1.5-0.2-3-0.2-4.4c-0.1-5.9,0.5-11.9,1.8-17.6c1.3-5.8,3.3-11.3,5.8-16.6c2.6-5.2,5.8-10.1,9.4-14.5
		c3.7-4.4,7.8-8.3,12.2-11.7c4.4-3.4,9.2-6.1,14.1-8.3c0.6-0.3,1.2-0.5,1.8-0.8c0.6-0.2,1.2-0.5,1.9-0.7c1.2-0.5,2.5-0.9,3.7-1.3
		c2.5-0.8,5-1.4,7.6-1.9c0.6-0.2,1.3-0.2,1.8-0.3c0.6-0.1,1.2-0.2,1.8-0.3l0.4-0.1l0.2,0l0.2,0l0.1,0l0.9-0.1
		c0.6-0.1,1.2-0.1,1.9-0.2c2.5-0.3,4.9-0.3,7.3-0.3c4.8,0.1,9.4,0.5,13.8,1.5c2.2,0.4,4.3,1,6.3,1.6c1,0.2,2,0.6,3,1
		c1,0.3,1.9,0.7,2.9,1.1c1.8,0.9,3.6,1.8,5.2,2.8c0.8,0.5,1.6,1,2.4,1.5c0.8,0.5,1.6,1,2.3,1.5c5.9,4.1,10.4,8.4,13.7,12.3
		c0.8,0.9,1.5,1.9,2.2,2.8c0.7,0.9,1.3,1.7,1.9,2.6c0.5,0.8,1,1.6,1.5,2.3c0.5,0.7,0.9,1.3,1.2,1.9C441,35.1,441.7,36.3,441.7,36.3z
		"/>
</g>
<g id="XMLID_10_">
	<path id="XMLID_654_" class="st0" d="M438.6,123.7c2-3.5,5.4-8.6,11-16.5c-0.5-0.4-0.9-0.7-1.4-1.1c-4.8,6-9.5,11.9-14.3,17.9
		c-0.4-0.3-0.7-0.6-1.1-0.8c4.7-6.1,9.3-12.1,14-18.2c-0.5-0.4-0.9-0.7-1.4-1.1c-4.8,6-9.5,11.9-14.3,17.9c-0.5-0.4-0.9-0.7-1.4-1.1
		c4.8-6,9.5-11.9,14.3-17.9c-0.5-0.4-0.9-0.7-1.4-1.1c-4.8,6-9.5,11.9-14.3,17.9c-0.5-0.4-0.9-0.7-1.4-1.1
		c4.5-6.1,9.1-12.1,13.6-18.2c-0.1-0.1-0.5-0.9-1.1-0.8c-0.2,0-0.3,0.1-0.6,0.4c-0.3,0.3-0.7,0.8-1.1,1.4
		c-5.5,6.7-9.6,11.4-13.1,14.9c-0.3,0.3-3.2,3.1-4.5,7.3c-0.8,2.6-0.5,4.1,0,5.2c0.2,0.4,0.5,0.8,0.7,1c1,0.2,2.1,0.7,2.9,1.4
		c0.5,0.4,1,0.9,1.3,1.5c0.4,0.3,0.9,0.6,1.6,0.7c1.1,0.2,1.9-0.2,2.8-0.7c3.2-1.7,5-3.5,5-3.5C437.1,126.5,438.5,124,438.6,123.7z"
		/>
	<path id="XMLID_651_" class="st0" d="M438.6,123.7c1.6-2.9,3.5-5.6,5.2-8.4c1.8-2.8,3.6-5.5,5.5-8.3l0.1,0.5l-1.4-1.1l0.5-0.1
		l-3.5,4.5c-1.2,1.5-2.4,3-3.6,4.5l-7.2,9l-0.3,0.4l-0.4-0.3l-1.1-0.8l-0.4-0.3l0.3-0.4l14-18.2l0.1,0.7l-1.4-1.1l0.7-0.1
		l-14.3,17.9l-0.3,0.4l-0.4-0.3l-1.4-1.1l-0.4-0.3l0.3-0.4l14.3-17.9l0.1,0.7l-1.4-1.1l0.7-0.1l-14.3,17.9l-0.3,0.4l-0.4-0.3
		l-1.4-1.1l-0.4-0.3l0.3-0.4l13.6-18.2l0,0.5c-0.1-0.2-0.3-0.5-0.5-0.5c0,0-0.1,0-0.1,0c0,0,0,0,0,0c0,0-0.1,0-0.2,0.1
		c-0.4,0.4-0.8,0.9-1.1,1.5l0,0l0,0c-3.7,4.5-7.4,9-11.5,13.3l-1.5,1.6c-0.5,0.5-1,1-1.4,1.6c-0.9,1.1-1.6,2.3-2.2,3.6
		c-0.3,0.6-0.6,1.3-0.8,2c-0.2,0.7-0.4,1.3-0.5,2c-0.2,1.4,0.1,2.8,1,3.7l-0.2-0.1c1.8,0.4,3.5,1.6,4.4,3.1l-0.1-0.1
		c0.3,0.2,0.6,0.4,0.9,0.5c0.3,0.1,0.7,0.2,1,0.2c0.7,0,1.4-0.2,2-0.5c1.3-0.6,2.5-1.4,3.7-2.3c0.6-0.4,1.2-0.9,1.7-1.4
		c0.5-0.5,1-1.1,1.5-1.6C437,126.1,437.9,125,438.6,123.7z M438.6,123.7c-0.7,1.3-1.6,2.5-2.5,3.6c-0.5,0.6-0.9,1.1-1.4,1.6
		c-0.5,0.5-1.1,1-1.6,1.5c-1.1,0.9-2.4,1.7-3.7,2.4c-0.6,0.3-1.4,0.6-2.2,0.6c-0.8,0-1.6-0.3-2.2-0.7l0,0l0,0
		c-1-1.4-2.5-2.4-4.1-2.7l-0.1,0l-0.1-0.1c-0.6-0.5-1-1.3-1.2-2c-0.2-0.8-0.3-1.6-0.2-2.3c0.1-0.8,0.2-1.5,0.5-2.2
		c0.2-0.7,0.5-1.4,0.8-2.1c0.6-1.4,1.4-2.6,2.4-3.8c0.5-0.6,1-1.2,1.5-1.7l1.5-1.6c4-4.2,7.8-8.7,11.5-13.2l0,0.1
		c0.4-0.6,0.8-1.1,1.3-1.6c0.1-0.1,0.3-0.3,0.6-0.4c0.1,0,0.3,0,0.5,0c0.1,0,0.3,0.1,0.4,0.2c0.4,0.3,0.6,0.6,0.8,0.9l0.2,0.3
		l-0.2,0.3l-13.6,18.2l-0.1-0.7l1.4,1.1l-0.7,0.1l14.3-17.9l0.3-0.4l0.4,0.3l1.4,1.1l0.4,0.3l-0.3,0.4L430.1,121l-0.1-0.7l1.4,1.1
		l-0.7,0.1l14.3-17.9l0.3-0.4l0.4,0.3l1.4,1.1l0.4,0.3l-0.3,0.4l-14,18.2l-0.1-0.7l1.1,0.8l-0.7,0.1l7.1-9c1.2-1.5,2.4-3,3.6-4.5
		l3.7-4.4l0.2-0.3l0.3,0.2l1.4,1.1l0.2,0.2l-0.2,0.2c-2,2.6-3.9,5.3-5.8,8C442.1,118.1,440.3,120.9,438.6,123.7z"/>
</g>
<path id="XMLID_94_" class="st2" d="M381.5,114c-22.3,0-40.6-18.3-40.5-40.6c0-22.3,18.3-40.6,40.6-40.5
	c22.4,0.1,40.6,18.3,40.5,40.6C422,95.8,403.8,114.1,381.5,114z"/>
<path id="XMLID_93_" class="st3" d="M367.1,71.8c0.1-1.2-0.1-2.1,0.2-2.9c0.3-1.1,0.7-2.3,1.8-2.8c1.8-0.9,2.9-2.4,3.8-4.1
	c0.6-1,1.3-1.7,2.6-1.5c1.1,0.1,2.1-0.4,3.1-0.9c1.1-0.5,2.1-0.7,3.3-0.3c0.6,0.3,1.2,0,1.8,0c0.4-0.1,0.7,0,0.8,0.5
	c0.1,0.5,0.3,1,0.4,1.5c0.1,1,0.7,1.4,1.5,1.6c1.7,0.4,3.3,0.7,4.9-0.2c0.2-0.1,0.5-0.1,0.7,0c0.8,0.4,1.7,0.6,2.6,0.8
	c3.4,0.6,5.3,2.9,6.2,6c0.6,2.1,1.6,3.9,3,5.6c0.2,0.3,0.5,0.6,0.7,0.9c0.6,1.3,1.5,1.9,3,1.3c0.4-0.2,0.7,0,0.5,0.5
	c-0.2,0.5-0.3,1-0.6,1.4c-1.1,1.4-2.1,2.8-3.3,4.1c-0.9,0.9-1.5,2.2-1.9,3.5c-0.2,0.7,0,1.5,0.2,2.3c0.4,1.5-0.2,2.6-1.2,3.5
	c-0.6,0.6-1.1,1.2-1.6,1.8c-0.8,0.9-1.2,1.8-0.9,2.9c0.1,0.4-0.1,0.7-0.5,1c-0.9,0.7-1.7,1.5-2.5,2.4c-1.2,1.4-3,1.9-4.8,2.2
	c-0.7,0.1-1.7,0.5-2.2,0.2c-0.5-0.3-0.1-1.4-0.2-2.1c-0.1-0.4-0.1-0.8-0.2-1.1c-0.6-1.4-1-3.1-2.1-4.3c-0.7-0.7-0.6-1.6-0.4-2.5
	c0.1-0.2,0.1-0.5,0.2-0.7c0.7-1.3,1-2.7,0.2-4.1c-0.1-0.2-0.1-0.4-0.1-0.6c0-1.1-0.4-1.9-1.4-2.5c-0.3-0.2-0.6-0.5-0.6-0.9
	c0.1-1.2-0.4-2.3-0.3-3.5c0-0.6-0.3-0.7-0.8-0.6c-0.4,0.1-0.9,0.3-1.3,0.4c-0.8,0.3-1.3,0-1.4-0.8c-0.1-0.8-0.6-0.8-1.1-0.6
	c-1.5,0.7-3,1.2-4.5,1.6c-0.7,0.2-1.3,0.1-1.9-0.4c-1.5-1.2-3.1-2.3-4.1-3.9C367.7,75,366.7,73.5,367.1,71.8z"/>
<path id="XMLID_92_" class="st3" d="M418.3,75.3c-0.4-1.1-0.7-2.3-1.3-3.4c-1.3-2.3-3.2-3.8-5.8-4.4c-0.7-0.2-1.2-0.6-1.7-0.9
	c-0.6-0.5-1.2-1-2.1-1.1c0.4,0.8,0.8,1.6,1.2,2.3c0.3,0.6,1.1,0.7,1.7,0.7c0.5,0,0.8,0.1,1,0.6c0.1,0.3,0.3,0.5,0.5,0.8
	c0.7,1.1,0.7,1.1-0.3,1.8c-1.2,0.8-2.3,1.7-3.6,2.4c-0.5,0.2-0.9,0.5-1.4,0.6c-1.2,0.2-1.7-0.1-1.9-1.3c-0.1-0.5-0.2-0.9-0.5-1.2
	c-1.8-2.7-3.7-5.5-5.6-8.3c1.3,0.1,1-0.8,0.8-1.5c-0.1-0.6,0-1.2,0-1.9c-0.5,0.3-1,0.6-1.5,0.9c-0.3,0.2-0.6,0.2-0.8-0.1
	c-0.7-0.9-1.4-1.7-1.9-2.7c-0.3-0.7-0.1-1.1,0.5-1.5c1.3-0.9,2.8-0.9,4.3-0.7c0.4,0,0.8,0.1,1.2,0.1c0.3,0,0.7,0.2,0.8-0.2
	c0.1-0.4,0.1-0.8-0.3-1.1c-0.7-0.5-1.5-0.9-2.4-1c0.1-0.5,0.7-0.7,0.9-1.2c-1.3-0.4-4,0.5-4.9,1.5c-0.3,0.4-0.3,0.8-0.2,1.2
	c0.1,0.6-0.2,0.9-0.7,1.1c-0.8,0.3-1.5,0.4-2.4,0.3c-0.5,0-1.1,0-1,0.8c-1-0.9-0.8-2.4-2.1-3c-1-0.5-2-1.1-3.1-1.8
	c-0.2,2.1,2,2.4,2.5,3.9c-0.3,0.2-0.7,0.1-1,0.2c-0.5,0.1-0.8,0-0.7-0.6c0-0.2,0.1-0.4-0.1-0.5c-0.8-0.1-1.2-0.8-1.7-1.3
	c-1-1-2.2-0.6-3.2-0.1c-1.5,0.7-2.9,1.6-3.7,3.2c-0.7,1.4-2,1.5-3.3,1.2c-1.9-0.4-1.9-0.4-1.9-2.3c0-0.7,0.1-1.3,0.2-2
	c0-0.4,0.3-0.4,0.5-0.4c0.7-0.2,1.5-0.3,2.2-0.4c0.6-0.1,1-0.4,1.3-0.8c0.3-0.4,0.7-0.8,0.2-1.4c-0.4-0.6,0-1.2,0.6-1.4
	c1.9-0.6,3.5-1.6,4.9-3c1-1,1.5-0.9,2.6,0c0.2,0.2,0.4,0.3,0.6,0.4c1.3,1,1.6,1,2.9,0c0.6-0.5,0.7-1.3,0.5-2c-0.2-0.5-0.4-1-0.7-1.5
	c-0.5,0.5-0.9,1.2-1.3,1.7c-0.2,0.3-0.2,0.8-0.7,0.6c-0.6-0.2-1.4,0-1.7-0.7c-0.1-0.1-0.1-0.3-0.2-0.4c-0.5-1.4-0.6-1.5-2.1-1.2
	c-0.7,0.1-0.8-0.1-0.6-0.6c0.4-1,1-1.6,2-1.9c1.3-0.4,2.5-0.9,3.8-1.3c0.7-0.2,1.4-0.3,2.2-0.1c1.8,0.4,3.6,0.1,5.3,0
	c1.1,0,2.1,0.1,2.5,1.4c0.3,0.9,1.8,1.2,2.5,0.7c0.5-0.3,0.9-0.3,1.3,0c9.8,6.7,15.4,15.9,16.6,27.8
	C418.5,71.9,418.5,73.6,418.3,75.3z"/>
<path id="XMLID_91_" class="st4" d="M345.6,81.8c1.7,1.6,4.1,2.1,5.7,4c0.5,0.6,1,1.2,1.3,2c0.6,1.9,2.1,2.7,3.8,3.2
	c1.1,0.3,1.9,1.1,2.8,1.7c0.5,0.3,0.5,1,0.3,1.6c-0.3,0.8-0.5,1.6-0.8,2.5c-0.3,0.8-0.4,1.6,0,2.3c0.3,0.5,0,0.8-0.4,1
	c-1.1,0.7-2,0.6-2.9-0.4c-4.8-4.8-8.1-10.4-9.8-17C345.6,82.5,345.5,82.2,345.6,81.8z"/>
<path id="XMLID_90_" d="M345.4,65.8c0.8-4.4,2.6-8.4,5-12.1c0.3-0.6,0.8-1.1,1.1-1.6c0.2,0,0.3,0,0.2,0.2c-0.1,0.6,0.1,1,0.3,1.5
	c0.7,1.5,0.7,2.4-0.8,3.3c-0.8,0.5-1.7,1-2.3,1.8c-0.2,0.2-0.4,0.5-0.5,0.8c0.4,0,0.7-0.5,1.3-0.3c-1.4,2.3-2.7,4.6-4.1,6.9
	C345.1,66.2,345.3,66,345.4,65.8z"/>
<path id="XMLID_89_" d="M368,39.1c-0.2,0.6-0.5,0.9-0.8,1c-2.1,0.9-3.3,2.7-4.7,4.2c-1,1.1-1.9,2.3-3.3,2.9c-0.4,0.2-0.8,0.2-1.2,0
	c-0.3-0.2-0.6-0.3-1-0.2c-0.2,0-0.4,0.1-0.6-0.1c-0.1-0.2,0-0.5,0.2-0.6c0.3-0.3,0.6-0.5,0.9-0.8C360.5,42.8,364,40.7,368,39.1z"/>
<path id="XMLID_88_" class="st3" d="M407.2,89.2c0.3,1.1,0,2-0.1,2.9c-0.4,2-1.1,3.8-2.8,5c-0.7,0.5-0.9,0.4-1.1-0.4
	c-0.1-0.4,0-0.9,0.2-1.3c0.4-0.9,0.8-1.8,0.9-2.8c0-0.4,0.4-0.7,0.7-0.9c1-0.4,1.5-1.2,1.9-2.1C406.9,89.5,407.1,89.4,407.2,89.2z"
	/>
<path id="XMLID_87_" class="st4" d="M374.5,47.9c0-0.6,0-1.2,0-1.9c0-0.3,0.1-0.5,0.4-0.7c0.6-0.4,1.1-0.5,1.5,0.3
	c0.4,0.8,1.2,1.5,1.8,2.2c0.3,0.3,0.2,0.5-0.1,0.7c-1,0.8-2.2,0.7-3.3,1c-0.3,0.1-0.3-0.2-0.3-0.3c0-0.3,0-0.6,0-0.9
	C374.4,48.1,374.4,48,374.5,47.9z"/>
<path id="XMLID_86_" d="M374.5,47.9c0,0.1,0,0.3,0,0.4c-0.6,0.2-0.8,0.9-1.4,1.2c-0.2-0.3-0.6-0.5-0.4-1c0.2-0.9,0.4-1,1.3-0.7
	C374.2,47.9,374.3,47.9,374.5,47.9z"/>
<path id="XMLID_85_" class="st3" d="M345.4,65.8c0.1,0.2,0,0.4,0.2,0.5c-0.2,0.5,0,1-0.3,1.5c-0.2-0.1,0-0.4-0.2-0.6
	C345.1,66.7,345.1,66.2,345.4,65.8z"/>
<path id="XMLID_84_" d="M344.7,69.7c0-0.3,0-0.5,0.1-0.8c0.2,0.1,0.1,0.3,0.2,0.4c0,0.6,0.2,1.1-0.1,1.7
	C344.6,70.6,344.9,70.1,344.7,69.7z"/>
<path id="XMLID_81_" class="st5" d="M345,69.4c-0.1-0.1-0.1-0.3-0.2-0.4c0-0.4,0-0.8,0.2-1.2c0.2,0.1,0,0.4,0.2,0.6
	C345.1,68.6,345,69,345,69.4z"/>
<path id="XMLID_80_" d="M344.5,68.8c0.2,0.6,0,1.3,0.1,2c0,0.3,0,0.6-0.1,0.9c-0.4-0.3-0.1-0.9-0.1-1.4
	C344.5,69.8,344.5,69.3,344.5,68.8z"/>
<path id="XMLID_79_" d="M344.6,70.7c0.1,0.3-0.1,0.7,0.2,0.9c-0.1,0.2-0.1,0.4-0.2,0.6C344.5,71.7,344.4,71.2,344.6,70.7z"/>
<path id="XMLID_78_" class="st6" d="M345.2,69.3c-0.2-0.1-0.1-0.4-0.2-0.6c0-0.2,0-0.3,0-0.5c0.2,0.1,0.1,0.4,0.2,0.6
	C345.2,69,345.2,69.1,345.2,69.3z"/>
<path id="XMLID_77_" class="st5" d="M351.7,52.3c-0.1-0.1-0.1-0.2-0.2-0.2c0.1-0.2,0.2-0.5,0.4-0.3C352,51.9,351.8,52.1,351.7,52.3z
	"/>
<g id="XMLID_5_">
	<path id="XMLID_6_" class="st0" d="M67,39.1C65.9,43,65,46,64,48.8c-1,3.1-1,6-2,8.9c-1,2-1.8,4.8-1.8,6.8c-1.9,3.8-3,7.7-4,11.8
		c-1,3.8-1.9,8.6-1,12.6c0,3-1,5.8-1,7.9c0,5.6,0,10.6,0,15.2c0,1,0,2,0,3c-1,1.2-1.9,3.1-3.8,3.1c-3,0.8-4.9,0-5.9-4.1
		c0-1.1,0-2,0-3.7c0-1,0-2,0-3.8c0-2,0-4.9-1.1-7.1c0-1,0-1,0-1c1.1-1.7,0-3.8,1.1-5.8c0-1.8,0-3.8-1.1-4.9c0-2.9,0-5.6,0-8.8
		c0-1,0-1.8-1-2.8c-1.8-4.9-2.8-9.7-3.8-14.6c0-1.2-0.8-1.9-0.8-3.1c-1.9-4.9-3-8.6-4-13.6v-1.1c-1-1-0.6-3.8-1.7-4.9
		c0-1.2-0.1-1.6-0.2-1.9c-1.3-4.6-3.4-10.2-6.1-15.5c0,0-0.1,0-0.1-0.1c-1.1-3.1-2.6-4.6-2.9-4.8c-2-1.9-4.1-2.9-6.6-3.1
		c-0.2,0-0.5,0-0.7,0c-1.2,0.1-4.3,1.4-5,1.4c-0.8,0.7-0.8,0.7-0.8,0.7c-0.6,2-1.9,2.2-3.8,2.9c0,0-0.8,0.7-1.6,0
		c-1.6-1.4-3.5-2-4.2-4.2c0-1.4,0-3,0.6-3.6c0.8-0.7,1.6-1.6,2-1.9c0.8-0.7,2.2-2.2,3.7-2.2c1.9-1.9,4.8-2.6,7.4-3h0.1
		c0.1,0,0.2,0,0.2,0c0.8-0.1,1.7-0.1,2.4-0.1c3.5,0,5.9,0.6,8.3,1.6c3.5,1.4,6.6,4.1,8.4,7.3c0.2,0.4,0.4,0.8,0.6,1.2
		c0.4,0.8,0.8,1.6,1.4,2.6c1.9,4.6,4.8,13.1,6.5,18.6c0.4,0.4,0.6,0.8,0.7,1.3c1,4.8,3,9.7,3,15.7c1,2.9,1.9,5.8,1.9,8.5
		c1,0,1,0,1,0c0,1.2,0,2,1.1,2c1,0,1-0.8,1-2c1-1.9,1.9-3.7,1.9-5.6c0-2.9,1-6,1.9-8.9c1-2,1.9-4.9,1.9-7.7c1-4.1,3-5.8,6.8-5.8h1
		c1.9-1.2,3,0,3,0.8C67.8,36.2,67.8,36.2,67,39.1z M5.5,10.6l-0.1-0.4l-0.6,0.6C5,10.6,5.3,10.6,5.5,10.6z M6.4,15l-0.8-0.7
		C4.8,15,6.4,15,6.4,15z M11.4,10.2c-1,0.5-1,0.5-1.4-0.2l0.5,0.7C9.6,11,9.6,11,9.6,11s0,0,0.1,0.4c0.1,0.1,0.1,0.4,0.2,0.5
		l0.5-1.1v-0.1C10.4,10.7,10.4,10.7,11.4,10.2z M16.2,8.6c-0.7-1.6-0.7-1.6-1.4-1.1l-0.8,0.4c0.5,0.7,0.5,0.7,1.2,0.5
		C15.1,8.4,15.8,7.9,16.2,8.6z M25.6,9.7c-0.6,0.4-0.6,0.4-0.2,1C26,10.3,26,10.3,25.6,9.7z M27.1,16.3c-0.1-0.4-0.2-0.5-0.4-0.5
		c-0.1,0.1-0.4,0.5-0.4,0.7c0.1,0,0.2,0,0.4,0C26.9,16.3,27,16.3,27.1,16.3z M27.5,11.3l-0.4-0.6l-0.4,1.1
		C27.5,11.3,27.5,11.3,27.5,11.3z M31.3,21.7l-1.2-1.1c-0.7,1.1,0,1.1,0,1.1c0,1,1.2,1,1.2,1C31.3,21.7,31.3,21.7,31.3,21.7z
		 M30,17.4c0.2,0.4,0.8,0.4,0.8,0.4H31C30.6,17.5,30.2,17.4,30,17.4z M33.1,25.8c0-1,0-1-1.2-1C33.1,24.8,33.1,25.8,33.1,25.8z
		 M33.7,30.1c0,0,0-1.1-1.2-1.1C32.5,30.1,33.7,30.1,33.7,30.1z M33.7,28.2c0,0,0-1.1-1.1-1.2c0,0,0,0,0,1.2H33.7z M34.8,29
		c0,0,0.8,0,0.8-0.8c-0.8,0-0.8,0-0.8,0s0,0,0-1.1c0,1.1-1,1.1-1.1,1.1h1.1C34.8,29,34.8,29,34.8,29l0.8,1.2
		C35.6,29,35.6,29,34.8,29z M36,31.3h-0.1l0.1,0.1C36,31.3,36,31.3,36,31.3z M38.6,37.4c0,0,0,0,0-1.2c0,0,0,0-0.8,0
		C37.8,37.4,37.8,37.4,38.6,37.4z M39.7,52c-1.1,0-1.1,0-1.1,1C39.7,52.9,39.7,52.9,39.7,52z M41.5,47c0,0,0-1.1-0.8-1.1
		c0,1.1,0,1.1,0,2c0,0,0,0,0.8,0V47z M41.5,57.7c-0.8-1-0.8,0-0.8,0S40.7,57.7,41.5,57.7z M44.5,59.8c0,0,0,0.1-0.1,0.2
		C44.5,60,44.5,60,44.5,59.8z M45.5,68.4c0,1,0,1,0,1.8c1,0,1,0,1,0C46.4,69.4,46.4,68.4,45.5,68.4c0,0,0,0-0.4-0.5
		C45,68.4,45.5,68.4,45.5,68.4z M46.4,78.1c1-0.8,1-0.8,1-0.8c0-1-1,0-1,0S45.5,78.1,46.4,78.1z M46.4,72.2c0,0,0,0,0,1.1h1
		c0-1.1,0-1.1,0-1.1S46.4,71.4,46.4,72.2z M47.4,91c1,1,1,1,2,1c0-1-1.1-1-1.1-1H47.4z M47.4,92.8v1C47.4,93.7,48.4,92.8,47.4,92.8z
		 M51.4,103.4c0-1-1,0-1-1c-1-0.8-2,0-3-0.8c0,0.8,0,0.8,0,1.8c1-1,2,0,3-1C50.4,103.4,50.4,103.4,51.4,103.4z M49.4,75.4
		c1,0,1-1.1,1-1.1c-1,0-1,0-1,0S48.4,75.4,49.4,75.4z M51.4,82.9c0,0-1-0.7-1.9-0.7v0.7C50.4,83.9,50.4,83.9,51.4,82.9z M49.4,100.6
		c0,0,0,0,0,1.1c0,0,0,0,1,0C49.4,100.6,49.4,100.6,49.4,100.6z M51.4,106.6c0,0,0,0-1,0v0.8c1,0,1,0,1,0
		C51.4,106.6,51.4,106.6,51.4,106.6z M53.3,74.3c-1,0-1,0-1,0s0,0,0,1.1C52.3,74.3,53.3,74.3,53.3,74.3z M56.2,58.6c-1,0-1,0-1,0
		c0,1.2,0,1.2,0,1.9c1-0.7,1-0.7,1-0.7C57.1,59.8,57.1,58.6,56.2,58.6z M58.2,58.6c0-0.8,0-0.8-1.1-1.8h-1l1,1
		C57.1,57.7,57.1,58.6,58.2,58.6z M61,48.8h-0.8c0,0-1,0-1,1.1c0,0,0,0-1,1c1,1.1,1,0,1,0c0-1,0-1,0-1C60.1,49.9,60.1,49.9,61,48.8z
		 M59.2,42.2l1-1.2h-1V42.2z M60.1,52.9c-1,0-1,0-1,0.7C59.2,53.6,60.1,53.6,60.1,52.9z"/>
	<path id="XMLID_55_" class="st0" d="M142.4,13c-0.7,2-2.8,2.8-4.1,4.1c-1,0.7-1.7,0-1.7,0c-1.9-0.7-3.5-0.7-4.1-2.8
		c0,0,0,0-0.7-0.7c-0.7,0-3.7-1.3-5-1.4c-0.2,0-0.5,0-0.7,0c-2.6,0.2-4.6,1.1-6.7,2.9c-0.2,0.4-1.8,1.9-3,5c0,0,0,0-0.1,0
		c-0.8,3.7-1.3,7.6-1.7,11.4c0.1,1.6,0.1,3.7,0.1,4.3c0,1.9,0.2,4.7,0.2,6.5c0,1.2,0,2.3,0,3.2c0,0,0,2,0,3.1c0,2,0,4,0,6.1
		c-1.1,0.8-1.1,2.8,0,4.8c0,2,0,4.9,0,7.2c0,2.9,0,4.9,0,6.8c0,2,0,6.1,0,9.1c0,1,0,2,0,3.1c0,6,0,13.1-1.1,17.9c0,1.2,0,2.2,0,2.2
		c-4.1,5-5.9,10.1-12,10.9c-4.1,2.2-8.2,2.2-12.1-0.8c-1-1-2-2.2-3.1-2.2c-4-2.9-4.8-7-6-10.9c-1-3.1-1-7.1,0-10.1c0-1,0-1,0-2.2
		c-1-0.8-1-1.8,0-2.9c0-1.1,0-1.1,0-1.1c-1-1.9-1-3,0-5c0,0,1.2-1,0-1.9c0-1-1-2.2-1-3c0-3.1,0-6,1-9.1c0-0.8,0-2,0-2
		c0-1.9,0-4-1-6.8c0,0,0,0,0-1.2c1-4,0-6.8,0-11.3c0-0.7,1-0.7,1-0.7c-1-2,0-6,0-9c0-4,2-5,5.2-5c0.8,0,0.8,0,1.9,0
		c2,1.1,2.9,1.8,2.9,4.1c0,1.9,0,4,0,6c0,1.9,0,4,1.2,4.7c0,2.4-1.2,4.4-1.2,6.4c1.2,4,0,7,0,10.1c0,4.1,1.2,8,0,12.1
		c0,0,0,0.8,0,1.9c1.2,3,0,7,0,11c0,2.9,0,6,0,9c0,2.2,1.2,4,1.2,6.1c0,0,0,0,1,0.8c1,0,3,1.2,5,2.2c1.1,0,1.1,0,1.1,0
		c0.8-1,1.8-2.2,3-2.2c0,0,1,0,1-0.8c1.1-3.1,1.1-7.1,1.1-10.1c0-1,0-1,0-2.2c0-13.1,0-25.1,0-38c0-1,0.8-1.9,0-3.1
		c0-0.8,0-1.9,0-3.2c0-2.8,0-6.7,0-9.7c0-0.6,0-1.2,0.2-1.8c0.1-3.5,0.1-6.8,0.2-9.1c0.4-5.4,2.3-11,3.2-13.4
		c0.1-0.1,0.4-0.5,0.4-0.6c0.2-0.4,0.4-0.5,0.4-0.5c1.6-3.2,5.4-6.1,9-7.4c2.4-1,4.9-1.6,8.3-1.6c0.8,0,1.6,0,2.5,0.1
		c0,0,0.1,0,0.2,0c0,0,0,0,0.1,0c2.6,0.5,5.8,1.1,7.6,2.9c1.6,0,2.8,1.6,3.6,2.2c0.6,0.6,1.4,1.4,2,2C142.4,10,142.3,11.3,142.4,13z
		 M83.6,57.5c1.2,0,1.2,0,1.2-1c0,0,0,0-1.2,0C83.6,57.5,83.6,57.5,83.6,57.5z M83.6,72.7h1.2c0-1.1,0-1.1,0-1.1
		C83.6,71.6,83.6,72.7,83.6,72.7z M83.6,77.5c1.2,0,1.2,1.2,2.2,1.2C84.8,77.5,84.8,77.5,83.6,77.5z M84.8,94.7v-1
		C83.6,93.7,83.6,94.7,84.8,94.7z M84.8,70.7c1,0,1,0,1,0c0-1.1,0-1.1,0-1.1C85.8,70.7,85.8,70.7,84.8,70.7z M84.8,80.6c0,1,0,1,1,1
		C85.8,81.6,85.8,80.6,84.8,80.6z M85.8,97.8v-1.1h-1C84.8,97.8,84.8,97.8,85.8,97.8z M85.8,39.5c0.8,0,0.8,0,0.8-1.2c0,0,0,0-0.8,0
		C85.8,38.3,85.8,38.3,85.8,39.5z M86.6,103.7c0,0,0,0,0-0.8c-0.8,0-0.8,0-0.8,0.8H86.6z M86.6,98.9c0,0,0,0,0,0.8
		C86.6,99.7,87.7,99.7,86.6,98.9z M87.7,103.7c-1.1,0-1.1,0-1.1,1.2C86.6,104.9,86.6,103.7,87.7,103.7z M88.8,108.8c0-0.8,0,0-1.1,0
		C87.7,108.8,87.7,108.8,88.8,108.8z M90.6,105.8c0,0,0,0-0.8,0l0.8,1V105.8z M98.9,113.8c0,0,0-1-1.1-1c0,1-1.1,0-2,0
		c-0.8,0-3,0-3-1.9c0,0-1-1.1-1,0h1c-1,1.9,0,2.9,3,2.9v-1C96.7,113.8,97.8,113.8,98.9,113.8z M101.9,108.8c-1.2,0-1.2-0.8-1.2-0.8
		v-1.2c-1,0-1,0-1,1.2h1v0.8C100.7,108.8,100.7,108.8,101.9,108.8z M100.7,112c-1,0-1,0-1,0.8c0,0,0,0,1,0
		C100.7,112.8,100.7,112.8,100.7,112z M103.9,110.9c0,1.1-1.1,1.1,0,1.1C103.9,112,103.9,112,103.9,110.9z M106.4,22.2
		c0,0.6-0.1,1.3-0.1,1.6c0.1-0.1,0.1-0.5,0.2-0.7C106.6,22.8,106.6,22.6,106.4,22.2z M108,106.8c0,0-1.2,0-1.2,1.2
		C108,108,108,106.8,108,106.8z M106.9,44.4c0.2,0.2,0.4,0.5,0.6,0.7c0.1,0.1,0.1,0.1,0.5,0.4c0-1,0-1,0.7-1
		C108,44.5,108,43.6,106.9,44.4z M107.8,19.3c0.5-0.1,0.6-0.4,0.7-0.7c-0.2,0-0.7,0-1,0C107.5,19.1,107.5,19.6,107.8,19.3z
		 M108.7,36.5c-0.7,0-0.7,0-0.7,1c0,0,0,0,0.7,0V36.5z M109.8,48.6c0,0,0,0-1.1,0c0,0,0,0-0.7,0c0.7-1.1,0.7-1.1,0.7-2.4
		c0,0,0,0-0.7,0c0,1.3,0,1.3,0,2.4c0,0,0.7,0,0.7,0.8c0,0-0.7-0.8-0.7,0h0.7h1.1C110.9,49.4,110.9,48.6,109.8,48.6z M108.7,50.6H108
		c0,0.2,0,0.4,0.2,0.5C108.4,51,108.5,50.9,108.7,50.6z M108.7,91.8c0-1.2,0-1.2,0-2H108C108,90.6,108.7,90.6,108.7,91.8z
		 M108.7,61.6v-1.1C108.7,60.5,108,60.5,108.7,61.6z M109,25.6c0,0,1-0.4,0.6-1.3l-0.8,0.4C108,25.9,109,25.6,109,25.6z M108.7,55.6
		c0,0.5,0,0.6,0.1,0.8C109.2,56,109.6,55.6,108.7,55.6z M108.7,57.5c0,0,0,0,0,1.2h1.1v-1.2C108.7,57.5,108.7,57.5,108.7,57.5z
		 M108.7,83.6c0,0,0,0.2,0.1,0.6c0.4-0.6,1-0.6,1-0.6s0,0,0-1C109.8,83.6,109.8,83.6,108.7,83.6z M110.9,96.7c0-1-1.1-1-1.1-2v1.1
		c-1.1,0-1.1,0-1.1,1c0,0,0,0,1.1,0H110.9v1.1C112,97.8,110.9,96.7,110.9,96.7z M108.7,100.7c0,0,0,0,1.1-1c0,0,0,0,0-0.8
		c0,0.8,0,0.8-1.1,0.8V100.7z M109.8,104.9c-1.1,0-1.1-1.2-1.1-1.2s0,0,0,1.2H109.8z M109.8,29.5c0,0,0,0,0.4,0.7
		c0,0,1.2-0.2,0.6-1.2c0,0,1-0.2-0.2-1L109.8,29.5z M109.8,47.5c0,0,1.1-1.3,0-1.3C109.8,47.5,109.8,47.5,109.8,47.5z M109.8,55.6v1
		C109.8,56.5,110.9,56.5,109.8,55.6z M110.9,75.6c0,0,0,0,0-0.8c-1.1,0-1.1,0-1.1,0c0.1,0,0.4,0.1,0.4,0.2c0.2-0.2,0.7-0.2,0.7-0.2
		s0,0-0.5,0.4C110.9,75.6,110.9,75.6,110.9,75.6z M110.9,77.5c-1.1,0-1.1-0.8-1.1-0.8v0.8C110.9,77.5,110.9,77.5,110.9,77.5z
		 M110.9,79.7v-1c-1.1,0-1.1,0-1.1,1H110.9z M110.9,102.8c0,0-1.1-1-1.1,0c1.1,0,1.1,0.8,1.1,0.8
		C110.9,102.8,110.9,102.8,110.9,102.8z M111.7,19c0.1,0,0.2,0,0.5-0.1c-0.6,0-1,0-1.7,0C110.8,19,111.4,19,111.7,19z M113.3,16.1
		c0,0,0,0-0.7-0.4c0,0,0,0-1.2,0.5c0.6,0.5,0.6,0.5,0.6,0.5C112.8,17,112.8,17,113.3,16.1z M112.4,17.9l-0.5,0.8l0.4,0.1h0.1
		C112,18.7,112.2,18.6,112.4,17.9z M112.9,22.9c-0.2-0.8-1.1-0.6-0.7,0.2C112.9,22.9,112.9,22.9,112.9,22.9z M113.6,11.6
		c-0.8-0.6-0.8-0.6-0.8-0.6l0.5,1.3L113.6,11.6z M115.3,12.4c0,0,0,0,0.4-0.7c0,0-0.7-0.5-1.1,0.4L115.3,12.4z M114.7,9.8
		c0,0,0,0,0.7,0.4L115,9.1L114.7,9.8z M115.2,14.2c-0.5,0.8,0,0,0.4,1.4C116.2,14.6,115.2,14.2,115.2,14.2z M116.5,8
		c-0.2,0.8-0.2,0.8,0.4,1.2C117.4,8.6,117.4,8.6,116.5,8z M119.4,10.6c0,0,0,0-0.5,0.6C119.6,11.6,118.9,11.2,119.4,10.6z
		 M128.4,6.2L127.7,6c-1-0.4-1-0.4-1.6,1.1c0.4-0.8,1.1-0.4,1.1-0.4C127.9,7.1,127.9,7.1,128.4,6.2z M132.6,9.7c0,0,0,0-0.7-0.5
		l0.5-1c-0.5,1-0.5,1-1.6,0.5c1.1,0.5,1.1,0.5,1.1,0.5v0.1l0.4,1c0.1-0.1,0.2-0.4,0.2-0.4C132.6,9.7,132.6,9.7,132.6,9.7z
		 M136.8,12.7l-0.7,0.8C136.1,13.6,137.6,13.6,136.8,12.7z M137.6,9.4l-0.8-0.5l-0.1,0.2C137,9,137.3,9.1,137.6,9.4z"/>
	<path id="XMLID_127_" class="st0" d="M201,134c0,1.4,0,2.9-0.6,3.5c-0.8,0.8-1.4,1.4-2,2.2c-0.8,0.7-2.2,2.2-3.7,2.2
		c-1.8,1.8-4.8,2.4-7.4,2.9c-0.1,0-0.2,0-0.5,0c-0.7,0.1-1.7,0.2-2.5,0.2c-3.2-0.1-5.6-0.7-8-1.7c-3.6-1.3-7.4-4.3-9.1-7.4
		c0,0-0.1-0.1-0.2-0.4c-0.1-0.4-0.2-0.5-0.2-0.8c-1-2.2-3.1-7.8-3.4-13.2c0-1.6-0.1-3.7-0.1-6.1c-0.4-0.2-0.2-0.6-0.1-1
		c0-1.9,0-3.8-0.1-5.8c-0.6-0.7-0.6-0.8,0-1.4c0-0.7,0-1.4,0-2c-0.6-2.4-0.6-4.3-0.6-7l1-1c-1-5,0-9,0-12.7c-1-4.9,0-8.8,0-12.7
		c0-0.8,0-0.8,0-0.8c0-1-1-1-1-1h-1.1c0,1.8,0,2.9-0.8,3.8c0,1.9,0,3.8-1.8,4.8v1c0,2.2-1.1,4-1.1,6c-1,1.9-1.9,4.7-1.9,6.6
		s-0.8,2.9-1.8,5c0,0,0,1,0,1.8c0,2-1.1,3-3,3c-1.2,1-2.2,0-3.1-1c-1.1-2-2-3.8-3-6c0-2.9-0.8-5.8-1.8-8.5c-1-1-1-3-1-4
		c0-0.8,0-0.8-1.1-1.9c-1-1.1-1-2-1-3c0-2.9-1.8-3.8-1.8-6.7c0,0,0-1-1-1c0,0,0,1,0,1.8c0,1.1-0.8,3,0,4.9c0,1,1,2.9-0.8,5
		c0.8,1.8,0.8,2.8,0.8,4.8c-0.8,3.7,0,7.6,0,11.6c0,0.8-0.8,1.9-0.8,2.9c-1,1,0.8,1.9,0.8,3c-0.8,2.8,0,5.6,0,8.6
		c-0.8,2.9-3,4.8-4.8,5.8c-3,0-5.9-1.9-5.9-4.8c0-4-1-7.8,0-12.6V78.6c-1-1.9,0-2.9,0-4.8c0-1,0-1,0-2c-1-1.8,0-3.7,0-5.5
		c-1-3,0-5,0-6.8v-5.9c-1-1.9-1-2.9,0-4.8V40c-1-1.9-1-2.9,0-4.9c1-1,1-3,2.9-3c1,0,1,0,1.9,0c0-1,1.1-1,1.1,0c3,1.2,4.8,2,5.8,5
		c0,2.9,1,5.6,1.8,7.6c1,1.9,1,4.1,2,7c1,1,1,3,1,3.8c0,1,1,1.9,1,1.9c0,3,0.8,4.9,2.8,7.9c0,1,0,2.8,1.1,3.7c0,1,0,1,0,1.9v0.8
		c1,1.1,1,2,1.9,2c1.2,0,1.2-1,2.2-2c1-2.8,2-5.5,3-8.5c0.8-2.9,0.8-5.9,2.8-9.7c1.1-3.7,2-7.9,2.9-11.6c0.8,0,0.8-1,0.8-1
		c1.1-1.9,1.1-2.9,1.1-3.8s0-2,0-2c1-1.8,5.8-4,7.8-4c0,1,1,1,1,1c1.8,2,2.9,4.1,1.8,7v3.7c1.1,1.1,1.1,2.9,1.1,3.8
		c-1.1,5,0,9.8-1.1,13.8c0,0.8,0,1.9-1,2.9c0,0,2,0,2,1.1c-1.1,2.8,0,5.6-1.1,8.5v8.9c0,2.8,1.1,5.8,0,8.5v3c1,1.6,1.1,4.4,0.4,6.4
		c-0.1,0.4-0.1,0.8-0.1,1.2c0.2,0.6,0.6,1.2-0.1,1.2c0,0.4,0,0.8,0,1.2c0.8,1.6,0.1,2.5,0,4c0,1.7,0.1,3.4,0.2,5
		c0.1,0.6,0.1,1.1,0.1,1.7c0.2,4.3,0.8,8.9,1.8,13c0.1,0,0.1,0.1,0.1,0.1c1.3,3.1,2.8,4.7,2.9,4.9c2.2,1.8,4.2,2.8,6.6,2.9
		c0.4,0,0.6,0,0.8,0c1.1-0.1,4.2-1.3,4.9-1.3c0.8-0.7,0.8-0.7,0.8-0.7c0.6-1.9,1.9-2,4.1-2.6c0,0,0.7-1,1.6,0
		C198.5,131.4,200.3,131.9,201,134z M129.2,52.6c1,0,1,0,1-1c-1,0-1,0-1,0C129.2,52.6,129.2,52.6,129.2,52.6z M129.2,55.4
		c1,0,1,0,1-0.8c0,0,0,0-1,0V55.4z M129.2,65.3h1c0,0,1,0,1-1c0,0,0,0,1.1,0c0-1.1,0-1.1,0-2c0,1-2,1-1.1,2h-1
		C130.2,65.3,129.2,64.3,129.2,65.3z M129.2,76.7c0,0,0,0,1,0v-1C130.2,75.7,129.2,75.7,129.2,76.7z M129.2,79.6c0,0,0,0,1-1
		C129.2,78.6,129.2,79.6,129.2,79.6z M129.2,82.6c0,0,0,0,1,0c0,1-1,1.9,0,3v1c0,0,1-1,0-1c0-1.1,0-2,0-2c0-1.8,1-2.9,2-4
		c-1.1,0-1.1,0-2,1.1C130.2,81.7,130.2,81.7,129.2,82.6z M129.2,101c0,1,1,1,1,0C129.2,101,129.2,101,129.2,101z M130.2,112.7
		c0,0,0-1-1-1v1C130.2,112.7,130.2,112.7,130.2,112.7z M130.2,70v-1C130.2,69,128.3,70,130.2,70z M130.2,43.8c1,0,1,0,2,0
		c0,0,0-1.1,1-1.1c0,0,0.8,0,0.8-1.8c-0.8,1-0.8,1-0.8,1.8c-1,0-1,0-2,0C131.2,43.8,131.2,43.8,130.2,43.8z M131.2,57.4
		c0,1.1,0,1.1,0,1.1c0-1.1,1.1-1.1,0-2c0,0-1,0-1,1H131.2z M130.2,71.8c0,0,0,1.1,1,1.1c0-1.1,0-1.1,0-1.1H130.2z M130.2,99v1.1
		c0,0,0,0,1,0c0-1.1,0-1.1,0-1.1H130.2z M132.2,109.7c0-0.8,0-0.8-1.1,0c0-0.8,0-0.8,0-0.8v-1c0,1-1,1,0,1c0,0.8-1,0.8-1,0.8
		c0,1,1,1,1,1C132.2,109.7,132.2,110.6,132.2,109.7z M132.2,91.2c-1.1-1-1.1-1-1.1-1c-1,1,0,1,0,1.9c1.1,0,1.1,0,1.1,0
		C133.2,91.2,132.2,91.2,132.2,91.2z M131.2,77.6c1.1,0,1.1-1,1.1-1c0-1,0-1-1.1-1V77.6z M131.2,88.2l1.1,1.1c0,0,0,0,0-1.1
		C132.2,88.2,132.2,88.2,131.2,88.2z M132.2,104.9c-1.1,0-1.1,0-1.1,1c0,0,0,0,1.1,0V104.9z M134,83.5c-0.8-1-0.8-1-1.8-1
		c0,0,1,0,1,1C133.2,83.5,133.2,83.5,134,83.5z M134,68c0-1-0.8-1-0.8-1c0,1,0,1,0,1H134z M134,77.6c-0.8,0-0.8,0-0.8,0
		C133.2,78.6,133.2,78.6,134,77.6z M133.2,95v1.2C133.2,96.2,134,96.2,133.2,95z M134,43.8c0,0.8,0,0.8,0,0.8c1.2,1,1.2,1,2.2,0
		c0-0.8,0-0.8-1-0.8C135.2,44.6,134,43.8,134,43.8z M134,50.6c0,1,0,1,0,1h1.2C135.2,51.6,135.2,50.6,134,50.6z M136.2,52.6h-1
		c-1.2,0-1.2,0-1.2,0c0,1,0,1,1.2,1C135.2,53.5,135.2,53.5,136.2,52.6z M135.2,57.4c0,0,0,0-1.2,1.1
		C135.2,58.4,135.2,57.4,135.2,57.4z M136.2,59.4v1C136.2,60.4,137,59.4,136.2,59.4z M137,49.8c1,0,1,0,1,0s0,0,0-1.1c-1,0-1,0-1,0
		S137,48.7,137,49.8z M137,53.5c0,0,1,0,1,1.1c0-1.1,0-1.1,0-2C138,52.6,137,52.6,137,53.5z M138,58.4c0-1.1,0-1.1,0-1.1
		c-1,0-1,0-1,0S137,58.4,138,58.4z M139,65.3c0,0,0-1-1-1C139,65.3,139,65.3,139,65.3z M139,66.2c-1,0-1,0-1,0s0,0,1,0.8
		C139,66.2,139,66.2,139,66.2z M141.8,66.2c0-1-1.1,0-1.1,0S140.8,66.2,141.8,66.2z M143.8,70c0,0,0,0,0.8,0c0,0,0-1-0.8-1V70z
		 M144.6,75.7c-0.8,0-0.8,0-0.8,0s0,0,0,1C144.6,75.7,144.6,75.7,144.6,75.7z M144.6,73.8c0,0,0,0,1,0c0,0,0-1-1-1V73.8z
		 M148.6,88.2c-1-0.7-1,0-2,0C147.6,88.2,147.6,88.2,148.6,88.2z M147.6,85.6c0,0,0,0,0-1.1C146.5,84.5,146.5,84.5,147.6,85.6z
		 M147.6,77.6h1l-1-1C147.6,76.7,147.6,76.7,147.6,77.6z M151.7,87.5c-0.7,0-0.4,0.5-0.2,0.8c-0.1-0.1-0.4-0.1-0.7-0.1
		c0,1.1,0,1.1,1,1.1c0,0,0,0,0-1.1V87.5z M152.6,79.6c0-1,1.1-1,0-1.9c0,0-1,0-1,1L152.6,79.6c0,1.1,0,1.1-1,2.2c0,0,0,0,0,0.8
		C153.7,81.7,153.7,81.7,152.6,79.6z M153.7,76.7c0-1-1.1-1-1.1-1C152.6,76.7,152.6,76.7,153.7,76.7z M157.4,69l-1-1h1c-1,0-1,0-1-1
		c0,0,0,0,0,1c-1,1-1,1-1,1.9c0,0,0,0,1,0L157.4,69z M155.5,75.7c1,0,1,0,1,0C155.5,75.7,155.5,74.8,155.5,75.7v1
		C156.5,76.7,155.5,75.7,155.5,75.7z M156.5,64.3c0,1,0,1,1,1c0,0,0,0,0-1H156.5z M158.5,71.8c-1.1,0-1.1,0-1.1,1.1c0,0,0,0,1.1,0
		V71.8z M160.3,64.3c0-1.1-0.8-1.1-0.8-1.1s0-1-1-1c0,1,0,1,1,1c0,1.1,0,1.1-1,1.1c1,1,1,0,1,0H160.3z M161.2,50.6l1.1,1
		c1-1,0-1,0-1.8C161.2,49.8,161.2,50.6,161.2,50.6z M162.2,59.4v-1c0,0,0,1-1.1,1C161.2,59.4,161.2,59.4,162.2,59.4z M163.2,62.3h-1
		C163.2,63.2,163.2,62.3,163.2,62.3z M163.2,43.8h1c0,0,1,0,1-1.1h-1C164.2,42.7,164.2,42.7,163.2,43.8z M165.1,53.5v1.1h1
		C166.1,53.5,166.1,53.5,165.1,53.5z M167,56.4c0-1,0-1-1-1c0,0-1,0-1,1C165.1,56.4,166.1,56.4,167,56.4z M166.1,101c-1,0-1,0-1,0
		v0.5c0.1,0.1,0.2,0.2,0.5,0.4c0.1,0,0.4,0,0.5,0C166.1,101.8,166.1,101.5,166.1,101z M165.4,124c-0.1-0.2-0.2-0.5-0.2-0.6
		c0,0.2,0,1,0.1,1.6C165.4,124.6,165.5,124.3,165.4,124z M166.1,70.9c0-1,0-1,0-1S165.1,70.9,166.1,70.9z M166.1,51.6c0,1,1,1,1,1
		c0,1,0,0,1,0c0,1,1,1,1,1s0-1-1-1c0-1-1-1-1-1.9c0,0,0,0-1,0V51.6z M168,65.3c0-1-1-1-1-1c0,1,0,1-1,1c0,1,0,1,0,1s1,0,1-1H168z
		 M166.1,85.6c0.6,0,1-0.5,1.2-1.1h-1.2V85.6z M166.1,96.2c0,0,0-1.2,1-1.2c0-1-1-1-1-1C166.1,95,166.1,95,166.1,96.2z M167.2,128.5
		c-0.1-0.5-0.4-0.7-0.6-1c-0.2,0-0.2,0.4-0.2,1C166.6,128.5,166.9,128.5,167.2,128.5z M167.3,105.4c0-0.5,0-0.6,0-1.3
		C166.4,104.8,166.2,104.8,167.3,105.4z M167.4,110.3c0,0,0,0-0.4,1c0.4-0.8,1.3-0.6,1.4-0.6L167.4,110.3c0.2-0.7,0.2-0.7,0.2-0.7
		l-0.5-1.3c-0.2,1.1-0.2,1.1,0.5,1.3c0,0-0.7-0.2-1.1,0.4C167.4,110.3,167.4,110.3,167.4,110.3z M167,92.2c1-1,1-1,1.9-1
		c-1,0-1.9-1-1.9-1C166.1,91.2,167,91.2,167,92.2z M168,60.4c-1,0-1,0-1,0.8C167,60.4,168,60.4,168,60.4z M167,67.1c0,1,0,0,1,0
		C168,67.1,168,67.1,167,67.1z M167,71.8h1v-0.8L167,71.8z M167.2,107h1.1c0-1.2,0-1.2,0-1.2S168.2,105.8,167.2,107z M167.8,121.4
		c0,0-1.1-0.4-0.2,1l0.8,0.4C168.7,121.8,167.8,121.4,167.8,121.4z M168,41.9c0,0,0,0,1,0c0,0,1.1,0,0-1h-1
		C167,41.9,168,41.9,168,41.9z M168,38c0,0,1,0,1-1C168,37.1,168,38,168,38z M169,75.7c0,0-1,0-1-1c0,1,0,1,0,1H169z M169,80.6
		c0,0,0,0,0-1.1c0,0,0,1.1-1,1.1C169,80.6,169,80.6,169,80.6z M168,82.6h1C169,82.6,168,81.7,168,82.6z M168.4,96.5
		c-0.1,0.1-0.4,0.4-0.4,0.7h1C168.7,96.8,168.5,96.6,168.4,96.5z M170,99c-1.1,0-1.1-0.8-1.1-0.8s0,0.8-1,0.8c0-0.8,1-0.8,0-0.8V99
		c1,0,1,0,1,0S169,99,170,99z M169,102c0,0-0.4,0-1,0C168,103,169,103,169,102z M169,114.5c-1-0.4-0.7-1.2-0.7-1.2
		C168,114.1,168,114.1,169,114.5z M169.1,112c0,0,0,0,0.4-1.1l-1-0.2C168.5,110.6,168,111.6,169.1,112z M168.6,117.6l0.8,1.3
		c1.1-0.7,0.2-1,0.2-1c0.4-0.8-0.7-1.3-0.7-1.3C168.6,117.6,168.6,117.6,168.6,117.6z M168.7,105c0.5,0.2,0.5,0.7,0.5-0.1
		c0,0,0,0,0.1-0.6c-0.1,0-0.2,0-0.4,0c0.1,0.1,0.2,0.4,0.2,0.6C169,104.9,169,105,168.7,105z M170,59.4H169c0,0,0,0,0,1
		C169,60.4,170,60.4,170,59.4z M169,67.1c1.1,0,1.1,0,1.1-0.8C169,66.2,169,67.1,169,67.1c1.1,1,1.1,1,1.1,1.9
		C170,68,170,67.1,169,67.1z M169,93.2v0.8C169,94.1,170,93.2,169,93.2z M169.8,110.2c0.4-1-0.7-1.2-0.7-1.2
		S168.7,109.9,169.8,110.2z M170.9,128.2c0-0.1-0.2-0.1-0.4-0.1c-0.5,0-0.8,0-1.2,0.2C169.9,128.2,170.4,128.2,170.9,128.2z
		 M171.4,131.4c0.7-0.4,0.7-0.4,0.7-0.4c-0.5-1.1-0.5-1.1-1.2-0.6c0,0,0,0-0.8,0.4C171.4,131.4,171.4,131.4,171.4,131.4z
		 M171.2,128.2c-0.1,0-0.1,0-0.1,0l-0.4,0.2l0.5,0.7C170.9,128.5,170.9,128.4,171.2,128.2z M171.7,124.2c0,0,0,0-0.8-0.4
		C170.6,124.7,171.5,124.9,171.7,124.2z M171.7,128c-0.1,0-0.4,0.1-0.5,0.1C171.4,128.2,171.6,128.2,171.7,128z M172.4,135.2
		l-0.4-0.7l-0.5,1.2C171.6,135.7,171.6,135.7,172.4,135.2z M174.5,135.2c-0.5-0.7-0.5-0.7-0.5-0.7l-0.7,0.4
		C173.8,135.7,174.5,135.2,174.5,135.2z M174.2,136.7c-0.8,0.4-0.8,0.4-0.8,0.4l0.4,0.6L174.2,136.7z M174.4,131.4
		c-0.5,1.3-0.8,0.5-0.5,1.3C173.9,132.7,174.8,132.4,174.4,131.4z M175.7,137.6c-0.7,0.4-0.7,0.4-0.4,1.1
		C176.2,138.4,176.2,138.4,175.7,137.6z M178.1,136.4c-0.4-0.7,0.4-1.2-0.4-0.7C178.1,136.4,178.1,136.4,178.1,136.4z M187.1,140.6
		c-0.5-0.8-0.5-0.8-1.2-0.5c0,0-0.8,0.4-1.3-0.4c1,1.6,1,1.6,1.7,1.1L187.1,140.6z M190.4,137.6c0.8-0.4,0.8-0.4,0.8-0.4
		s0,0-0.1-0.4c-0.1-0.1-0.2-0.1-0.4-0.4l-0.2,1L190.4,137.6c0,0,0,0-1,0.5c1-0.5,1-0.5,1.4,0.4L190.4,137.6z M194.6,133.6l0.8,0.6
		C196.2,133.6,194.6,133.6,194.6,133.6z M196.2,137.5c-0.2,0.2-0.6,0.4-0.7,0.4l0.1,0.2L196.2,137.5z"/>
	<path id="XMLID_229_" class="st0" d="M260.2,134c0,1.4,0,2.9-0.6,3.5c-0.8,0.8-1.4,1.4-2,2.2c-0.8,0.7-2.2,2.2-3.7,2.2
		c-1.8,1.8-4.8,2.4-7.4,2.9c-0.1,0-0.2,0-0.5,0c-0.7,0.1-1.7,0.2-2.5,0.2c-3.2-0.1-5.6-0.7-8-1.7c-3.6-1.3-7.4-4.3-9.1-7.4
		c0,0-0.1-0.1-0.2-0.4c-0.1-0.4-0.2-0.5-0.2-0.8c-1-2.2-3.1-7.8-3.4-13.2c0-1.6-0.1-3.7-0.1-6.1c-0.4-0.2-0.2-0.6-0.1-1
		c0-1.9,0-3.8-0.1-5.8c-0.6-0.7-0.6-0.8,0-1.4c0-0.7,0-1.4,0-2c-0.6-2.4-0.6-4.3-0.6-7l1-1c-1-5,0-9,0-12.7c-1-4.9,0-8.8,0-12.7
		c0-0.8,0-0.8,0-0.8c0-1-1-1-1-1h-1.1c0,1.8,0,2.9-0.8,3.8c0,1.9,0,3.8-1.8,4.8v1c0,2.2-1.1,4-1.1,6c-1,1.9-1.9,4.7-1.9,6.6
		s-0.8,2.9-1.8,5c0,0,0,1,0,1.8c0,2-1.1,3-3,3c-1.2,1-2.2,0-3.1-1c-1.1-2-2-3.8-3-6c0-2.9-0.8-5.8-1.8-8.5c-1-1-1-3-1-4
		c0-0.8,0-0.8-1.1-1.9c-1-1.1-1-2-1-3c0-2.9-1.8-3.8-1.8-6.7c0,0,0-1-1-1c0,0,0,1,0,1.8c0,1.1-0.8,3,0,4.9c0,1,1,2.9-0.8,5
		c0.8,1.8,0.8,2.8,0.8,4.8c-0.8,3.7,0,7.6,0,11.6c0,0.8-0.8,1.9-0.8,2.9c-1,1,0.8,1.9,0.8,3c-0.8,2.8,0,5.6,0,8.6
		c-0.8,2.9-3,4.8-4.8,5.8c-3,0-5.9-1.9-5.9-4.8c0-4-1-7.8,0-12.6V78.6c-1-1.9,0-2.9,0-4.8c0-1,0-1,0-2c-1-1.8,0-3.7,0-5.5
		c-1-3,0-5,0-6.8v-5.9c-1-1.9-1-2.9,0-4.8V40c-1-1.9-1-2.9,0-4.9c1-1,1-3,2.9-3c1,0,1,0,1.9,0c0-1,1.1-1,1.1,0c3,1.2,4.8,2,5.8,5
		c0,2.9,1,5.6,1.8,7.6c1,1.9,1,4.1,2,7c1,1,1,3,1,3.8c0,1,1,1.9,1,1.9c0,3,0.8,4.9,2.8,7.9c0,1,0,2.8,1.1,3.7c0,1,0,1,0,1.9v0.8
		c1,1.1,1,2,1.9,2c1.2,0,1.2-1,2.2-2c1-2.8,2-5.5,3-8.5c0.8-2.9,0.8-5.9,2.8-9.7c1.1-3.7,2-7.9,2.9-11.6c0.8,0,0.8-1,0.8-1
		c1.1-1.9,1.1-2.9,1.1-3.8s0-2,0-2c1-1.8,5.8-4,7.8-4c0,1,1,1,1,1c1.8,2,2.9,4.1,1.8,7v3.7c1.1,1.1,1.1,2.9,1.1,3.8
		c-1.1,5,0,9.8-1.1,13.8c0,0.8,0,1.9-1,2.9c0,0,2,0,2,1.1c-1.1,2.8,0,5.6-1.1,8.5v8.9c0,2.8,1.1,5.8,0,8.5v3c1,1.6,1.1,4.4,0.4,6.4
		c-0.1,0.4-0.1,0.8-0.1,1.2c0.2,0.6,0.6,1.2-0.1,1.2c0,0.4,0,0.8,0,1.2c0.8,1.6,0.1,2.5,0,4c0,1.7,0.1,3.4,0.2,5
		c0.1,0.6,0.1,1.1,0.1,1.7c0.2,4.3,0.8,8.9,1.8,13c0.1,0,0.1,0.1,0.1,0.1c1.3,3.1,2.8,4.7,2.9,4.9c2.2,1.8,4.2,2.8,6.6,2.9
		c0.4,0,0.6,0,0.8,0c1.1-0.1,4.2-1.3,4.9-1.3c0.8-0.7,0.8-0.7,0.8-0.7c0.6-1.9,1.9-2,4.1-2.6c0,0,0.7-1,1.6,0
		C257.6,131.4,259.4,131.9,260.2,134z M188.4,52.6c1,0,1,0,1-1c-1,0-1,0-1,0C188.4,52.6,188.4,52.6,188.4,52.6z M188.4,55.4
		c1,0,1,0,1-0.8c0,0,0,0-1,0V55.4z M188.4,65.3h1c0,0,1,0,1-1c0,0,0,0,1.1,0c0-1.1,0-1.1,0-2c0,1-2,1-1.1,2h-1
		C189.4,65.3,188.4,64.3,188.4,65.3z M188.4,76.7c0,0,0,0,1,0v-1C189.4,75.7,188.4,75.7,188.4,76.7z M188.4,79.6c0,0,0,0,1-1
		C188.4,78.6,188.4,79.6,188.4,79.6z M188.4,82.6c0,0,0,0,1,0c0,1-1,1.9,0,3v1c0,0,1-1,0-1c0-1.1,0-2,0-2c0-1.8,1-2.9,2-4
		c-1.1,0-1.1,0-2,1.1C189.4,81.7,189.4,81.7,188.4,82.6z M188.4,101c0,1,1,1,1,0C188.4,101,188.4,101,188.4,101z M189.4,112.7
		c0,0,0-1-1-1v1C189.4,112.7,189.4,112.7,189.4,112.7z M189.4,70v-1C189.4,69,187.4,70,189.4,70z M189.4,43.8c1,0,1,0,2,0
		c0,0,0-1.1,1-1.1c0,0,0.8,0,0.8-1.8c-0.8,1-0.8,1-0.8,1.8c-1,0-1,0-2,0C190.3,43.8,190.3,43.8,189.4,43.8z M190.3,57.4
		c0,1.1,0,1.1,0,1.1c0-1.1,1.1-1.1,0-2c0,0-1,0-1,1H190.3z M189.4,71.8c0,0,0,1.1,1,1.1c0-1.1,0-1.1,0-1.1H189.4z M189.4,99v1.1
		c0,0,0,0,1,0c0-1.1,0-1.1,0-1.1H189.4z M191.4,109.7c0-0.8,0-0.8-1.1,0c0-0.8,0-0.8,0-0.8v-1c0,1-1,1,0,1c0,0.8-1,0.8-1,0.8
		c0,1,1,1,1,1C191.4,109.7,191.4,110.6,191.4,109.7z M191.4,91.2c-1.1-1-1.1-1-1.1-1c-1,1,0,1,0,1.9c1.1,0,1.1,0,1.1,0
		C192.4,91.2,191.4,91.2,191.4,91.2z M190.3,77.6c1.1,0,1.1-1,1.1-1c0-1,0-1-1.1-1V77.6z M190.3,88.2l1.1,1.1c0,0,0,0,0-1.1
		C191.4,88.2,191.4,88.2,190.3,88.2z M191.4,104.9c-1.1,0-1.1,0-1.1,1c0,0,0,0,1.1,0V104.9z M193.2,83.5c-0.8-1-0.8-1-1.8-1
		c0,0,1,0,1,1C192.4,83.5,192.4,83.5,193.2,83.5z M193.2,68c0-1-0.8-1-0.8-1c0,1,0,1,0,1H193.2z M193.2,77.6c-0.8,0-0.8,0-0.8,0
		C192.4,78.6,192.4,78.6,193.2,77.6z M192.4,95v1.2C192.4,96.2,193.2,96.2,192.4,95z M193.2,43.8c0,0.8,0,0.8,0,0.8
		c1.2,1,1.2,1,2.2,0c0-0.8,0-0.8-1-0.8C194.4,44.6,193.2,43.8,193.2,43.8z M193.2,50.6c0,1,0,1,0,1h1.2
		C194.4,51.6,194.4,50.6,193.2,50.6z M195.4,52.6h-1c-1.2,0-1.2,0-1.2,0c0,1,0,1,1.2,1C194.4,53.5,194.4,53.5,195.4,52.6z
		 M194.4,57.4c0,0,0,0-1.2,1.1C194.4,58.4,194.4,57.4,194.4,57.4z M195.4,59.4v1C195.4,60.4,196.2,59.4,195.4,59.4z M196.2,49.8
		c1,0,1,0,1,0s0,0,0-1.1c-1,0-1,0-1,0S196.2,48.7,196.2,49.8z M196.2,53.5c0,0,1,0,1,1.1c0-1.1,0-1.1,0-2
		C197.2,52.6,196.2,52.6,196.2,53.5z M197.2,58.4c0-1.1,0-1.1,0-1.1c-1,0-1,0-1,0S196.2,58.4,197.2,58.4z M198.1,65.3c0,0,0-1-1-1
		C198.1,65.3,198.1,65.3,198.1,65.3z M198.1,66.2c-1,0-1,0-1,0s0,0,1,0.8C198.1,66.2,198.1,66.2,198.1,66.2z M201,66.2
		c0-1-1.1,0-1.1,0S199.9,66.2,201,66.2z M202.9,70c0,0,0,0,0.8,0c0,0,0-1-0.8-1V70z M203.8,75.7c-0.8,0-0.8,0-0.8,0s0,0,0,1
		C203.8,75.7,203.8,75.7,203.8,75.7z M203.8,73.8c0,0,0,0,1,0c0,0,0-1-1-1V73.8z M207.7,88.2c-1-0.7-1,0-2,0
		C206.8,88.2,206.8,88.2,207.7,88.2z M206.8,85.6c0,0,0,0,0-1.1C205.7,84.5,205.7,84.5,206.8,85.6z M206.8,77.6h1l-1-1
		C206.8,76.7,206.8,76.7,206.8,77.6z M210.8,87.5c-0.7,0-0.4,0.5-0.2,0.8c-0.1-0.1-0.4-0.1-0.7-0.1c0,1.1,0,1.1,1,1.1c0,0,0,0,0-1.1
		V87.5z M211.8,79.6c0-1,1.1-1,0-1.9c0,0-1,0-1,1L211.8,79.6c0,1.1,0,1.1-1,2.2c0,0,0,0,0,0.8C212.9,81.7,212.9,81.7,211.8,79.6z
		 M212.9,76.7c0-1-1.1-1-1.1-1C211.8,76.7,211.8,76.7,212.9,76.7z M216.6,69l-1-1h1c-1,0-1,0-1-1c0,0,0,0,0,1c-1,1-1,1-1,1.9
		c0,0,0,0,1,0L216.6,69z M214.7,75.7c1,0,1,0,1,0C214.7,75.7,214.7,74.8,214.7,75.7v1C215.6,76.7,214.7,75.7,214.7,75.7z
		 M215.6,64.3c0,1,0,1,1,1c0,0,0,0,0-1H215.6z M217.7,71.8c-1.1,0-1.1,0-1.1,1.1c0,0,0,0,1.1,0V71.8z M219.5,64.3
		c0-1.1-0.8-1.1-0.8-1.1s0-1-1-1c0,1,0,1,1,1c0,1.1,0,1.1-1,1.1c1,1,1,0,1,0H219.5z M220.3,50.6l1.1,1c1-1,0-1,0-1.8
		C220.3,49.8,220.3,50.6,220.3,50.6z M221.4,59.4v-1c0,0,0,1-1.1,1C220.3,59.4,220.3,59.4,221.4,59.4z M222.4,62.3h-1
		C222.4,63.2,222.4,62.3,222.4,62.3z M222.4,43.8h1c0,0,1,0,1-1.1h-1C223.3,42.7,223.3,42.7,222.4,43.8z M224.3,53.5v1.1h1
		C225.2,53.5,225.2,53.5,224.3,53.5z M226.2,56.4c0-1,0-1-1-1c0,0-1,0-1,1C224.3,56.4,225.2,56.4,226.2,56.4z M225.2,101
		c-1,0-1,0-1,0v0.5c0.1,0.1,0.2,0.2,0.5,0.4c0.1,0,0.4,0,0.5,0C225.2,101.8,225.2,101.5,225.2,101z M224.5,124
		c-0.1-0.2-0.2-0.5-0.2-0.6c0,0.2,0,1,0.1,1.6C224.5,124.6,224.6,124.3,224.5,124z M225.2,70.9c0-1,0-1,0-1S224.3,70.9,225.2,70.9z
		 M225.2,51.6c0,1,1,1,1,1c0,1,0,0,1,0c0,1,1,1,1,1s0-1-1-1c0-1-1-1-1-1.9c0,0,0,0-1,0V51.6z M227.2,65.3c0-1-1-1-1-1c0,1,0,1-1,1
		c0,1,0,1,0,1s1,0,1-1H227.2z M225.2,85.6c0.6,0,1-0.5,1.2-1.1h-1.2V85.6z M225.2,96.2c0,0,0-1.2,1-1.2c0-1-1-1-1-1
		C225.2,95,225.2,95,225.2,96.2z M226.3,128.5c-0.1-0.5-0.4-0.7-0.6-1c-0.2,0-0.2,0.4-0.2,1C225.7,128.5,226.1,128.5,226.3,128.5z
		 M226.4,105.4c0-0.5,0-0.6,0-1.3C225.6,104.8,225.4,104.8,226.4,105.4z M226.6,110.3c0,0,0,0-0.4,1c0.4-0.8,1.3-0.6,1.4-0.6
		L226.6,110.3c0.2-0.7,0.2-0.7,0.2-0.7l-0.5-1.3c-0.2,1.1-0.2,1.1,0.5,1.3c0,0-0.7-0.2-1.1,0.4C226.6,110.3,226.6,110.3,226.6,110.3
		z M226.2,92.2c1-1,1-1,1.9-1c-1,0-1.9-1-1.9-1C225.2,91.2,226.2,91.2,226.2,92.2z M227.2,60.4c-1,0-1,0-1,0.8
		C226.2,60.4,227.2,60.4,227.2,60.4z M226.2,67.1c0,1,0,0,1,0C227.2,67.1,227.2,67.1,226.2,67.1z M226.2,71.8h1v-0.8L226.2,71.8z
		 M226.3,107h1.1c0-1.2,0-1.2,0-1.2S227.4,105.8,226.3,107z M226.9,121.4c0,0-1.1-0.4-0.2,1l0.8,0.4
		C227.9,121.8,226.9,121.4,226.9,121.4z M227.2,41.9c0,0,0,0,1,0c0,0,1.1,0,0-1h-1C226.2,41.9,227.2,41.9,227.2,41.9z M227.2,38
		c0,0,1,0,1-1C227.2,37.1,227.2,38,227.2,38z M228.1,75.7c0,0-1,0-1-1c0,1,0,1,0,1H228.1z M228.1,80.6c0,0,0,0,0-1.1
		c0,0,0,1.1-1,1.1C228.1,80.6,228.1,80.6,228.1,80.6z M227.2,82.6h1C228.1,82.6,227.2,81.7,227.2,82.6z M227.5,96.5
		c-0.1,0.1-0.4,0.4-0.4,0.7h1C227.9,96.8,227.6,96.6,227.5,96.5z M229.2,99c-1.1,0-1.1-0.8-1.1-0.8s0,0.8-1,0.8c0-0.8,1-0.8,0-0.8
		V99c1,0,1,0,1,0S228.1,99,229.2,99z M228.1,102c0,0-0.4,0-1,0C227.2,103,228.1,103,228.1,102z M228.1,114.5c-1-0.4-0.7-1.2-0.7-1.2
		C227.2,114.1,227.2,114.1,228.1,114.5z M228.2,112c0,0,0,0,0.4-1.1l-1-0.2C227.6,110.6,227.2,111.6,228.2,112z M227.8,117.6
		l0.8,1.3c1.1-0.7,0.2-1,0.2-1c0.4-0.8-0.7-1.3-0.7-1.3C227.8,117.6,227.8,117.6,227.8,117.6z M227.9,105c0.5,0.2,0.5,0.7,0.5-0.1
		c0,0,0,0,0.1-0.6c-0.1,0-0.2,0-0.4,0c0.1,0.1,0.2,0.4,0.2,0.6C228.1,104.9,228.1,105,227.9,105z M229.2,59.4h-1.1c0,0,0,0,0,1
		C228.1,60.4,229.2,60.4,229.2,59.4z M228.1,67.1c1.1,0,1.1,0,1.1-0.8C228.1,66.2,228.1,67.1,228.1,67.1c1.1,1,1.1,1,1.1,1.9
		C229.2,68,229.2,67.1,228.1,67.1z M228.1,93.2v0.8C228.1,94.1,229.2,93.2,228.1,93.2z M229,110.2c0.4-1-0.7-1.2-0.7-1.2
		S227.9,109.9,229,110.2z M230,128.2c0-0.1-0.2-0.1-0.4-0.1c-0.5,0-0.8,0-1.2,0.2C229.1,128.2,229.6,128.2,230,128.2z M230.5,131.4
		c0.7-0.4,0.7-0.4,0.7-0.4c-0.5-1.1-0.5-1.1-1.2-0.6c0,0,0,0-0.8,0.4C230.5,131.4,230.5,131.4,230.5,131.4z M230.4,128.2
		c-0.1,0-0.1,0-0.1,0l-0.4,0.2l0.5,0.7C230,128.5,230,128.4,230.4,128.2z M230.9,124.2c0,0,0,0-0.8-0.4
		C229.8,124.7,230.6,124.9,230.9,124.2z M230.9,128c-0.1,0-0.4,0.1-0.5,0.1C230.5,128.2,230.8,128.2,230.9,128z M231.6,135.2
		l-0.4-0.7l-0.5,1.2C230.8,135.7,230.8,135.7,231.6,135.2z M233.6,135.2c-0.5-0.7-0.5-0.7-0.5-0.7l-0.7,0.4
		C232.9,135.7,233.6,135.2,233.6,135.2z M233.4,136.7c-0.8,0.4-0.8,0.4-0.8,0.4l0.4,0.6L233.4,136.7z M233.5,131.4
		c-0.5,1.3-0.8,0.5-0.5,1.3C233,132.7,234,132.4,233.5,131.4z M234.8,137.6c-0.7,0.4-0.7,0.4-0.4,1.1
		C235.3,138.4,235.3,138.4,234.8,137.6z M237.2,136.4c-0.4-0.7,0.4-1.2-0.4-0.7C237.2,136.4,237.2,136.4,237.2,136.4z M246.2,140.6
		c-0.5-0.8-0.5-0.8-1.2-0.5c0,0-0.8,0.4-1.3-0.4c1,1.6,1,1.6,1.7,1.1L246.2,140.6z M249.6,137.6c0.8-0.4,0.8-0.4,0.8-0.4
		s0,0-0.1-0.4c-0.1-0.1-0.2-0.1-0.4-0.4l-0.2,1L249.6,137.6c0,0,0,0-1,0.5c1-0.5,1-0.5,1.4,0.4L249.6,137.6z M253.8,133.6l0.8,0.6
		C255.4,133.6,253.8,133.6,253.8,133.6z M255.4,137.5c-0.2,0.2-0.6,0.4-0.7,0.4l0.1,0.2L255.4,137.5z"/>
	<path id="XMLID_331_" class="st0" d="M279.5,39.1c-1.1,3.8-1.9,6.8-3,9.7c-1,3.1-1,6-2,8.9c-1,2-1.8,4.8-1.8,6.8
		c-1.9,3.8-3,7.7-4,11.8c-1,3.8-1.9,8.6-1,12.6c0,3-1,5.8-1,7.9c0,5.6,0,10.6,0,15.2c0,1,0,2,0,3c-1,1.2-1.9,3.1-3.8,3.1
		c-3,0.8-4.9,0-5.9-4.1c0-1.1,0-2,0-3.7c0-1,0-2,0-3.8c0-2,0-4.9-1.1-7.1c0-1,0-1,0-1c1.1-1.7,0-3.8,1.1-5.8c0-1.8,0-3.8-1.1-4.9
		c0-2.9,0-5.6,0-8.8c0-1,0-1.8-1-2.8c-1.8-4.9-2.8-9.7-3.8-14.6c0-1.2-0.8-1.9-0.8-3.1c-1.9-4.9-3-8.6-4-13.6v-1.1
		c-1-1-0.6-3.8-1.7-4.9c0-1.2-0.1-1.6-0.2-1.9c-1.3-4.6-3.4-10.2-6.1-15.5c0,0-0.1,0-0.1-0.1c-1.1-3.1-2.6-4.6-2.9-4.8
		c-2-1.9-4.1-2.9-6.6-3.1c-0.2,0-0.5,0-0.7,0c-1.2,0.1-4.3,1.4-5,1.4c-0.8,0.7-0.8,0.7-0.8,0.7c-0.6,2-1.9,2.2-3.8,2.9
		c0,0-0.8,0.7-1.6,0c-1.6-1.4-3.5-2-4.2-4.2c0-1.4,0-3,0.6-3.6c0.8-0.7,1.6-1.6,2-1.9c0.8-0.7,2.2-2.2,3.7-2.2
		c1.9-1.9,4.8-2.6,7.4-3h0.1c0.1,0,0.2,0,0.2,0c0.8-0.1,1.7-0.1,2.4-0.1c3.5,0,5.9,0.6,8.3,1.6c3.5,1.4,6.6,4.1,8.4,7.3
		c0.2,0.4,0.4,0.8,0.6,1.2c0.4,0.8,0.8,1.6,1.4,2.6c1.9,4.6,4.8,13.1,6.5,18.6c0.4,0.4,0.6,0.8,0.7,1.3c1,4.8,3,9.7,3,15.7
		c1,2.9,1.9,5.8,1.9,8.5c1,0,1,0,1,0c0,1.2,0,2,1.1,2c1,0,1-0.8,1-2c1-1.9,1.9-3.7,1.9-5.6c0-2.9,1-6,1.9-8.9c1-2,1.9-4.9,1.9-7.7
		c1-4.1,3-5.8,6.8-5.8h1c1.9-1.2,3,0,3,0.8C280.3,36.2,280.3,36.2,279.5,39.1z M218,10.6l-0.1-0.4l-0.6,0.6
		C217.6,10.6,217.8,10.6,218,10.6z M218.9,15l-0.8-0.7C217.3,15,218.9,15,218.9,15z M223.9,10.2c-1,0.5-1,0.5-1.4-0.2l0.5,0.7
		c-0.8,0.4-0.8,0.4-0.8,0.4s0,0,0.1,0.4c0.1,0.1,0.1,0.4,0.2,0.5l0.5-1.1v-0.1C223,10.7,223,10.7,223.9,10.2z M228.7,8.6
		c-0.7-1.6-0.7-1.6-1.4-1.1l-0.8,0.4c0.5,0.7,0.5,0.7,1.2,0.5C227.6,8.4,228.4,7.9,228.7,8.6z M238.1,9.7c-0.6,0.4-0.6,0.4-0.2,1
		C238.6,10.3,238.6,10.3,238.1,9.7z M239.6,16.3c-0.1-0.4-0.2-0.5-0.4-0.5c-0.1,0.1-0.4,0.5-0.4,0.7c0.1,0,0.2,0,0.4,0
		C239.4,16.3,239.5,16.3,239.6,16.3z M240,11.3l-0.4-0.6l-0.4,1.1C240,11.3,240,11.3,240,11.3z M243.8,21.7l-1.2-1.1
		c-0.7,1.1,0,1.1,0,1.1c0,1,1.2,1,1.2,1C243.8,21.7,243.8,21.7,243.8,21.7z M242.5,17.4c0.2,0.4,0.8,0.4,0.8,0.4h0.1
		C243.1,17.5,242.8,17.4,242.5,17.4z M245.6,25.8c0-1,0-1-1.2-1C245.6,24.8,245.6,25.8,245.6,25.8z M246.2,30.1c0,0,0-1.1-1.2-1.1
		C245,30.1,246.2,30.1,246.2,30.1z M246.2,28.2c0,0,0-1.1-1.1-1.2c0,0,0,0,0,1.2H246.2z M247.3,29c0,0,0.8,0,0.8-0.8
		c-0.8,0-0.8,0-0.8,0s0,0,0-1.1c0,1.1-1,1.1-1.1,1.1h1.1C247.3,29,247.3,29,247.3,29l0.8,1.2C248.2,29,248.2,29,247.3,29z
		 M248.5,31.3h-0.1l0.1,0.1C248.5,31.3,248.5,31.3,248.5,31.3z M251.2,37.4c0,0,0,0,0-1.2c0,0,0,0-0.8,0
		C250.3,37.4,250.3,37.4,251.2,37.4z M252.2,52c-1.1,0-1.1,0-1.1,1C252.2,52.9,252.2,52.9,252.2,52z M254,47c0,0,0-1.1-0.8-1.1
		c0,1.1,0,1.1,0,2c0,0,0,0,0.8,0V47z M254,57.7c-0.8-1-0.8,0-0.8,0S253.2,57.7,254,57.7z M257,59.8c0,0,0,0.1-0.1,0.2
		C257,60,257,60,257,59.8z M258,68.4c0,1,0,1,0,1.8c1,0,1,0,1,0C259,69.4,259,68.4,258,68.4c0,0,0,0-0.4-0.5
		C257.5,68.4,258,68.4,258,68.4z M259,78.1c1-0.8,1-0.8,1-0.8c0-1-1,0-1,0S258,78.1,259,78.1z M259,72.2c0,0,0,0,0,1.1h1
		c0-1.1,0-1.1,0-1.1S259,71.4,259,72.2z M259.9,91c1,1,1,1,2,1c0-1-1.1-1-1.1-1H259.9z M259.9,92.8v1
		C259.9,93.7,260.9,92.8,259.9,92.8z M263.9,103.4c0-1-1,0-1-1c-1-0.8-2,0-3-0.8c0,0.8,0,0.8,0,1.8c1-1,2,0,3-1
		C262.9,103.4,262.9,103.4,263.9,103.4z M262,75.4c1,0,1-1.1,1-1.1c-1,0-1,0-1,0S260.9,75.4,262,75.4z M263.9,82.9
		c0,0-1-0.7-1.9-0.7v0.7C262.9,83.9,262.9,83.9,263.9,82.9z M262,100.6c0,0,0,0,0,1.1c0,0,0,0,1,0C262,100.6,262,100.6,262,100.6z
		 M263.9,106.6c0,0,0,0-1,0v0.8c1,0,1,0,1,0C263.9,106.6,263.9,106.6,263.9,106.6z M265.8,74.3c-1,0-1,0-1,0s0,0,0,1.1
		C264.8,74.3,265.8,74.3,265.8,74.3z M268.7,58.6c-1,0-1,0-1,0c0,1.2,0,1.2,0,1.9c1-0.7,1-0.7,1-0.7
		C269.6,59.8,269.6,58.6,268.7,58.6z M270.7,58.6c0-0.8,0-0.8-1.1-1.8h-1l1,1C269.6,57.7,269.6,58.6,270.7,58.6z M273.5,48.8h-0.8
		c0,0-1,0-1,1.1c0,0,0,0-1,1c1,1.1,1,0,1,0c0-1,0-1,0-1C272.6,49.9,272.6,49.9,273.5,48.8z M271.7,42.2l1-1.2h-1V42.2z M272.6,52.9
		c-1,0-1,0-1,0.7C271.7,53.6,272.6,53.6,272.6,52.9z"/>
</g>
<g id="XMLID_4_">
	<path id="XMLID_368_" class="st0" d="M545.2,22.4c0,1.1,0,2-1.3,2.9c-0.8,1.1-1.8,2-3.7,2c-2,0-2.9,0.8-4.8,0.8c-1.1,1-2,2-2.9,4.1
		c0,1.8,0,3.6,0,5.8c0,5.8,0,27.2,0,31.9c0,2.9,0,6,0,8.6c0,6.1,0,11.9,0,17.6c0,4.8,0,9.5,0,14.5c0,1.9,0,5-1.3,6.8
		c-1.8,1.8-5.6,1.8-7.6,0c-1.8-1.8-0.7-4-0.7-6.8c-1.1-2.9,0-6.8-1.1-10.8c0-1.8,0-3.7,1.1-6.6c0-1.1,0-1.1-1.1-2.2
		c-1.2-2.9,0-4.7,1.1-6.5c0-1.2,0-1.2,0-1.2c-2.3-1.8,0-3.6,0-6.7c-1.1-0.8-1.1-2.9-1.1-4.8c1.1-3.8,0-6.7,0-10.6c0-1,1.1-2,1.1-3.8
		c-1.1-3.1-1.1-22.4-1.1-25.3c0-3.1-1.9-4.1-5-4.1c-1.9,0-2.6-0.8-4.7-0.8c-0.2-0.1-0.5-0.6-0.7-0.8c-1.9-0.6-3.7-1.4-5.5-2.5
		c-1.1,0-2.4-0.1-4-0.4c-1.7-1.4-3.6-1.8-5.2-3.4c-1.8-0.5-3.1-0.7-4.6-1.1c-0.5-0.2-1.1-0.4-1.6-0.8c-0.2,0-0.2,0-0.4,0
		c0,0,0,0,0-0.1c-0.6-0.4-1.1-0.7-1.7-1.1c-0.8,0-1.6-0.4-2.6-1.1c-0.7-0.1-1.7-0.4-2.4-0.5c-1.9-0.2-3.4-1.1-5.4-1.3
		c-0.1,0-1.9-0.8-2.3-0.8c-1.1,0.7-2.4,1.2-3,1.2c-0.6,1-0.6,1-0.6,1c-0.4,1.9-1.8,2.2-3.6,3c0,0-0.7,0.7-1.4,0.2
		c-1.8-1.3-3.7-1.7-4.8-3.8c0-1.2-0.2-2.6,0.5-3.4c0.6-1.1,1.2-1.7,1.7-2.2c0.7-1,1.8-2.5,3.4-2.8c0.8-1.1,2.2-1.6,3.2-2.3
		c0-0.1,0-0.1-0.1-0.1c0.6-0.2,1-0.5,1.4-0.5c1.6-0.5,4.2-1.4,6.1-1.4c3-0.1,5.3,0.2,7.4,1c2.2,0.5,4,1.4,5.8,2.9
		c0.4,0.1,0.8,0.4,1.4,0.7c0.8-0.2,3.1,0.1,3.6,1.8c3.2,0.2,5,2.6,8.5,3.6c0.5,0.1,2.3,0.7,3.8,1.4c1,0.4,1.8,0.5,2.2,0.7
		c1.4,0.4,3.1,0.8,4.7,1.1c1.3,0,2.4,0,3.8,0c1.8,0.8,3.6,0.1,5.4,0.7c0.2,0,0.7,0,0.8,0c0.7-0.2,1.7-0.7,2.5-0.7
		c1.6,0,2.4,0.7,3.2,0.8c0.4,0,0.7,0,1,0c1.2-0.4,2.6-0.8,3.5-0.8c1.8,0,3.8,0.8,5.8,0.8c1,1.1,1.8,1.1,1.8,2.2
		C545.2,19.5,545.2,20.3,545.2,22.4z M467.5,10.9l-0.2-0.6l-0.5,1C467.2,10.9,467.3,10.9,467.5,10.9z M468.7,14.9l-0.8-0.7
		C467.3,14.9,468.7,14.9,468.7,14.9z M473.4,9.8c-1,0.5-1,0.5-1.4-0.2l0.5,0.7c-0.6,0.6-0.6,0.6-0.6,0.6s0,0,0.1,0.4
		c0,0,0,0.1,0.2,0.4l0.2-1.1v-0.2C472.4,10.3,472.4,10.3,473.4,9.8z M478,7.7c-1.1-1.6-1.1-1.6-1.7-1.1L475.7,7c0.5,1,0.5,1,1,0.2
		C476.6,7.3,477.6,6.9,478,7.7z M489.2,13.4c0,0-0.1,0.4-0.1,0.5l0.1,0.2C489.6,13.9,489.8,14.1,489.2,13.4z M491.3,10.3
		c-0.2,0-0.6,0.2-0.7,0.6l0.1,0.1l0.6-0.1C491.3,10.5,491.3,10.3,491.3,10.3z M498.6,13.4c0,0,0,0-0.4-0.4c0-0.2,0-0.2,0-0.2
		c-0.1,0-0.1,0-0.1,0v-0.1c-0.4,0.7-0.6,1.1-0.8,1.2h0.2C497.5,13.9,497.5,13.9,498.6,13.4z M502.8,17.1c-1.3-0.7-1.3-0.7-1.3-0.7
		S501.8,17.5,502.8,17.1z M505.8,20.3c0,0,0,0-0.4-1.1c-0.7,0.5-0.7,0.5-0.7,0.5c0.1,0.8,0.1,0.8,0.1,0.8L505.8,20.3z M511.6,15.5
		c0,0.1,0,0.1,0,0.4c0,0,0,0,0.2,0C512,15.9,511.8,15.7,511.6,15.5z M514.8,22.4c0,0,0,0-0.7,0C514.1,22.4,514.1,23.5,514.8,22.4z
		 M516.7,20.3c0-0.8,0-0.8-0.8-0.8c0,0.8,0,0,0,0.8H516.7z M517.7,23.5c0,0,0,0-1,0c0,0,1,0,1,1C517.7,23.5,517.7,23.5,517.7,23.5z
		 M521.8,20.3c-1.2,0-1.2,0-1.2,1.1C521.8,21.4,521.8,21.4,521.8,20.3z M521.8,23.5c-1.2,0,0,1,0,1S521.8,24.4,521.8,23.5z
		 M522.8,22.4c-1.1-1-1.1-1-1.1,0C522.8,23.5,522.8,23.5,522.8,22.4z M523.6,22.4c0,0,0,0,1.1,0c0-1-1.1-2-1.1-2
		C523.6,21.4,523.6,21.4,523.6,22.4z M523.6,24.4c0,0,0,0.8,0,1.9C523.6,26.3,524.6,25.3,523.6,24.4z M524.6,21.4
		c0.8,0,0.8,0,0.8-1.1c0,0,0,0-0.8,0C524.6,21.4,524.6,21.4,524.6,21.4z M525.5,34c-0.8,0,0,0-0.8-1.1c0,1.1,0,1.1,0,1.1
		c0,1.1,0,1.1,0,1.1C525.5,35.1,526.7,35.1,525.5,34c1.2,0,1.2,0,1.2,0S525.5,32.9,525.5,34z M525.5,64.3c0,0,0,0-0.8,0
		C525.5,65.2,525.5,65.2,525.5,64.3z M524.6,87.3h0.8l1.2-0.8c0-1.1,0-1.1,0-1.1h-1.2C525.5,86.5,525.5,86.5,524.6,87.3z
		 M524.6,99.9c0.8,0,0.8,0,2,0c0,0,0-0.7-1.2-0.7c1.2,0,1.2,0,1.2-1.1c0,0,0,1.1-1.2,1.1C525.5,99.2,525.5,99.9,524.6,99.9z
		 M527.5,93.3c0,0,0,0-2,1c0,1,0,1,0,1c0-1,1.2-1,1.2-1C527.5,94.3,527.5,94.3,527.5,93.3z M529.3,101.8h-0.7c-1.1,1.2,0,1.2,0,2
		c0,0-1.1,0-1.9,0c-1.2,1,0,1.8-1.2,2.9h1.2c0.8,0,0-1.1,0-1.9c0.8,0,0.8,0,0.8,0c1.1,0,1.1-1,1.1-1h0.7c0-0.8,0-0.8,0-0.8V101.8z
		 M527.4,51.2c0.8,0,0.8,0,0.8-1C528.2,50.2,528.2,51.2,527.4,51.2c0,0,0,0.8-1,0.8c1,0,1,0,1.8,0C528.2,52,528.2,51.2,527.4,51.2z
		 M526.7,28.1c0-0.8,0.8-0.8,0.8-0.8s0,0-0.8,0C526.7,27.3,526.7,27.3,526.7,28.1z M528.6,35.8v-0.7c-1.1,0.7-1.9,0-1.9,0.7
		c0.8,0,0.8,0,0.8,0C528.6,35.8,528.6,35.8,528.6,35.8z M527.5,39.8h-0.8C527.5,40.9,527.5,40.9,527.5,39.8z M527.5,71.9v-1h-0.8
		C527.5,71,527.5,71.9,527.5,71.9z M526.7,96.2c0,1.1,0,1.1,0.8,1.1c0-1.1,0-1.1,0-1.1v-1C526.7,95.2,526.7,96.2,526.7,96.2z
		 M528.1,58.1c0-1,0-1,0-1v-1.1c-0.7,0-0.7,1.1-0.7,1.1C527.4,58.1,527.4,58.1,528.1,58.1z M527.5,22.4c0,0,1.1,0,1.1-1
		c0.7,0,0.7,0,0.7-1.1c-0.7,0-0.7,1.1-0.7,1.1C528.6,22.4,527.5,21.4,527.5,22.4z M528.2,44.8c0-1-0.7-1-0.7-1
		S527.5,44.8,528.2,44.8z M529.7,25.3c-0.4,0-0.4,0-0.4,0s0-0.8-0.7-0.8v0.8h0.7c0,0.1,0,0.5,0,0.5
		C529.6,25.7,529.6,25.4,529.7,25.3z M529.3,31.9c0-0.8,0-0.8-0.7-0.8v0.8l0.7,1C529.3,31.9,529.3,31.9,529.3,31.9z M528.6,53.6
		c0.7,0,0.7,1.1,0.7,1.1v-1.1H528.6z M529.3,82.6c0-1-0.7-1-0.7-1s0,0,0,1C528.6,82.6,528.6,82.6,529.3,82.6z M529.3,84.7
		c0-1.2-0.7-1.2-0.7-1.2S528.6,84.7,529.3,84.7z M529.3,87.3c0-0.8,0-0.8-0.7-0.8v0.8l0.7,1C529.3,87.3,529.3,87.3,529.3,87.3z
		 M529.3,108.8c0-1-0.7-1-0.7-1c0,1,0,1,0,1H529.3z M530.8,25.7c0,0.1-0.1,0.1-0.1,0.4C530.8,25.9,530.8,25.9,530.8,25.7z
		 M533.3,24.4c0,0,0,0,1,0c0,0,0-1-1-1C533.3,24.4,533.3,24.4,533.3,24.4c-0.8,0-0.8,0.8-0.8,1.9C532.4,25.3,534.2,25.3,533.3,24.4z
		 M537.2,22.4c-1,0-1,1.1-1,1.1h1V22.4z M537.2,20.3c0,0,0,0,0.8,0v-0.8C537.2,19.5,537.2,19.5,537.2,20.3z M539.4,23.5
		c0,0,0,1-1.3,1c1.3,0,1.3,0,1.3,0C539.4,23.5,539.4,23.5,539.4,23.5z"/>
	<path id="XMLID_416_" class="st0" d="M613.4,135.7c-0.7,0.8-1.3,1.4-1.8,2.2c-0.7,0.8-1.9,2.3-3.5,2.4c-1.6,2-4.6,3.1-7,3.8
		c-0.1,0-0.1,0-0.2,0s-0.1,0-0.2,0.1c-0.7,0.1-1.6,0.2-2.4,0.4c-3.4,0.4-5.8,0-8.3-0.7c-3.5-1-6.4-3-8.5-5.6c0,0.1-1.6-0.8-3.5-4.6
		c-3.8-7.9-8.2-23-8.3-24.1c-0.4-1-0.7-2.2-0.8-3.5c-0.4-1.8-0.8-3.8-0.8-4.8c-1.2-2.9-1.2-5-2.2-6.8c-1-1.1-1-1.9-1-3
		c0-2.9-1-5.9-2.8-7.8c0-1-1.1-1.8-3-1.8c-2.2,0-2.2,0.8-3,2.9c0,1.9-1.1,2.9,0,4.8c0,1.9-1.1,3-1.1,3.8c0,3.8,1.1,7,1.1,10.9v2.8
		c-1.1,1-1.1,3,0,4.9c0,0,0,0.8,0,1.9c-1.1,4-2.9,5.9-7.7,4c-1.1,0-3-1.9-3-4V42.5c0.8-1,0-2.8,0-4.7c0-1,0-3,0.8-4
		c2.2-1.1,3-1.9,4.2-1.9h10.6c4.8,0,8.8,0.8,12.7,4c2.6,1.9,4.8,3.8,5.8,7.6c1,2.2,1,5.2,2,7.9v4c-1.1,1-1.1,1-1.1,1.8
		c1.1,1.1,1.1,2,0,3c0,0.8,0,0.8,0,2c0,0,0,0,0,0.8c-1,3-1.9,7-2.9,10.8c0,0,0,0-1.2,0c-1.9,0.8-1.9,2.8-2.6,4.8c-1.1,0-1.1,1.1,0,2
		c0.7,4.8,1.8,9.8,3.8,14.5c0,3.1,1,6,1.9,9.7c0.6,2,3,12.7,7.6,22.9c1.7,2.8,3.4,4.2,3.6,4.4c2.3,1.6,4.4,2.3,7,2.3
		c0.2-0.1,0.5-0.1,0.7-0.1c1.1-0.2,4-1.9,4.7-2c0.7-0.8,0.7-0.8,0.7-0.8c0.4-2,1.8-2.3,3.8-3.1c0,0,0.5-0.8,1.4-0.1
		c1.6,1.2,3.6,1.6,4.6,3.6C613.8,133.4,614,134.8,613.4,135.7z M549.4,111.9c0-1.1,0-1.1-0.8-1.1c0,0,0,0,0,1.1H549.4z M549.4,39.8
		c0,0,0,0,0-1.1C548.5,38.7,548.5,39.8,549.4,39.8z M549.4,42.5c0-1,1.2-1,0-1V42.5c0,0,0,1,1.2,1c0.8,0,0-1,0-1
		S550.6,42.5,549.4,42.5z M550.6,45.7v-1.1c0,1.1-1.2,1.1-1.2,1.1C550.6,45.7,550.6,45.7,550.6,45.7z M549.4,55.4c0,0,0,0,0,1
		c1.2,0,1.2,0,1.2,0C550.6,55.4,550.6,55.4,549.4,55.4z M551.4,85.5h0.8v-0.8c-0.8-1.1-1.7-2-2.9-2.9c0,0.8,0,1.8,1.2,2.9
		c-1.2,0-1.2,0-1.2,0C550.6,84.7,551.4,84.7,551.4,85.5z M549.4,95.2c0-0.8,1.2-0.8,0-0.8C549.4,94.4,549.4,94.4,549.4,95.2
		c1.2,0,1.2,0,1.2,0C550.6,94.4,550.6,95.2,549.4,95.2z M553.3,45.7c-1.1,0-2.8,0.8-2.8,1.9c0,0,0.8,1.1,0.8,0
		C552.2,46.5,553.3,46.5,553.3,45.7z M550.6,61c0,1.2,0.8,1.2,0.8,1.2V61C551.4,61,551.4,61,550.6,61z M551.4,68.1
		c0.8,0,0-1.1,0-1.1c-0.8,0-0.8,1.1-0.8,1.1s0,0,0,0.8C550.6,68.9,551.4,68.9,551.4,68.1z M551.4,89.5c0-1,0-1,0-1
		c-0.8,0-0.8,0-0.8,0C550.6,89.5,550.6,89.5,551.4,89.5z M551.4,92.5h-0.8v0.8L551.4,92.5z M550.6,102.2h0.8c0,0,0,0,0-1
		C550.6,101.2,550.6,102.2,550.6,102.2z M551.4,104.1v-1c0,0,0,0-0.8,0C551,103.7,551.3,104,551.4,104.1z M552.2,53.5c0,0,0,0-0.8,0
		C552.2,53.5,552.2,54.5,552.2,53.5z M552.2,64.1c-0.8-1.1-0.8-1.1-0.8-1.1v1.1H552.2z M551.4,73.9h0.8v-1.1
		C552.2,72.8,552.2,73.9,551.4,73.9z M554.3,76.6h-1h-1.1c0-0.8,0-0.8,0-0.8l-0.8-1.1c0,1.1,0,1.1,0.8,1.1c0,0-0.8,0-0.8,0.8
		c0.8,0,0.8,0,0.8,0s0,0,0,1.1c0-1.1,1.1-1.1,1.1-1.1s0,1.1,1,1.1C554.3,77.7,554.3,77.7,554.3,76.6z M552.2,104.9c0,0,0,0-0.5-0.4
		c-0.4,0.4-0.4,0.4-0.4,0.4H552.2z M553,106c-0.1,0-0.4,0-0.7,0C552.2,106.9,552.2,106.1,553,106z M554.3,75.8c0-1.1-1-1.1-1-1.1
		S553.3,75.8,554.3,75.8z M556.2,36.9c0.8-1,0-1,0-1c0-1.1-1.1-1.1-1.1-1.1c0,1.1,0,1.1,0,1.1L556.2,36.9z M566.9,68.9
		c2-0.8,3-2.9,4-4.8v-7.8c0-1.8-1-4.9-1-7c-1-5.9-7-6.8-10.7-4.8c-1.1,0-1.1,0-1.1,0c-1.1,1.9-3,3-1.9,4.8v2.9c0,1.2-1.1,2.3,0,2.3
		c0.8,3.7,0,6.5,0,9.6V67c0.8,1.9,1.9,1.9,3,3C561.1,71.1,564,71.1,566.9,68.9z M558.1,74.7c-1.1,0-1.1,0-1.1,0c0,1.1,0,1.1,1.1,1.1
		C558.1,74.7,558.1,74.7,558.1,74.7z M559.2,36.9c0,0,0,1,1,1C559.2,36.9,559.2,36.9,559.2,36.9z M564,80.7c0-1-1.1-2-1.8-2
		C562.9,78.7,562.9,79.7,564,80.7z M562.9,38.7c0,1.1,1.1,1.1,1.1,1.1v-1.1C562.9,38.7,562.9,38.7,562.9,38.7z M565,38.7v-0.8
		C564,37.9,564,38.7,565,38.7z M565.9,78.7c0,0,0,0-1,0C565,79.7,565,78.7,565.9,78.7c0,0.2,0.1,0.4,0.1,0.5
		C566.3,78.7,566.8,78.7,565.9,78.7z M566.4,80.7H565C565.8,81.5,565.9,81.7,566.4,80.7z M568.1,74.7v1.1c-1.2,0-1.2,0.8-1.2,0.8
		h1.2v-0.8c0,0,0,0,0.8,0C568.9,74.7,568.1,74.7,568.1,74.7z M568.1,80.7v-1c-1.2,0-1.2,0-1.2,0S566.9,79.7,568.1,80.7z M568.9,89.5
		h-0.8c0,0,0,0,0,1.1L568.9,89.5z M569.9,87.5c0-1-1-1-1-1c0,1,0,1,0,1H569.9z M569.9,42.5h1c0-1-1-1-1-1S568.9,41.6,569.9,42.5z
		 M569.9,72.8c0,1.1,0,1.1,0,1.1c0,0.8,0,0.8,0,0.8c1,1.1,1,0,1,0C570.8,73.9,570.8,73.9,569.9,72.8z M571.8,96.2c-1,0-1,0,0-1l1,1
		c0-1,0-1,0-1c-1-0.8-1-0.8-1-0.8c-1,0-1,0-1,0s0,0-1-1.1c0,0,0,0,0,1.1c0,0,0,1.8,1,1.8C570.8,97.1,570.8,97.1,571.8,96.2z
		 M571.8,102.2c0-1,1-1,0-1.9v1C570.8,101.2,571.8,101.2,571.8,102.2z M571.8,41.6l1-1.1c-1,0-1,0-1,0V41.6z M572.8,43.5h1.1v-1
		C572.8,42.5,572.8,43.5,572.8,43.5z M572.8,99.2c1.1,0,1.1,0,1.1,0c-1.1,0,0-0.8-1.1-0.8C572.8,98.3,572.8,98.3,572.8,99.2z
		 M574.6,100.3c-0.7,0-0.7,0-0.7,1C573.8,101.2,574.6,101.2,574.6,100.3z M575.6,110.8c-1.1,0-1.1-0.8-1.1-0.8
		C574.6,110.8,574.6,110.8,575.6,110.8z M575.6,50.3h2c0-1,0-1,0-1C576.5,49.4,575.6,49.4,575.6,50.3z M575.6,56.3
		c0,0.8,0.8,0.8,0.8,0C576.5,56.3,576.5,56.3,575.6,56.3z M575.6,107c0.8,0,0.8,0,0.8-1h-0.8C575.6,107,575.6,107,575.6,107z
		 M576.6,117.2c-0.2-0.5-0.2-0.7-0.5-1.4C575.5,116.8,575.4,116.9,576.6,117.2z M577.1,112.4c0.2,0.8-0.7,1.1-1.2,2.4
		C576.7,114.5,577.3,113.2,577.1,112.4z M577.1,118.5l0.8-0.2c-0.2-1-0.2-1-0.2-1S577.7,117.3,577.1,118.5z M580.6,122.7
		c0,0,0,0,0-1.2h-2.3c0-0.8,0-0.8,0-0.8l-0.8-1c0,1,0,1,0.8,1c0,0-0.8,0-0.8,0.8c0.8,0,0.8,0,0.8,0s0,0,0,1.2c0-1.2,1.1-1.2,1.1-1.2
		S579.4,122.7,580.6,122.7z M578.3,116.1c-0.2,0-0.4,0.1-0.5,0.2C578.4,116.5,578.5,116.8,578.3,116.1c0,0,0,0-0.4-1
		C577.1,115.5,577.9,115.1,578.3,116.1z M579.4,119.7c0,0,0,1,1.2,1C580.6,119.7,579.4,119.7,579.4,119.7z M581.3,125
		c-1.1,0-1.1-0.8-1.1-0.8C580.2,125,580.2,125,581.3,125z M583.1,128.2c0-1-1.1-1-1.1-1c0,1,0,1,0,1l1.1,0.8
		C583.9,128.2,583.1,128.2,583.1,128.2z M586.3,133.3c0,0,0.1,0.1,0.2,0.4c0,0,0.1,0,0.2-0.1c0-0.1,0-0.2,0-0.2
		S586.8,133.3,586.3,133.3z M587.3,137.5c-0.7,0.5-0.7,0.5-0.7,0.5l0.5,0.6L587.3,137.5z M589,138.3c-0.7,0.5-0.7,0.5-0.2,1.2
		C589.4,139,589.4,139,589,138.3z M600.5,140c-0.5-0.7-0.5-0.7-1.1-0.2c0,0-0.7,0.5-1.2-0.2c1,1.3,1,1.3,1.7,0.8L600.5,140z
		 M604.3,136.3c0,0,0,0-0.1-0.2c-0.1-0.1-0.2-0.2-0.4-0.5l-0.1,1.1l-0.1,0.2c0,0,0,0-0.8,0.5c0.8-0.5,0.8-0.5,1.4,0.1l-0.6-0.6
		C604.3,136.3,604.3,136.3,604.3,136.3z M607.3,132.1l0.8,0.7C608.8,131.9,607.3,132.1,607.3,132.1z M609.2,136
		c-0.2,0.2-0.5,0.4-0.7,0.4l0.1,0.4L609.2,136z"/>
	<path id="XMLID_479_" class="st0" d="M593.2,92.1c0-1.9,0-4,0-5.8c0-1.9,0-2.9,0-4.9c0-1,0-1.9,0-1.9c1-1,1-1,0-1.9c0-2,0-4,0-6.8
		c0-2,1-4,0-5.8c0-4,0-6.8,0-10.8c-1-3.8,0-7.8,0-11.5c0-1.1,0-3,0-4c-1-2.9,0-4,1.9-4.9c1.1-1,2-1,2-1c1-1,1.9-1,2.9,0
		c0,0,1,0,1.9,1c1.1,1,1.9,2,1.9,4c-0.8,1.9,0,4.9,0,6.7c0,1.9,0,4.9-1.9,5.9c0,1,0,1,1.1,1c0.8,1,0.8,2.9,0.8,3.8c0,2,1,4-0.8,5.9
		c0,0,0,0,0,1c0.8,1.1,0.8,3,0.8,3.8c-0.8,2.9,0,4.9,0,6.8s0,2.9-0.8,4.9c0,2.9,0,4.8,0.8,7.8c0,1.8,0,3.7-0.8,5.8
		c0,1,0,2.9,0.8,4.8c0,2,0,4,0,6.8c-0.8,1.1-0.8,2,0,4c0,1.9,0,4.8,0,7.7c-0.8,1.9-0.8,3-2.9,4c-1.9,0-3.8,1.9-5.9,0c-1-1-1-2-1.9-3
		c-1-2.9,0-5.9,0-9.6c0-1.9,0-4,0-5.9C593.2,97,593.2,94,593.2,92.1z M596.2,45.4c0,1,0,1,0,1c1,0,1,0,1,0
		C597.1,45.4,597.1,45.4,596.2,45.4z M597.1,53.2c-1,0-1,1-1,1c1,0,1,0,1,0V53.2z M600,90.2c-1-1.1-1-1.1-1.9-1.1c0-1,0-1.9-1.9-1.9
		c1.9,1.9,1.9,1.9,0,3c1,1,1,0,1.9-1.1C599,90.2,599,91.1,600,90.2z M597.1,44.5h1H597.1z M598.1,50.3c0,0,0,0-1,0c0-1,0-1,0-1
		s0,0,0,1C598.1,50.3,598.1,50.3,598.1,50.3z M597.1,51.3c0,1,0,1,0,1V51.3z M597.1,57.2h1H597.1z M597.1,61c0-1,0-1,0-1
		C597.1,61,597.1,61,597.1,61z M599,80.5c-1,0-1,0-1,1h-1C598.1,81.4,599,81.4,599,80.5z M597.1,84.4c0,1,0,1,0,1c1,0,1,1,1,1v-1
		C598.1,85.4,598.1,85.4,597.1,84.4c1,0,1.9,0,1-1h-1c1,0,1,0,1-1.1c-1,0-1,0-1,1.1V84.4z M597.1,93.1c1-1,0-1,0-1
		S597.1,92.1,597.1,93.1z M598.1,109.5c0,0,0,0,0-0.8c0,0,0,0.8-1,0.8C597.1,110.6,598.1,109.5,598.1,109.5z M598.1,114.4
		c0,0,0,0-1,0C598.1,114.4,598.1,114.4,598.1,114.4z M599,42.7c-1,0-1,0-1,0S598.1,42.7,599,42.7z M598.1,46.4c1,1,1,0,1,0H598.1z
		 M598.1,55.1c1,1.1,1,1.1,1,1.1v-1.1c0,0,0,0-1-1C598.1,55.1,598.1,55.1,598.1,55.1z M598.1,62c1,1.1,1,1.1,1,1.1v1v-1c0,0,1,0,1,1
		v-1C600,62,600,62,598.1,62c0,0,0,0,0,1.1V62z M598.1,66.8c0,0,0,0,0,1C598.1,66.8,598.1,66.8,598.1,66.8h1H598.1z M598.1,78.5
		c0,0,0,0,1,0c0-1,0-1,0-1c-1-1,0-1,0-1s0-1.1,0,0c-1,0-1,0,0,1C598.1,77.6,598.1,77.6,598.1,78.5z M598.1,79.5 M598.1,99.9
		c1,1,1,1,1.9,0C599,99.9,599,99.9,598.1,99.9z M598.1,105.8c0,0,0,1,1,1v-1C599,105.8,599,105.8,598.1,105.8z M599,38.7
		c0,1,0,1,0,1s0,0,1,0C599,39.7,599,39.7,599,38.7z M599,42.7c1,0,1,0,1,0H599z M599,51.3c0,0,0,0,0,1C599,52.3,599,52.3,599,51.3
		c1,0,0,0,0-1V51.3z M600,59.1c0-1,0-1-1-1C599,58.1,599,59.1,600,59.1z M599,93.1 M600,101.8v1V101.8c-1,0-1,0-1,0H600z M600,95
		C599,95,599,95,600,95C600,94,600,94,600,95z M601,55.1c0,0,0,0-1,0H601z M600,106.7v-1V106.7z M600,110.6c1,0,0-1.1,0-1.1
		S600,109.5,600,110.6z"/>
	<path id="XMLID_513_" class="st0" d="M649.2,63.9c0,1.9,0,4.1,0,5.9c0,1.9-1,3-1.8,4.1c-1.1,2.9-2.2,4.8-4.1,6.7c-1.8,2-4,4-6.7,4
		c-1.9,0-4.9,1.1-7.8,1.1c-1.1,0-1.9,0.8-3,2.9c0,1.9,0,3,0,4.8c-1,1.1-1,1.9,0,3c1.1,1.8,1.1,2.8,0,4.7c-1,3,0,7,0,9.8
		c0,1.9,0,4.1-1,5.9c0,1.9-1.9,1.9-3,1.9c-1.9,1.1-4.8,0-5.9-2.9c-0.8-0.8-0.8-3-0.8-4.9c0-2.9,0-6.8,0-10.7v-1.1
		c0.8-1,0.8-1.7,0-2.8c0-1.1,0-1.9,0-4c0.8-0.8,0-0.8,0-1.9c0-3,0-5.9,0.8-7.8c0-1.1,0-1.1,0-2c-0.8-1.9-0.8-4.9,0-6.7
		c0-1.1-0.8-2.2-0.8-3c0-5,0.8-8.8,0-13.8c0-3.7,0.8-6.6,0-10.7c0-2.9,0.8-5.9,0-8.8c0-1.1,0-1.9,0.8-3c1.1-1,1.1-1.8,3-1.8
		c2.9,0,5.9-1.1,8.8-1.1c3,0,5.9,1.1,8.9,1.1h0.8c3,1.8,4.9,2.9,7,4.8c0.8,0,0.8,1.1,0.8,1.1c0,1.8,2.2,2.9,2.2,3.7
		c1.8,3,1.8,7,1.8,9.8C649.2,56.2,649.2,59.9,649.2,63.9z M619,45.4c0,0,0,0,1,0c0,1,0,1,0,1c1.1,1.1,1.1,1.1,1.9,1.1v-1.1
		c0-1-0.8,0-0.8,0c-1.1,0-1.1,0-1.1-1C619,44.6,619,45.4,619,45.4c0-0.8,0-0.8-0.8-0.8C618.1,44.6,618.1,45.4,619,45.4z M618.1,52.3
		h0.8H618.1z M619,59.9c-0.8,0-0.8,0-0.8,1.1c0,0,0,0,0.8,0C619,59.9,619,59.9,619,59.9z M619,68.8c0,0,0,0-0.8,0
		C619,68.8,619,68.8,619,68.8z M619,90.4c-0.8,0-0.8,0-0.8,0H619z M619,100.1c0,0,0,0,0-1.1c0,0,0,0-0.8,0
		C618.1,100.1,619,100.1,619,100.1c0,0.8,0,0.8,0,0.8s-0.8,0,0,1.1V101C619,101,619.9,101,619,100.1z M618.1,107.9
		C618.1,106.9,618.1,107.9,618.1,107.9c0.8,0,0.8,0,0.8,0S619,107.9,618.1,107.9z M619,78.7c-0.8,1.1,0,1.1,0,1.9
		C619.9,79.7,619,79.7,619,78.7C618.1,78.7,618.1,78.7,619,78.7z M619,84.5c1-1.1,1,0,1-1.1c0,0,0,0-1,0
		C618.1,83.5,618.1,83.5,619,84.5z M619,42.4c0,0,0,0,0-0.8V42.4c-0.8,0,0,1.1,0,1.1V42.4z M619,37.6c0,1.1,0,1.1,0,1.1s0,0,1,0
		L619,37.6z M619,49.4c0,0,1-1.1,0-1.1V49.4z M619.9,57.1h-1c0,0,0,0,0,1C619,57.1,619.9,57.1,619.9,57.1z M619,62.9c1,0,1,0,1,0
		H619z M619,63.9 M619,75.7c1,0,2,0,2.9,0C621,75.7,619.9,74.7,619,75.7z M619.9,91.5c-1,0-1,0-1,0.8h1V91.5z M619,109.9
		C619.9,109.9,619,109.9,619,109.9V109C619,109.9,619,109.9,619,109.9z M619,110.8 M619,112.7 M619.9,37.6c1.1,0,1.1-1.1,1.1-1.1
		S619.9,36.5,619.9,37.6z M619.9,52.3v1.1V52.3z M619.9,55.1c0,1.1,1.1,0,1.1,0v-1.1v-0.7c0,0.7,0,0.7,0,0.7v1.1
		C621,55.1,621,55.1,619.9,55.1z M619.9,70.9c0,0,0,0,0,0.8V70.9z M621,80.6c0,0,0,0,0,1h-1.1c1.1,0,1.1,0,1.1,0V80.6z M621,86.5
		c0,0,0,0-1.1-0.8C619.9,86.5,619.9,86.5,621,86.5c0,1,0,1,0,1S621,87.4,621,86.5z M619.9,95.2c0,1.1,0,1.1,0,1.1c1.1,0,1.1,0,1.1,0
		C621,95.2,621,95.2,619.9,95.2z M619.9,104.9l1.1-1C619.9,104,619.9,104,619.9,104.9z M619.9,107.9c0-1.1,1.1-1.1,1.1-1.1
		L619.9,107.9z M621,111.9v-1.1c-1.1,0-1.1,1.1-1.1,1.1H621z M621,49.4h0.8H621c0,1.1,0,1.1,0,1.1s0,0,0,0.8c0-0.8,0-0.8,0-0.8
		S621,50.5,621,49.4z M621,73.9c0.8,0.8,0.8,0,0.8,0s0,0,1.1,0c0,0.8,0,0.8,1.1,0.8c0-0.8-1.1-0.8-1.1-0.8c0-1.1,0-1.1-1.1-1.1
		c0,0,0,0,0,1.1C621.8,73.9,621.8,73.9,621,73.9z M621,78.7c0,1.1,0,1.1,0.8,1.1c0,0,1.1,0.8,1.1,0C621.8,79.7,621,79.7,621,78.7z
		 M621.8,90.4c0-1.1,0-1.1-0.8-1.1c0,1.1,0.8,0,0,0h0.8C621.8,90.4,621.8,90.4,621.8,90.4z M621,98.1v1c0,0,0,0,0.8,0H621V98.1z
		 M621.8,41.6c0,0,0,0,0,0.8C621.8,41.6,621.8,41.6,621.8,41.6z M621.8,45.4c1.1,0,1.1,0,1.1-0.8c0,0,0,0-1.1,0V45.4z M621.8,95.2
		v-0.8V95.2z M621.8,100.1c0,0.8,0,0.8,0,0.8h1.1c0-0.8,0-0.8,0-0.8H621.8z M624,35.7h-1.1c0,0,0,0,0,0.8L624,35.7z M622.9,42.4
		c0,0,0,0,1.1,0c0,0,0,0,0-0.8v0.8C624,41.6,622.9,41.6,622.9,42.4z M622.9,47.5c0,0,0,0,0,0.8V47.5z M622.9,71.7c0,0,1.1,0,1.1-0.8
		h-1.1V71.7z M624,40.5c0.8,0,0.8,0,0.8,0H624z M624,79.7v0.8V79.7z M624,84.5c0,1.1,0,1.1,0,1.1V84.5c0,0,0,0,0-1.1
		c0.8,1.1,0.8,1.1,0.8,0l1-0.8C624.8,82.6,624.8,83.5,624,84.5z M624.8,36.5c0,0,0,0,0,1.1V36.5z M638.5,47.5c0-1.1,0-1.1-1.1-1.1
		c-0.8,0-1.7-1-2.8-1.8c-1.9-1.1-4-1.1-5.9,0c-1.9,0.8-3,1.8-3,3.7c0,3-1,5,0,6.8c0,4,1.1,7.8,0,11.8c-1,1.9,1.1,4,1.1,5.9
		c0,0,0.8,0,1.9,0c1.9,1.1,2.9,1.1,4.8,0c3-1.1,4.9-3,5.8-5.9c0-4,0-7.8-0.8-12.8c0-0.7,0-2.8,0-4.7
		C638.5,49.4,638.5,48.3,638.5,47.5z M625.8,38.7c1.1,0,1.1,0,1.9,0c0,0,0-1.1-0.8-1.1L625.8,38.7z M625.8,77.6c0-0.8,0-0.8,0-0.8
		S625.8,76.7,625.8,77.6z M627.7,82.6c0,0,0,0-0.8,0C627.7,82.6,627.7,82.6,627.7,82.6z M628.8,80.6v1h-1.1c1.1,0,1.1,0,1.1,0V80.6z
		 M628.8,37.6v-1.1C627.7,37.6,628.8,37.6,628.8,37.6c0,1.1,0,1.1,0,1.9c0,0,0,1,1.1,1c0.8,0-1.1-1,0-1v-0.8
		C629.9,38.7,628.8,38.7,628.8,37.6z M628.8,82.6h1.1H628.8z M630.7,35.7v0.8V35.7h1H630.7z M631.7,81.5h1.1c0,0,0.8,0,0.8-1
		C632.8,81.5,632.8,81.5,631.7,81.5z M633.6,36.5c0,0,0-0.8-0.8,0C632.8,37.6,633.6,36.5,633.6,36.5s0,0,1.1,0
		C633.6,36.5,633.6,36.5,633.6,36.5z M633.6,38.7v-1.1V38.7C633.6,38.7,632.8,38.7,633.6,38.7z M634.7,78.7v-1.1
		C634.7,78.7,634.7,78.7,634.7,78.7z M635.8,38.7c0.8-1.1,0.8-1.1,0.8-2.2C635.8,37.6,635.8,37.6,635.8,38.7c0,0,0,0,0,0.8
		C635.8,38.7,635.8,38.7,635.8,38.7z M637.4,76.7c0-1.1-0.8,0-0.8-1.1C636.6,76.7,636.6,76.7,637.4,76.7z M636.6,80.6
		C636.6,80.6,636.6,81.5,636.6,80.6c0,0,0,0,0.8,0H636.6z M637.4,38.7 M638.5,40.5c0,0,0,0-1.1,0C638.5,40.5,638.5,40.5,638.5,40.5
		c0,1.1,0,1.1,0,1.1c-1.1,0-1.1,0-1.1,0h1.1C638.5,41.6,638.5,41.6,638.5,40.5z M638.5,39.5h0.8H638.5z M638.5,75.7c0,0,0,0,0-1
		C638.5,75.7,638.5,75.7,638.5,75.7z M638.5,78.7c0,0,0.8,0,0.8-1.1c0,0,0,0-0.8,0C638.5,77.6,638.5,77.6,638.5,78.7
		c0.8,0,0.8,0,0.8,0S639.4,78.7,638.5,78.7z M639.4,38.7c0,0.8,1.1,0,1.1,0C639.4,38.7,639.4,38.7,639.4,38.7z M639.4,42.4
		c1.1,1.1,1.1,0,1.1,0c0,1.1,0,2.2,1.1,2.2c0,0,0,0.8,0.8,0.8c0-0.8,0-0.8,0-0.8c-0.8,0-0.8,0-0.8,0c0-1.1-1.1-1.1-1.1-2.2
		C640.4,42.4,640.4,42.4,639.4,42.4z M640.4,72.8c0,0-1.1,0,0,1.1c0,0,1.1,0,1.1-1.1c0.8-1.1,0-1.1,0-1.1s0,0-1.1,0
		C640.4,71.7,640.4,71.7,640.4,72.8z M641.5,77.6h-1.1H641.5z M642.4,46.4h-0.8C642.4,46.4,642.4,46.4,642.4,46.4z M643.3,49.4
		c0-1.1,0-1.1-1-1.1C642.4,49.4,642.4,49.4,643.3,49.4z M642.4,51.3v-0.8V51.3c0,0,0,0,0,1V51.3z M643.3,59.9h-1H643.3z M644.4,65.8
		v1.1c-1.1-1.1-1.1-1.1-2-1.1C643.3,66.9,643.3,66.9,644.4,65.8z M643.3,42.4 M644.4,55.1c0.8,0,0.8,1.1,0.8,0H644.4c0,0,0,0,0-1.1
		c-1.1,0-1.1,0-1.1,0h1.1C644.4,55.1,644.4,55.1,644.4,55.1z M645.2,62.9c0-0.8,0,0-0.8,0h-1.1h1.1H645.2z M643.3,69.8
		c1.1,0,1.1-1,1.1-1c-1.1,0-1.1,0-1.1,0V69.8z M644.4,72.8c0,0,0,0,0-1.1C644.4,72.8,644.4,72.8,644.4,72.8z"/>
</g>
</svg>
