<?xml version="1.0" encoding="utf-8"?>
<!-- Generator: Adobe Illustrator 21.1.0, SVG Export Plug-In . SVG Version: 6.00 Build 0)  -->
<svg version="1.1" id="Layer_1" xmlns="http://www.w3.org/2000/svg" xmlns:xlink="http://www.w3.org/1999/xlink" x="0px" y="0px"
	 viewBox="0 0 77.6 67" style="enable-background:new 0 0 77.6 67;" xml:space="preserve">
<path d="M71,11.5H54.7V6.8c0-3.7-3-6.8-6.8-6.8H28.1c-3.7,0-6.8,3-6.8,6.8v4.7H6.6C3,11.5,0,14.4,0,18.1v42.3C0,64,2.9,67,6.6,67H71
	c3.6,0,6.6-2.9,6.6-6.6V18C77.6,14.4,74.6,11.5,71,11.5z M21.4,64.9h-5.2V13.5h5.2V64.9z M23.4,13.5h29.3v51.4H23.4V13.5z
	 M54.7,13.5h5.2v51.4h-5.2V13.5z M23.4,6.8c0-2.6,2.1-4.8,4.8-4.8H48c2.6,0,4.8,2.1,4.8,4.8v4.7H23.4V6.8z M2,60.3V18
	c0-2.5,2-4.6,4.6-4.6h7.6v51.4H6.6C4.1,64.9,2,62.8,2,60.3z M75.6,60.3c0,2.5-2,4.6-4.6,4.6h-9.1V13.5H71c2.5,0,4.6,2,4.6,4.6V60.3z
	"/>
<path d="M32.7,21.2h9.9c0.6,0,1-0.4,1-1s-0.4-1-1-1h-9.9c-0.6,0-1,0.4-1,1S32.2,21.2,32.7,21.2z"/>
<path d="M47.9,52.8C47.8,52.8,47.8,52.7,47.9,52.8c-0.1-0.1-0.1-0.2-0.1-0.3c0.7-0.7,0.8-1.7,0.3-2.6s-1.4-1.3-2.4-1
	c-0.1,0-0.1,0-0.2,0c0,0-0.1-0.1-0.1-0.2c0-1-0.5-1.8-1.4-2.1s-1.9-0.1-2.5,0.7c-0.1,0.1-0.2,0.1-0.3,0c-0.6-0.8-1.6-1-2.5-0.7
	s-1.5,1.2-1.4,2.1c0,0.1,0,0.1-0.1,0.2c0,0-0.1,0.1-0.2,0c-0.9-0.2-1.9,0.2-2.4,1s-0.4,1.9,0.3,2.6c0.1,0.1,0.1,0.1,0,0.2
	s0,0.1-0.1,0.1c-0.9,0.5-1.3,1.4-1.1,2.3c0.2,1,0.9,1.7,1.9,1.8c0.1,0,0.1,0.1,0.1,0.1s0,0.1,0,0.2c-0.4,0.9-0.1,1.9,0.6,2.5
	c0.7,0.6,1.8,0.7,2.6,0.2c0.1,0,0.1,0,0.2,0c0,0,0.1,0,0.1,0.1c0.3,0.9,1.1,1.5,2.1,1.5s1.8-0.6,2.1-1.5c0-0.1,0.1-0.1,0.1-0.1
	s0.1,0,0.2,0c0.8,0.5,1.8,0.4,2.6-0.2c0.7-0.6,1-1.6,0.6-2.5c0-0.1,0-0.1,0-0.2l0.1-0.1c1-0.1,1.7-0.8,1.9-1.8
	C49.2,54.2,48.8,53.3,47.9,52.8z M46.9,55c-0.7,0.1-1.3,0.5-1.6,1.1c-0.3,0.6-0.4,1.3-0.1,1.9c0,0,0.1,0.1-0.1,0.2
	c-0.1,0.1-0.2,0-0.2,0c-0.6-0.4-1.3-0.4-1.9-0.2c-0.6,0.2-1.1,0.7-1.3,1.4c0,0,0,0.1-0.2,0.1c-0.2,0-0.2-0.1-0.2-0.1
	c-0.2-0.7-0.7-1.2-1.3-1.4c-0.2-0.1-0.5-0.1-0.8-0.1c-0.4,0-0.8,0.1-1.2,0.3c0,0-0.1,0.1-0.2,0S37.7,58,37.7,58
	c0.3-0.6,0.2-1.3-0.1-1.9c-0.3-0.6-0.9-1-1.6-1.1c0,0-0.1,0-0.2-0.2c0-0.1,0.1-0.2,0.1-0.2c0.6-0.3,1-0.9,1.1-1.6s-0.1-1.4-0.5-1.9
	c0,0-0.1-0.1,0-0.2s0.2-0.1,0.2-0.1c0.7,0.1,1.4,0,1.9-0.5s0.8-1.1,0.8-1.8c0,0,0-0.1,0.1-0.2c0.1,0,0.2,0,0.2,0.1l0,0
	c0.8,1.1,2.6,1.1,3.5,0c0,0,0.1-0.1,0.2-0.1s0.1,0.2,0.1,0.2c0,0.7,0.3,1.3,0.8,1.8c0.5,0.4,1.2,0.6,1.9,0.5c0,0,0.1,0,0.2,0.1
	s0,0.2,0,0.2c-0.5,0.5-0.7,1.2-0.5,1.9c0.1,0.7,0.5,1.2,1.1,1.6c0,0,0.1,0.1,0.1,0.2S46.9,55,46.9,55z"/>
<path d="M35.4,44.3c0.1,0,0.2,0,0.4-0.1c0.2-0.1,0.4-0.3,0.6-0.5l6.1-14.1c0.2-0.5,0-1.1-0.5-1.3L34.4,25c-0.2-0.1-0.5-0.1-0.8,0
	c-0.3,0.1-0.4,0.3-0.6,0.5l-6.1,14.1c-0.2,0.5,0,1.1,0.5,1.3l7.6,3.3C35.1,44.3,35.3,44.3,35.4,44.3z M29.1,39.5l5.3-12.2l5.8,2.5
	L34.9,42L29.1,39.5z"/>
</svg>
