<?xml version="1.0" encoding="utf-8"?>
<!-- Generator: Adobe Illustrator 21.1.0, SVG Export Plug-In . SVG Version: 6.00 Build 0)  -->
<svg version="1.1" id="Layer_1" xmlns="http://www.w3.org/2000/svg" xmlns:xlink="http://www.w3.org/1999/xlink" x="0px" y="0px"
	 viewBox="0 0 186.9 104" style="enable-background:new 0 0 186.9 104;" xml:space="preserve">
<path d="M186.9,48.5c0-11.5-4.7-21.9-12.2-29.5l2.6-2.6c0.5-0.5,0.5-1.3,0-1.8s-1.3-0.5-1.8,0l-3.6,3.6c-0.5,0.5-0.5,1.3,0,1.8
	l0.9,0.9l0,0c7.8,7.9,12.4,19,11.3,31.2c-1.7,18.6-16.7,33.7-35.3,35.3c-12.2,1.1-23.4-3.4-31.2-11.2l0,0l-1-1
	c-0.5-0.5-1.3-0.5-1.8,0l-3.6,3.6c-0.5,0.5-0.5,1.3,0,1.8s1.3,0.5,1.8,0l2.4-2.5c7.3,7.3,17,11.8,28,12.2v9.7h-7c-0.6,0-1,0.4-1,1
	s0.4,1,1,1h17c0.6,0,1-0.4,1-1s-0.4-1-1-1h-7v-9.7C168.5,89.6,186.9,71.1,186.9,48.5z"/>
<path d="M145.2,85.9c20.6,0,37.4-16.8,37.4-37.4s-16.8-37.4-37.4-37.4c-20,0-36.3,15.7-37.3,35.4c-0.3-0.1-0.7-0.3-1.1-0.4
	c-0.7-0.2-1.5,0.1-1.7,0.8s0.1,1.5,0.8,1.7c0.9,0.3,1.5,0.5,2,0.7C108.3,69.6,124.9,85.9,145.2,85.9z M111.3,47.9
	c-0.3-0.1-0.6-0.1-0.8-0.2c0.5-18.7,15.8-33.8,34.7-33.8c19.1,0,34.7,15.5,34.7,34.7c0,19.1-15.5,34.7-34.7,34.7
	c-18.3,0-33.3-14.2-34.6-32.2c0.1,0,0.2-0.2,0.3-0.2c0.6,0,1.1-0.5,1.3-1.1C112.4,48.9,112,48.1,111.3,47.9z"/>
<path d="M145.8,32.9l-1.8,2.5c-0.5,0.6-0.3,1.5,0.3,1.9c0.2,0.2,0.5,0.3,0.8,0.3c0.4,0,0.8-0.2,1.1-0.6l1.8-2.5l2.5,1.8
	c0.2,0.2,0.5,0.3,0.8,0.3c0.4,0,0.8-0.2,1.1-0.6c0.5-0.6,0.3-1.5-0.3-1.9l-2.5-1.8l1.8-2.5c0.5-0.6,0.3-1.5-0.3-1.9
	c-0.6-0.5-1.5-0.3-1.9,0.3l-1.8,2.5l-2.5-1.8c-0.6-0.5-1.5-0.3-1.9,0.3s-0.3,1.5,0.3,1.9L145.8,32.9z"/>
<path d="M156.9,57.1c-0.4-0.1-0.7-0.1-1-0.2c-0.5-0.1-1-0.3-1.4-0.4c-0.4-0.1-0.9-0.2-1.3-0.4c-0.7-0.2-1.5,0.3-1.7,1s0.3,1.5,1,1.7
	c0.4,0.1,0.9,0.2,1.3,0.3c0.5,0.1,1,0.3,1.5,0.4c0.4,0.1,0.8,0.2,1.2,0.3c0.1,0,0.2,0,0.3,0c0.6,0,1.2-0.5,1.4-1.1
	C158.2,58,157.7,57.3,156.9,57.1z"/>
<path d="M152.5,47.1c1.2,0.9,2.4,1.7,3.4,2.3c0.2,0.1,0.5,0.2,0.7,0.2c0.5,0,0.9-0.2,1.2-0.6c0.4-0.6,0.2-1.5-0.4-1.9
	c-0.9-0.6-2.1-1.4-3.2-2.2c-0.6-0.5-1.5-0.3-1.9,0.3C151.8,45.8,151.9,46.7,152.5,47.1z"/>
<path d="M159.3,51.6c0.9,0.6,2.1,1.4,2.7,2.1l0.1,0.1c0.3,0.3,0.7,0.5,1,0.5s0.6-0.1,0.9-0.3c0.6-0.5,0.6-1.4,0.1-2l-0.1-0.2
	c-0.6-0.7-1.6-1.5-3.3-2.6c-0.6-0.4-1.5-0.2-1.9,0.4C158.4,50.3,158.6,51.2,159.3,51.6z"/>
<path d="M162.7,55.9c-0.2,0.3-0.5,0.7-0.9,0.9s-0.9,0.4-1.4,0.5c-0.8,0.1-1.3,0.9-1.1,1.6c0.1,0.7,0.7,1.1,1.4,1.1
	c0.1,0,0.2,0,0.2,0c0.8-0.1,1.6-0.4,2.3-0.8c0.8-0.5,1.5-1.2,2-2c0.4-0.7,0.1-1.5-0.6-1.9C163.9,55,163.1,55.2,162.7,55.9z"/>
<path d="M148.8,55.5c-0.4,0-0.9,0-1.3,0.1c-1,0.2-2.1,0.5-3.1,1c-0.7,0.4-0.9,1.2-0.6,1.9c0.2,0.5,0.7,0.8,1.2,0.8
	c0.2,0,0.4,0,0.6-0.2c0.8-0.4,1.5-0.7,2.3-0.8c0.3,0,0.6-0.1,0.9-0.1c0.8,0,1.4-0.6,1.4-1.4C150.2,56.1,149.6,55.5,148.8,55.5z"/>
<path d="M151.4,42.5c-0.7-0.8-1.1-1.6-1.1-2.3c0-0.1,0-0.2,0-0.3c0.1-0.8-0.4-1.5-1.2-1.6s-1.5,0.4-1.6,1.2c0,0.2,0,0.4,0,0.7
	c0,1.3,0.6,2.7,1.8,4c0.3,0.3,0.7,0.5,1.1,0.5c0.3,0,0.6-0.1,0.9-0.3C151.8,43.9,151.9,43,151.4,42.5z"/>
<path d="M114.3,51.7c1.1,0.5,2.4,0.7,3.6,0.9l0.6,0.1c0.1,0,0.2,0,0.3,0c0.7,0,1.2-0.5,1.4-1.1c0.1-0.8-0.4-1.5-1.1-1.6l-0.7-0.1
	c-1-0.2-2.1-0.4-2.9-0.7c-0.7-0.3-1.5,0-1.8,0.7C113.3,50.6,113.6,51.4,114.3,51.7z"/>
<path d="M123.8,56.7c0.3,0.4,0.7,0.7,1.2,0.7c0.2,0,0.5-0.1,0.7-0.2c0.7-0.4,0.9-1.3,0.5-1.9c-0.9-1.5-1.9-2.6-2.9-3.4
	c-0.6-0.5-1.5-0.4-1.9,0.2c-0.5,0.6-0.4,1.5,0.2,1.9C122.4,54.6,123.1,55.4,123.8,56.7z"/>
<path d="M125.7,60.1c0.6,1.2,1.3,2.5,2.1,3.6c0.3,0.4,0.7,0.6,1.1,0.6c0.3,0,0.6-0.1,0.8-0.3c0.6-0.5,0.8-1.3,0.3-1.9
	c-0.7-1-1.3-2.1-1.9-3.3c-0.4-0.7-1.2-0.9-1.9-0.6C125.6,58.6,125.3,59.4,125.7,60.1z"/>
<path d="M139,64.5c0.4,0,0.7-0.1,1-0.4c0.4-0.4,0.8-0.8,1.2-1.3c0.5-0.6,1-1.1,1.5-1.6c0.6-0.5,0.6-1.4,0.1-2s-1.4-0.6-2-0.1
	s-1.1,1.2-1.7,1.8c-0.4,0.4-0.7,0.8-1.1,1.2c-0.5,0.5-0.5,1.4,0,2C138.3,64.4,138.7,64.5,139,64.5z"/>
<path d="M131.4,66.7c0.6,0.2,1.2,0.4,1.8,0.5c0.3,0,0.5,0.1,0.8,0.1c0.8,0,1.6-0.2,2.3-0.5s1.1-1.1,0.8-1.8
	c-0.3-0.7-1.1-1.1-1.8-0.8c-0.6,0.2-1.1,0.3-1.7,0.2c-0.4-0.1-0.7-0.1-1.1-0.3c-0.7-0.3-1.5,0-1.8,0.7S130.7,66.4,131.4,66.7z"/>
<path d="M52,61.2l6.8-7.7c3-3.4,5-7.4,5.9-11.6c0.1-0.3,0.1-0.6,0.2-0.9l0.1-0.6c0.1-0.3,0-0.6-0.3-0.9c-0.2-0.2-0.5-0.3-0.8-0.3
	h-0.2c-0.3,0-0.6,0.1-0.9,0.1c-4.7,0.7-9.2,2.9-12.9,6.3l-7,6.3L20.7,34.4c-0.5-0.3-4.9-3.3-7.4-0.9c-1.2,1-2.6,3.8,0.2,7.5l4.2,4.8
	l-2.5,1.5c-0.1,0-0.1,0.1-0.2,0.1c-0.5,0.5-0.5,1.4,0,1.9l3.1,3.1c0.3,0.3,0.6,0.4,1,0.4s0.7-0.1,1-0.4c0,0,0.1-0.1,0.1-0.2l1.4-2.2
	l10.7,12L14.2,83.3c-2-0.8-7.7-2.8-11-2.4c-0.1,0-0.1,0-0.2,0c-0.6,0.2-2.4,1-2.9,2.1c-0.2,0.4-0.1,0.8,0.2,1.1l7.4,7.4l-1.4,4.9
	c-0.1,0.4,0,0.7,0.3,1c0.3,0.3,0.6,0.4,1,0.3l5-1.4l7.4,7.4c0.2,0.2,0.4,0.3,0.7,0.3c0.1,0,0.3,0,0.4-0.1c1.2-0.5,1.9-2.3,2.1-2.9
	c0-0.1,0-0.1,0.1-0.2c0.4-3.3-1.6-9-2.4-11L42,71.7l11.3,10L51,83.2c-0.1,0-0.1,0.1-0.2,0.1c-0.5,0.5-0.5,1.4,0,1.9l3.2,3.1
	c0.3,0.3,0.6,0.4,1,0.4s0.7-0.1,1-0.4c0.1,0,0.1-0.1,0.2-0.2l1.5-2.5l5.5,4.9c3.7,2.8,6.5,1.3,7.4,0.2c2.5-2.5-0.5-6.9-0.9-7.5
	L52,61.2z M19,50.5l-2-2l2-1.2l1.2,1.3L19,50.5z M15,39.8c-2.3-3-0.6-4.6-0.4-4.7c0,0,0,0,0.1-0.1c1-1,3.7,0.3,4.8,1l21.8,17.4
	c-1.5,1.3-4.5,4.1-7.7,7.3L15,39.8z M41.3,69.6L41.3,69.6L41.3,69.6L19,88.8c-0.3,0.3-0.4,0.7-0.3,1.1c0.8,2,2.8,7.7,2.5,10.5
	c-0.2,0.4-0.4,0.8-0.6,1.2l-7.1-7.1c-0.2-0.2-0.5-0.3-0.7-0.3c-0.1,0-0.2,0-0.3,0l-3.8,1.1l1.1-3.8c0.1-0.3,0-0.7-0.3-1l-7.1-7.1
	c0.3-0.2,0.8-0.4,1.2-0.6c2.8-0.3,8.5,1.7,10.5,2.5c0.4,0.2,0.9,0.1,1.1-0.3l19.1-22.2l0,0l0,0c4.3-4.4,8.6-8.2,9.1-8.6h0.1l0,0
	l7.6-6.9c3.3-3,7.3-5,11.5-5.7l0,0c-0.8,3.8-2.6,7.5-5.4,10.6l-7.5,8.3c0,0.1-0.1,0.1-0.2,0.2c-0.1,0-0.1,0.1-0.1,0.1l0,0
	C48.5,61.9,45.3,65.7,41.3,69.6z M54.8,86.4l-2-2l1.9-1.2l1.3,1.2L54.8,86.4z M69,89.4c-0.2,0.2-1.7,1.8-4.7-0.4L43.4,70.5
	c3.2-3.2,6-6.2,7.3-7.7L68,84.5c0.1,0.2,0.3,0.4,0.4,0.7c0.1,0.1,0.1,0.3,0.2,0.4c0,0.1,0.1,0.1,0.1,0.2s0.1,0.2,0.1,0.3
	c0.1,0.2,0.2,0.4,0.2,0.5C69.5,87.7,69.7,88.8,69,89.4z"/>
<path d="M7,64.8c0.3,0,0.5-0.1,0.7-0.3l9.3-9.3c0.4-0.4,0.4-1,0-1.4s-1-0.4-1.4,0l-9.3,9.3c-0.4,0.4-0.4,1,0,1.4
	C6.5,64.7,6.8,64.8,7,64.8z"/>
<path d="M9.9,56.1c0.3,0,0.5-0.1,0.7-0.3l4.1-4.1c0.4-0.4,0.4-1,0-1.4s-1-0.4-1.4,0l-4.1,4.1c-0.4,0.4-0.4,1,0,1.4
	C9.4,56,9.7,56.1,9.9,56.1z"/>
<path d="M50.2,87c-0.4-0.4-1-0.4-1.4,0l-9.3,9.3c-0.4,0.4-0.4,1,0,1.4c0.2,0.2,0.5,0.3,0.7,0.3s0.5-0.1,0.7-0.3l9.3-9.3
	C50.6,88,50.6,87.4,50.2,87z"/>
<path d="M51.7,88.7l-4.1,4.1c-0.4,0.4-0.4,1,0,1.4c0.2,0.2,0.5,0.3,0.7,0.3s0.5-0.1,0.7-0.3l4.1-4.1c0.4-0.4,0.4-1,0-1.4
	S52.1,88.3,51.7,88.7z"/>
<path d="M50.5,53c0.3,0,0.5-0.2,0.7-0.4c2.4-3.1,5.9-5.1,5.9-5.2c0.5-0.2,0.8-0.8,0.6-1.3s-0.8-0.8-1.3-0.6c-0.1,0-4,2.2-6.8,5.8
	c-0.3,0.4-0.3,1.1,0.2,1.4C50,53,50.3,53,50.5,53z"/>
<path d="M11.7,86.3c-2-1.9-4.4-1.5-4.5-1.5c-0.5,0.1-0.9,0.6-0.8,1.1s0.6,0.9,1.1,0.8c0.1,0,1.5-0.2,2.8,1c0.1,0.1,0.3,0.2,0.5,0.3
	c0.3,0.1,0.7,0,0.9-0.3C12.1,87.3,12.1,86.7,11.7,86.3z"/>
<path d="M73.7,13.4c0.2,0.2,0.5,0.2,0.7,0.2c0.4,0,0.9-0.2,1.1-0.6c0.8-1.3,1.8-2.5,3-3.7c0.5-0.5,0.5-1.4,0-1.9s-1.4-0.5-1.9,0
	c-1.3,1.3-2.4,2.7-3.3,4.1C72.9,12.1,73.1,12.9,73.7,13.4z"/>
<path d="M71.8,23c0,0,0.1,0,0.2,0c0.7-0.1,1.3-0.8,1.2-1.5c0-0.4-0.1-0.8-0.1-1.3c0-1,0.2-2.1,0.5-3.1c0.2-0.7-0.2-1.5-0.9-1.7
	c-0.7-0.2-1.5,0.2-1.7,0.9c-0.4,1.3-0.6,2.6-0.6,3.9c0,0.5,0,1,0.1,1.6C70.6,22.5,71.2,23,71.8,23z"/>
<path d="M80.3,29c-0.5-0.6-1.3-0.7-1.9-0.2c-0.4,0.3-0.8,0.6-1.1,0.9c0,0,0-0.1-0.1-0.1c-1.1-1.3-2-2.6-2.6-3.9
	c-0.3-0.7-1.2-0.9-1.8-0.6c-0.7,0.3-0.9,1.1-0.6,1.8c0.7,1.5,1.7,2.9,3,4.4l0.1,0.1c-0.2,0.2-0.5,0.4-0.7,0.6
	c-0.5,0.5-0.6,1.3-0.1,1.9c0.3,0.3,0.6,0.5,1,0.5c0.3,0,0.6-0.1,0.9-0.3c0.9-0.8,2-1.8,3.7-3.2C80.6,30.4,80.7,29.6,80.3,29z"/>
<path d="M90.6,2.7L90.6,2.7C92,2.6,93.4,3,94.4,3.8c0.2,0.2,0.5,0.3,0.8,0.3c0.4,0,0.8-0.2,1.1-0.6C96.7,2.9,96.6,2,96,1.6
	c-1.4-1-3.2-1.6-5-1.6c-0.2,0-0.3,0-0.4,0h-0.2c-0.7,0-1.3,0.7-1.3,1.4C89.2,2.2,89.9,2.7,90.6,2.7z"/>
<path d="M86,22.4c-1.1,1-2.3,2-3.7,3.2c-0.6,0.5-0.7,1.3-0.2,1.9c0.3,0.3,0.6,0.5,1,0.5c0.3,0,0.6-0.1,0.9-0.3
	c1.5-1.2,2.7-2.3,3.8-3.3c0.5-0.5,0.6-1.4,0.1-1.9C87.4,22,86.5,21.9,86,22.4z"/>
<path d="M81.4,6.4c0.3,0,0.5-0.1,0.8-0.3c1.3-1,2.7-1.8,4.1-2.4c0.7-0.3,1-1.1,0.7-1.8s-1.1-1-1.8-0.7C83.6,2,82.1,2.9,80.6,4
	c-0.6,0.4-0.7,1.3-0.3,1.9C80.6,6.2,81,6.4,81.4,6.4z"/>
<path d="M92.4,15.2c-0.9,1.3-1.9,2.5-3,3.8c-0.5,0.5-0.5,1.4,0.1,1.9c0.3,0.2,0.6,0.4,0.9,0.4c0.4,0,0.7-0.2,1-0.4
	c1.2-1.4,2.3-2.7,3.2-4c0.4-0.6,0.3-1.5-0.3-1.9C93.7,14.5,92.9,14.6,92.4,15.2z"/>
<path d="M92.9,41c-1.5-0.7-3-1.5-4.3-2.3c-0.7-0.4-1.5-0.2-1.8,0.5c-0.4,0.6-0.2,1.5,0.5,1.8c1.4,0.8,3,1.7,4.5,2.4
	c0.2,0.1,0.4,0.1,0.6,0.1c0.5,0,1-0.3,1.2-0.8C93.8,42.1,93.5,41.3,92.9,41z"/>
<path d="M80.5,33c-0.6-0.5-1.4-0.4-1.9,0.1c-0.5,0.6-0.4,1.4,0.1,1.9c1.2,1.1,2.6,2.1,4.1,3.1c0.2,0.2,0.5,0.3,0.8,0.3
	c0.4,0,0.8-0.2,1.1-0.6c0.4-0.6,0.3-1.5-0.3-1.9C83,35,81.7,34,80.5,33z"/>
<path d="M101.9,44.7c-1.4-0.5-3-1-4.6-1.7c-0.7-0.3-1.5,0-1.8,0.7s0,1.5,0.7,1.8c1.7,0.7,3.3,1.3,4.8,1.8c0.1,0,0.3,0.1,0.4,0.1
	c0.6,0,1.1-0.4,1.3-0.9C103,45.7,102.6,44.9,101.9,44.7z"/>
<path d="M97.3,12.2c0.3-0.7,0.6-1.4,0.8-2.1c0.3-0.8,0.6-2,0.7-3.1c0-0.8-0.5-1.4-1.3-1.4s-1.4,0.5-1.4,1.3s-0.3,1.7-0.5,2.4
	c-0.2,0.6-0.5,1.3-0.8,1.9c-0.3,0.7,0,1.5,0.7,1.8c0.2,0.1,0.4,0.1,0.5,0.1C96.5,13,97,12.7,97.3,12.2z"/>
<path d="M70.8,35c-1,0.6-2.3,1.3-4.3,2.4c-0.6,0.4-0.9,1.2-0.5,1.8c0.2,0.5,0.7,0.7,1.2,0.7c0.2,0,0.4,0,0.6-0.2
	c2-1.1,3.4-1.8,4.4-2.5c0.6-0.4,0.8-1.2,0.4-1.9C72.3,34.8,71.4,34.6,70.8,35z"/>
</svg>
