<?xml version="1.0" encoding="utf-8"?>
<!-- Generator: Adobe Illustrator 19.0.0, SVG Export Plug-In . SVG Version: 6.00 Build 0)  -->
<svg version="1.1" id="Layer_1" xmlns="http://www.w3.org/2000/svg" xmlns:xlink="http://www.w3.org/1999/xlink" x="0px" y="0px"
	 viewBox="0 0 802.6 147" style="enable-background:new 0 0 802.6 147;" xml:space="preserve">
<style type="text/css">
	.st0{fill:#FFFFFF;}
	.st1{fill:none;stroke:#FFFFFF;stroke-width:6;stroke-miterlimit:10;}
	.st2{fill:#001415;}
	.st3{fill:#FACB03;}
</style>
<g id="XMLID_4_">
	<g id="XMLID_1_">
		<g id="XMLID_2_">
			<g id="XMLID_12_">
				<path id="XMLID_20_" class="st0" d="M456.4,32.1c0,0-0.8,0.7-2.3,2c-0.8,0.6-1.6,1.5-2.5,2.5c-0.5,0.5-1,1.1-1.5,1.7
					c-0.5,0.6-1.1,1.2-1.6,1.9c-2.2,2.8-4.6,6.5-6.6,10.9c-0.5,1.1-0.9,2.3-1.4,3.5c-0.4,1.2-0.8,2.5-1.2,3.8
					c-0.3,1.3-0.8,2.6-1.2,4c-0.4,1.4-0.7,2.8-0.9,4.2c-0.6,2.9-0.7,6-0.7,9.1c0.1,1.6,0.1,3.2,0.4,4.8l0.2,1.2l0.1,0.6l0,0.2
					c-0.1-0.3,0,0,0-0.1l0,0.1l0.1,0.3c0.2,0.9,0.4,1.7,0.6,2.6l0.3,1.3l0.2,0.7l0.2,0.6c0.3,0.8,0.5,1.6,0.8,2.4
					c0.4,1.6,1.3,3.2,2,4.8c0.2,0.4,0.3,0.8,0.6,1.2l0.7,1.2c0.5,0.8,0.9,1.6,1.4,2.3c0.5,0.8,1,1.5,1.6,2.2c0.5,0.7,1,1.5,1.6,2.2
					c4.7,5.7,10.8,10.5,17.9,13.7c7.1,3.1,15,4.6,22.9,4.2c0.5,0,1,0,1.5-0.1l1.5-0.2l1.5-0.2l0.7-0.1l0.4,0l0.1,0
					c-0.3,0.1,0,0-0.1,0l0.2,0l3.1-0.7l1.5-0.3c0.5-0.1,0.9-0.3,1.4-0.4c1.8-0.6,3.6-1.1,5.4-2c0.9-0.4,1.8-0.8,2.7-1.2l2.5-1.4
					l1.3-0.7c0.4-0.3,0.8-0.5,1.2-0.8c0.8-0.6,1.6-1.1,2.4-1.7c0.8-0.5,1.5-1.2,2.2-1.8c0.7-0.6,1.5-1.2,2.1-1.9
					c0.7-0.7,1.3-1.4,2-2c0.3-0.3,0.7-0.7,1-1l0.9-1.1c0.6-0.7,1.2-1.5,1.7-2.2c0.6-0.7,1-1.5,1.5-2.3c4-6.2,6.5-13.1,7.3-19.8
					c0.1-0.8,0.1-1.7,0.2-2.5c0-0.8,0.2-1.6,0.1-2.5c0-0.8,0-1.6,0-2.4c0-0.8,0-1.6-0.1-2.4c-0.1-0.8-0.2-1.6-0.3-2.3
					c0-0.4-0.1-0.8-0.1-1.2l-0.1-0.6l0-0.1c0-0.1,0,0.1,0,0l0-0.2l-0.1-0.3c-0.2-0.8-0.3-1.6-0.5-2.4c-0.2-0.7-0.4-1.4-0.6-2.1
					c-0.2-0.7-0.4-1.4-0.6-2.1c-0.2-0.7-0.4-1.4-0.7-2c-0.3-0.6-0.6-1.3-0.8-1.9c-0.3-0.6-0.5-1.3-0.8-1.9c-1-2.5-2.1-4.9-3.4-6.9
					c-2.5-4.2-5.2-7.6-7.8-10.1c-2.5-2.5-4.8-4.3-6.4-5.5c-1.6-1.1-2.5-1.7-2.5-1.7s1,0.4,2.8,1.2c1.8,0.9,4.4,2.1,7.5,4.3
					c3.1,2.1,6.6,5.1,10,9.2c1.7,2,3.4,4.4,4.9,7c0.4,0.7,0.8,1.3,1.1,2c0.3,0.7,0.6,1.5,0.8,2.2c0.3,0.7,0.5,1.5,0.8,2.3
					c0.3,0.8,0.5,1.5,0.7,2.4c0.2,0.8,0.5,1.7,0.7,2.5c0.2,0.8,0.3,1.6,0.5,2.4l0.1,0.3l0,0.2c0,0,0,0.2,0,0.2l0,0.1l0.1,0.6
					c0.1,0.4,0.1,0.9,0.2,1.3c0.1,0.9,0.2,1.8,0.3,2.6c0.1,0.9,0.1,1.8,0.1,2.7c0,0.9,0,1.8,0,2.8c0.1,0.9-0.1,1.9-0.2,2.8
					c-0.1,0.9-0.2,1.9-0.2,2.8c-0.9,7.6-3.7,15.3-8.2,22.3c-0.6,0.9-1.1,1.8-1.7,2.6c-0.6,0.8-1.3,1.6-2,2.5l-1,1.2
					c-0.4,0.4-0.7,0.8-1.1,1.2c-0.7,0.8-1.5,1.5-2.2,2.3c-0.7,0.8-1.6,1.4-2.4,2.1c-0.8,0.7-1.6,1.4-2.5,2.1
					c-0.9,0.6-1.8,1.2-2.7,1.9c-0.4,0.3-0.9,0.6-1.3,0.9l-1.4,0.8c-0.9,0.5-1.9,1.1-2.8,1.6c-1,0.5-2,0.9-3,1.4
					c-1,0.4-2,0.9-3.1,1.3l-3.2,1.1c-0.5,0.2-1.1,0.4-1.6,0.5l-1.5,0.3l-3.1,0.7l-0.2,0l-0.2,0l-0.1,0l-0.4,0l-0.8,0.1l-1.6,0.2
					l-1.6,0.2c-0.5,0.1-1.1,0.1-1.6,0.1c-8.8,0.5-17.7-1.2-25.7-4.7c-7.9-3.6-14.8-9-20.1-15.4c-0.7-0.8-1.2-1.7-1.8-2.5
					c-0.6-0.8-1.2-1.6-1.8-2.5c-0.5-0.9-1-1.8-1.5-2.6l-0.8-1.3c-0.2-0.4-0.4-0.9-0.6-1.4c-0.8-1.8-1.7-3.6-2.3-5.5
					c-0.3-1-0.6-1.9-0.9-2.8l-0.2-0.7l-0.2-0.7l-0.3-1.3c-0.2-0.9-0.4-1.7-0.6-2.6l-0.1-0.3l-0.1-0.3l0-0.2l-0.1-0.7
					c-0.1-0.5-0.1-0.9-0.2-1.4c-0.3-1.8-0.3-3.6-0.5-5.4c0-3.6,0.1-7.1,0.7-10.3c0.2-1.6,0.7-3.2,1-4.8c0.1-0.8,0.4-1.5,0.6-2.3
					c0.2-0.7,0.5-1.5,0.8-2.2c0.7-1.4,1.3-2.7,2-3.9c0.7-1.2,1.4-2.4,2.2-3.5c3-4.5,6.1-7.8,9-10.3c2.8-2.5,5.3-4.1,7-5.1
					C455.5,32.6,456.4,32.1,456.4,32.1z"/>
			</g>
			<g id="XMLID_15_">
				<path id="XMLID_67_" class="st1" d="M438.1,44.9c0.2-0.2,0.2-0.3,0.3-0.4c-0.1,0-1.1-0.5-1.3-1.6c-0.1-0.5,0-0.9,0.1-1.1
					c0.9-1.2,1.9-2.4,2.9-3.6c3.6-4.4,7.3-7.8,9.9-10.1c2.8-2.3,0.6-0.6,7.9-5.9c0.7-0.5,2.1-1.5,4.2-2.5c1.6-0.8,2.8-1.2,4.2-1.7
					c3.2-1.1,4.8-1.6,6-1.2c0.6,0.2,0.8,0.7,1,1c-0.5,0.4-1.1,0.9-1.5,1.4c-13.7,9.6-24,19.2-31.1,28.8
					C439.8,46.9,439,45.9,438.1,44.9z"/>
			</g>
		</g>
		<g id="XMLID_13_">
			<path id="XMLID_25_" class="st0" d="M545.6,36.3c0,0-0.9-1.1-2.5-3.2c-0.4-0.5-0.9-1.1-1.4-1.7c-0.5-0.6-1.1-1.3-1.8-2
				c-0.6-0.7-1.4-1.4-2.2-2.2c-0.8-0.8-1.6-1.6-2.5-2.4c-0.9-0.8-1.9-1.6-2.9-2.5c-1.1-0.8-2.2-1.6-3.4-2.5c-2.4-1.7-5.1-3.4-8-4.9
				c-0.7-0.4-1.5-0.8-2.3-1.1c-0.8-0.4-1.6-0.7-2.4-1.1c-1.6-0.7-3.4-1.3-5.1-1.9c-0.9-0.3-1.8-0.5-2.7-0.9c-0.9-0.3-1.8-0.7-2.7-1
				c-0.9-0.3-1.9-0.6-2.8-0.8c-1-0.3-2-0.4-3-0.7c-4-0.9-8.2-1.2-12.6-1.4c-2.2,0.1-4.4,0-6.7,0.3c-0.6,0.1-1.1,0.1-1.7,0.2
				l-0.9,0.1l-0.1,0c-0.1,0,0,0,0,0l-0.2,0l-0.4,0.1c-0.6,0.1-1.2,0.2-1.8,0.3c-0.6,0.1-1.2,0.2-1.7,0.3c-9,1.8-18.4,5.8-26.5,11.9
				c-4.1,3.1-7.8,6.7-11.2,10.7c-3.3,4.1-6.3,8.5-8.6,13.3c-2.4,4.8-4.2,9.9-5.4,15.2c-1.2,5.3-1.7,10.8-1.6,16.2
				c0,1.4,0.1,2.7,0.2,4.1c0,0.7,0.1,1.4,0.2,2l0.1,1l0.1,0.5l0,0.1c0-0.1,0,0,0,0.1l0,0.3l0.3,2.1l0.2,1.1l0.2,1
				c0.3,1.3,0.5,2.6,0.9,3.9c1.4,5.2,3.3,10.3,5.9,15c5.1,9.5,12.4,17.4,20.7,23.3c8.4,5.8,17.8,9.5,27,11c4.6,0.7,9.2,1,13.6,0.8
				c1.1-0.1,2.2-0.1,3.3-0.2c0.5-0.1,1.1-0.1,1.6-0.2l0.8-0.1l0.1,0c0.1,0,0,0,0,0l0.2,0l0.4-0.1c1.1-0.2,2.2-0.4,3.3-0.5
				c1-0.2,2-0.5,3-0.7c1-0.2,1.9-0.5,2.9-0.8c1-0.3,1.9-0.5,2.8-0.9c0.9-0.4,1.8-0.7,2.7-1c0.9-0.4,1.8-0.7,2.6-1
				c3.5-1.3,6.7-2.8,9.6-4.5c5.8-3.3,10.5-7.1,14-10.5c3.5-3.4,5.9-6.5,7.6-8.6c1.5-2.2,2.4-3.3,2.4-3.3s-0.6,1.3-1.9,3.7
				c-1.3,2.3-3.3,5.8-6.4,9.8c-3.1,4-7.4,8.5-13.2,12.8c-2.9,2.2-6.1,4.2-9.7,6.1c-0.9,0.5-1.8,0.9-2.8,1.3c-1,0.4-2,0.7-3,1
				c-1,0.4-2,0.6-3.1,0.9c-1,0.3-2.1,0.6-3.2,0.9c-1.1,0.2-2.2,0.5-3.3,0.8c-1.1,0.2-2.2,0.4-3.3,0.5c-2.4,0.3-4.7,0.6-7.1,0.7
				c-4.8,0.2-9.8,0-14.8-0.8c-10.1-1.6-20.3-5.6-29.5-12c-9.1-6.4-17.1-15.1-22.6-25.4c-2.8-5.1-4.9-10.7-6.4-16.4
				c-0.4-1.4-0.7-2.9-1-4.4l-0.2-1.1l-0.2-1.1l-0.3-2.1l0-0.3l0-0.2l0-0.1l-0.1-0.6l-0.1-1.1c-0.1-0.7-0.2-1.5-0.2-2.2
				c-0.1-1.5-0.2-3-0.2-4.4c-0.1-5.9,0.5-11.9,1.8-17.6c1.3-5.8,3.3-11.3,5.8-16.6c2.6-5.2,5.8-10.1,9.4-14.5
				c3.7-4.4,7.8-8.3,12.2-11.7c4.4-3.4,9.2-6.1,14.1-8.3c0.6-0.3,1.2-0.5,1.8-0.8c0.6-0.2,1.2-0.5,1.9-0.7c1.2-0.5,2.5-0.9,3.7-1.3
				c2.5-0.8,5-1.4,7.6-1.9c0.6-0.2,1.3-0.2,1.8-0.3c0.6-0.1,1.2-0.2,1.8-0.3l0.4-0.1l0.2,0l0.2,0l0.1,0l0.9-0.1
				c0.6-0.1,1.2-0.1,1.9-0.2c2.5-0.3,4.9-0.3,7.3-0.3c4.8,0.1,9.4,0.5,13.8,1.5c2.2,0.4,4.3,1,6.3,1.6c1,0.2,2,0.6,3,1
				c1,0.3,1.9,0.7,2.9,1.1c1.8,0.9,3.6,1.8,5.2,2.8c0.8,0.5,1.6,1,2.4,1.5c0.8,0.5,1.6,1,2.3,1.5c5.9,4.1,10.4,8.4,13.7,12.3
				c0.8,0.9,1.5,1.9,2.2,2.8c0.7,0.9,1.3,1.7,1.9,2.6c0.5,0.8,1,1.6,1.5,2.3c0.5,0.7,0.9,1.3,1.2,1.9
				C544.9,35.1,545.6,36.3,545.6,36.3z"/>
		</g>
		<g id="XMLID_10_">
			<path id="XMLID_73_" class="st0" d="M542.5,123.7c2-3.5,5.4-8.6,11-16.5c-0.5-0.4-0.9-0.7-1.4-1.1c-4.8,6-9.5,11.9-14.3,17.9
				c-0.4-0.3-0.7-0.6-1.1-0.8c4.7-6.1,9.3-12.1,14-18.2c-0.5-0.4-0.9-0.7-1.4-1.1c-4.8,6-9.5,11.9-14.3,17.9
				c-0.5-0.4-0.9-0.7-1.4-1.1c4.8-6,9.5-11.9,14.3-17.9c-0.5-0.4-0.9-0.7-1.4-1.1c-4.8,6-9.5,11.9-14.3,17.9
				c-0.5-0.4-0.9-0.7-1.4-1.1c4.5-6.1,9.1-12.1,13.6-18.2c-0.1-0.1-0.5-0.9-1.1-0.8c-0.2,0-0.3,0.1-0.6,0.4
				c-0.3,0.3-0.7,0.8-1.1,1.4c-5.5,6.7-9.6,11.4-13.1,14.9c-0.3,0.3-3.2,3.1-4.5,7.3c-0.8,2.6-0.5,4.1,0,5.2c0.2,0.4,0.5,0.8,0.7,1
				c1,0.2,2.1,0.7,2.9,1.4c0.5,0.4,1,0.9,1.3,1.5c0.4,0.3,0.9,0.6,1.6,0.7c1.1,0.2,1.9-0.2,2.8-0.7c3.2-1.7,5-3.5,5-3.5
				C540.9,126.5,542.3,124,542.5,123.7z"/>
			<path id="XMLID_70_" class="st0" d="M542.5,123.7c1.6-2.9,3.5-5.6,5.2-8.4c1.8-2.8,3.6-5.5,5.5-8.3l0.1,0.5l-1.4-1.1l0.5-0.1
				l-3.5,4.5c-1.2,1.5-2.4,3-3.6,4.5l-7.2,9l-0.3,0.4l-0.4-0.3l-1.1-0.8l-0.4-0.3l0.3-0.4l14-18.2l0.1,0.7l-1.4-1.1l0.7-0.1
				l-14.3,17.9l-0.3,0.4l-0.4-0.3l-1.4-1.1l-0.4-0.3l0.3-0.4l14.3-17.9l0.1,0.7l-1.4-1.1l0.7-0.1l-14.3,17.9l-0.3,0.4l-0.4-0.3
				l-1.4-1.1l-0.4-0.3l0.3-0.4L544,100l0,0.5c-0.1-0.2-0.3-0.5-0.5-0.5c0,0-0.1,0-0.1,0c0,0,0,0,0,0c0,0-0.1,0-0.2,0.1
				c-0.4,0.4-0.8,0.9-1.1,1.5l0,0l0,0c-3.7,4.5-7.4,9-11.5,13.3l-1.5,1.6c-0.5,0.5-1,1-1.4,1.6c-0.9,1.1-1.6,2.3-2.2,3.6
				c-0.3,0.6-0.6,1.3-0.8,2c-0.2,0.7-0.4,1.3-0.5,2c-0.2,1.4,0.1,2.8,1,3.7l-0.2-0.1c1.8,0.4,3.5,1.6,4.4,3.1l-0.1-0.1
				c0.3,0.2,0.6,0.4,0.9,0.5c0.3,0.1,0.7,0.2,1,0.2c0.7,0,1.4-0.2,2-0.5c1.3-0.6,2.5-1.4,3.7-2.3c0.6-0.4,1.2-0.9,1.7-1.4
				c0.5-0.5,1-1.1,1.5-1.6C540.9,126.1,541.7,125,542.5,123.7z M542.5,123.7c-0.7,1.3-1.6,2.5-2.5,3.6c-0.5,0.6-0.9,1.1-1.4,1.6
				c-0.5,0.5-1.1,1-1.6,1.5c-1.1,0.9-2.4,1.7-3.7,2.4c-0.6,0.3-1.4,0.6-2.2,0.6c-0.8,0-1.6-0.3-2.2-0.7l0,0l0,0
				c-1-1.4-2.5-2.4-4.1-2.7l-0.1,0l-0.1-0.1c-0.6-0.5-1-1.3-1.2-2c-0.2-0.8-0.3-1.6-0.2-2.3c0.1-0.8,0.2-1.5,0.5-2.2
				c0.2-0.7,0.5-1.4,0.8-2.1c0.6-1.4,1.4-2.6,2.4-3.8c0.5-0.6,1-1.2,1.5-1.7l1.5-1.6c4-4.2,7.8-8.7,11.5-13.2l0,0.1
				c0.4-0.6,0.8-1.1,1.3-1.6c0.1-0.1,0.3-0.3,0.6-0.4c0.1,0,0.3,0,0.5,0c0.1,0,0.3,0.1,0.4,0.2c0.4,0.3,0.6,0.6,0.8,0.9l0.2,0.3
				l-0.2,0.3l-13.6,18.2L531,118l1.4,1.1l-0.7,0.1l14.3-17.9l0.3-0.4l0.4,0.3l1.4,1.1l0.4,0.3l-0.3,0.4L533.9,121l-0.1-0.7l1.4,1.1
				l-0.7,0.1l14.3-17.9l0.3-0.4l0.4,0.3l1.4,1.1l0.4,0.3l-0.3,0.4l-14,18.2l-0.1-0.7l1.1,0.8l-0.7,0.1l7.1-9c1.2-1.5,2.4-3,3.6-4.5
				l3.7-4.4l0.2-0.3l0.3,0.2l1.4,1.1l0.2,0.2l-0.2,0.2c-2,2.6-3.9,5.3-5.8,8C546,118.1,544.2,120.9,542.5,123.7z"/>
		</g>
		<path id="XMLID_94_" class="st2" d="M485.3,114c-22.3,0-40.6-18.3-40.5-40.6c0-22.3,18.3-40.6,40.6-40.5
			c22.4,0.1,40.6,18.3,40.5,40.6C525.8,95.8,507.6,114.1,485.3,114z"/>
		<path id="XMLID_93_" class="st3" d="M471,71.8c0.1-1.2-0.1-2.1,0.2-2.9c0.3-1.1,0.7-2.3,1.8-2.8c1.8-0.9,2.9-2.4,3.8-4.1
			c0.6-1,1.3-1.7,2.6-1.5c1.1,0.1,2.1-0.4,3.1-0.9c1.1-0.5,2.1-0.7,3.3-0.3c0.6,0.3,1.2,0,1.8,0c0.4-0.1,0.7,0,0.8,0.5
			c0.1,0.5,0.3,1,0.4,1.5c0.1,1,0.7,1.4,1.5,1.6c1.7,0.4,3.3,0.7,4.9-0.2c0.2-0.1,0.5-0.1,0.7,0c0.8,0.4,1.7,0.6,2.6,0.8
			c3.4,0.6,5.3,2.9,6.2,6c0.6,2.1,1.6,3.9,3,5.6c0.2,0.3,0.5,0.6,0.7,0.9c0.6,1.3,1.5,1.9,3,1.3c0.4-0.2,0.7,0,0.5,0.5
			c-0.2,0.5-0.3,1-0.6,1.4c-1.1,1.4-2.1,2.8-3.3,4.1c-0.9,0.9-1.5,2.2-1.9,3.5c-0.2,0.7,0,1.5,0.2,2.3c0.4,1.5-0.2,2.6-1.2,3.5
			c-0.6,0.6-1.1,1.2-1.6,1.8c-0.8,0.9-1.2,1.8-0.9,2.9c0.1,0.4-0.1,0.7-0.5,1c-0.9,0.7-1.7,1.5-2.5,2.4c-1.2,1.4-3,1.9-4.8,2.2
			c-0.7,0.1-1.7,0.5-2.2,0.2c-0.5-0.3-0.1-1.4-0.2-2.1c-0.1-0.4-0.1-0.8-0.2-1.1c-0.6-1.4-1-3.1-2.1-4.3c-0.7-0.7-0.6-1.6-0.4-2.5
			c0.1-0.2,0.1-0.5,0.2-0.7c0.7-1.3,1-2.7,0.2-4.1c-0.1-0.2-0.1-0.4-0.1-0.6c0-1.1-0.4-1.9-1.4-2.5c-0.3-0.2-0.6-0.5-0.6-0.9
			c0.1-1.2-0.4-2.3-0.3-3.5c0-0.6-0.3-0.7-0.8-0.6c-0.4,0.1-0.9,0.3-1.3,0.4c-0.8,0.3-1.3,0-1.4-0.8c-0.1-0.8-0.6-0.8-1.1-0.6
			c-1.5,0.7-3,1.2-4.5,1.6c-0.7,0.2-1.3,0.1-1.9-0.4c-1.5-1.2-3.1-2.3-4.1-3.9C471.5,75,470.5,73.5,471,71.8z"/>
		<path id="XMLID_92_" class="st3" d="M522.1,75.3c-0.4-1.1-0.7-2.3-1.3-3.4c-1.3-2.3-3.2-3.8-5.8-4.4c-0.7-0.2-1.2-0.6-1.7-0.9
			c-0.6-0.5-1.2-1-2.1-1.1c0.4,0.8,0.8,1.6,1.2,2.3c0.3,0.6,1.1,0.7,1.7,0.7c0.5,0,0.8,0.1,1,0.6c0.1,0.3,0.3,0.5,0.5,0.8
			c0.7,1.1,0.7,1.1-0.3,1.8c-1.2,0.8-2.3,1.7-3.6,2.4c-0.5,0.2-0.9,0.5-1.4,0.6c-1.2,0.2-1.7-0.1-1.9-1.3c-0.1-0.5-0.2-0.9-0.5-1.2
			c-1.8-2.7-3.7-5.5-5.6-8.3c1.3,0.1,1-0.8,0.8-1.5c-0.1-0.6,0-1.2,0-1.9c-0.5,0.3-1,0.6-1.5,0.9c-0.3,0.2-0.6,0.2-0.8-0.1
			c-0.7-0.9-1.4-1.7-1.9-2.7c-0.3-0.7-0.1-1.1,0.5-1.5c1.3-0.9,2.8-0.9,4.3-0.7c0.4,0,0.8,0.1,1.2,0.1c0.3,0,0.7,0.2,0.8-0.2
			c0.1-0.4,0.1-0.8-0.3-1.1c-0.7-0.5-1.5-0.9-2.4-1c0.1-0.5,0.7-0.7,0.9-1.2c-1.3-0.4-4,0.5-4.9,1.5c-0.3,0.4-0.3,0.8-0.2,1.2
			c0.1,0.6-0.2,0.9-0.7,1.1c-0.8,0.3-1.5,0.4-2.4,0.3c-0.5,0-1.1,0-1,0.8c-1-0.9-0.8-2.4-2.1-3c-1-0.5-2-1.1-3.1-1.8
			c-0.2,2.1,2,2.4,2.5,3.9c-0.3,0.2-0.7,0.1-1,0.2c-0.5,0.1-0.8,0-0.7-0.6c0-0.2,0.1-0.4-0.1-0.5c-0.8-0.1-1.2-0.8-1.7-1.3
			c-1-1-2.2-0.6-3.2-0.1c-1.5,0.7-2.9,1.6-3.7,3.2c-0.7,1.4-2,1.5-3.3,1.2c-1.9-0.4-1.9-0.4-1.9-2.3c0-0.7,0.1-1.3,0.2-2
			c0-0.4,0.3-0.4,0.5-0.4c0.7-0.2,1.5-0.3,2.2-0.4c0.6-0.1,1-0.4,1.3-0.8c0.3-0.4,0.7-0.8,0.2-1.4c-0.4-0.6,0-1.2,0.6-1.4
			c1.9-0.6,3.5-1.6,4.9-3c1-1,1.5-0.9,2.6,0c0.2,0.2,0.4,0.3,0.6,0.4c1.3,1,1.6,1,2.9,0c0.6-0.5,0.7-1.3,0.5-2
			c-0.2-0.5-0.4-1-0.7-1.5c-0.5,0.5-0.9,1.2-1.3,1.7c-0.2,0.3-0.2,0.8-0.7,0.6c-0.6-0.2-1.4,0-1.7-0.7c-0.1-0.1-0.1-0.3-0.2-0.4
			c-0.5-1.4-0.6-1.5-2.1-1.2c-0.7,0.1-0.8-0.1-0.6-0.6c0.4-1,1-1.6,2-1.9c1.3-0.4,2.5-0.9,3.8-1.3c0.7-0.2,1.4-0.3,2.2-0.1
			c1.8,0.4,3.6,0.1,5.3,0c1.1,0,2.1,0.1,2.5,1.4c0.3,0.9,1.8,1.2,2.5,0.7c0.5-0.3,0.9-0.3,1.3,0c9.8,6.7,15.4,15.9,16.6,27.8
			C522.4,71.9,522.4,73.6,522.1,75.3z"/>
		<path id="XMLID_91_" class="st3" d="M449.5,81.8c1.7,1.6,4.1,2.1,5.7,4c0.5,0.6,1,1.2,1.3,2c0.6,1.9,2.1,2.7,3.8,3.2
			c1.1,0.3,1.9,1.1,2.8,1.7c0.5,0.3,0.5,1,0.3,1.6c-0.3,0.8-0.5,1.6-0.8,2.5c-0.3,0.8-0.4,1.6,0,2.3c0.3,0.5,0,0.8-0.4,1
			c-1.1,0.7-2,0.6-2.9-0.4c-4.8-4.8-8.1-10.4-9.8-17C449.4,82.5,449.3,82.2,449.5,81.8z"/>
		<path id="XMLID_90_" class="st3" d="M449.2,65.8c0.8-4.4,2.6-8.4,5-12.1c0.3-0.6,0.8-1.1,1.1-1.6c0.2,0,0.3,0,0.2,0.2
			c-0.1,0.6,0.1,1,0.3,1.5c0.7,1.5,0.7,2.4-0.8,3.3c-0.8,0.5-1.7,1-2.3,1.8c-0.2,0.2-0.4,0.5-0.5,0.8c0.4,0,0.7-0.5,1.3-0.3
			c-1.4,2.3-2.7,4.6-4.1,6.9C448.9,66.2,449.2,66,449.2,65.8z"/>
		<path id="XMLID_89_" class="st3" d="M471.8,39.1c-0.2,0.6-0.5,0.9-0.8,1c-2.1,0.9-3.3,2.7-4.7,4.2c-1,1.1-1.9,2.3-3.3,2.9
			c-0.4,0.2-0.8,0.2-1.2,0c-0.3-0.2-0.6-0.3-1-0.2c-0.2,0-0.4,0.1-0.6-0.1c-0.1-0.2,0-0.5,0.2-0.6c0.3-0.3,0.6-0.5,0.9-0.8
			C464.3,42.8,467.8,40.7,471.8,39.1z"/>
		<path id="XMLID_88_" class="st3" d="M511,89.2c0.3,1.1,0,2-0.1,2.9c-0.4,2-1.1,3.8-2.8,5c-0.7,0.5-0.9,0.4-1.1-0.4
			c-0.1-0.4,0-0.9,0.2-1.3c0.4-0.9,0.8-1.8,0.9-2.8c0-0.4,0.4-0.7,0.7-0.9c1-0.4,1.5-1.2,1.9-2.1C510.8,89.5,510.9,89.4,511,89.2z"
			/>
		<path id="XMLID_87_" class="st3" d="M478.3,47.9c0-0.6,0-1.2,0-1.9c0-0.3,0.1-0.5,0.4-0.7c0.6-0.4,1.1-0.5,1.5,0.3
			c0.4,0.8,1.2,1.5,1.8,2.2c0.3,0.3,0.2,0.5-0.1,0.7c-1,0.8-2.2,0.7-3.3,1c-0.3,0.1-0.3-0.2-0.3-0.3c0-0.3,0-0.6,0-0.9
			C478.2,48.1,478.2,48,478.3,47.9z"/>
		<path id="XMLID_86_" class="st3" d="M478.3,47.9c0,0.1,0,0.3,0,0.4c-0.6,0.2-0.8,0.9-1.4,1.2c-0.2-0.3-0.6-0.5-0.4-1
			c0.2-0.9,0.4-1,1.3-0.7C478,47.9,478.2,47.9,478.3,47.9z"/>
		<path id="XMLID_77_" class="st3" d="M455.5,52.3c-0.1-0.1-0.1-0.2-0.2-0.2c0.1-0.2,0.2-0.5,0.4-0.3
			C455.9,51.9,455.6,52.1,455.5,52.3z"/>
	</g>
	<g id="XMLID_5_">
		<path id="XMLID_44_" class="st2" d="M9.8,40.1h0.4c2.4-0.6,4.3-1.1,5.9-1.5h0.1c1.4-0.2,2.7-0.1,4,0.4c0.3,0,0.5,0,0.5,0
			c0.2,1.6-0.3,3-1.4,4.3c-0.3,0.4-0.6,0.6-0.8,0.6c-0.8,0.2-1.7,0.5-2.8,0.7c6.3,7.6,13.5,16.2,21.5,25.5
			c7.2-8.5,13.5-15.9,18.7-22.1c-0.9-0.3-1.7-0.9-2.4-1.8c0.1-0.2,0.2-1.4,0.3-3.6c0.1-0.1,0.5-0.2,1.2-0.2h0.1
			c4.1-0.8,8.8-2,14.1-3.4c1.3-0.1,2.5,0,3.5,0.4l0.1,0.1l0.1-0.1c0.5,0.4,0.6,0.7,0.4,1c-0.1,1-0.4,1.9-0.8,2.6
			c-0.4,0.7-0.8,1.2-1.2,1.3c-1.3,0.4-2.9,0.8-4.8,1.2c-6.3,8.1-14.7,18.6-25.3,31.4c-0.6,0.8-1.3,1.6-2,2.2v19.3
			c0.8-0.2,1.5-0.3,1.9-0.4c0.4-0.1,0.8-0.2,1.1-0.2c1.4-0.1,2.5,0.6,3.3,2.2c0.6,1,0.6,2,0.1,2.8c-0.5,0.2-1.1,0.4-1.9,0.4
			c-1.4,0.3-3.7,0.8-6.8,1.6c-3.1,0.7-5.6,1.3-7.5,1.7c-1.6,0.1-3,0-4.1-0.4c-0.8-0.8-0.9-1.5-0.4-2.3c0.5-1.5,1.2-2.4,1.9-2.7
			c1.2-0.2,2.7-0.6,4.3-1v-20c-3.1-3.9-7.6-9.6-13.4-17C9.3,53.7,5,48.6,4.7,48C4.4,47.5,4.2,47,4,46.6c-0.1,0.3-0.1,0.6-0.2,0.9
			c-1.2,0.1-2.3-0.5-3-1.7c-0.8-0.9-1-1.9-0.7-2.8c0.5-0.5,1.2-0.9,2-1h0.1C3.4,41.8,5.9,41.1,9.8,40.1z"/>
		<path id="XMLID_46_" class="st2" d="M83.1,74.3L83.5,56c0-2.9,0.2-5.4,0.5-7.5c-0.9,0-1.7-0.3-2.4-1c-0.7-0.7-1-1.3-0.7-1.9
			c0.3-0.6,0.6-1.1,1-1.5c0.5-0.4,1.2-0.7,2.1-0.9c0.9-0.2,1.7-0.4,2.4-0.5c0.7-0.4,4.2-1.2,10.6-2.6c1.7-0.3,3,0.1,4,1.2
			c1,1.1,0.9,2.3-0.4,3.4c-0.5,0.5-0.9,0.7-1.3,0.8c-0.5,0.1-0.8,0.2-1.1,0.3L98,76.2c-0.1,8,0.4,13.5,1.4,16.5
			c2,5.9,6.1,9.7,12.2,11.6c1.6,0.5,2.8,0.8,3.6,1.1c5.4-0.5,9.5-2.4,12.4-5.7c1.8-2,3.1-4.6,4-7.8c1.8-6.2,2.3-17.3,1.7-33.2
			c-0.1-4.1,0-7.5,0.4-10.1c-0.9,0.2-1.8,0.4-2.6,0.5c-1.6,0.4-3,0.1-4.1-0.9c-1.4-1.2-1.2-2.5,0.5-3.8c0.4-0.3,1-0.5,1.9-0.8
			c0.9-0.2,2.3-0.5,4.3-1c2-0.4,3.2-0.7,3.8-0.9c0.5-0.1,1-0.3,1.5-0.4c0.5-0.1,0.9-0.2,1.4-0.4c0.8-0.2,1.6-0.4,2.2-0.5
			c0.6-0.2,1.3-0.2,2,0c0.7,0.2,1.3,0.7,1.8,1.4c0.5,0.7,0.5,1.5,0,2.3c-0.5,0.8-1,1.2-1.5,1.3c-0.5,0.1-1,0.2-1.4,0.3
			c-0.8,0.2-1.8,0.4-3,0.7v0.2v0.2c0.5,14.5,0.7,23.9,0.5,28.1c-0.2,8.2-1.1,14.1-2.7,17.7c-2.4,5.6-6.9,9.5-13.6,11.8
			c-4.1,1.5-8.5,2.1-13.3,2c-4.8-0.2-9-0.8-12.5-2c-3.5-1.1-6.6-3-9.3-5.5c-3.6-3.7-5.6-9.4-6.2-17C83.2,79,83.1,76.4,83.1,74.3z"/>
		<path id="XMLID_48_" class="st2" d="M149.8,103.6c0.2-0.1,0.2-1.6,0-4.6c-0.1-2.9-0.2-9.8-0.2-20.5c0-10.7,0.1-21.1,0.4-31.2
			c-1.2,0-2.1-0.4-2.8-1.1c-0.7-0.7-0.9-1.4-0.6-2.1c0.3-0.7,0.6-1.2,1-1.6c0.5-0.4,1.1-0.7,2-0.9c0.8-0.2,2.2-0.5,4.2-1
			c2-0.5,3.5-0.9,4.7-1.2c3.1-0.8,4.8-1.2,5.2-1.2c1.2,0.1,2.1,0.6,2.8,1.3c0.7,0.8,0.8,1.6,0.3,2.6c-0.5,0.9-1.4,1.5-2.5,1.8
			c11.4,23.1,19.9,40.5,25.6,52.4c6.2-13.3,11.8-25,16.6-34.9c4.8-9.9,7.3-15,7.3-15.1c-1,0-1.8-0.2-2.3-0.7c-0.9-0.8-1.4-1.5-1.3-2
			c0.1-0.8,0.6-1.6,1.4-2.2c0.2-0.2,0.3-0.3,0.4-0.4l0.4-0.2l7-1.6l7-1.9c0.6-0.1,1.3-0.1,2,0.2c0.7,0.2,1.3,0.7,1.8,1.4
			c0.5,0.7,0.5,1.5,0,2.3c-0.5,0.8-1.2,1.4-2,1.6c-0.8,0.2-2,0.6-3.6,1c-0.3,21.3-0.5,34.6-0.5,39.7c-0.1,9.3-0.2,15-0.3,17l2.6-0.6
			c1.6-0.4,2.8,0,3.5,1c0.7,1,0.9,1.9,0.4,2.8c-0.5,0.9-1.1,1.4-1.7,1.6c-5.3,1.4-9.8,2.5-13.5,3.3c-1.7,0.4-3,0.1-3.9-0.7
			c-0.9-0.8-1.2-1.6-0.9-2.3c0.3-0.7,0.7-1.2,1.2-1.6c0.5-0.4,1-0.7,1.7-0.8c0.7-0.1,1.7-0.4,3-0.8c0.1-15,0.3-29.7,0.5-44
			c-7.9,17-14.6,30.8-19.9,41.6c0.2-0.1,0.3-0.1,0.4-0.1c1.9-0.4,3.2-0.1,4,0.9c0.8,1,0.9,1.9,0.4,2.8c-0.5,0.9-1.1,1.3-1.6,1.5
			c-2.8,0.8-4.8,1.3-6,1.5c-1.2,0.2-2,0.5-2.4,0.8c-1.1-0.1-2.5,0.1-4.1,0.6c-1.6,0.5-2.6,0.8-2.9,0.8c-1.1,0-2.1-0.4-3-1.1
			c-0.9-0.7-1.1-1.4-0.8-2.1c0.3-0.7,0.7-1.2,1.2-1.6c0.5-0.4,1.5-0.8,2.8-1.1c-4.2-8.8-11.6-24-22.1-45.4
			c-0.2,19.6-0.3,33.9-0.3,43.1c1.5-0.2,2.6,0.2,3.5,1.1c1.2,1.3,1,2.6-0.5,3.7c-0.4,0.3-0.8,0.5-1.2,0.6c-0.9,0.3-2.9,0.8-6.1,1.5
			c-3.2,0.7-5.5,1.3-7.1,1.7c-1.6,0.5-2.8,0.3-3.6-0.5c-1.3-1.3-1.3-2.6-0.1-3.8c0.4-0.5,0.7-0.7,1-0.8c0.2-0.1,0.4-0.1,0.6-0.2
			L149.8,103.6z"/>
		<path id="XMLID_50_" class="st2" d="M235.9,103.6c0.2-0.1,0.2-1.6,0-4.6c-0.1-2.9-0.2-9.8-0.2-20.5c0-10.7,0.1-21.1,0.4-31.2
			c-1.2,0-2.1-0.4-2.8-1.1c-0.7-0.7-0.9-1.4-0.6-2.1c0.3-0.7,0.6-1.2,1-1.6c0.5-0.4,1.1-0.7,2-0.9c0.8-0.2,2.2-0.5,4.2-1
			c2-0.5,3.5-0.9,4.7-1.2c3.1-0.8,4.8-1.2,5.2-1.2c1.2,0.1,2.1,0.6,2.8,1.3c0.7,0.8,0.8,1.6,0.3,2.6c-0.5,0.9-1.4,1.5-2.5,1.8
			c11.4,23.1,19.9,40.5,25.6,52.4c6.2-13.3,11.8-25,16.6-34.9c4.8-9.9,7.3-15,7.3-15.1c-1,0-1.8-0.2-2.3-0.7c-0.9-0.8-1.4-1.5-1.3-2
			c0.1-0.8,0.6-1.6,1.4-2.2c0.2-0.2,0.3-0.3,0.4-0.4l0.4-0.2l7-1.6l7-1.9c0.6-0.1,1.3-0.1,2,0.2c0.7,0.2,1.3,0.7,1.8,1.4
			c0.5,0.7,0.5,1.5,0,2.3c-0.5,0.8-1.2,1.4-2,1.6c-0.8,0.2-2,0.6-3.6,1c-0.3,21.3-0.5,34.6-0.5,39.7c-0.1,9.3-0.2,15-0.3,17l2.6-0.6
			c1.6-0.4,2.8,0,3.5,1c0.7,1,0.9,1.9,0.4,2.8c-0.5,0.9-1.1,1.4-1.7,1.6c-5.3,1.4-9.8,2.5-13.5,3.3c-1.7,0.4-3,0.1-3.9-0.7
			c-0.9-0.8-1.2-1.6-0.9-2.3c0.3-0.7,0.7-1.2,1.2-1.6c0.5-0.4,1-0.7,1.7-0.8c0.7-0.1,1.7-0.4,3-0.8c0.1-15,0.3-29.7,0.5-44
			c-7.9,17-14.6,30.8-19.9,41.6c0.2-0.1,0.3-0.1,0.4-0.1c1.9-0.4,3.2-0.1,4,0.9c0.8,1,0.9,1.9,0.4,2.8c-0.5,0.9-1.1,1.3-1.6,1.5
			c-2.8,0.8-4.8,1.3-6,1.5c-1.2,0.2-2,0.5-2.4,0.8c-1.1-0.1-2.5,0.1-4.1,0.6c-1.6,0.5-2.6,0.8-2.9,0.8c-1.1,0-2.1-0.4-3-1.1
			c-0.9-0.7-1.1-1.4-0.8-2.1c0.3-0.7,0.7-1.2,1.2-1.6c0.5-0.4,1.5-0.8,2.8-1.1c-4.2-8.8-11.6-24-22.1-45.4
			c-0.2,19.6-0.3,33.9-0.3,43.1c1.5-0.2,2.6,0.2,3.5,1.1c1.2,1.3,1,2.6-0.5,3.7c-0.4,0.3-0.8,0.5-1.2,0.6c-0.9,0.3-2.9,0.8-6.1,1.5
			c-3.2,0.7-5.5,1.3-7.1,1.7c-1.6,0.5-2.8,0.3-3.6-0.5c-1.3-1.3-1.3-2.6-0.1-3.8c0.4-0.5,0.7-0.7,1-0.8c0.2-0.1,0.4-0.1,0.6-0.2
			L235.9,103.6z"/>
		<path id="XMLID_52_" class="st2" d="M327.9,40.1h0.4c2.4-0.6,4.3-1.1,5.9-1.5h0.1c1.4-0.2,2.7-0.1,4,0.4c0.3,0,0.5,0,0.5,0
			c0.2,1.6-0.3,3-1.4,4.3c-0.3,0.4-0.6,0.6-0.8,0.6c-0.8,0.2-1.7,0.5-2.8,0.7c6.3,7.6,13.5,16.2,21.5,25.5
			c7.2-8.5,13.5-15.9,18.7-22.1c-0.9-0.3-1.7-0.9-2.4-1.8c0.1-0.2,0.2-1.4,0.3-3.6c0.1-0.1,0.5-0.2,1.2-0.2h0.1
			c4.1-0.8,8.8-2,14.1-3.4c1.3-0.1,2.5,0,3.5,0.4l0.1,0.1l0.1-0.1c0.5,0.4,0.6,0.7,0.4,1c-0.1,1-0.4,1.9-0.8,2.6
			c-0.4,0.7-0.8,1.2-1.2,1.3c-1.3,0.4-2.9,0.8-4.8,1.2c-6.3,8.1-14.7,18.6-25.3,31.4c-0.6,0.8-1.3,1.6-2,2.2v19.3
			c0.8-0.2,1.5-0.3,1.9-0.4c0.4-0.1,0.8-0.2,1.1-0.2c1.4-0.1,2.5,0.6,3.3,2.2c0.6,1,0.6,2,0.1,2.8c-0.5,0.2-1.1,0.4-1.9,0.4
			c-1.4,0.3-3.7,0.8-6.8,1.6c-3.1,0.7-5.6,1.3-7.5,1.7c-1.6,0.1-3,0-4.1-0.4c-0.8-0.8-0.9-1.5-0.4-2.3c0.5-1.5,1.2-2.4,1.9-2.7
			c1.2-0.2,2.7-0.6,4.3-1v-20c-3.1-3.9-7.6-9.6-13.4-17c-8.3-9.8-12.6-14.9-12.9-15.5c-0.4-0.6-0.6-1.1-0.7-1.4
			c-0.1,0.3-0.1,0.6-0.2,0.9c-1.2,0.1-2.3-0.5-3-1.7c-0.8-0.9-1-1.9-0.7-2.8c0.5-0.5,1.2-0.9,2-1h0.1
			C321.4,41.8,323.9,41.1,327.9,40.1z"/>
	</g>
	<g id="XMLID_3_">
		<path id="XMLID_54_" class="st2" d="M606,47.4c-5.5,0.1-9.3,0.1-11.7,0.1c-2.3,0-3.8,0-4.4-0.1c-1,1.6-1.7,2.8-2.2,3.6
			c-0.9,1.4-2.2,1.7-4,0.9c-0.8-0.4-1.2-1-1.3-1.7c-0.1-0.7-0.1-1.3,0-1.6c0.7-1.3,2-3.5,3.9-6.7c0.7-0.2,1.5-0.5,2.5-0.8
			c1-0.3,1.6-0.3,1.7-0.2c0.1,0.1,0.2,0.2,0.3,0.3c0.3,0.2,0.6,0.6,1,1C604,42,614.4,42,623.1,42c8.7,0,13.3,0,13.6,0
			c0.9-1.4,2.3-1.7,4.1-1c0.5,0.2,0.9,0.7,1.2,1.2c0.5,0.7,0.5,1.3,0.2,1.9c-0.3,0.5-0.7,1.2-1.2,2c-0.5,0.8-0.9,1.4-1.1,1.8
			c-0.2,0.4-0.5,0.9-0.8,1.3c-0.5,0.8-0.9,1.3-1,1.4c-2.2,0.7-3.5,1-3.9,0.8c-0.4-0.1-0.8-0.6-1.2-1.2c-0.4-0.7-0.5-1.3-0.2-1.7
			c0.2-0.5,0.5-0.9,0.8-1.4c-3.4,0-7.9,0-13.5,0c-0.2,25.4-0.4,42.6-0.4,51.4c2.1,0.4,3.3,0.8,3.7,1.2c1.1,1.2,0.9,2.3-0.7,3.5
			c-0.5,0.4-5.8,1.6-15.8,3.7c-1.6,0.4-2.9,0.2-4-0.7c-1-0.9-1.4-1.6-1.1-2.3c0.6-1.2,1.4-2,2.4-2.1c0.5-0.1,1-0.2,1.6-0.4
			C605.5,89.3,605.6,71.3,606,47.4z"/>
		<path id="XMLID_56_" class="st2" d="M664.8,76.7c0,7.8,0,14.9,0,21.5v0.2c1.6-0.4,2.9-0.1,3.8,0.9c0.9,0.9,1.2,1.7,0.8,2.4
			c-0.7,1.1-1.6,1.8-2.7,2.1c-1.2,0.3-3.3,0.8-6.4,1.5c-3.1,0.7-5.4,1.3-7,1.7c-1.8,0.5-3.2,0.1-4.1-1c-0.9-1.2-0.7-2.3,0.6-3.3
			c0.4-0.4,0.7-0.6,0.9-0.7c0.2,0,0.4-0.1,0.6-0.1c0.2-0.1,0.4-0.1,0.6-0.1c-0.3-11.9-0.2-29.3,0.2-52.2c-0.5,0.1-0.8,0.1-1,0.1
			c-0.2,0-0.3,0-0.4,0c-0.1,0-0.4,0-0.7,0c-0.4-0.1-0.7-0.1-0.9-0.3c-0.7-0.4-1-1-1-2V47l0.1-0.4c0.4-1.1,1.3-1.7,2.7-1.9
			c0.1-0.1,0.5-0.2,1.2-0.4c14.1-4.6,27.7-4.7,40.9-0.5c5.1,1.6,9.1,3.8,12.1,6.7c1.9,1.9,3.1,4.3,3.5,7.2c0.4,2.9,0.1,5.6-1.1,8.2
			c-2,4.5-6.3,7.6-13.1,9.3c-2.6,0.7-5.5,1.3-8.5,1.8c3.9,4.3,10.9,11.9,21.1,22.9c1.6-0.4,3-0.7,4.3-1c1.3-0.3,2.4,0.1,3.3,1.1
			c0.6,0.9,0.7,1.8,0.2,2.6c-0.5,0.8-1.2,1.3-2.1,1.5c-2.1,0.5-6.5,1.6-13.2,3.2c-1.6,0.5-3,0.2-4.2-0.9c-0.8-0.9-1-1.9-0.4-2.8
			c0.6-0.9,1.2-1.4,2-1.6c0.8-0.2,1.7-0.4,2.7-0.7c-13.9-15.9-20.9-24.1-21.2-24.5c-0.2-0.4-0.4-0.7-0.5-0.8
			C672.1,76.5,667.8,76.7,664.8,76.7z M700.6,56.1c-1.5-6.6-8-10.5-19.4-11.6c-5.2-0.5-10.5-0.3-16,0.5c-0.2,14.7-0.3,24.2-0.3,28.5
			c1.8-0.1,3-0.1,3.5-0.1c0.5,0,1.5-0.1,3-0.1c1.5-0.1,2.6-0.1,3.4-0.2c0.8-0.1,1.9-0.2,3.3-0.3c4-0.4,7.1-0.8,9.3-1.3
			c2.2-0.5,4-1.1,5.2-1.6c4.4-1.8,7.1-4.7,7.9-8.6C701,59.3,701,57.6,700.6,56.1z"/>
		<path id="XMLID_59_" class="st2" d="M723.1,106.5c-0.7,0.2-1.4,0.4-2,0.6c-1.5,0.1-2.8,0-3.9-0.4c-1.2-1.5-0.9-3,1-4.3
			c0.2-0.3,0.3-0.5,0.4-0.5c0.6-0.2,1.2-0.4,1.9-0.5c-0.2-11.7-0.2-28.8,0.2-51.3c-1.3,0.3-2.4-0.3-3.3-1.7c-1.1-1.1-1-2.3,0.4-3.6
			c1.8-0.4,3.6-0.9,5.4-1.3c0.7-0.4,1.5-0.5,2.2-0.4L729,42c0.7-0.1,1.2-0.2,1.8-0.4c2-0.5,3.7-0.5,5,0.2c0.7,0.6,0.8,1.2,0.4,1.7
			c-0.3,0.9-0.7,1.6-1.1,2.1c-0.4,0.5-0.7,0.8-0.9,0.9l-1.2,0.4c-0.2,25.3-0.4,42.4-0.4,51.4c1.2-0.1,2.2,0.6,3,2.2
			c0.7,1.7,0.8,2.6,0.2,2.8c-0.3,0.1-0.6,0.1-0.8,0.3c-0.3,0.1-0.5,0.2-0.6,0.3l-0.2-0.2c-0.9,0.3-2.2,0.7-4,1.1
			c-0.9,0.9-2,1.2-3.1,0.8c-0.9,0.2-1.6,0.4-2,0.6C724.4,106.4,723.7,106.5,723.1,106.5z"/>
		<path id="XMLID_61_" class="st2" d="M758.7,41.3h0.4c6.8-1.2,13.1-1.5,19-0.8c5.8,0.7,10.8,2.1,14.9,4.4c4.5,2.8,7.4,6.4,8.8,10.8
			c0.7,2.3,0.9,4.7,0.6,7.3c-0.3,2.6-1.1,4.7-2.2,6.3c-1.9,2.8-4.4,4.9-7.5,6.4c-5.5,2.4-15.9,4-31,4.7h-0.1l-1.6,0.1
			c-0.4,0-0.8,0-1.2,0c-0.1,6.5-0.1,12.6-0.1,18.3v0.2c1.7-0.4,3-0.1,3.9,0.8c0.9,0.9,1.2,1.6,0.8,2.2c-0.7,1-1.5,1.7-2.7,2
			c-7.2,1.6-11.7,2.6-13.4,3.1c-1.9,0.5-3.3,0.1-4.3-1c-0.9-1.2-0.8-2.3,0.5-3.3c0.5-0.4,0.8-0.6,1-0.7c0.2,0,0.4-0.1,0.6-0.1
			c0.2-0.1,0.4-0.1,0.5-0.1c-0.2-11.8-0.2-29.1,0.2-52c-1.2,0.1-2.2-0.3-2.9-1c-1.4-1.3-1.1-2.6,0.7-3.8c0.3-0.2,0.8-0.3,1.6-0.5
			c0.7-0.1,1.6-0.3,2.6-0.6c1.4-0.4,3-0.8,5-1.2C753.1,42.5,755.1,42.1,758.7,41.3z M783.8,45c-7.1-2-14.5-2.2-22.3-0.7
			c-0.2,0.1-0.4,0.1-0.6,0.2l-1.7,0.4c-0.2,15.6-0.3,25.6-0.3,30.2c1.5-0.1,2.5-0.1,3-0.1c0.5,0,1.3-0.1,2.4-0.1
			c1.8-0.1,3-0.1,3.8-0.2c0.7-0.1,1.8-0.2,3.1-0.3c1.3-0.1,2.3-0.2,3-0.3c1.2-0.2,2.4-0.4,3.6-0.5c1.2-0.2,2.3-0.4,3.5-0.5
			c4.2-0.8,7.6-2.3,10.1-4.4c2.8-2.6,4-6.3,3.7-10.9c-0.2-2.4-0.9-4.6-2.3-6.6C790.7,48,787.7,46,783.8,45z"/>
	</g>
</g>
</svg>
